<?xml version="1.0" encoding="UTF-8" standalone="no"?>
<svg
   viewBox="0 0 600 60"
   height="60"
   width="600"
   id="svg4225"
   version="1.1"
   inkscape:version="1.1 (c68e22c387, 2021-05-23)"
   sodipodi:docname="spritesheet-long.svg"
   inkscape:export-filename="/home/fpuga/development/upstream/icarto.Leaflet.draw/src/images/spritesheet-2x.png"
   inkscape:export-xdpi="90"
   inkscape:export-ydpi="90"
   xmlns:inkscape="http://www.inkscape.org/namespaces/inkscape"
   xmlns:sodipodi="http://sodipodi.sourceforge.net/DTD/sodipodi-0.dtd"
   xmlns="http://www.w3.org/2000/svg"
   xmlns:svg="http://www.w3.org/2000/svg"
   xmlns:rdf="http://www.w3.org/1999/02/22-rdf-syntax-ns#"
   xmlns:cc="http://creativecommons.org/ns#"
   xmlns:dc="http://purl.org/dc/elements/1.1/">
  <metadata
     id="metadata4258">
    <rdf:RDF>
      <cc:Work
         rdf:about="">
        <dc:format>image/svg+xml</dc:format>
        <dc:type
           rdf:resource="http://purl.org/dc/dcmitype/StillImage" />
      </cc:Work>
    </rdf:RDF>
  </metadata>
  <defs
     id="defs4256" />
  <sodipodi:namedview
     pagecolor="#ffffff"
     bordercolor="#666666"
     borderopacity="1"
     objecttolerance="10"
     gridtolerance="10"
     guidetolerance="10"
     inkscape:pageopacity="0"
     inkscape:pageshadow="2"
     inkscape:window-width="1920"
     inkscape:window-height="1015"
     id="namedview4254"
     showgrid="false"
     inkscape:zoom="1.3101852"
     inkscape:cx="255.68904"
     inkscape:cy="7.2508833"
     inkscape:window-x="0"
     inkscape:window-y="0"
     inkscape:window-maximized="1"
     inkscape:current-layer="svg4225"
     inkscape:pagecheckerboard="0"
     width="599px" />
  <g
     id="polyline"
     style="fill:#464646;fill-opacity:1">
    <path
       d="m 18,36 v 6 h 6 v -6 z m 4,4 h -2 v -2 h 2 z"
       id="path4229"
       inkscape:connector-curvature="0"
       style="fill:#464646;fill-opacity:1" />
    <path
       d="m 36,18 v 6 h 6 v -6 z m 4,4 h -2 v -2 h 2 z"
       id="path4231"
       inkscape:connector-curvature="0"
       style="fill:#464646;fill-opacity:1" />
    <path
       d="m 23.142,39.145 -2.285,-2.29 16,-15.998 2.285,2.285 z"
       id="path4233"
       inkscape:connector-curvature="0"
       style="fill:#464646;fill-opacity:1" />
  </g>
  <path
     id="polygon"
     d="M 100,24.565 97.904,39.395 83.07,42 76,28.773 86.463,18 Z"
     inkscape:connector-curvature="0"
     style="fill:#464646;fill-opacity:1" />
  <path
     id="rectangle"
     d="m 140,20 h 20 v 20 h -20 z"
     inkscape:connector-curvature="0"
     style="fill:#464646;fill-opacity:1" />
  <path
     id="circle"
     d="m 221,30 c 0,6.078 -4.926,11 -11,11 -6.074,0 -11,-4.922 -11,-11 0,-6.074 4.926,-11 11,-11 6.074,0 11,4.926 11,11 z"
     inkscape:connector-curvature="0"
     style="fill:#464646;fill-opacity:1" />
  <path
     id="marker"
     d="m 270,19 c -4.971,0 -9,4.029 -9,9 0,4.971 5.001,12 9,14 4.001,-2 9,-9.029 9,-14 0,-4.971 -4.029,-9 -9,-9 z m 0,12.5 c -2.484,0 -4.5,-2.014 -4.5,-4.5 0,-2.484 2.016,-4.5 4.5,-4.5 2.485,0 4.5,2.016 4.5,4.5 0,2.486 -2.015,4.5 -4.5,4.5 z"
     inkscape:connector-curvature="0"
     style="fill:#464646;fill-opacity:1" />
  <g
     id="disabled"
     transform="translate(120,0)"
     style="fill:#bbbbbb">
    <g
       id="edit-disabled"
       style="fill:#464646;fill-opacity:1">
      <path
         d="m 337,30.156 v 0.407 5.604 c 0,1.658 -1.344,3 -3,3 h -10 c -1.655,0 -3,-1.342 -3,-3 v -10 c 0,-1.657 1.345,-3 3,-3 h 6.345 l 3.19,-3.17 H 324 c -3.313,0 -6,2.687 -6,6 v 10 c 0,3.313 2.687,6 6,6 h 10 c 3.314,0 6,-2.687 6,-6 v -8.809 l -3,2.968"
         id="path270"
         inkscape:connector-curvature="0"
         style="fill:#464646;fill-opacity:1" />
      <path
         d="m 338.72,24.637 -8.892,8.892 H 327 V 30.7 l 8.89,-8.89 z"
         id="path272"
         inkscape:connector-curvature="0"
         style="fill:#464646;fill-opacity:1" />
      <path
         d="m 338.697,17.826 h 4 v 4 h -4 z"
         transform="rotate(-134.99,340.703,19.816999)"
         id="path274"
         inkscape:connector-curvature="0"
         style="fill:#464646;fill-opacity:1" />
    </g>
    <g
       id="remove-disabled"
       style="fill:#464646;fill-opacity:1">
      <path
         d="m 381,42 h 18 V 24 h -18 z m 14,-16 h 2 v 14 h -2 z m -4,0 h 2 v 14 h -2 z m -4,0 h 2 v 14 h -2 z m -4,0 h 2 v 14 h -2 z"
         id="path184"
         inkscape:connector-curvature="0"
         style="fill:#464646;fill-opacity:1" />
      <path
         d="m 395,20 v -4 h -10 v 4 h -6 v 2 h 22 v -2 z m -2,0 h -6 v -2 h 6 z"
         id="path186"
         inkscape:connector-curvature="0"
         style="fill:#464646;fill-opacity:1" />
    </g>
  </g>
  <path
     style="fill:none;stroke:#464646;stroke-width:2;stroke-miterlimit:4;stroke-dasharray:none;stroke-opacity:1"
     id="circle-3"
     d="m 337,30.156 c 0,6.078 -4.926,11 -11,11 -6.074,0 -11,-4.922 -11,-11 0,-6.074 4.926,-11 11,-11 6.074,0 11,4.926 11,11 z"
     inkscape:connector-curvature="0" />
</svg>
