<?xml version="1.0" encoding="UTF-8" ?>
<!DOCTYPE svg PUBLIC "-//W3C//DTD SVG 1.1//EN" "http://www.w3.org/Graphics/SVG/1.1/DTD/svg11.dtd">
<svg width="1739pt" height="521pt" viewBox="0 0 1739 521" version="1.1" xmlns="http://www.w3.org/2000/svg">
<g id="#ffffffff">
<path fill="#ffffff" opacity="1.00" d=" M 224.20 173.23 C 245.19 167.60 268.28 170.25 287.43 180.56 C 306.40 190.60 321.43 207.84 328.63 228.08 C 333.81 242.05 334.87 257.33 332.72 272.02 C 329.45 291.19 319.80 309.27 305.35 322.33 C 291.33 335.18 272.99 343.33 254.01 344.82 C 233.58 346.79 212.56 341.02 195.86 329.11 C 181.25 318.83 169.90 303.93 164.04 287.04 C 162.66 283.52 163.89 279.15 167.00 276.97 C 171.23 273.53 178.48 275.46 180.28 280.69 C 185.01 293.95 193.59 305.88 205.03 314.15 C 217.08 323.01 232.02 327.89 246.99 327.67 C 264.51 327.63 281.88 320.62 294.54 308.51 C 304.55 299.06 311.67 286.55 314.64 273.11 C 318.28 257.69 316.16 241.09 309.16 226.91 C 302.11 212.39 289.76 200.55 275.03 193.97 C 257.87 186.16 237.51 185.83 220.11 193.06 C 210.02 197.16 201.13 203.85 193.95 212.00 C 198.95 217.00 204.72 221.20 209.57 226.34 C 214.08 231.42 209.68 240.34 203.00 240.18 C 189.68 240.31 176.35 240.28 163.03 240.19 C 158.17 240.36 154.24 235.78 154.48 231.07 C 154.49 219.43 154.41 207.78 154.52 196.13 C 154.58 189.78 162.60 185.44 167.85 189.17 C 172.39 192.73 176.53 196.78 180.85 200.61 C 192.14 187.42 207.39 177.62 224.20 173.23 Z" />
<path fill="#ffffff" opacity="1.00" d=" M 596.19 179.31 C 631.46 179.05 666.75 179.28 702.03 179.20 C 708.14 178.35 713.32 185.42 710.79 191.00 C 709.38 194.45 705.80 196.91 702.03 196.58 C 667.32 196.57 632.62 196.60 597.91 196.57 C 593.30 196.87 588.87 192.68 589.08 188.03 C 588.75 183.88 592.02 179.71 596.19 179.31 Z" />
<path fill="#ffffff" opacity="1.00" d=" M 1405.17 179.31 C 1417.79 179.07 1430.41 179.25 1443.03 179.21 C 1448.52 178.75 1453.00 184.74 1451.54 189.93 C 1450.57 193.68 1446.98 196.76 1443.03 196.57 C 1431.36 196.63 1419.70 196.54 1408.04 196.60 C 1403.08 196.31 1398.90 201.13 1399.28 205.96 C 1399.30 240.67 1399.28 275.38 1399.30 310.09 C 1399.15 314.68 1403.20 319.17 1407.94 318.81 C 1442.99 318.84 1478.06 318.84 1513.11 318.81 C 1517.89 319.18 1521.84 314.70 1521.70 310.07 C 1521.78 298.40 1521.61 286.72 1521.76 275.05 C 1521.67 270.19 1526.20 266.09 1531.02 266.58 C 1535.80 266.70 1539.61 271.35 1539.28 276.01 C 1539.24 287.66 1539.28 299.30 1539.26 310.95 C 1539.03 324.26 1527.44 336.28 1514.01 336.38 C 1478.34 336.44 1442.66 336.45 1406.99 336.38 C 1393.60 336.25 1381.97 324.27 1381.74 310.98 C 1381.73 277.00 1381.75 243.01 1381.73 209.03 C 1381.58 204.78 1381.75 200.46 1383.38 196.48 C 1386.58 187.27 1395.40 180.11 1405.17 179.31 Z" />
<path fill="#ffffff" opacity="1.00" d=" M 1479.38 193.62 C 1474.92 188.83 1478.49 179.92 1485.03 179.59 C 1501.02 179.43 1517.02 179.58 1533.02 179.51 C 1537.54 179.91 1539.22 185.17 1539.25 189.06 C 1539.23 203.70 1539.36 218.34 1539.18 232.98 C 1538.56 239.35 1530.26 243.18 1525.22 238.98 C 1519.41 233.73 1513.90 228.16 1508.17 222.83 C 1494.25 236.67 1480.39 250.58 1466.51 264.46 C 1463.88 267.38 1459.24 268.24 1455.86 266.19 C 1450.70 263.63 1449.78 255.90 1454.02 252.07 C 1467.88 238.13 1481.66 224.10 1495.48 210.12 C 1490.09 204.64 1484.64 199.22 1479.38 193.62 Z" />
<path fill="#ffffff" opacity="1.00" d=" M 1070.25 197.24 C 1075.59 194.69 1082.53 199.10 1082.34 205.08 C 1082.42 243.06 1082.40 281.04 1082.35 319.02 C 1082.53 323.93 1077.94 328.18 1073.06 327.65 C 1068.19 327.52 1064.48 322.67 1064.80 317.99 C 1064.81 281.32 1064.83 244.64 1064.79 207.97 C 1064.30 203.73 1066.09 198.97 1070.25 197.24 Z" />
<path fill="#ffffff" opacity="1.00" d=" M 235.36 222.91 C 235.07 217.29 241.40 212.31 246.72 214.42 C 250.31 215.55 253.04 219.07 252.78 222.90 C 252.79 232.99 252.83 243.09 252.74 253.19 C 261.78 260.19 271.01 266.95 280.14 273.84 C 282.89 275.98 286.39 277.81 287.46 281.39 C 289.41 286.75 284.66 293.16 278.94 292.73 C 276.61 292.92 274.62 291.58 272.85 290.26 C 261.58 281.76 250.26 273.34 238.98 264.86 C 236.54 263.07 235.10 260.06 235.33 257.03 C 235.37 245.65 235.32 234.28 235.36 222.91 Z" />
<path fill="#ffffff" opacity="1.00" d=" M 643.77 216.78 C 647.08 213.32 653.01 213.19 656.37 216.65 C 664.91 225.09 673.33 233.65 681.86 242.09 C 684.59 244.53 686.09 248.65 684.47 252.13 C 683.28 255.61 679.66 257.75 676.09 257.85 C 670.33 257.95 664.57 257.82 658.81 257.88 C 658.72 266.91 658.92 275.94 658.73 284.97 C 658.67 288.46 655.80 291.31 652.67 292.43 C 647.35 294.17 641.27 289.68 641.42 284.10 C 641.35 275.36 641.45 266.62 641.39 257.88 C 635.57 257.81 629.75 257.97 623.94 257.84 C 619.39 257.68 614.97 253.80 615.30 249.03 C 615.05 246.40 616.39 244.01 618.27 242.27 C 626.78 233.79 635.24 225.25 643.77 216.78 Z" />
<path fill="#ffffff" opacity="1.00" d=" M 1000.21 232.32 C 1005.52 229.57 1012.47 234.06 1012.48 239.94 C 1012.55 266.29 1012.51 292.64 1012.50 318.98 C 1012.62 324.25 1007.27 328.72 1002.09 327.52 C 998.09 326.90 994.86 323.07 995.12 318.99 C 995.11 292.67 995.08 266.34 995.13 240.02 C 994.96 236.69 997.22 233.61 1000.21 232.32 Z" />
<path fill="#ffffff" opacity="1.00" d=" M 1105.32 258.42 C 1111.49 255.79 1118.49 261.48 1117.45 268.01 C 1117.39 285.02 1117.47 302.02 1117.41 319.03 C 1117.49 323.53 1113.50 327.69 1108.96 327.67 C 1104.26 328.00 1099.66 323.89 1100.10 319.06 C 1100.09 301.37 1100.05 283.68 1100.12 265.99 C 1099.94 262.66 1102.30 259.59 1105.32 258.42 Z" />
<path fill="#ffffff" opacity="1.00" d=" M 1035.43 284.59 C 1040.62 282.51 1047.17 286.24 1047.38 291.94 C 1047.53 300.64 1047.38 309.34 1047.45 318.04 C 1047.55 320.33 1047.08 322.71 1045.50 324.46 C 1042.23 328.79 1034.84 328.72 1031.75 324.23 C 1029.67 321.98 1030.16 318.76 1030.12 315.96 C 1030.03 307.63 1029.87 299.28 1030.19 290.96 C 1030.62 288.11 1032.84 285.72 1035.43 284.59 Z" />
<path fill="#ffffff" opacity="1.00" d=" M 571.50 301.07 C 571.65 295.86 576.94 291.66 582.05 292.85 C 585.80 293.72 588.71 297.12 588.94 300.97 C 589.37 306.93 588.79 312.90 589.07 318.86 C 629.84 318.84 670.61 318.82 711.38 318.87 C 711.49 312.69 711.24 306.51 711.49 300.34 C 711.88 293.90 720.62 290.20 725.46 294.60 C 730.17 297.90 728.49 304.12 728.76 308.98 C 728.38 314.97 729.97 321.46 726.89 326.96 C 723.98 332.81 717.58 336.59 711.05 336.41 C 670.38 336.41 629.71 336.42 589.04 336.40 C 580.34 336.68 572.39 329.53 571.61 320.90 C 571.26 314.30 571.45 307.67 571.50 301.07 Z" />
</g>
<g id="#3ad1e4ff">
<path fill="#3ad1e4" opacity="1.00" d=" M 627.42 34.70 C 639.25 33.40 651.17 33.98 663.04 33.97 C 704.41 36.21 745.04 50.32 779.00 74.02 C 809.88 95.26 835.09 124.51 852.03 157.90 C 867.54 188.49 876.05 222.71 876.20 257.02 C 888.91 257.15 901.62 256.95 914.32 257.12 C 913.88 258.05 913.32 258.89 912.64 259.64 C 901.34 270.74 890.14 281.94 878.95 293.16 C 870.61 301.19 862.74 309.70 854.21 317.52 C 846.92 310.54 840.07 303.10 832.55 296.36 C 819.94 283.15 806.65 270.59 793.95 257.47 C 804.31 257.53 814.68 257.44 825.04 257.52 C 826.72 257.56 828.40 257.37 830.06 257.02 C 829.32 239.04 826.73 221.04 820.96 203.95 C 808.85 166.82 784.19 134.01 752.08 111.84 C 726.16 93.74 695.31 83.19 663.89 80.45 C 622.89 77.46 580.91 88.63 547.19 112.26 C 508.83 138.83 481.25 180.73 472.93 226.74 C 483.54 237.24 494.06 247.82 504.60 258.38 C 505.63 259.45 506.97 260.11 508.26 260.82 C 495.51 260.82 482.76 260.81 470.00 260.83 C 469.67 302.41 457.25 343.79 434.88 378.82 C 415.61 409.21 389.09 434.91 358.05 453.11 C 342.86 462.22 326.39 468.99 309.57 474.42 C 291.88 479.99 273.43 482.89 254.95 483.98 C 245.96 483.86 236.96 484.29 227.99 483.65 C 161.73 479.74 98.30 444.16 59.86 390.14 C 31.88 351.82 16.80 304.43 17.00 257.02 C 32.56 257.01 48.11 257.05 63.66 257.00 C 63.05 278.54 67.19 300.15 74.64 320.35 C 89.89 361.85 121.08 397.25 160.39 417.50 C 173.31 423.69 186.61 429.40 200.64 432.53 C 243.73 443.26 290.79 437.19 329.68 415.71 C 361.71 398.36 388.06 370.90 404.55 338.45 C 416.61 314.23 423.62 287.26 423.51 260.15 C 410.96 260.34 398.41 260.26 385.85 260.19 C 399.21 246.51 412.94 233.19 426.41 219.63 C 427.25 218.70 427.26 217.36 427.59 216.22 C 437.07 167.76 463.07 122.72 500.24 90.21 C 519.20 73.08 541.48 59.94 564.96 50.04 C 584.99 42.28 605.96 36.47 627.42 34.70 Z" />
<path fill="#3ad1e4" opacity="1.00" d=" M 230.12 137.24 C 244.10 136.63 258.36 136.19 272.02 139.77 C 297.88 145.48 321.31 160.40 338.38 180.52 C 357.06 202.78 368.07 231.83 367.25 261.01 C 367.87 295.97 351.59 330.45 325.28 353.26 C 307.17 369.40 284.10 379.96 260.00 382.91 C 230.92 386.90 200.51 380.03 176.00 363.85 C 149.88 346.77 130.47 319.43 123.43 288.97 C 115.63 257.45 121.34 222.98 138.44 195.44 C 157.86 163.28 192.70 141.03 230.12 137.24 M 224.20 173.23 C 207.39 177.62 192.14 187.42 180.85 200.61 C 176.53 196.78 172.39 192.73 167.85 189.17 C 162.60 185.44 154.58 189.78 154.52 196.13 C 154.41 207.78 154.49 219.43 154.48 231.07 C 154.24 235.78 158.17 240.36 163.03 240.19 C 176.35 240.28 189.68 240.31 203.00 240.18 C 209.68 240.34 214.08 231.42 209.57 226.34 C 204.72 221.20 198.95 217.00 193.95 212.00 C 201.13 203.85 210.02 197.16 220.11 193.06 C 237.51 185.83 257.87 186.16 275.03 193.97 C 289.76 200.55 302.11 212.39 309.16 226.91 C 316.16 241.09 318.28 257.69 314.64 273.11 C 311.67 286.55 304.55 299.06 294.54 308.51 C 281.88 320.62 264.51 327.63 246.99 327.67 C 232.02 327.89 217.08 323.01 205.03 314.15 C 193.59 305.88 185.01 293.95 180.28 280.69 C 178.48 275.46 171.23 273.53 167.00 276.97 C 163.89 279.15 162.66 283.52 164.04 287.04 C 169.90 303.93 181.25 318.83 195.86 329.11 C 212.56 341.02 233.58 346.79 254.01 344.82 C 272.99 343.33 291.33 335.18 305.35 322.33 C 319.80 309.27 329.45 291.19 332.72 272.02 C 334.87 257.33 333.81 242.05 328.63 228.08 C 321.43 207.84 306.40 190.60 287.43 180.56 C 268.28 170.25 245.19 167.60 224.20 173.23 M 235.36 222.91 C 235.32 234.28 235.37 245.65 235.33 257.03 C 235.10 260.06 236.54 263.07 238.98 264.86 C 250.26 273.34 261.58 281.76 272.85 290.26 C 274.62 291.58 276.61 292.92 278.94 292.73 C 284.66 293.16 289.41 286.75 287.46 281.39 C 286.39 277.81 282.89 275.98 280.14 273.84 C 271.01 266.95 261.78 260.19 252.74 253.19 C 252.83 243.09 252.79 232.99 252.78 222.90 C 253.04 219.07 250.31 215.55 246.72 214.42 C 241.40 212.31 235.07 217.29 235.36 222.91 Z" />
<path fill="#3ad1e4" opacity="1.00" d=" M 632.53 137.72 C 641.25 136.35 650.13 137.05 658.93 136.96 C 694.25 138.88 727.83 157.83 748.84 186.12 C 762.35 203.99 770.70 225.69 772.97 247.96 C 773.44 262.01 773.85 276.34 769.94 290.00 C 762.15 322.63 740.05 351.31 710.97 367.85 C 680.95 385.37 643.41 388.77 610.55 377.68 C 575.97 366.29 547.21 338.66 534.25 304.66 C 526.28 283.89 523.89 260.94 527.86 239.02 C 532.57 212.65 545.81 187.74 565.64 169.65 C 583.86 152.36 607.62 140.99 632.53 137.72 M 596.19 179.31 C 592.02 179.71 588.75 183.88 589.08 188.03 C 588.87 192.68 593.30 196.87 597.91 196.57 C 632.62 196.60 667.32 196.57 702.03 196.58 C 705.80 196.91 709.38 194.45 710.79 191.00 C 713.32 185.42 708.14 178.35 702.03 179.20 C 666.75 179.28 631.46 179.05 596.19 179.31 M 643.77 216.78 C 635.24 225.25 626.78 233.79 618.27 242.27 C 616.39 244.01 615.05 246.40 615.30 249.03 C 614.97 253.80 619.39 257.68 623.94 257.84 C 629.75 257.97 635.57 257.81 641.39 257.88 C 641.45 266.62 641.35 275.36 641.42 284.10 C 641.27 289.68 647.35 294.17 652.67 292.43 C 655.80 291.31 658.67 288.46 658.73 284.97 C 658.92 275.94 658.72 266.91 658.81 257.88 C 664.57 257.82 670.33 257.95 676.09 257.85 C 679.66 257.75 683.28 255.61 684.47 252.13 C 686.09 248.65 684.59 244.53 681.86 242.09 C 673.33 233.65 664.91 225.09 656.37 216.65 C 653.01 213.19 647.08 213.32 643.77 216.78 M 571.50 301.07 C 571.45 307.67 571.26 314.30 571.61 320.90 C 572.39 329.53 580.34 336.68 589.04 336.40 C 629.71 336.42 670.38 336.41 711.05 336.41 C 717.58 336.59 723.98 332.81 726.89 326.96 C 729.97 321.46 728.38 314.97 728.76 308.98 C 728.49 304.12 730.17 297.90 725.46 294.60 C 720.62 290.20 711.88 293.90 711.49 300.34 C 711.24 306.51 711.49 312.69 711.38 318.87 C 670.61 318.82 629.84 318.84 589.07 318.86 C 588.79 312.90 589.37 306.93 588.94 300.97 C 588.71 297.12 585.80 293.72 582.05 292.85 C 576.94 291.66 571.65 295.86 571.50 301.07 Z" />
</g>
<g id="#13538aff">
<path fill="#13538a" opacity="1.00" d=" M 1290.91 109.95 C 1330.82 64.60 1389.56 36.18 1450.01 33.92 C 1462.38 33.89 1474.80 33.49 1487.09 35.14 C 1500.46 36.27 1513.48 39.66 1526.33 43.38 C 1543.95 48.42 1560.50 56.48 1576.39 65.50 C 1612.64 87.33 1642.81 119.30 1661.93 157.10 C 1678.00 188.01 1686.11 222.73 1686.86 257.49 C 1698.24 257.50 1709.61 257.50 1720.99 257.49 C 1700.73 277.47 1680.64 297.63 1660.52 317.75 C 1640.35 297.72 1620.23 277.63 1600.16 257.51 C 1613.58 257.47 1627.00 257.52 1640.43 257.48 C 1639.77 237.45 1636.38 217.46 1629.50 198.61 C 1616.88 163.57 1592.94 132.80 1562.30 111.69 C 1527.54 87.58 1484.06 76.57 1442.01 80.99 C 1400.81 84.82 1361.42 104.03 1332.41 133.43 C 1307.56 158.28 1290.29 190.64 1283.51 225.14 C 1274.97 216.90 1266.75 208.35 1258.26 200.06 C 1252.30 205.85 1246.45 211.75 1240.63 217.66 C 1239.71 218.66 1238.53 219.29 1237.29 219.73 C 1244.55 179.14 1263.45 140.70 1290.91 109.95 Z" />
<path fill="#13538a" opacity="1.00" d=" M 1447.14 137.15 C 1458.10 136.91 1469.20 136.22 1480.06 138.11 C 1519.09 143.95 1554.10 170.32 1571.22 205.77 C 1582.33 228.32 1586.49 254.29 1582.51 279.15 C 1577.24 314.66 1555.44 347.12 1524.82 365.75 C 1487.70 389.20 1437.73 390.08 1399.68 368.24 C 1383.50 359.15 1369.41 346.33 1358.76 331.13 C 1347.01 314.69 1339.77 295.17 1337.26 275.16 C 1336.36 265.76 1336.54 256.34 1337.10 246.94 C 1339.36 226.43 1346.85 206.53 1358.59 189.57 C 1369.24 174.41 1383.23 161.57 1399.34 152.40 C 1413.98 144.08 1430.41 138.99 1447.14 137.15 M 1405.17 179.31 C 1395.40 180.11 1386.58 187.27 1383.38 196.48 C 1381.75 200.46 1381.58 204.78 1381.73 209.03 C 1381.75 243.01 1381.73 277.00 1381.74 310.98 C 1381.97 324.27 1393.60 336.25 1406.99 336.38 C 1442.66 336.45 1478.34 336.44 1514.01 336.38 C 1527.44 336.28 1539.03 324.26 1539.26 310.95 C 1539.28 299.30 1539.24 287.66 1539.28 276.01 C 1539.61 271.35 1535.80 266.70 1531.02 266.58 C 1526.20 266.09 1521.67 270.19 1521.76 275.05 C 1521.61 286.72 1521.78 298.40 1521.70 310.07 C 1521.84 314.70 1517.89 319.18 1513.11 318.81 C 1478.06 318.84 1442.99 318.84 1407.94 318.81 C 1403.20 319.17 1399.15 314.68 1399.30 310.09 C 1399.28 275.38 1399.30 240.67 1399.28 205.96 C 1398.90 201.13 1403.08 196.31 1408.04 196.60 C 1419.70 196.54 1431.36 196.63 1443.03 196.57 C 1446.98 196.76 1450.57 193.68 1451.54 189.93 C 1453.00 184.74 1448.52 178.75 1443.03 179.21 C 1430.41 179.25 1417.79 179.07 1405.17 179.31 M 1479.38 193.62 C 1484.64 199.22 1490.09 204.64 1495.48 210.12 C 1481.66 224.10 1467.88 238.13 1454.02 252.07 C 1449.78 255.90 1450.70 263.63 1455.86 266.19 C 1459.24 268.24 1463.88 267.38 1466.51 264.46 C 1480.39 250.58 1494.25 236.67 1508.17 222.83 C 1513.90 228.16 1519.41 233.73 1525.22 238.98 C 1530.26 243.18 1538.56 239.35 1539.18 232.98 C 1539.36 218.34 1539.23 203.70 1539.25 189.06 C 1539.22 185.17 1537.54 179.91 1533.02 179.51 C 1517.02 179.58 1501.02 179.43 1485.03 179.59 C 1478.49 179.92 1474.92 188.83 1479.38 193.62 Z" />
</g>
<g id="#000000ff">
<path fill="#000000" opacity="1.00" d=" M 108.44 70.90 C 108.52 60.44 108.45 49.98 108.47 39.52 C 116.92 39.54 125.36 39.54 133.81 39.51 C 133.81 49.98 133.75 60.46 133.84 70.93 C 131.66 70.90 129.48 70.90 127.31 70.91 C 127.40 62.23 127.32 53.55 127.36 44.87 C 123.19 44.91 119.03 44.90 114.87 44.88 C 114.91 53.57 114.82 62.25 114.92 70.94 C 112.76 70.91 110.60 70.90 108.44 70.90 Z" />
<path fill="#000000" opacity="1.00" d=" M 148.21 47.09 C 152.14 46.09 156.87 46.15 160.16 48.82 C 163.83 51.98 164.16 57.28 163.75 61.77 C 163.44 65.79 161.02 69.94 156.94 71.04 C 152.53 72.17 146.94 71.94 143.80 68.20 C 140.98 64.80 140.96 60.04 141.42 55.87 C 141.82 52.00 144.26 48.08 148.21 47.09 M 149.32 52.44 C 146.52 54.91 147.04 59.27 147.47 62.61 C 147.95 67.50 155.96 68.13 157.36 63.55 C 158.14 60.61 158.15 57.41 157.32 54.48 C 156.27 51.28 151.84 50.70 149.32 52.44 Z" />
<path fill="#000000" opacity="1.00" d=" M 175.33 47.18 C 180.73 47.22 186.14 47.20 191.55 47.20 C 191.49 53.73 191.55 60.26 191.52 66.79 C 192.34 66.78 193.99 66.77 194.82 66.77 C 194.82 70.15 194.81 73.53 194.86 76.91 C 193.02 76.89 191.18 76.88 189.34 76.88 C 189.36 74.88 189.38 72.88 189.39 70.87 C 184.33 70.93 179.27 70.90 174.21 70.89 C 174.21 72.89 174.22 74.88 174.23 76.88 C 172.37 76.88 170.52 76.88 168.67 76.88 C 168.69 73.53 168.69 70.18 168.69 66.82 C 169.37 66.79 170.74 66.73 171.43 66.70 C 174.27 60.61 175.37 53.86 175.33 47.18 M 176.73 66.68 C 179.74 66.63 182.76 66.64 185.77 66.65 C 185.73 61.55 185.87 56.44 185.68 51.33 C 184.00 51.39 182.31 51.42 180.63 51.45 C 180.22 56.69 179.21 61.99 176.73 66.68 Z" />
<path fill="#000000" opacity="1.00" d=" M 200.28 47.18 C 205.88 47.23 211.49 47.19 217.10 47.20 C 217.10 48.61 217.10 50.02 217.10 51.42 C 213.45 51.43 209.80 51.45 206.15 51.37 C 205.98 57.89 205.95 64.41 205.95 70.94 C 204.05 70.91 202.16 70.91 200.26 70.91 C 200.34 63.00 200.32 55.09 200.28 47.18 Z" />
<path fill="#000000" opacity="1.00" d=" M 227.32 47.51 C 231.23 46.04 236.01 46.01 239.65 48.26 C 243.41 50.77 244.28 55.70 244.19 59.91 C 244.05 63.99 242.58 68.71 238.54 70.51 C 234.60 72.17 229.76 72.08 226.01 69.96 C 222.09 67.47 221.21 62.37 221.44 58.06 C 221.53 53.94 223.17 49.15 227.32 47.51 M 230.16 52.07 C 226.55 54.32 227.22 59.46 227.81 63.07 C 228.69 67.53 236.17 67.96 237.55 63.66 C 238.55 60.51 238.57 56.93 237.28 53.85 C 236.04 51.27 232.49 51.01 230.16 52.07 Z" />
<path fill="#000000" opacity="1.00" d=" M 248.63 47.20 C 255.98 47.20 263.33 47.23 270.68 47.18 C 270.66 48.57 270.65 49.96 270.64 51.36 C 267.94 51.34 265.24 51.34 262.54 51.34 C 262.59 57.87 262.50 64.39 262.59 70.91 C 260.65 70.90 258.72 70.90 256.79 70.90 C 256.81 64.38 256.79 57.86 256.80 51.34 C 254.08 51.34 251.36 51.34 248.65 51.34 C 248.64 49.96 248.63 48.58 248.63 47.20 Z" />
<path fill="#000000" opacity="1.00" d=" M 280.48 47.76 C 284.37 46.04 289.15 46.00 292.97 47.97 C 297.10 50.41 298.12 55.65 297.86 60.08 C 297.87 64.34 296.01 69.14 291.76 70.75 C 286.14 72.89 277.96 71.49 276.00 65.00 C 274.44 59.20 274.58 51.11 280.48 47.76 M 283.37 52.41 C 280.51 54.85 281.04 59.25 281.47 62.61 C 281.94 67.24 289.22 68.12 291.13 64.12 C 292.34 60.86 292.36 57.16 291.07 53.93 C 289.72 51.17 285.73 50.85 283.37 52.41 Z" />
<path fill="#000000" opacity="1.00" d=" M 304.75 47.20 C 309.68 47.33 314.67 46.85 319.57 47.64 C 322.20 48.00 324.50 50.23 324.24 53.02 C 324.26 55.29 322.31 56.69 320.89 58.15 C 323.00 59.02 325.67 60.26 325.76 62.92 C 326.49 66.61 323.47 69.93 319.93 70.45 C 314.92 71.32 309.80 70.73 304.74 70.90 C 304.77 63.00 304.76 55.10 304.75 47.20 M 310.50 51.23 C 310.50 52.99 310.50 54.74 310.51 56.50 C 313.33 56.33 319.11 57.46 318.46 52.88 C 316.65 50.39 313.12 51.56 310.50 51.23 M 310.50 66.84 C 313.10 66.77 315.80 67.06 318.32 66.23 C 320.08 65.54 320.14 63.22 319.44 61.74 C 316.94 59.75 313.44 60.77 310.50 60.47 C 310.51 62.59 310.50 64.72 310.50 66.84 Z" />
<path fill="#000000" opacity="1.00" d=" M 332.75 47.20 C 334.67 47.20 336.60 47.20 338.54 47.20 C 338.50 50.37 338.50 53.54 338.51 56.71 C 340.04 56.73 341.57 56.60 343.08 56.30 C 345.51 53.88 346.21 50.38 347.19 47.21 C 349.18 47.21 351.18 47.20 353.18 47.20 C 351.88 51.41 350.45 55.86 346.96 58.81 C 351.55 61.11 352.52 66.52 354.00 70.93 C 352.01 70.91 350.01 70.90 348.03 70.89 C 347.06 68.00 346.36 64.92 344.52 62.44 C 343.12 60.58 340.53 60.98 338.51 60.79 C 338.50 64.16 338.49 67.53 338.55 70.90 C 336.61 70.90 334.67 70.90 332.74 70.91 C 332.77 63.00 332.76 55.10 332.75 47.20 Z" />
<path fill="#000000" opacity="1.00" d=" M 358.93 50.36 C 362.90 46.03 369.48 45.80 374.78 47.29 C 377.36 48.03 379.16 50.45 379.35 53.09 C 379.68 59.01 379.34 64.95 379.53 70.88 C 377.73 70.89 375.93 70.91 374.13 70.93 C 374.18 70.29 374.27 69.00 374.31 68.36 C 371.31 71.11 366.92 72.58 362.99 71.04 C 357.73 69.11 357.14 60.72 361.98 57.98 C 365.59 55.93 369.91 56.31 373.88 55.61 C 373.62 54.05 373.66 51.78 371.66 51.42 C 368.63 50.40 365.71 51.70 363.03 53.00 C 361.54 52.33 360.25 51.31 358.93 50.36 M 366.27 61.23 C 364.25 62.20 363.83 65.93 366.15 66.72 C 368.83 67.96 371.45 65.96 373.70 64.68 C 373.69 63.01 373.67 61.35 373.59 59.68 C 371.16 60.19 368.53 60.14 366.27 61.23 Z" />
<path fill="#000000" opacity="1.00" d=" M 981.35 67.52 C 984.08 67.53 986.82 67.53 989.58 67.51 C 993.09 77.98 996.49 88.48 1000.05 98.93 C 997.86 98.91 995.68 98.90 993.51 98.90 C 992.84 96.77 992.14 94.64 991.43 92.53 C 987.30 92.58 983.16 92.50 979.04 92.62 C 978.41 94.68 978.20 97.02 977.03 98.83 C 974.98 98.99 972.94 98.91 970.91 98.93 C 974.45 88.48 977.86 77.99 981.35 67.52 M 985.01 75.40 C 983.34 79.15 982.39 83.21 981.05 87.10 C 983.93 87.09 986.80 87.09 989.69 87.12 C 988.40 83.03 986.92 78.99 985.86 74.84 L 985.01 75.40 Z" />
<path fill="#000000" opacity="1.00" d=" M 1005.50 75.20 C 1007.44 75.20 1009.39 75.21 1011.35 75.21 C 1011.31 78.34 1011.32 81.46 1011.32 84.59 C 1014.58 84.59 1017.85 84.59 1021.13 84.59 C 1021.09 81.45 1021.10 78.31 1021.08 75.17 C 1022.98 75.19 1024.90 75.20 1026.82 75.18 C 1026.78 83.10 1026.76 91.01 1026.84 98.92 C 1024.90 98.91 1022.98 98.91 1021.07 98.93 C 1021.11 95.57 1021.10 92.21 1021.12 88.84 C 1017.83 88.85 1014.54 88.84 1011.27 88.88 C 1011.35 92.22 1011.31 95.56 1011.35 98.90 C 1009.38 98.90 1007.43 98.90 1005.49 98.90 C 1005.56 91.00 1005.54 83.10 1005.50 75.20 Z" />
<path fill="#000000" opacity="1.00" d=" M 1033.94 78.35 C 1037.91 74.03 1044.49 73.80 1049.79 75.30 C 1052.69 76.10 1054.43 79.02 1054.42 81.93 C 1054.59 87.58 1054.39 93.24 1054.52 98.90 C 1052.71 98.90 1050.92 98.91 1049.13 98.93 C 1049.18 98.28 1049.27 97.00 1049.31 96.36 C 1046.30 99.11 1041.92 100.58 1037.99 99.04 C 1032.75 97.12 1032.14 88.75 1036.95 86.00 C 1040.56 83.93 1044.90 84.31 1048.88 83.61 C 1049.43 77.78 1041.16 78.00 1038.39 81.43 C 1036.88 80.43 1035.39 79.41 1033.94 78.35 M 1041.27 89.22 C 1039.54 90.12 1039.28 92.30 1039.96 93.96 C 1042.63 96.43 1046.16 94.29 1048.68 92.71 C 1048.67 91.04 1048.67 89.37 1048.61 87.70 C 1046.17 88.19 1043.53 88.13 1041.27 89.22 Z" />
<path fill="#000000" opacity="1.00" d=" M 1066.73 75.21 C 1072.59 75.20 1078.46 75.21 1084.34 75.20 C 1084.32 83.10 1084.31 91.00 1084.35 98.90 C 1082.40 98.90 1080.46 98.90 1078.55 98.91 C 1078.60 92.41 1078.55 85.92 1078.58 79.42 C 1076.50 79.43 1074.43 79.43 1072.38 79.42 C 1072.24 85.13 1072.49 91.40 1069.30 96.40 C 1067.29 99.47 1063.25 99.69 1059.99 99.04 C 1060.25 97.64 1060.52 96.23 1060.82 94.84 C 1062.30 94.66 1064.29 94.75 1064.93 93.03 C 1067.45 87.48 1066.53 81.14 1066.73 75.21 Z" />
<path fill="#000000" opacity="1.00" d=" M 1108.31 75.22 C 1110.16 75.21 1112.02 75.19 1113.89 75.17 C 1113.85 83.09 1113.83 91.01 1113.91 98.94 C 1112.14 98.92 1110.37 98.90 1108.64 98.89 C 1108.66 93.50 1108.69 88.11 1108.61 82.72 C 1105.06 88.16 1101.19 93.39 1097.66 98.84 C 1095.78 98.89 1093.91 98.92 1092.06 98.96 C 1092.12 91.03 1092.12 83.10 1092.06 75.17 C 1093.80 75.19 1095.54 75.21 1097.30 75.22 C 1097.29 80.66 1097.22 86.11 1097.36 91.55 C 1100.78 85.96 1104.72 80.71 1108.31 75.22 Z" />
<path fill="#000000" opacity="1.00" d=" M 1119.87 78.49 C 1123.22 74.01 1129.79 73.73 1134.68 75.45 C 1139.44 76.99 1140.76 84.66 1135.99 87.04 C 1140.69 89.00 1140.53 96.10 1136.05 98.19 C 1131.72 100.18 1126.22 100.32 1122.01 97.95 C 1121.31 97.25 1119.46 96.52 1120.20 95.31 C 1121.33 94.30 1122.62 93.48 1123.88 92.62 C 1125.92 95.05 1129.43 95.42 1132.23 94.20 C 1133.93 93.47 1133.69 91.40 1133.06 90.01 C 1130.41 88.04 1126.85 89.11 1123.80 88.85 C 1123.89 87.46 1124.00 86.08 1124.14 84.69 C 1126.91 84.81 1129.69 84.75 1132.47 84.47 C 1133.15 82.88 1133.19 81.26 1132.40 79.71 C 1129.48 79.00 1126.13 78.89 1123.92 81.27 C 1122.56 80.35 1121.21 79.42 1119.87 78.49 Z" />
<path fill="#000000" opacity="1.00" d=" M 1423.98 445.10 C 1428.84 440.91 1435.66 441.11 1441.68 440.42 C 1441.64 442.02 1441.61 443.63 1441.59 445.24 C 1437.26 445.58 1432.49 445.28 1428.72 447.77 C 1426.46 449.20 1426.06 451.97 1425.51 454.35 C 1428.90 451.71 1433.51 451.59 1437.54 452.57 C 1440.78 453.56 1442.83 456.72 1443.26 459.97 C 1443.84 464.22 1443.37 469.05 1440.36 472.36 C 1436.38 476.57 1429.18 476.62 1424.62 473.35 C 1420.36 470.00 1419.65 464.12 1419.69 459.06 C 1419.85 454.20 1420.37 448.74 1423.98 445.10 M 1425.65 459.09 C 1425.66 462.48 1425.63 466.24 1427.81 469.06 C 1429.82 471.83 1434.73 471.83 1436.29 468.60 C 1437.95 465.36 1438.23 460.92 1436.16 457.81 C 1433.02 455.00 1428.54 456.88 1425.65 459.09 Z" />
<path fill="#000000" opacity="1.00" d=" M 545.16 446.35 C 550.56 442.37 558.36 441.77 564.40 444.63 C 569.95 447.42 569.73 456.38 564.05 458.95 C 570.35 461.19 570.32 470.81 564.71 473.77 C 557.94 477.24 548.44 476.01 543.99 469.38 C 545.65 468.19 547.39 467.13 549.15 466.11 C 551.25 469.68 555.90 471.76 559.76 469.73 C 562.92 468.41 563.16 463.32 560.10 461.78 C 556.97 461.11 553.74 461.46 550.56 461.41 C 550.55 459.67 550.54 457.93 550.53 456.20 C 553.60 456.03 556.83 456.70 559.79 455.69 C 562.13 454.69 561.78 451.81 561.38 449.77 C 557.46 446.89 552.03 447.94 548.34 450.67 C 547.30 449.22 546.23 447.77 545.16 446.35 Z" />
<path fill="#000000" opacity="1.00" d=" M 1394.51 443.67 C 1399.27 442.27 1405.12 442.49 1408.98 445.97 C 1413.19 450.46 1413.66 457.15 1413.08 462.98 C 1412.64 467.75 1410.28 472.84 1405.53 474.60 C 1400.49 476.36 1394.00 476.08 1390.13 472.02 C 1386.17 467.31 1385.90 460.70 1386.58 454.87 C 1387.19 450.19 1389.67 445.13 1394.51 443.67 M 1396.22 449.29 C 1391.60 452.83 1392.58 459.87 1393.39 464.94 C 1394.06 470.80 1403.33 471.97 1405.58 466.66 C 1407.17 462.30 1407.06 457.34 1405.97 452.88 C 1405.06 448.62 1399.66 447.41 1396.22 449.29 Z" />
<path fill="#000000" opacity="1.00" d=" M 574.94 454.36 C 578.91 450.03 585.49 449.80 590.79 451.29 C 593.40 452.04 595.18 454.51 595.36 457.18 C 595.67 463.07 595.36 468.99 595.52 474.90 C 593.72 474.90 591.92 474.90 590.13 474.93 C 590.18 474.28 590.27 473.00 590.31 472.36 C 587.17 475.26 582.36 476.73 578.37 474.74 C 573.62 472.39 573.38 464.51 578.05 461.94 C 581.65 459.94 585.93 460.30 589.88 459.61 C 590.42 453.79 582.16 454.01 579.37 457.43 C 577.88 456.42 576.39 455.41 574.94 454.36 M 582.23 465.25 C 580.23 466.24 579.83 470.02 582.22 470.74 C 584.86 471.93 587.45 469.95 589.66 468.71 C 589.67 467.05 589.69 465.40 589.72 463.76 C 587.22 464.19 584.53 464.09 582.23 465.25 Z" />
<path fill="#000000" opacity="1.00" d=" M 603.50 451.20 C 609.11 451.20 614.72 451.22 620.33 451.19 C 620.32 452.60 620.32 454.01 620.33 455.43 C 616.66 455.42 612.99 455.43 609.33 455.41 C 609.33 461.91 609.30 468.41 609.35 474.91 C 607.39 474.90 605.44 474.90 603.49 474.90 C 603.56 467.00 603.54 459.10 603.50 451.20 Z" />
<path fill="#000000" opacity="1.00" d=" M 625.81 451.20 C 627.79 451.67 632.39 449.70 631.19 453.48 C 634.35 450.85 638.90 449.50 642.79 451.32 C 646.06 452.79 647.53 456.53 647.81 459.91 C 648.21 464.56 647.96 469.92 644.42 473.40 C 640.91 476.75 635.18 476.06 631.57 473.22 C 631.63 476.78 631.58 480.35 631.65 483.91 C 629.70 483.90 627.74 483.89 625.80 483.90 C 625.83 473.00 625.82 462.10 625.81 451.20 M 631.59 457.75 C 631.62 461.33 631.63 464.91 631.57 468.49 C 633.95 470.28 637.69 471.71 640.11 469.19 C 642.71 465.91 642.73 460.90 640.73 457.33 C 638.49 454.07 634.18 455.99 631.59 457.75 Z" />
<path fill="#000000" opacity="1.00" d=" M 652.92 451.18 C 654.93 451.19 656.95 451.20 658.97 451.21 C 660.78 456.25 662.65 461.27 664.52 466.30 C 666.76 461.38 668.44 456.23 670.40 451.20 C 672.36 451.20 674.33 451.20 676.31 451.19 C 672.32 460.56 668.90 470.17 664.72 479.45 C 662.57 484.47 656.52 484.28 652.01 483.46 C 652.26 481.70 652.61 479.97 653.18 478.29 C 657.68 481.05 663.01 475.42 660.72 471.13 C 658.08 464.49 655.55 457.82 652.92 451.18 Z" />
<path fill="#000000" opacity="1.00" d=" M 680.11 454.45 C 683.68 449.89 690.53 449.65 695.54 451.70 C 699.87 453.72 700.85 460.77 696.20 463.03 C 698.67 464.33 700.44 467.03 699.59 469.88 C 698.89 473.78 694.62 475.39 691.10 475.56 C 687.06 475.97 682.20 475.25 679.89 471.50 C 681.32 470.55 682.74 469.59 684.16 468.64 C 686.29 471.14 690.24 471.58 692.97 469.85 C 694.30 468.84 693.42 467.00 693.37 465.64 C 690.40 464.60 687.25 464.81 684.18 464.89 C 684.18 463.50 684.19 462.11 684.21 460.73 C 687.07 460.19 691.68 462.12 693.34 459.02 C 694.09 453.90 686.53 454.45 684.17 457.30 C 682.81 456.35 681.45 455.40 680.11 454.45 Z" />
<path fill="#000000" opacity="1.00" d=" M 706.50 451.20 C 708.43 451.20 710.36 451.20 712.31 451.21 C 712.28 454.37 712.27 457.54 712.29 460.71 C 713.99 460.38 716.43 461.20 717.57 459.47 C 719.39 457.05 720.08 454.04 720.96 451.21 C 722.94 451.20 724.94 451.19 726.94 451.19 C 725.62 455.39 724.24 459.88 720.68 462.77 C 725.25 465.13 726.35 470.50 727.70 475.00 C 725.69 474.91 723.70 474.88 721.72 474.84 C 720.81 471.96 720.12 468.88 718.27 466.43 C 716.87 464.60 714.30 464.96 712.28 464.82 C 712.28 468.18 712.27 471.54 712.31 474.90 C 710.36 474.89 708.42 474.90 706.49 474.91 C 706.56 467.00 706.54 459.10 706.50 451.20 Z" />
<path fill="#000000" opacity="1.00" d=" M 732.86 454.67 C 735.85 450.16 742.09 450.07 746.89 450.86 C 750.07 451.21 752.90 453.70 753.07 457.00 C 753.50 462.95 753.12 468.93 753.27 474.90 C 751.46 474.89 749.66 474.90 747.87 474.90 C 747.89 474.29 747.94 473.08 747.96 472.47 C 744.83 475.25 740.19 476.69 736.26 474.80 C 731.59 472.69 731.05 465.12 735.30 462.30 C 738.92 459.84 743.52 460.36 747.65 459.62 C 748.22 453.86 739.94 453.95 737.20 457.40 C 735.75 456.47 734.31 455.56 732.86 454.67 M 739.59 465.54 C 737.93 466.51 738.65 468.75 738.60 470.30 C 741.63 471.92 744.73 470.49 747.39 468.85 C 747.43 467.14 747.47 465.44 747.51 463.75 C 744.88 464.30 741.87 463.93 739.59 465.54 Z" />
<path fill="#000000" opacity="1.00" d=" M 1450.28 451.18 C 1452.43 451.20 1454.61 451.20 1456.80 451.22 C 1459.16 454.81 1460.61 459.13 1463.70 462.17 C 1465.50 458.44 1467.62 454.88 1469.56 451.22 C 1471.66 451.20 1473.78 451.19 1475.92 451.17 C 1475.88 459.09 1475.86 467.02 1475.93 474.94 C 1474.21 474.91 1472.49 474.89 1470.80 474.89 C 1470.80 469.18 1470.87 463.48 1470.74 457.78 C 1468.88 461.55 1466.78 465.19 1464.86 468.93 C 1463.69 468.89 1462.55 468.84 1461.42 468.80 C 1459.57 465.10 1457.41 461.57 1455.51 457.90 C 1455.22 463.56 1455.40 469.23 1455.39 474.90 C 1453.66 474.89 1451.96 474.90 1450.26 474.92 C 1450.34 467.01 1450.31 459.09 1450.28 451.18 Z" />
<path fill="#000000" opacity="1.00" d=" M 1488.04 452.05 C 1492.32 449.82 1498.24 449.76 1502.02 453.07 C 1505.09 456.06 1504.92 460.62 1504.94 464.58 C 1499.62 464.51 1494.30 464.53 1489.00 464.56 C 1489.27 466.99 1490.11 470.08 1493.02 470.41 C 1495.80 471.25 1498.33 469.77 1500.93 469.10 C 1502.37 469.74 1503.55 470.82 1504.85 471.74 C 1501.23 475.96 1495.10 476.34 1490.08 474.98 C 1486.16 473.92 1483.64 470.05 1483.36 466.14 C 1482.81 461.18 1483.29 454.91 1488.04 452.05 M 1489.14 460.57 C 1492.57 460.60 1496.01 460.60 1499.46 460.57 C 1499.21 458.08 1498.03 454.94 1495.01 455.12 C 1491.60 454.43 1489.33 457.48 1489.14 460.57 Z" />
<path fill="#000000" opacity="1.00" d=" M 1511.74 451.21 C 1513.67 451.20 1515.62 451.20 1517.58 451.19 C 1517.54 454.32 1517.54 457.46 1517.54 460.59 C 1520.80 460.58 1524.07 460.58 1527.35 460.59 C 1527.32 457.45 1527.33 454.32 1527.31 451.19 C 1529.23 451.20 1531.16 451.20 1533.12 451.21 C 1533.11 459.10 1533.07 467.00 1533.12 474.90 C 1531.16 474.89 1529.22 474.90 1527.29 474.92 C 1527.34 471.55 1527.32 468.19 1527.34 464.83 C 1524.07 464.86 1520.80 464.86 1517.55 464.82 C 1517.54 468.18 1517.53 471.54 1517.59 474.91 C 1515.63 474.90 1513.67 474.89 1511.74 474.90 C 1511.77 467.00 1511.76 459.10 1511.74 451.21 Z" />
</g>
<g id="#2c92d5ff">
<path fill="#2c92d5" opacity="1.00" d=" M 1039.49 137.59 C 1048.29 136.39 1057.22 137.04 1066.07 136.98 C 1092.37 138.90 1117.96 149.76 1137.55 167.43 C 1153.89 181.62 1166.24 200.30 1173.08 220.82 C 1176.94 232.44 1179.61 244.64 1179.12 256.94 C 1180.65 281.82 1173.14 306.88 1159.63 327.69 C 1147.44 346.25 1130.32 361.55 1110.42 371.41 C 1084.82 384.06 1054.79 387.31 1027.05 380.64 C 1002.53 375.01 980.15 361.24 963.45 342.51 C 939.85 316.45 928.47 279.91 933.00 245.05 C 936.30 219.31 947.66 194.50 965.61 175.68 C 984.81 154.91 1011.38 141.05 1039.49 137.59 M 1070.25 197.24 C 1066.09 198.97 1064.30 203.73 1064.79 207.97 C 1064.83 244.64 1064.81 281.32 1064.80 317.99 C 1064.48 322.67 1068.19 327.52 1073.06 327.65 C 1077.94 328.18 1082.53 323.93 1082.35 319.02 C 1082.40 281.04 1082.42 243.06 1082.34 205.08 C 1082.53 199.10 1075.59 194.69 1070.25 197.24 M 1000.21 232.32 C 997.22 233.61 994.96 236.69 995.13 240.02 C 995.08 266.34 995.11 292.67 995.12 318.99 C 994.86 323.07 998.09 326.90 1002.09 327.52 C 1007.27 328.72 1012.62 324.25 1012.50 318.98 C 1012.51 292.64 1012.55 266.29 1012.48 239.94 C 1012.47 234.06 1005.52 229.57 1000.21 232.32 M 1105.32 258.42 C 1102.30 259.59 1099.94 262.66 1100.12 265.99 C 1100.05 283.68 1100.09 301.37 1100.10 319.06 C 1099.66 323.89 1104.26 328.00 1108.96 327.67 C 1113.50 327.69 1117.49 323.53 1117.41 319.03 C 1117.47 302.02 1117.39 285.02 1117.45 268.01 C 1118.49 261.48 1111.49 255.79 1105.32 258.42 M 1035.43 284.59 C 1032.84 285.72 1030.62 288.11 1030.19 290.96 C 1029.87 299.28 1030.03 307.63 1030.12 315.96 C 1030.16 318.76 1029.67 321.98 1031.75 324.23 C 1034.84 328.72 1042.23 328.79 1045.50 324.46 C 1047.08 322.71 1047.55 320.33 1047.45 318.04 C 1047.38 309.34 1047.53 300.64 1047.38 291.94 C 1047.17 286.24 1040.62 282.51 1035.43 284.59 Z" />
<path fill="#2c92d5" opacity="1.00" d=" M 1258.26 200.06 C 1266.75 208.35 1274.97 216.90 1283.51 225.14 C 1293.52 235.24 1303.62 245.26 1313.66 255.33 C 1315.28 257.10 1317.53 258.50 1318.27 260.92 C 1306.18 261.01 1294.10 260.92 1282.02 260.97 C 1281.90 301.35 1269.82 341.41 1248.81 375.81 C 1230.75 404.88 1206.37 430.16 1177.42 448.50 C 1140.09 472.68 1095.35 485.13 1050.91 484.02 C 1022.78 484.04 994.97 477.52 968.92 467.14 C 945.07 456.89 922.66 442.98 903.48 425.45 C 866.47 391.85 840.66 345.77 832.55 296.36 C 840.07 303.10 846.92 310.54 854.21 317.52 C 862.74 309.70 870.61 301.19 878.95 293.16 C 885.45 325.35 900.89 355.67 923.23 379.75 C 933.67 390.43 944.92 400.41 957.41 408.63 C 982.18 424.51 1010.73 434.61 1040.10 437.04 C 1090.17 441.78 1141.88 423.96 1178.40 389.37 C 1205.63 363.75 1225.13 329.71 1232.27 292.92 C 1234.50 282.52 1235.34 271.89 1235.86 261.28 C 1232.79 259.72 1229.30 260.33 1226.00 260.25 C 1216.61 260.24 1207.22 260.27 1197.84 260.23 C 1210.31 247.57 1223.06 235.16 1235.60 222.55 C 1236.36 221.75 1237.09 220.85 1237.29 219.73 C 1238.53 219.29 1239.71 218.66 1240.63 217.66 C 1246.45 211.75 1252.30 205.85 1258.26 200.06 Z" />
</g>
</svg>
