<?xml version="1.0" encoding="UTF-8" ?>
<!DOCTYPE svg PUBLIC "-//W3C//DTD SVG 1.1//EN" "http://www.w3.org/Graphics/SVG/1.1/DTD/svg11.dtd">
<svg width="1212pt" height="388pt" viewBox="0 0 1212 388" version="1.1" xmlns="http://www.w3.org/2000/svg">
<g id="#ffffffff">
<path fill="#ffffff" opacity="1.00" d=" M 178.89 129.85 C 193.34 127.70 208.53 131.31 220.59 139.53 C 233.67 148.30 243.12 162.46 245.87 178.00 C 249.18 193.08 245.50 209.27 237.18 222.14 C 229.03 234.63 216.09 243.88 201.61 247.45 C 187.35 250.91 171.76 249.26 158.81 242.22 C 145.58 235.24 135.10 223.12 130.34 208.92 C 128.92 204.93 132.87 200.33 137.05 201.33 C 140.26 201.48 141.65 204.84 142.60 207.41 C 148.10 221.35 160.64 232.10 175.13 235.78 C 185.66 238.32 197.11 237.50 206.98 232.89 C 220.95 226.58 231.53 213.17 234.14 198.02 C 236.09 189.70 234.85 180.96 232.16 172.95 C 226.43 156.68 211.26 144.08 194.11 141.83 C 182.48 140.00 170.18 142.72 160.47 149.41 C 156.92 151.69 154.00 154.77 150.92 157.63 C 154.31 161.44 158.71 164.20 162.03 168.07 C 164.46 171.79 161.57 177.37 157.05 177.30 C 148.06 177.35 139.05 177.35 130.06 177.30 C 126.72 177.42 123.69 174.40 124.02 171.01 C 124.06 162.97 124.03 154.93 124.12 146.89 C 123.78 142.51 129.45 139.76 132.91 142.11 C 136.16 144.46 138.96 147.39 142.05 149.95 C 151.37 139.11 164.64 131.57 178.89 129.85 Z" />
<path fill="#ffffff" opacity="1.00" d=" M 426.39 135.51 C 450.93 135.09 475.51 135.42 500.06 135.34 C 504.78 134.87 508.17 141.34 504.85 144.87 C 503.37 147.17 500.45 147.35 497.99 147.26 C 474.30 147.10 450.59 147.42 426.90 147.10 C 420.91 146.31 420.53 136.82 426.39 135.51 Z" />
<path fill="#ffffff" opacity="1.00" d=" M 982.27 135.39 C 990.17 135.20 998.08 135.40 1005.98 135.30 C 1008.08 135.37 1010.58 135.02 1012.19 136.74 C 1015.91 139.74 1014.05 146.87 1009.08 147.17 C 1000.71 147.40 992.33 147.10 983.97 147.28 C 980.55 147.19 977.78 150.65 978.24 153.97 C 978.25 177.64 978.22 201.32 978.25 225.00 C 977.89 228.62 981.48 231.62 984.96 231.30 C 1008.63 231.28 1032.31 231.32 1055.98 231.28 C 1059.37 231.46 1062.47 228.36 1062.28 224.96 C 1062.39 217.00 1062.18 209.03 1062.34 201.06 C 1062.11 197.09 1066.82 193.99 1070.37 195.67 C 1072.90 196.62 1074.55 199.35 1074.32 202.03 C 1074.29 209.99 1074.36 217.96 1074.29 225.92 C 1074.02 235.05 1066.13 242.97 1057.01 243.29 C 1033.01 243.37 1009.00 243.27 984.99 243.34 C 974.66 243.84 965.19 234.35 966.31 223.94 C 966.34 200.28 966.30 176.62 966.32 152.97 C 966.09 144.18 973.55 136.07 982.27 135.39 Z" />
<path fill="#ffffff" opacity="1.00" d=" M 1032.66 144.54 C 1030.53 141.04 1032.86 135.83 1037.06 135.60 C 1047.69 135.43 1058.33 135.60 1068.97 135.51 C 1072.53 134.96 1074.43 139.03 1074.30 142.03 C 1074.35 151.68 1074.31 161.33 1074.31 170.98 C 1074.73 175.44 1069.28 179.41 1065.35 176.81 C 1060.90 173.30 1057.13 169.01 1052.95 165.20 C 1043.87 174.35 1034.70 183.42 1025.62 192.59 C 1024.09 194.13 1022.30 195.78 1020.01 195.86 C 1016.27 195.76 1012.75 191.80 1014.03 188.06 C 1015.45 184.98 1018.32 182.97 1020.56 180.53 C 1028.27 172.58 1036.29 164.90 1043.84 156.80 C 1041.11 152.21 1036.01 148.90 1032.66 144.54 Z" />
<path fill="#ffffff" opacity="1.00" d=" M 752.44 147.62 C 756.08 146.03 760.83 148.92 760.67 152.97 C 760.74 178.99 760.70 205.02 760.70 231.04 C 760.95 233.82 758.86 236.53 756.12 237.02 C 752.46 238.13 748.50 234.87 748.76 231.10 C 748.71 205.39 748.76 179.69 748.73 153.98 C 748.44 151.31 750.06 148.75 752.44 147.62 Z" />
<path fill="#ffffff" opacity="1.00" d=" M 179.42 164.99 C 179.37 162.04 182.05 159.36 184.96 159.23 C 188.22 158.87 191.54 161.71 191.35 165.06 C 191.50 172.16 191.25 179.27 191.45 186.37 C 198.63 191.51 205.63 196.90 212.70 202.20 C 215.82 204.16 216.26 209.03 213.60 211.56 C 211.64 213.66 208.11 213.96 205.90 212.09 C 198.43 206.54 191.02 200.92 183.55 195.37 C 181.52 193.83 179.08 191.92 179.39 189.06 C 179.38 181.04 179.32 173.01 179.42 164.99 Z" />
<path fill="#ffffff" opacity="1.00" d=" M 459.99 160.94 C 462.08 158.72 465.97 158.65 468.09 160.87 C 473.56 166.08 478.75 171.57 484.18 176.83 C 485.82 178.56 488.16 180.23 487.89 182.94 C 488.40 186.30 485.29 189.38 482.02 189.29 C 478.06 189.44 474.10 189.28 470.15 189.29 C 470.02 195.21 470.22 201.13 470.07 207.05 C 470.16 210.30 467.37 213.44 464.04 213.31 C 460.75 213.38 458.02 210.27 458.14 207.06 C 458.03 201.16 458.15 195.26 458.12 189.36 C 453.69 189.16 449.24 189.59 444.83 189.17 C 440.35 188.30 438.55 182.02 441.92 178.96 C 447.94 172.94 453.90 166.87 459.99 160.94 Z" />
<path fill="#ffffff" opacity="1.00" d=" M 705.32 171.38 C 709.26 170.25 713.21 174.03 712.78 178.00 C 712.77 195.68 712.82 213.36 712.76 231.05 C 712.95 235.01 708.84 238.25 705.04 236.96 C 702.34 236.39 700.72 233.66 700.84 231.01 C 700.76 213.34 700.82 195.67 700.81 178.00 C 700.52 175.01 702.38 172.12 705.32 171.38 Z" />
<path fill="#ffffff" opacity="1.00" d=" M 776.43 189.67 C 780.10 188.17 784.89 190.85 784.62 195.02 C 784.69 207.01 784.65 219.01 784.64 231.00 C 784.90 233.80 782.85 236.61 780.05 237.04 C 776.40 238.09 772.40 234.80 772.72 231.04 C 772.67 219.35 772.73 207.66 772.70 195.97 C 772.40 193.33 774.04 190.72 776.43 189.67 Z" />
<path fill="#ffffff" opacity="1.00" d=" M 729.37 207.43 C 732.75 206.49 736.75 209.31 736.74 212.90 C 736.76 219.52 737.03 226.17 736.60 232.77 C 735.46 238.38 726.33 238.68 725.09 233.03 C 724.48 226.69 724.95 220.28 724.83 213.91 C 724.54 210.91 726.36 208.06 729.37 207.43 Z" />
<path fill="#ffffff" opacity="1.00" d=" M 410.17 218.91 C 410.03 213.03 418.95 211.12 421.42 216.41 C 422.45 221.25 421.66 226.31 421.89 231.24 C 449.99 231.37 478.09 231.28 506.19 231.29 C 506.34 226.64 505.90 221.96 506.42 217.33 C 507.48 213.33 513.25 211.81 516.12 214.83 C 519.08 217.37 518.01 221.57 518.20 224.98 C 518.26 229.82 518.73 235.33 515.10 239.13 C 511.69 243.31 505.96 243.64 500.99 243.32 C 474.97 243.30 448.96 243.30 422.94 243.32 C 418.22 243.51 413.45 240.89 411.36 236.60 C 408.98 231.07 410.57 224.76 410.17 218.91 Z" />
</g>
<g id="#3ad1e4ff">
<path fill="#3ad1e4" opacity="1.00" d=" M 418.77 41.84 C 430.96 38.70 443.37 35.67 456.04 35.73 C 468.03 35.44 480.12 35.51 491.94 37.74 C 510.77 41.55 529.24 48.06 545.44 58.53 C 574.37 76.35 597.22 103.93 609.07 135.80 C 615.97 152.41 619.01 170.48 619.21 188.40 L 619.29 188.89 C 627.72 189.32 636.22 188.11 644.61 189.43 C 637.00 197.72 628.74 205.37 620.94 213.47 C 615.05 218.64 610.15 224.94 603.98 229.75 C 598.64 225.96 595.09 220.09 589.50 216.56 L 589.30 216.42 C 587.97 213.95 585.80 212.14 583.86 210.20 C 577.54 203.88 571.19 197.61 564.87 191.30 C 559.37 191.22 553.87 191.25 548.37 191.29 C 549.22 226.59 524.57 260.61 490.92 271.17 C 478.18 276.10 464.27 275.98 450.87 274.84 C 432.17 271.69 414.22 262.74 401.43 248.60 C 387.63 233.54 379.09 213.47 378.90 192.96 C 378.28 174.97 383.73 156.83 394.09 142.11 C 406.16 125.12 424.47 112.30 444.98 108.02 C 464.51 103.56 485.66 106.25 503.37 115.65 C 518.00 123.65 530.55 135.66 538.51 150.38 C 545.07 162.73 548.77 176.70 548.38 190.72 C 553.51 190.79 558.64 190.64 563.77 190.87 L 563.11 189.01 C 571.14 188.99 579.18 188.93 587.21 188.93 C 587.46 151.23 568.08 114.37 538.02 91.90 C 502.64 64.71 451.88 59.09 411.70 78.74 C 376.32 95.14 349.34 129.02 342.55 167.56 C 349.51 175.94 358.34 182.74 365.29 191.18 C 356.90 191.33 348.51 191.26 340.13 191.22 C 340.26 216.34 333.40 241.34 321.33 263.31 C 301.32 300.19 265.81 328.50 225.13 339.06 C 214.29 341.82 203.23 344.16 192.00 344.07 C 183.02 344.07 173.99 344.44 165.05 343.42 C 140.22 339.97 116.02 330.88 95.61 316.23 C 65.36 295.14 43.00 262.92 34.15 227.09 C 31.02 214.48 29.10 201.43 30.09 188.42 C 53.48 188.76 76.86 187.99 100.25 188.22 C 100.70 167.83 108.91 147.69 122.98 132.90 C 132.95 122.54 145.26 114.19 159.07 109.95 C 177.84 103.87 198.70 104.81 217.01 112.04 C 235.20 119.65 250.85 133.53 260.13 150.97 C 266.15 162.46 269.57 175.30 269.97 188.27 C 274.96 188.20 279.96 188.18 284.95 188.43 C 293.29 180.27 301.46 171.93 309.76 163.72 C 311.37 162.28 311.36 159.96 311.90 158.02 C 318.52 125.91 336.05 96.34 360.52 74.60 C 377.18 59.52 397.34 48.51 418.77 41.84 M 178.89 129.85 C 164.64 131.57 151.37 139.11 142.05 149.95 C 138.96 147.39 136.16 144.46 132.91 142.11 C 129.45 139.76 123.78 142.51 124.12 146.89 C 124.03 154.93 124.06 162.97 124.02 171.01 C 123.69 174.40 126.72 177.42 130.06 177.30 C 139.05 177.35 148.06 177.35 157.05 177.30 C 161.57 177.37 164.46 171.79 162.03 168.07 C 158.71 164.20 154.31 161.44 150.92 157.63 C 154.00 154.77 156.92 151.69 160.47 149.41 C 170.18 142.72 182.48 140.00 194.11 141.83 C 211.26 144.08 226.43 156.68 232.16 172.95 C 234.85 180.96 236.09 189.70 234.14 198.02 C 231.53 213.17 220.95 226.58 206.98 232.89 C 197.11 237.50 185.66 238.32 175.13 235.78 C 160.64 232.10 148.10 221.35 142.60 207.41 C 141.65 204.84 140.26 201.48 137.05 201.33 C 132.87 200.33 128.92 204.93 130.34 208.92 C 135.10 223.12 145.58 235.24 158.81 242.22 C 171.76 249.26 187.35 250.91 201.61 247.45 C 216.09 243.88 229.03 234.63 237.18 222.14 C 245.50 209.27 249.18 193.08 245.87 178.00 C 243.12 162.46 233.67 148.30 220.59 139.53 C 208.53 131.31 193.34 127.70 178.89 129.85 M 426.39 135.51 C 420.53 136.82 420.91 146.31 426.90 147.10 C 450.59 147.42 474.30 147.10 497.99 147.26 C 500.45 147.35 503.37 147.17 504.85 144.87 C 508.17 141.34 504.78 134.87 500.06 135.34 C 475.51 135.42 450.93 135.09 426.39 135.51 M 179.42 164.99 C 179.32 173.01 179.38 181.04 179.39 189.06 C 179.08 191.92 181.52 193.83 183.55 195.37 C 191.02 200.92 198.43 206.54 205.90 212.09 C 208.11 213.96 211.64 213.66 213.60 211.56 C 216.26 209.03 215.82 204.16 212.70 202.20 C 205.63 196.90 198.63 191.51 191.45 186.37 C 191.25 179.27 191.50 172.16 191.35 165.06 C 191.54 161.71 188.22 158.87 184.96 159.23 C 182.05 159.36 179.37 162.04 179.42 164.99 M 459.99 160.94 C 453.90 166.87 447.94 172.94 441.92 178.96 C 438.55 182.02 440.35 188.30 444.83 189.17 C 449.24 189.59 453.69 189.16 458.12 189.36 C 458.15 195.26 458.03 201.16 458.14 207.06 C 458.02 210.27 460.75 213.38 464.04 213.31 C 467.37 213.44 470.16 210.30 470.07 207.05 C 470.22 201.13 470.02 195.21 470.15 189.29 C 474.10 189.28 478.06 189.44 482.02 189.29 C 485.29 189.38 488.40 186.30 487.89 182.94 C 488.16 180.23 485.82 178.56 484.18 176.83 C 478.75 171.57 473.56 166.08 468.09 160.87 C 465.97 158.65 462.08 158.72 459.99 160.94 M 61.33 188.84 C 61.10 216.11 70.38 243.36 87.25 264.78 C 109.32 293.57 144.72 311.76 181.03 312.62 C 211.38 313.44 242.07 302.94 265.02 282.93 C 291.84 260.41 308.21 225.96 308.51 190.91 C 299.95 190.92 291.40 190.97 282.84 191.00 C 283.17 190.47 283.82 189.42 284.15 188.89 C 279.44 188.67 274.74 188.70 270.04 188.76 C 270.67 212.99 260.29 237.08 242.48 253.45 C 230.45 264.68 214.90 271.72 198.81 274.70 C 190.24 275.71 181.54 275.60 172.96 274.91 C 151.34 271.63 130.76 260.12 117.67 242.43 C 105.89 227.21 99.64 207.95 100.18 188.71 C 87.23 188.80 74.28 188.59 61.33 188.84 M 410.17 218.91 C 410.57 224.76 408.98 231.07 411.36 236.60 C 413.45 240.89 418.22 243.51 422.94 243.32 C 448.96 243.30 474.97 243.30 500.99 243.32 C 505.96 243.64 511.69 243.31 515.10 239.13 C 518.73 235.33 518.26 229.82 518.20 224.98 C 518.01 221.57 519.08 217.37 516.12 214.83 C 513.25 211.81 507.48 213.33 506.42 217.33 C 505.90 221.96 506.34 226.64 506.19 231.29 C 478.09 231.28 449.99 231.37 421.89 231.24 C 421.66 226.31 422.45 221.25 421.42 216.41 C 418.95 211.12 410.03 213.03 410.17 218.91 Z" />
</g>
<g id="#13538aff">
<path fill="#13538a" opacity="1.00" d=" M 923.79 68.75 C 947.68 49.59 977.48 38.00 1008.01 35.81 C 1019.64 35.58 1031.35 35.23 1042.90 36.93 C 1072.13 41.34 1100.12 54.12 1122.21 73.83 C 1140.05 89.30 1154.17 108.98 1163.24 130.77 C 1171.16 148.99 1175.51 168.85 1175.16 188.75 C 1183.03 188.75 1190.90 188.73 1198.78 188.77 C 1185.18 202.73 1171.21 216.33 1157.54 230.21 C 1144.14 217.46 1131.35 204.05 1118.01 191.23 C 1113.56 191.27 1109.11 191.23 1104.66 191.27 C 1105.10 222.35 1086.31 252.64 1058.53 266.46 C 1046.88 272.05 1034.10 275.98 1021.06 275.40 C 1003.89 276.31 986.83 270.69 972.54 261.38 C 956.94 251.11 945.34 235.28 939.25 217.70 C 933.21 199.49 933.49 179.23 940.25 161.25 C 946.03 145.07 957.26 131.07 971.29 121.24 C 996.87 102.66 1033.17 101.01 1060.70 116.28 C 1071.63 122.55 1081.38 130.95 1088.82 141.15 C 1099.18 155.43 1104.88 173.08 1104.67 190.74 C 1108.77 190.76 1112.87 190.65 1116.97 190.91 C 1116.79 190.43 1116.44 189.48 1116.26 189.00 C 1125.39 188.96 1134.52 188.95 1143.65 188.85 C 1143.22 173.19 1140.25 157.52 1134.08 143.09 C 1129.56 133.04 1124.25 123.24 1117.31 114.65 C 1099.43 91.44 1072.91 75.10 1044.17 69.47 C 1008.10 61.98 968.90 71.96 940.80 95.78 C 919.30 113.80 904.21 139.31 898.71 166.81 C 892.95 161.20 887.21 155.57 881.65 149.75 C 876.16 153.81 871.95 159.29 866.91 163.87 C 873.27 126.58 894.02 92.07 923.79 68.75 M 982.27 135.39 C 973.55 136.07 966.09 144.18 966.32 152.97 C 966.30 176.62 966.34 200.28 966.31 223.94 C 965.19 234.35 974.66 243.84 984.99 243.34 C 1009.00 243.27 1033.01 243.37 1057.01 243.29 C 1066.13 242.97 1074.02 235.05 1074.29 225.92 C 1074.36 217.96 1074.29 209.99 1074.32 202.03 C 1074.55 199.35 1072.90 196.62 1070.37 195.67 C 1066.82 193.99 1062.11 197.09 1062.34 201.06 C 1062.18 209.03 1062.39 217.00 1062.28 224.96 C 1062.47 228.36 1059.37 231.46 1055.98 231.28 C 1032.31 231.32 1008.63 231.28 984.96 231.30 C 981.48 231.62 977.89 228.62 978.25 225.00 C 978.22 201.32 978.25 177.64 978.24 153.97 C 977.78 150.65 980.55 147.19 983.97 147.28 C 992.33 147.10 1000.71 147.40 1009.08 147.17 C 1014.05 146.87 1015.91 139.74 1012.19 136.74 C 1010.58 135.02 1008.08 135.37 1005.98 135.30 C 998.08 135.40 990.17 135.20 982.27 135.39 M 1032.66 144.54 C 1036.01 148.90 1041.11 152.21 1043.84 156.80 C 1036.29 164.90 1028.27 172.58 1020.56 180.53 C 1018.32 182.97 1015.45 184.98 1014.03 188.06 C 1012.75 191.80 1016.27 195.76 1020.01 195.86 C 1022.30 195.78 1024.09 194.13 1025.62 192.59 C 1034.70 183.42 1043.87 174.35 1052.95 165.20 C 1057.13 169.01 1060.90 173.30 1065.35 176.81 C 1069.28 179.41 1074.73 175.44 1074.31 170.98 C 1074.31 161.33 1074.35 151.68 1074.30 142.03 C 1074.43 139.03 1072.53 134.96 1068.97 135.51 C 1058.33 135.60 1047.69 135.43 1037.06 135.60 C 1032.86 135.83 1030.53 141.04 1032.66 144.54 Z" />
</g>
<g id="#000000ff">
<path fill="#000000" opacity="1.00" d=" M 92.17 39.40 C 97.95 39.46 103.74 39.43 109.53 39.42 C 109.51 46.57 109.47 53.73 109.55 60.89 C 108.07 60.90 106.58 60.92 105.09 60.95 C 105.18 55.01 105.11 49.07 105.14 43.13 C 102.26 43.13 99.38 43.11 96.50 43.17 C 96.60 49.08 96.49 55.00 96.57 60.91 C 95.09 60.91 93.61 60.91 92.13 60.93 C 92.22 53.75 92.16 46.58 92.17 39.40 Z" />
<path fill="#000000" opacity="1.00" d=" M 119.52 44.62 C 122.96 43.70 127.74 44.16 129.35 47.87 C 131.03 51.87 130.95 57.60 127.10 60.34 C 123.19 62.53 116.75 61.64 115.33 56.82 C 113.99 52.58 114.56 46.16 119.52 44.62 M 119.43 49.33 C 118.16 51.89 118.89 54.79 119.71 57.36 C 121.54 57.97 123.46 57.96 125.32 57.43 C 126.21 54.85 126.88 51.92 125.67 49.32 C 124.64 46.90 120.49 46.96 119.43 49.33 Z" />
<path fill="#000000" opacity="1.00" d=" M 155.36 44.62 C 159.16 44.66 162.96 44.66 166.76 44.61 C 166.78 45.34 166.82 46.82 166.84 47.55 C 164.33 47.54 161.82 47.54 159.30 47.52 C 159.30 51.98 159.28 56.44 159.32 60.91 C 157.98 60.90 156.64 60.90 155.31 60.90 C 155.41 55.47 155.34 50.05 155.36 44.62 Z" />
<path fill="#000000" opacity="1.00" d=" M 174.48 44.63 C 177.88 43.71 182.58 44.13 184.28 47.71 C 186.04 51.73 185.99 57.56 182.10 60.34 C 178.18 62.53 171.73 61.64 170.32 56.80 C 169.00 52.57 169.56 46.19 174.48 44.63 M 174.43 49.32 C 173.17 51.88 173.88 54.78 174.71 57.34 C 176.54 58.06 178.49 58.04 180.33 57.38 C 181.31 54.63 181.96 51.36 180.34 48.71 C 178.87 46.97 175.43 47.15 174.43 49.32 Z" />
<path fill="#000000" opacity="1.00" d=" M 210.60 44.84 C 213.78 43.80 218.01 43.81 220.32 46.62 C 222.46 49.41 222.09 53.24 221.60 56.50 C 220.03 63.05 208.91 63.19 207.06 56.78 C 205.88 52.71 206.20 46.84 210.60 44.84 M 212.24 48.12 C 209.28 50.65 209.70 58.82 214.91 57.93 C 218.55 57.56 218.45 52.66 217.68 50.02 C 217.30 47.62 214.04 46.93 212.24 48.12 Z" />
<path fill="#000000" opacity="1.00" d=" M 263.96 46.89 C 266.82 43.97 271.35 43.66 275.07 44.82 C 276.87 45.38 277.95 47.13 278.00 48.97 C 278.31 52.98 278.05 57.01 278.13 61.02 C 276.54 60.95 274.97 60.70 273.46 60.18 C 271.22 61.22 268.51 62.13 266.20 60.72 C 263.60 59.42 263.65 55.86 264.57 53.52 C 266.85 50.47 271.15 51.05 274.49 50.35 C 274.20 49.63 273.61 48.21 273.31 47.49 C 271.09 47.25 268.76 47.20 266.98 48.80 C 266.23 48.32 264.72 47.36 263.96 46.89 M 267.56 55.82 C 267.86 56.48 268.47 57.80 268.78 58.46 C 271.75 58.58 275.28 57.00 274.36 53.38 C 271.87 53.43 269.08 53.51 267.56 55.82 Z" />
<path fill="#000000" opacity="1.00" d=" M 138.18 44.60 C 141.84 44.66 145.51 44.64 149.17 44.64 C 149.17 49.14 149.18 53.63 149.17 58.13 C 149.76 58.18 150.94 58.28 151.53 58.33 C 151.43 60.58 151.42 62.83 151.41 65.09 C 150.46 65.09 148.58 65.09 147.64 65.09 C 147.66 63.71 147.68 62.34 147.71 60.96 C 144.21 60.87 140.71 60.87 137.22 60.94 C 137.24 62.26 137.26 63.58 137.29 64.89 C 136.34 64.90 134.43 64.91 133.47 64.92 C 133.50 62.75 133.49 60.59 133.50 58.43 C 134.99 58.22 135.89 57.40 136.21 55.97 C 137.67 52.36 137.77 48.42 138.18 44.60 M 141.68 47.54 C 141.43 51.18 140.50 54.73 139.13 58.11 C 141.17 58.10 143.22 58.10 145.27 58.12 C 145.26 54.59 145.25 51.06 145.28 47.53 C 144.38 47.53 142.58 47.53 141.68 47.54 Z" />
<path fill="#000000" opacity="1.00" d=" M 188.55 44.64 C 193.57 44.65 198.59 44.65 203.61 44.63 C 203.61 45.35 203.62 46.79 203.62 47.50 C 201.80 47.49 199.98 47.47 198.16 47.45 C 197.69 51.93 198.17 56.41 198.13 60.89 C 196.80 60.90 195.47 60.92 194.15 60.94 C 194.23 56.46 194.15 51.98 194.23 47.50 C 192.33 47.49 190.43 47.48 188.53 47.48 C 188.54 46.77 188.54 45.35 188.55 44.64 Z" />
<path fill="#000000" opacity="1.00" d=" M 227.13 44.63 C 231.14 44.88 235.48 43.91 239.21 45.79 C 241.47 47.63 240.19 50.79 238.10 52.15 C 241.71 52.79 242.81 57.75 239.65 59.71 C 235.82 61.76 231.25 60.58 227.09 60.93 C 227.17 55.50 227.12 50.07 227.13 44.63 M 231.05 47.33 C 230.95 48.62 230.88 49.91 230.84 51.20 C 232.71 51.13 234.58 50.97 236.39 50.45 C 236.42 49.92 236.49 48.86 236.52 48.32 C 234.84 47.38 232.91 47.39 231.05 47.33 M 230.88 53.70 C 230.89 55.23 230.90 56.75 230.89 58.28 C 233.14 58.28 235.39 58.06 237.53 57.33 C 238.37 53.12 233.55 53.74 230.88 53.70 Z" />
<path fill="#000000" opacity="1.00" d=" M 246.13 44.63 C 247.39 44.63 248.65 44.63 249.91 44.62 C 249.90 46.85 249.90 49.08 249.88 51.32 C 254.08 52.20 255.17 47.71 256.04 44.65 C 257.38 44.65 258.73 44.64 260.08 44.64 C 259.22 47.54 258.08 50.38 256.04 52.65 C 258.83 54.55 259.69 57.90 260.66 60.93 C 259.29 60.91 257.93 60.90 256.57 60.88 C 255.83 58.85 255.36 56.65 254.02 54.91 C 252.90 53.90 251.25 54.28 249.90 54.01 C 249.89 56.32 249.90 58.63 249.94 60.94 C 248.66 60.93 247.37 60.92 246.09 60.93 C 246.17 55.50 246.12 50.07 246.13 44.63 Z" />
<path fill="#000000" opacity="1.00" d=" M 691.14 58.41 C 693.01 58.42 694.90 58.43 696.79 58.42 C 699.15 65.60 701.49 72.79 703.95 79.93 C 702.43 79.91 700.92 79.90 699.43 79.88 C 698.98 78.44 698.55 77.00 698.13 75.55 C 695.29 75.56 692.46 75.56 689.63 75.53 C 689.21 76.96 688.79 78.38 688.39 79.81 C 686.91 79.87 685.43 79.92 683.96 79.96 C 686.39 72.79 688.72 65.59 691.14 58.41 M 693.82 62.87 C 692.79 65.81 691.85 68.79 690.93 71.77 C 692.88 71.77 694.85 71.77 696.83 71.77 C 695.89 68.78 694.95 65.79 693.82 62.87 Z" />
<path fill="#000000" opacity="1.00" d=" M 708.13 63.56 C 709.33 63.59 710.53 63.62 711.75 63.65 C 711.75 65.82 711.74 68.00 711.74 70.17 C 713.98 70.16 716.22 70.17 718.47 70.21 C 718.50 68.02 718.49 65.83 718.51 63.64 C 719.49 63.64 721.46 63.64 722.44 63.64 C 722.44 69.07 722.41 74.49 722.47 79.92 C 721.12 79.91 719.78 79.90 718.46 79.89 C 718.50 77.54 718.49 75.19 718.49 72.85 C 716.22 72.87 713.95 72.93 711.71 73.14 C 711.73 75.40 711.76 77.66 711.80 79.93 C 710.46 79.91 709.13 79.90 707.80 79.89 C 707.97 74.45 707.46 68.98 708.13 63.56 Z" />
<path fill="#000000" opacity="1.00" d=" M 727.65 65.14 C 730.83 63.13 734.85 62.66 738.43 63.84 C 740.15 64.43 741.19 66.19 741.27 67.97 C 741.50 71.94 741.28 75.93 741.38 79.91 C 740.47 79.91 738.64 79.90 737.72 79.90 C 737.70 79.49 737.64 78.67 737.61 78.27 C 735.57 80.01 732.75 81.11 730.12 80.06 C 726.26 78.72 726.05 72.34 729.87 70.81 C 732.32 69.79 735.05 69.77 737.66 69.44 C 737.76 65.39 732.33 65.65 730.25 67.88 C 729.13 67.21 728.06 66.44 727.65 65.14 M 731.31 75.99 C 732.27 78.72 735.77 76.69 737.46 75.68 C 737.43 74.55 737.42 73.42 737.42 72.29 C 735.11 72.57 730.51 72.45 731.31 75.99 Z" />
<path fill="#000000" opacity="1.00" d=" M 767.36 63.64 C 768.51 63.63 769.67 63.61 770.84 63.60 C 770.89 67.22 770.80 70.84 770.96 74.45 C 773.78 71.03 776.01 67.18 778.64 63.61 C 779.57 63.62 781.42 63.64 782.34 63.65 C 782.34 69.07 782.32 74.49 782.36 79.91 C 781.45 79.91 779.64 79.90 778.73 79.90 C 778.75 76.25 778.76 72.60 778.71 68.95 C 776.09 72.55 773.64 76.28 771.08 79.93 C 769.82 79.91 768.56 79.90 767.31 79.90 C 767.41 74.48 767.34 69.06 767.36 63.64 Z" />
<path fill="#000000" opacity="1.00" d=" M 786.69 65.16 C 790.12 62.88 795.62 62.05 798.63 65.39 C 800.44 67.38 799.14 69.88 798.27 71.89 C 799.96 73.91 800.68 77.26 798.21 79.02 C 794.52 81.32 789.32 80.88 786.13 77.87 C 787.10 77.15 788.07 76.44 789.05 75.73 C 790.88 77.28 794.31 78.17 795.75 75.74 C 796.38 72.09 791.44 73.06 789.26 72.97 C 789.26 72.30 789.24 70.95 789.23 70.28 C 791.24 69.94 794.17 71.12 795.57 69.10 C 795.74 67.20 794.89 66.31 793.02 66.42 C 791.08 66.02 789.01 68.94 787.53 66.59 C 787.32 66.23 786.90 65.52 786.69 65.16 Z" />
<path fill="#000000" opacity="1.00" d=" M 749.74 63.64 C 753.71 63.64 757.69 63.68 761.67 63.58 C 761.82 69.03 761.66 74.48 761.78 79.93 C 760.45 79.91 759.13 79.90 757.81 79.89 C 757.83 75.43 757.84 70.98 757.81 66.52 C 756.39 66.53 754.98 66.54 753.57 66.53 C 753.42 70.53 753.69 74.93 751.31 78.38 C 749.89 80.34 747.27 80.29 745.13 80.12 C 745.22 79.47 745.41 78.16 745.50 77.51 C 746.53 76.94 748.21 76.98 748.63 75.67 C 750.16 71.87 749.57 67.64 749.74 63.64 Z" />
<path fill="#000000" opacity="1.00" d=" M 995.96 316.69 C 999.21 314.63 1003.26 314.71 1006.97 314.29 C 1006.94 315.11 1006.88 316.73 1006.85 317.55 C 1002.56 317.57 996.19 317.92 995.97 323.61 C 999.36 321.68 1004.73 321.27 1007.11 324.94 C 1009.09 328.78 1008.67 334.41 1005.01 337.13 C 1001.52 339.40 996.09 338.75 993.75 335.15 C 991.74 332.15 992.04 328.35 992.13 324.92 C 992.28 321.84 993.18 318.42 995.96 316.69 M 995.65 327.68 C 996.31 330.02 996.06 333.07 998.27 334.67 C 999.73 335.98 1001.75 335.10 1003.24 334.28 C 1004.31 331.47 1004.61 328.40 1003.21 325.65 C 1000.47 324.84 997.48 325.38 995.65 327.68 Z" />
<path fill="#000000" opacity="1.00" d=" M 391.83 318.06 C 395.92 315.81 401.29 315.12 405.47 317.48 C 408.81 319.70 408.27 324.94 405.02 327.00 C 408.97 328.98 408.99 335.31 405.02 337.26 C 400.33 339.55 393.95 338.57 390.95 334.04 C 392.12 333.36 393.31 332.69 394.50 332.02 C 396.09 334.27 398.95 335.62 401.65 334.47 C 403.64 333.90 403.79 331.58 403.26 329.90 C 401.31 327.77 398.08 328.90 395.53 328.62 C 395.51 327.47 395.49 326.31 395.47 325.17 C 398.70 325.32 404.13 325.79 403.33 320.88 C 400.45 318.71 396.76 319.42 393.89 321.18 C 393.18 320.14 392.49 319.10 391.83 318.06 Z" />
<path fill="#000000" opacity="1.00" d=" M 974.49 316.64 C 978.05 315.62 982.72 315.63 985.27 318.79 C 987.56 321.61 987.77 325.48 987.57 328.97 C 987.39 332.40 985.92 336.27 982.47 337.63 C 979.04 338.95 974.59 338.71 971.88 336.02 C 969.18 333.01 968.98 328.65 969.31 324.83 C 969.53 321.50 971.18 317.88 974.49 316.64 M 976.21 320.23 C 972.71 322.41 973.49 327.53 973.97 331.03 C 974.38 335.03 980.61 335.97 982.32 332.44 C 983.59 329.32 983.52 325.69 982.56 322.49 C 981.83 319.90 978.38 319.08 976.21 320.23 Z" />
<path fill="#000000" opacity="1.00" d=" M 413.11 323.26 C 416.65 320.52 423.36 319.96 426.07 324.04 C 427.18 328.55 426.28 333.33 426.62 337.95 C 425.22 337.59 422.66 338.80 422.61 336.44 C 420.56 338.21 417.57 339.15 415.03 337.88 C 411.47 336.39 411.46 330.48 414.95 328.88 C 417.42 327.76 420.23 327.80 422.88 327.44 C 422.84 323.42 417.64 323.66 415.45 325.86 C 414.53 325.12 412.88 324.75 413.11 323.26 M 416.51 331.71 C 416.70 332.77 416.17 334.14 417.06 334.99 C 418.86 336.00 420.74 334.57 422.49 334.09 C 422.54 333.13 422.64 331.22 422.69 330.26 C 420.56 330.45 418.46 330.84 416.51 331.71 Z" />
<path fill="#000000" opacity="1.00" d=" M 451.30 322.94 C 454.21 320.67 459.25 320.35 461.26 323.96 C 463.20 328.00 463.08 333.55 459.94 336.98 C 457.46 339.31 453.90 338.39 451.21 337.01 C 451.27 339.39 451.27 341.78 451.28 344.17 C 449.95 344.16 448.63 344.14 447.31 344.12 C 447.48 336.62 447.08 329.11 447.50 321.63 C 449.25 321.06 450.52 321.50 451.30 322.94 M 451.26 326.00 C 451.30 328.58 451.09 331.18 451.46 333.74 C 452.96 334.98 455.45 335.45 457.07 334.13 C 458.82 331.74 459.03 328.05 457.33 325.59 C 455.69 323.58 453.08 325.12 451.26 326.00 Z" />
<path fill="#000000" opacity="1.00" d=" M 484.72 323.12 C 487.70 321.16 491.61 320.56 494.93 321.97 C 497.83 323.28 498.49 327.48 496.04 329.57 C 497.70 331.50 498.82 334.65 496.61 336.66 C 493.03 339.44 487.40 338.96 484.14 335.86 C 485.10 335.15 486.07 334.44 487.05 333.73 C 488.71 334.91 490.93 335.98 492.86 334.68 C 494.30 334.26 493.43 332.47 493.59 331.44 C 491.47 331.08 489.33 330.87 487.19 330.85 C 487.21 330.21 487.25 328.92 487.26 328.27 C 489.39 328.34 491.54 328.29 493.62 327.69 C 494.29 323.83 489.25 323.56 487.23 325.81 C 486.13 325.17 485.12 324.38 484.72 323.12 Z" />
<path fill="#000000" opacity="1.00" d=" M 520.64 323.85 C 523.20 320.96 527.40 320.87 530.92 321.58 C 532.91 322.01 534.51 323.82 534.50 325.89 C 534.70 329.91 534.50 333.94 534.62 337.96 C 533.08 337.77 530.85 338.54 530.52 336.41 C 528.56 338.27 525.57 339.11 523.06 337.90 C 519.37 336.38 519.47 330.20 523.20 328.76 C 525.63 327.77 528.31 327.77 530.89 327.44 C 530.78 323.33 525.59 323.78 523.29 325.86 C 522.39 325.21 521.50 324.54 520.64 323.85 M 524.52 331.71 C 524.50 332.61 524.52 333.52 524.59 334.42 C 526.14 336.43 528.63 334.62 530.49 334.09 C 530.54 333.13 530.64 331.22 530.69 330.26 C 528.56 330.46 526.46 330.83 524.52 331.71 Z" />
<path fill="#000000" opacity="1.00" d=" M 1026.44 321.60 C 1027.83 321.62 1029.23 321.63 1030.65 321.64 C 1030.67 327.05 1030.59 332.47 1030.71 337.88 C 1029.84 337.90 1028.09 337.95 1027.22 337.97 C 1027.21 334.27 1027.28 330.58 1027.21 326.89 C 1024.56 328.82 1024.86 334.10 1020.92 334.00 C 1019.59 331.50 1018.32 328.95 1016.59 326.71 C 1016.48 330.45 1016.54 334.18 1016.57 337.92 C 1015.70 337.92 1013.96 337.93 1013.09 337.93 C 1013.17 332.50 1013.12 327.07 1013.13 321.64 C 1014.53 321.64 1015.95 321.62 1017.38 321.59 C 1019.29 323.74 1019.83 327.68 1022.45 328.79 C 1023.83 326.42 1025.03 323.95 1026.44 321.60 Z" />
<path fill="#000000" opacity="1.00" d=" M 1037.93 322.90 C 1040.43 320.91 1044.13 320.75 1047.01 321.97 C 1050.26 323.60 1050.49 327.59 1050.55 330.77 C 1046.79 330.79 1043.04 330.77 1039.29 330.79 C 1039.56 333.41 1041.30 335.15 1043.96 335.24 C 1046.00 334.30 1048.25 333.64 1050.21 335.24 C 1047.25 340.53 1036.90 339.37 1035.82 333.04 C 1035.17 329.63 1035.25 325.46 1037.93 322.90 M 1040.80 324.68 C 1040.35 325.84 1039.91 327.01 1039.50 328.18 C 1041.95 328.21 1044.45 328.26 1046.88 327.75 C 1046.37 326.71 1045.91 325.62 1045.21 324.71 C 1043.78 324.11 1042.25 324.53 1040.80 324.68 Z" />
<path fill="#000000" opacity="1.00" d=" M 1055.36 321.62 C 1056.66 321.62 1057.98 321.64 1059.31 321.66 C 1059.29 323.81 1059.28 325.96 1059.25 328.11 C 1061.53 328.17 1063.82 328.16 1066.11 328.18 C 1066.09 325.99 1066.08 323.80 1066.09 321.62 C 1067.35 321.62 1068.62 321.63 1069.90 321.63 C 1069.90 327.06 1069.85 332.50 1069.93 337.94 C 1068.63 337.92 1067.33 337.92 1066.05 337.93 C 1066.08 335.65 1066.09 333.38 1066.11 331.11 C 1063.83 331.09 1061.55 331.08 1059.29 331.09 C 1059.29 333.36 1059.29 335.63 1059.32 337.90 C 1057.97 337.90 1056.64 337.90 1055.32 337.91 C 1055.40 332.48 1055.34 327.05 1055.36 321.62 Z" />
<path fill="#000000" opacity="1.00" d=" M 432.13 321.63 C 435.94 321.65 439.75 321.65 443.56 321.63 C 443.57 322.37 443.58 323.83 443.58 324.56 C 441.10 324.54 438.63 324.54 436.16 324.48 C 435.70 328.95 435.94 333.45 435.94 337.94 C 434.65 337.92 433.37 337.92 432.09 337.93 C 432.17 332.49 432.12 327.06 432.13 321.63 Z" />
<path fill="#000000" opacity="1.00" d=" M 465.75 321.63 C 467.12 321.63 468.49 321.65 469.87 321.66 C 471.09 325.15 472.37 328.62 473.69 332.07 C 475.18 328.65 476.40 325.12 477.75 321.64 C 478.75 321.64 480.75 321.64 481.74 321.64 C 478.91 328.21 476.63 335.04 473.52 341.49 C 471.89 344.60 467.96 344.25 465.04 343.80 C 465.26 342.68 465.49 341.56 465.72 340.45 C 468.46 341.30 471.17 339.95 471.56 336.96 C 469.87 331.76 467.61 326.77 465.75 321.63 Z" />
<path fill="#000000" opacity="1.00" d=" M 502.59 321.64 C 503.56 321.64 505.51 321.64 506.49 321.64 C 506.50 323.89 506.48 326.16 506.56 328.42 C 510.76 329.03 511.59 324.58 512.61 321.61 C 513.61 321.63 515.61 321.65 516.61 321.67 C 515.73 324.58 514.52 327.41 512.48 329.72 C 515.47 331.39 516.08 334.96 517.15 337.92 C 515.78 337.91 514.42 337.90 513.07 337.89 C 512.15 334.60 510.92 330.17 506.52 330.92 C 506.49 333.22 506.49 335.54 506.56 337.85 C 505.22 337.89 503.89 337.91 502.56 337.93 C 502.61 332.50 502.58 327.07 502.59 321.64 Z" />
</g>
<g id="#2c92d5ff">
<path fill="#2c92d5" opacity="1.00" d=" M 722.90 108.21 C 739.49 104.18 757.21 105.59 773.16 111.56 C 789.35 118.02 803.57 129.48 813.30 143.96 C 821.86 157.03 827.01 172.55 827.08 188.23 C 832.06 188.34 837.04 188.22 842.02 188.52 C 850.51 180.51 858.61 172.09 866.91 163.87 C 871.95 159.29 876.16 153.81 881.65 149.75 C 887.21 155.57 892.95 161.20 898.71 166.81 C 906.80 175.02 915.08 183.02 923.13 191.26 C 914.55 191.40 905.97 191.26 897.39 191.33 C 897.66 229.04 882.17 266.16 856.84 293.86 C 844.21 307.63 829.11 319.15 812.49 327.67 C 794.90 336.48 775.65 342.01 756.07 343.87 C 744.89 344.23 733.66 344.39 722.52 343.25 C 701.42 340.18 680.77 333.38 662.40 322.48 C 630.16 303.14 605.24 271.81 594.02 235.89 C 592.09 229.57 590.10 223.17 589.50 216.56 C 595.09 220.09 598.64 225.96 603.98 229.75 C 610.15 224.94 615.05 218.64 620.94 213.47 C 627.63 245.94 647.58 275.62 675.84 293.17 C 694.04 304.95 715.46 311.36 737.05 312.54 C 756.12 313.45 775.21 309.32 792.71 301.85 C 822.27 288.48 846.31 263.25 857.79 232.86 C 862.85 219.55 865.64 205.36 865.80 191.12 C 857.20 190.72 848.59 191.11 839.99 191.00 C 840.35 190.49 841.06 189.47 841.41 188.96 C 836.62 188.78 831.84 188.80 827.05 188.74 C 828.77 222.32 807.51 255.50 776.60 268.51 C 767.80 272.08 758.57 275.15 748.99 275.32 C 739.41 275.49 729.59 275.82 720.37 272.79 C 703.07 268.14 687.14 258.10 676.12 243.91 C 663.68 228.50 656.70 208.61 657.79 188.75 C 653.41 188.99 648.89 188.22 644.61 189.43 C 636.22 188.11 627.72 189.32 619.29 188.89 L 619.21 188.40 C 632.08 188.44 644.95 188.43 657.83 188.20 C 657.58 172.83 662.84 157.77 670.86 144.81 C 682.89 126.81 701.57 112.80 722.90 108.21 M 752.44 147.62 C 750.06 148.75 748.44 151.31 748.73 153.98 C 748.76 179.69 748.71 205.39 748.76 231.10 C 748.50 234.87 752.46 238.13 756.12 237.02 C 758.86 236.53 760.95 233.82 760.70 231.04 C 760.70 205.02 760.74 178.99 760.67 152.97 C 760.83 148.92 756.08 146.03 752.44 147.62 M 705.32 171.38 C 702.38 172.12 700.52 175.01 700.81 178.00 C 700.82 195.67 700.76 213.34 700.84 231.01 C 700.72 233.66 702.34 236.39 705.04 236.96 C 708.84 238.25 712.95 235.01 712.76 231.05 C 712.82 213.36 712.77 195.68 712.78 178.00 C 713.21 174.03 709.26 170.25 705.32 171.38 M 776.43 189.67 C 774.04 190.72 772.40 193.33 772.70 195.97 C 772.73 207.66 772.67 219.35 772.72 231.04 C 772.40 234.80 776.40 238.09 780.05 237.04 C 782.85 236.61 784.90 233.80 784.64 231.00 C 784.65 219.01 784.69 207.01 784.62 195.02 C 784.89 190.85 780.10 188.17 776.43 189.67 M 729.37 207.43 C 726.36 208.06 724.54 210.91 724.83 213.91 C 724.95 220.28 724.48 226.69 725.09 233.03 C 726.33 238.68 735.46 238.38 736.60 232.77 C 737.03 226.17 736.76 219.52 736.74 212.90 C 736.75 209.31 732.75 206.49 729.37 207.43 Z" />
</g>
</svg>
