<?xml version="1.0" encoding="UTF-8" ?>
<!DOCTYPE svg PUBLIC "-//W3C//DTD SVG 1.1//EN" "http://www.w3.org/Graphics/SVG/1.1/DTD/svg11.dtd">
<svg width="1327pt" height="347pt" viewBox="0 0 1327 347" version="1.1" xmlns="http://www.w3.org/2000/svg">
<g id="#ffffffff">
<path fill="#ffffff" opacity="1.00" d=" M 1187.81 164.84 C 1193.79 160.24 1203.15 161.15 1208.02 166.97 C 1211.60 170.66 1212.12 176.25 1211.17 181.08 C 1209.30 188.63 1200.59 193.55 1193.15 191.48 C 1190.52 190.87 1188.26 189.33 1186.08 187.83 C 1171.08 195.34 1156.12 202.93 1141.12 210.44 C 1141.12 211.75 1141.15 213.06 1141.19 214.38 C 1156.22 221.72 1171.13 229.29 1186.12 236.70 C 1190.99 232.76 1198.03 231.01 1203.77 234.12 C 1212.50 238.34 1214.39 251.75 1207.21 258.24 C 1201.28 264.35 1190.17 263.64 1184.93 256.99 C 1182.28 253.83 1181.53 249.65 1181.44 245.65 C 1166.48 238.19 1151.55 230.68 1136.55 223.30 C 1134.52 224.73 1132.49 226.29 1130.04 226.90 C 1122.30 229.38 1113.22 224.04 1111.39 216.18 C 1110.30 211.19 1111.05 205.46 1114.76 201.70 C 1118.58 198.25 1123.97 196.26 1129.13 197.28 C 1131.98 197.77 1134.28 199.66 1136.63 201.21 C 1151.56 193.74 1166.52 186.31 1181.46 178.85 C 1181.26 173.51 1183.14 167.85 1187.81 164.84 Z" />
<path fill="#ffffff" opacity="1.00" d=" M 136.37 164.48 C 139.52 163.67 142.82 164.02 146.04 163.96 C 170.36 164.01 194.68 163.97 218.99 163.97 C 222.65 163.83 226.51 165.22 228.62 168.35 C 230.29 170.53 230.14 173.41 230.23 176.00 C 230.17 202.00 230.21 228.00 230.21 254.00 C 230.15 256.52 230.13 259.35 228.20 261.26 C 225.50 264.58 220.95 265.10 216.95 265.05 C 191.63 264.96 166.30 265.09 140.98 264.98 C 135.86 265.16 129.90 261.70 129.97 256.05 C 129.81 228.70 129.96 201.34 129.89 173.99 C 129.46 169.74 132.49 165.85 136.37 164.48 M 139.68 174.02 C 139.84 194.22 139.35 214.45 139.91 234.64 C 146.46 234.93 153.02 234.62 159.57 234.74 C 160.22 239.12 162.83 243.40 167.40 244.46 C 172.57 245.13 177.81 244.55 183.01 244.74 C 187.71 244.66 193.22 245.48 196.96 241.94 C 199.22 240.22 199.79 237.33 200.46 234.75 C 207.10 234.72 213.75 234.69 220.39 234.78 C 220.55 214.53 220.41 194.27 220.46 174.02 C 193.53 174.02 166.60 174.02 139.68 174.02 Z" />
<path fill="#ffffff" opacity="1.00" d=" M 813.97 166.58 C 818.77 166.57 823.57 166.57 828.37 166.58 C 828.38 198.39 828.38 230.20 828.37 262.01 C 823.57 262.02 818.77 262.02 813.97 262.01 C 813.97 230.20 813.97 198.39 813.97 166.58 Z" />
<path fill="#ffffff" opacity="1.00" d=" M 499.15 186.07 C 503.67 182.47 509.00 179.59 514.87 179.20 C 525.52 178.11 536.37 184.74 540.27 194.71 C 542.39 199.50 542.23 204.86 541.65 209.95 C 548.67 211.83 554.61 217.31 556.54 224.37 C 557.89 230.41 556.80 237.12 552.89 242.03 C 549.26 247.02 543.11 249.79 537.00 249.73 C 518.32 249.75 499.63 249.78 480.94 249.72 C 472.98 249.88 465.48 245.33 460.86 239.03 C 456.13 232.69 455.71 224.08 457.62 216.67 C 460.15 207.98 467.91 202.00 476.34 199.57 C 476.75 194.71 478.47 189.58 482.96 187.05 C 487.60 183.40 494.06 183.34 499.15 186.07 M 486.66 219.48 C 491.68 219.52 496.69 219.51 501.71 219.50 C 501.72 224.59 501.71 229.68 501.74 234.77 C 505.10 234.76 508.46 234.76 511.83 234.76 C 511.82 229.66 511.79 224.56 511.92 219.47 C 516.92 219.52 521.92 219.52 526.92 219.49 C 520.25 212.70 513.50 205.98 506.76 199.25 C 500.09 206.03 493.28 212.66 486.66 219.48 Z" />
<path fill="#ffffff" opacity="1.00" d=" M 861.98 185.25 C 866.77 185.25 871.57 185.25 876.36 185.24 C 876.39 210.83 876.37 236.42 876.37 262.01 C 871.57 262.02 866.77 262.02 861.97 262.01 C 861.97 236.42 861.96 210.83 861.98 185.25 Z" />
<path fill="#ffffff" opacity="1.00" d=" M 174.98 189.26 C 178.36 189.24 181.75 189.24 185.14 189.25 C 185.14 194.25 185.14 199.24 185.14 204.24 C 190.17 204.24 195.21 204.24 200.24 204.25 C 193.57 211.05 186.78 217.75 180.07 224.51 C 173.31 217.78 166.59 211.01 159.85 204.25 C 164.90 204.24 169.94 204.24 174.99 204.24 C 174.98 199.25 174.98 194.25 174.98 189.26 Z" />
<path fill="#ffffff" opacity="1.00" d=" M 838.03 204.48 C 842.81 204.50 847.59 204.49 852.38 204.51 C 852.37 223.68 852.38 242.85 852.37 262.01 C 847.57 262.02 842.77 262.02 837.97 262.01 C 838.00 242.83 837.90 223.66 838.03 204.48 Z" />
<path fill="#ffffff" opacity="1.00" d=" M 789.98 214.25 C 794.77 214.25 799.57 214.25 804.37 214.25 C 804.38 230.17 804.37 246.09 804.37 262.01 C 799.57 262.02 794.77 262.02 789.97 262.01 C 789.97 246.09 789.96 230.17 789.98 214.25 Z" />
</g>
<g id="#000000ff">
<path fill="#000000" opacity="1.00" d=" M 74.07 58.07 C 79.31 58.13 84.56 58.12 89.80 58.08 C 89.74 64.70 89.74 71.32 89.80 77.94 C 88.41 77.92 87.01 77.90 85.62 77.89 C 85.67 72.42 85.63 66.95 85.65 61.47 C 83.17 61.48 80.70 61.48 78.22 61.48 C 78.24 66.94 78.21 72.41 78.24 77.88 C 76.85 77.90 75.46 77.92 74.07 77.95 C 74.13 71.33 74.13 64.70 74.07 58.07 Z" />
<path fill="#000000" opacity="1.00" d=" M 100.22 58.31 C 104.53 56.86 110.33 57.99 112.31 62.51 C 114.15 67.11 113.92 73.53 109.60 76.69 C 105.00 79.66 97.24 78.54 95.27 72.90 C 93.39 67.83 94.31 60.17 100.22 58.31 M 100.77 61.65 C 98.72 64.79 97.96 68.90 99.66 72.38 C 101.19 75.64 106.80 75.61 108.22 72.27 C 109.45 69.17 109.51 65.25 107.42 62.51 C 105.74 60.57 102.97 61.44 100.77 61.65 Z" />
<path fill="#000000" opacity="1.00" d=" M 122.35 58.08 C 126.19 58.12 130.03 58.12 133.87 58.07 C 133.79 63.56 133.87 69.05 133.82 74.54 C 134.50 74.53 135.85 74.50 136.53 74.49 C 136.52 77.58 136.52 80.67 136.55 83.76 C 135.20 83.76 133.86 83.76 132.52 83.76 C 132.54 81.80 132.55 79.84 132.55 77.88 C 128.33 77.91 124.10 77.91 119.88 77.89 C 119.89 79.86 119.90 81.82 119.92 83.79 C 118.58 83.77 117.23 83.75 115.89 83.74 C 115.89 80.85 115.89 77.97 115.93 75.08 C 118.22 74.07 118.87 71.57 119.68 69.44 C 121.01 65.77 121.73 61.92 122.35 58.08 M 125.67 61.47 C 124.83 65.94 123.58 70.33 121.84 74.53 C 124.47 74.51 127.09 74.51 129.72 74.52 C 129.71 70.18 129.71 65.83 129.72 61.48 C 128.37 61.48 127.02 61.47 125.67 61.47 Z" />
<path fill="#000000" opacity="1.00" d=" M 140.30 58.09 C 144.49 58.12 148.67 58.12 152.86 58.08 C 152.83 59.22 152.81 60.36 152.79 61.50 C 150.01 61.47 147.23 61.47 144.45 61.46 C 144.47 66.94 144.42 72.42 144.49 77.90 C 143.09 77.90 141.69 77.91 140.30 77.93 C 140.36 71.31 140.35 64.70 140.30 58.09 Z" />
<path fill="#000000" opacity="1.00" d=" M 160.52 58.66 C 164.99 56.72 171.50 57.66 173.58 62.58 C 175.33 67.01 175.14 73.01 171.33 76.33 C 166.86 79.69 158.88 78.80 156.62 73.20 C 154.75 68.31 155.28 61.21 160.52 58.66 M 161.60 62.56 C 159.54 65.28 159.63 69.15 160.81 72.22 C 162.22 75.65 168.05 75.67 169.46 72.23 C 171.05 68.77 170.32 64.71 168.26 61.62 C 166.05 61.43 163.26 60.59 161.60 62.56 Z" />
<path fill="#000000" opacity="1.00" d=" M 177.34 58.09 C 182.35 58.12 187.37 58.11 192.39 58.10 C 192.39 58.95 192.37 60.64 192.37 61.49 C 190.53 61.48 188.69 61.48 186.86 61.48 C 186.91 66.97 186.84 72.46 186.91 77.95 C 185.52 77.92 184.13 77.90 182.74 77.88 C 182.77 72.41 182.75 66.94 182.76 61.46 C 180.97 61.48 179.17 61.49 177.39 61.50 C 177.37 60.65 177.35 58.94 177.34 58.09 Z" />
<path fill="#000000" opacity="1.00" d=" M 200.37 58.52 C 204.41 56.97 209.97 57.54 212.47 61.46 C 214.73 65.39 214.71 70.58 212.46 74.51 C 209.87 78.55 204.06 79.10 199.95 77.28 C 196.08 75.54 194.91 70.85 195.23 66.97 C 195.25 63.52 196.96 59.79 200.37 58.52 M 202.42 61.60 C 197.34 64.51 198.70 76.32 205.90 74.64 C 210.19 73.75 210.14 68.08 209.35 64.70 C 208.76 61.55 205.11 60.49 202.42 61.60 Z" />
<path fill="#000000" opacity="1.00" d=" M 219.07 58.07 C 223.22 58.38 227.81 57.33 231.61 59.44 C 234.42 61.52 233.45 66.00 230.58 67.59 C 234.89 68.84 234.70 75.36 230.85 77.05 C 227.14 78.57 222.97 77.65 219.07 77.93 C 219.13 71.31 219.12 64.69 219.07 58.07 M 223.24 61.35 C 223.23 62.99 223.24 64.63 223.27 66.28 C 225.45 66.08 227.78 65.98 229.47 64.37 C 229.16 63.70 228.56 62.37 228.25 61.70 C 226.58 61.56 224.91 61.45 223.24 61.35 M 223.26 69.16 C 223.23 70.99 223.23 72.82 223.25 74.65 C 225.39 74.40 229.38 75.22 229.44 72.01 C 229.73 68.63 225.43 69.40 223.26 69.16 Z" />
<path fill="#000000" opacity="1.00" d=" M 238.30 58.08 C 239.69 58.09 241.09 58.10 242.48 58.11 C 242.44 60.92 242.41 63.73 242.48 66.54 L 243.19 66.31 C 245.98 64.15 247.20 60.53 249.83 58.21 C 251.25 58.10 252.68 58.02 254.11 57.98 C 251.69 61.20 249.25 64.41 246.81 67.61 C 249.37 71.05 251.87 74.53 254.50 77.91 C 252.91 77.91 251.32 77.91 249.74 77.92 C 247.30 74.68 245.29 71.09 242.41 68.20 C 242.40 71.44 242.46 74.67 242.49 77.90 C 241.09 77.90 239.69 77.91 238.30 77.92 C 238.36 71.31 238.35 64.70 238.30 58.08 Z" />
<path fill="#000000" opacity="1.00" d=" M 262.26 58.11 C 264.00 58.10 265.75 58.09 267.50 58.08 C 269.82 64.71 272.12 71.33 274.52 77.93 C 273.00 77.91 271.49 77.90 269.98 77.89 C 269.53 76.33 269.09 74.78 268.63 73.23 C 266.13 73.21 263.63 73.21 261.14 73.25 C 260.71 74.80 260.29 76.34 259.86 77.88 C 258.33 77.90 256.81 77.91 255.28 77.93 C 257.68 71.35 260.00 64.74 262.26 58.11 M 264.93 60.77 C 264.11 63.77 263.18 66.74 262.25 69.71 C 264.04 69.71 265.83 69.71 267.62 69.72 C 266.68 66.75 265.73 63.78 264.93 60.77 Z" />
<path fill="#000000" opacity="1.00" d=" M 399.54 59.76 C 402.80 58.33 406.44 57.16 410.01 58.07 C 412.34 58.46 414.78 60.42 414.51 63.00 C 414.53 65.93 411.30 66.87 409.20 68.01 C 411.24 67.99 413.59 68.29 414.67 70.29 C 415.34 72.59 415.00 75.49 412.70 76.76 C 408.80 79.16 403.97 78.15 399.75 77.33 C 399.74 76.48 399.72 74.79 399.71 73.95 C 403.11 74.86 406.67 75.29 410.14 74.39 C 410.46 73.69 411.12 72.29 411.44 71.59 C 409.30 68.97 405.76 69.31 402.75 69.15 C 402.73 68.42 402.69 66.96 402.68 66.23 C 404.89 66.01 407.17 66.02 409.31 65.32 C 410.66 64.60 410.29 62.97 410.48 61.72 C 407.38 60.84 404.14 61.07 401.26 62.53 C 400.68 61.61 400.11 60.68 399.54 59.76 Z" />
<path fill="#000000" opacity="1.00" d=" M 423.76 58.12 C 425.49 58.09 427.27 57.92 428.99 58.33 C 431.50 64.79 433.57 71.43 436.02 77.93 C 434.50 77.91 433.00 77.90 431.49 77.90 C 431.03 76.34 430.57 74.78 430.12 73.21 C 427.64 73.22 425.17 73.22 422.70 73.21 C 422.23 74.77 421.77 76.33 421.32 77.89 C 419.81 77.90 418.30 77.91 416.81 77.93 C 419.16 71.34 421.49 64.74 423.76 58.12 M 426.08 60.40 C 425.82 63.62 424.73 66.67 423.75 69.73 C 425.54 69.72 427.34 69.71 429.15 69.70 C 428.15 66.59 427.13 63.49 426.08 60.40 Z" />
<path fill="#000000" opacity="1.00" d=" M 439.30 58.09 C 443.49 58.12 447.67 58.12 451.86 58.08 C 451.83 59.22 451.81 60.36 451.79 61.50 C 449.01 61.47 446.22 61.47 443.45 61.46 C 443.47 66.94 443.42 72.42 443.49 77.90 C 442.08 77.90 440.69 77.91 439.30 77.93 C 439.35 71.31 439.35 64.70 439.30 58.09 Z" />
<path fill="#000000" opacity="1.00" d=" M 455.54 58.10 C 458.87 58.20 462.30 57.77 465.57 58.61 C 469.93 59.99 470.45 66.44 467.16 69.18 C 465.15 71.08 462.18 70.65 459.67 70.91 C 459.67 73.25 459.68 75.59 459.72 77.92 C 458.32 77.91 456.92 77.91 455.53 77.90 C 455.58 71.30 455.57 64.70 455.54 58.10 M 459.68 61.32 C 459.68 63.45 459.68 65.58 459.70 67.72 C 461.63 67.31 464.47 67.53 465.14 65.14 C 464.98 64.00 464.72 62.88 464.37 61.78 C 462.80 61.62 461.24 61.47 459.68 61.32 Z" />
<path fill="#000000" opacity="1.00" d=" M 471.58 58.09 C 473.05 58.10 474.53 58.11 476.02 58.11 C 477.58 61.87 479.23 65.60 480.83 69.35 C 482.34 65.60 483.93 61.88 485.43 58.12 C 486.87 58.11 488.32 58.09 489.77 58.07 C 487.06 63.67 485.04 69.61 482.00 75.05 C 480.16 78.43 475.92 78.39 472.60 78.12 C 472.55 77.24 472.45 75.46 472.40 74.57 C 474.52 74.57 477.29 75.32 478.53 72.97 C 476.65 67.82 473.89 63.05 471.58 58.09 Z" />
<path fill="#000000" opacity="1.00" d=" M 491.54 59.76 C 495.40 58.00 500.08 56.78 504.08 58.83 C 506.21 59.91 507.33 62.83 505.93 64.90 C 505.11 66.61 503.01 66.76 501.44 67.29 C 503.18 67.97 505.21 68.38 506.43 69.94 C 508.08 72.44 506.63 75.97 504.04 77.17 C 500.16 79.00 495.76 78.13 491.75 77.33 C 491.74 76.48 491.72 74.78 491.71 73.93 C 495.11 74.85 498.69 75.40 502.15 74.37 C 502.47 73.67 503.12 72.28 503.44 71.58 C 501.30 68.98 497.76 69.30 494.75 69.15 C 494.73 68.42 494.69 66.96 494.68 66.23 C 496.89 66.00 499.18 66.02 501.32 65.32 C 502.65 64.59 502.29 62.97 502.48 61.73 C 499.38 60.83 496.14 61.07 493.25 62.53 C 492.68 61.61 492.11 60.68 491.54 59.76 Z" />
<path fill="#000000" opacity="1.00" d=" M 511.53 58.11 C 512.58 58.10 514.67 58.09 515.71 58.08 C 515.67 64.70 515.66 71.31 515.72 77.93 C 514.67 77.92 512.58 77.91 511.53 77.90 C 511.58 71.30 511.58 64.71 511.53 58.11 Z" />
<path fill="#000000" opacity="1.00" d=" M 515.77 67.80 C 518.12 64.55 520.54 61.35 522.90 58.11 C 524.39 58.10 525.88 58.10 527.37 58.09 C 524.88 61.22 522.47 64.42 520.08 67.63 C 522.63 71.07 525.14 74.55 527.76 77.94 C 526.16 77.92 524.56 77.90 522.97 77.89 C 520.59 74.51 518.17 71.16 515.77 67.80 Z" />
<path fill="#000000" opacity="1.00" d=" M 535.25 58.11 C 537.00 58.10 538.75 58.10 540.51 58.09 C 542.81 64.71 545.12 71.33 547.52 77.92 C 546.00 77.91 544.49 77.90 542.98 77.89 C 542.53 76.33 542.08 74.77 541.62 73.22 C 539.12 73.21 536.62 73.21 534.12 73.26 C 533.70 74.80 533.28 76.34 532.87 77.88 C 531.33 77.90 529.80 77.91 528.28 77.93 C 530.68 71.35 533.01 64.74 535.25 58.11 M 537.93 60.82 C 537.10 63.80 536.18 66.75 535.25 69.71 C 537.04 69.71 538.83 69.71 540.62 69.72 C 539.68 66.76 538.74 63.81 537.93 60.82 Z" />
<path fill="#000000" opacity="1.00" d=" M 692.02 58.92 C 695.41 57.53 701.10 58.56 701.50 62.95 C 702.02 65.26 699.91 66.73 698.28 67.85 C 699.96 68.69 702.08 69.73 701.91 71.97 C 702.51 77.44 695.35 79.49 691.21 77.73 C 688.62 77.07 687.69 74.47 686.86 72.24 C 688.07 72.19 689.29 72.14 690.52 72.09 C 691.32 75.30 695.95 77.15 697.74 73.78 C 699.09 70.59 695.55 69.49 693.15 69.09 C 693.57 66.08 698.64 66.46 697.53 62.87 C 696.80 60.83 694.50 61.28 692.82 61.40 C 692.38 62.44 691.94 63.48 691.51 64.53 C 690.56 64.49 688.65 64.42 687.70 64.38 C 688.63 62.23 689.56 59.72 692.02 58.92 Z" />
<path fill="#000000" opacity="1.00" d=" M 724.81 77.92 C 727.26 71.38 729.30 64.68 731.87 58.18 C 733.57 58.05 735.29 58.08 737.01 58.07 C 739.29 64.70 741.62 71.33 744.02 77.93 C 742.50 77.91 740.99 77.90 739.49 77.90 C 739.03 76.34 738.57 74.78 738.12 73.21 C 735.64 73.22 733.17 73.22 730.71 73.21 C 730.23 74.77 729.76 76.33 729.31 77.90 C 727.80 77.90 726.30 77.91 724.81 77.92 M 731.75 69.73 C 733.54 69.72 735.34 69.71 737.14 69.70 C 736.19 66.78 735.28 63.86 734.32 60.95 C 733.55 63.90 732.68 66.83 731.75 69.73 Z" />
<path fill="#000000" opacity="1.00" d=" M 747.30 58.09 C 748.68 58.09 750.08 58.10 751.48 58.10 C 751.45 60.69 751.45 63.27 751.45 65.86 C 754.12 65.86 756.80 65.86 759.49 65.86 C 759.47 63.27 759.47 60.68 759.45 58.10 C 760.83 58.10 762.22 58.10 763.63 58.10 C 763.58 64.70 763.57 71.31 763.63 77.92 C 762.22 77.91 760.83 77.91 759.44 77.91 C 759.47 75.05 759.47 72.19 759.49 69.34 C 756.80 69.34 754.12 69.34 751.45 69.34 C 751.45 72.19 751.45 75.05 751.49 77.90 C 750.08 77.90 748.68 77.91 747.30 77.93 C 747.35 71.31 747.35 64.70 747.30 58.09 Z" />
<path fill="#000000" opacity="1.00" d=" M 766.81 77.93 C 769.18 71.33 771.48 64.71 773.79 58.09 C 775.52 58.10 777.26 58.10 779.02 58.10 C 781.30 64.73 783.62 71.34 786.02 77.93 C 784.50 77.91 782.99 77.90 781.49 77.90 C 781.03 76.34 780.57 74.78 780.12 73.21 C 777.64 73.22 775.16 73.22 772.70 73.21 C 772.23 74.77 771.76 76.33 771.32 77.89 C 769.81 77.90 768.30 77.91 766.81 77.93 M 776.28 60.93 C 775.56 63.90 774.68 66.82 773.75 69.73 C 775.54 69.72 777.34 69.71 779.15 69.70 C 778.19 66.77 777.26 63.84 776.28 60.93 Z" />
<path fill="#000000" opacity="1.00" d=" M 792.26 58.08 C 796.44 58.12 800.62 58.12 804.80 58.08 C 804.74 64.70 804.74 71.32 804.80 77.94 C 803.40 77.92 802.00 77.90 800.62 77.89 C 800.67 72.42 800.62 66.95 800.65 61.47 C 798.98 61.48 797.31 61.48 795.66 61.48 C 794.90 66.27 794.91 71.31 792.98 75.83 C 791.99 78.32 788.96 78.13 786.77 78.32 C 786.77 77.51 786.75 75.89 786.75 75.09 C 787.39 74.87 788.69 74.44 789.34 74.22 C 791.25 69.08 791.35 63.46 792.26 58.08 Z" />
<path fill="#000000" opacity="1.00" d=" M 810.54 58.10 C 811.48 58.10 813.37 58.10 814.31 58.11 C 814.28 63.24 814.35 68.38 814.14 73.52 C 817.14 68.34 820.38 63.31 823.39 58.14 C 825.08 58.11 826.79 58.10 828.50 58.08 C 828.47 64.69 828.46 71.30 828.51 77.91 C 827.25 77.91 826.00 77.90 824.76 77.90 C 824.79 72.73 824.70 67.56 824.93 62.40 C 821.93 67.61 818.69 72.69 815.66 77.89 C 813.94 77.90 812.23 77.91 810.54 77.92 C 810.57 71.31 810.57 64.70 810.54 58.10 Z" />
<path fill="#000000" opacity="1.00" d=" M 832.81 59.77 C 837.28 57.61 844.24 56.11 847.46 60.99 C 848.96 64.50 845.60 66.94 842.62 67.69 C 844.21 68.13 846.19 68.11 847.34 69.52 C 849.55 71.96 848.03 76.05 845.18 77.23 C 841.36 78.96 837.07 78.14 833.13 77.36 C 833.11 76.49 833.07 74.74 833.05 73.87 C 836.10 74.60 839.39 75.75 842.48 74.51 C 844.07 74.04 844.60 72.42 844.20 70.91 C 841.95 69.00 838.86 69.35 836.13 69.18 C 836.09 68.43 836.02 66.94 835.98 66.19 C 838.57 65.73 842.07 66.56 843.78 64.03 C 843.66 59.37 837.27 61.30 834.51 62.53 C 833.93 61.61 833.36 60.69 832.81 59.77 Z" />
<path fill="#000000" opacity="1.00" d=" M 1022.84 58.72 C 1024.16 58.72 1025.49 58.71 1026.83 58.70 C 1026.82 62.62 1026.84 66.54 1026.81 70.46 C 1027.43 70.46 1028.66 70.45 1029.28 70.44 C 1029.27 71.18 1029.27 72.66 1029.26 73.40 C 1028.65 73.40 1027.41 73.40 1026.79 73.40 C 1026.81 74.90 1026.84 76.41 1026.89 77.92 C 1025.61 77.92 1024.33 77.92 1023.07 77.92 C 1023.10 76.41 1023.14 74.90 1023.19 73.40 C 1019.91 73.40 1016.63 73.43 1013.37 73.32 C 1015.43 67.84 1019.73 63.61 1022.84 58.72 M 1023.08 63.05 C 1021.37 65.54 1019.63 68.01 1017.86 70.45 C 1019.62 70.45 1021.39 70.45 1023.18 70.46 C 1023.13 67.99 1023.13 65.52 1023.08 63.05 Z" />
<path fill="#000000" opacity="1.00" d=" M 1058.40 58.51 C 1062.42 56.98 1067.93 57.54 1070.45 61.41 C 1072.52 64.90 1072.61 69.38 1071.18 73.13 C 1068.38 80.35 1055.88 79.94 1053.79 72.36 C 1052.43 67.53 1053.03 60.62 1058.40 58.51 M 1060.44 61.59 C 1055.33 64.47 1056.69 76.33 1063.90 74.63 C 1068.19 73.74 1068.13 68.08 1067.35 64.71 C 1066.76 61.57 1063.12 60.49 1060.44 61.59 Z" />
<path fill="#000000" opacity="1.00" d=" M 1077.07 58.07 C 1081.25 58.13 1085.43 58.11 1089.62 58.09 C 1089.61 58.94 1089.58 60.64 1089.57 61.48 C 1086.78 61.47 1084.01 61.47 1081.24 61.46 C 1081.21 62.83 1081.19 64.21 1081.18 65.58 C 1083.72 65.84 1086.57 65.66 1088.74 67.24 C 1092.26 69.58 1091.55 75.92 1087.45 77.26 C 1084.09 78.27 1080.52 77.79 1077.07 77.94 C 1077.13 71.32 1077.12 64.69 1077.07 58.07 M 1081.27 68.99 C 1081.23 70.91 1081.23 72.84 1081.27 74.76 C 1083.00 74.46 1084.98 74.63 1086.46 73.48 C 1086.86 72.27 1086.61 70.98 1086.64 69.73 C 1084.84 69.44 1083.05 69.20 1081.27 68.99 Z" />
<path fill="#000000" opacity="1.00" d=" M 1095.30 58.08 C 1097.20 58.10 1099.11 58.11 1101.03 58.11 C 1102.58 63.34 1104.24 68.53 1105.85 73.73 C 1107.38 68.48 1109.24 63.33 1110.86 58.11 C 1112.76 58.11 1114.68 58.10 1116.61 58.09 C 1116.56 64.70 1116.56 71.31 1116.61 77.92 C 1115.29 77.91 1113.99 77.90 1112.70 77.90 C 1112.71 72.53 1112.74 67.16 1112.75 61.79 C 1111.18 67.22 1109.31 72.55 1107.61 77.94 C 1106.28 77.91 1104.98 77.89 1103.70 77.87 C 1102.20 72.94 1100.78 67.99 1099.17 63.10 C 1098.90 62.36 1098.12 62.46 1097.51 62.39 L 1098.81 63.09 C 1098.95 68.04 1098.86 72.99 1098.94 77.95 C 1097.71 77.93 1096.49 77.92 1095.29 77.91 C 1095.36 71.30 1095.34 64.69 1095.30 58.08 Z" />
<path fill="#000000" opacity="1.00" d=" M 1122.30 58.09 C 1126.11 58.12 1129.93 58.11 1133.75 58.09 C 1133.74 58.93 1133.71 60.61 1133.70 61.46 C 1131.27 61.44 1128.86 61.44 1126.45 61.43 C 1126.44 62.91 1126.43 64.40 1126.45 65.89 C 1128.71 65.89 1130.97 65.89 1133.25 65.88 C 1133.26 66.74 1133.26 68.46 1133.26 69.32 C 1130.97 69.31 1128.71 69.31 1126.45 69.31 C 1126.44 71.06 1126.44 72.81 1126.45 74.56 C 1128.86 74.55 1131.26 74.54 1133.69 74.52 C 1133.70 75.65 1133.72 76.78 1133.77 77.92 C 1129.94 77.89 1126.11 77.89 1122.30 77.92 C 1122.35 71.31 1122.35 64.70 1122.30 58.09 Z" />
<path fill="#000000" opacity="1.00" d=" M 1138.53 58.11 C 1139.58 58.10 1141.67 58.09 1142.71 58.08 C 1142.67 60.67 1142.67 63.27 1142.67 65.86 C 1145.34 65.86 1148.02 65.86 1150.71 65.86 C 1150.69 63.28 1150.69 60.70 1150.68 58.12 C 1152.06 58.10 1153.45 58.09 1154.85 58.07 C 1154.80 64.69 1154.80 71.32 1154.86 77.95 C 1153.44 77.92 1152.06 77.90 1150.68 77.89 C 1150.70 75.04 1150.69 72.19 1150.71 69.34 C 1148.02 69.34 1145.34 69.34 1142.67 69.34 C 1142.67 72.20 1142.67 75.06 1142.72 77.93 C 1141.31 77.91 1139.91 77.91 1138.53 77.90 C 1138.57 71.30 1138.57 64.71 1138.53 58.11 Z" />
<path fill="#000000" opacity="1.00" d=" M 36.12 62.10 C 38.95 60.33 41.92 58.63 45.36 58.46 C 45.45 64.94 45.35 71.42 45.42 77.91 C 44.46 77.91 42.55 77.91 41.60 77.91 C 41.64 72.81 41.61 67.71 41.62 62.61 C 39.77 63.66 37.91 64.70 36.06 65.78 C 36.08 64.55 36.10 63.33 36.12 62.10 Z" />
<path fill="#000000" opacity="1.00" d=" M 361.09 64.75 C 361.95 62.55 362.67 59.84 365.16 58.94 C 367.76 58.17 370.96 57.97 373.20 59.77 C 375.17 61.28 375.33 64.22 374.46 66.37 C 372.49 69.81 369.31 72.31 366.59 75.12 C 369.36 75.10 372.15 75.10 374.93 75.06 C 374.93 75.78 374.93 77.22 374.93 77.94 C 370.11 77.84 365.28 78.01 360.46 77.80 C 363.09 72.48 369.25 69.85 371.39 64.18 C 371.08 63.46 370.45 62.04 370.14 61.32 C 367.31 60.48 365.31 62.20 364.75 64.90 C 363.53 64.86 362.30 64.80 361.09 64.75 Z" />
<path fill="#000000" opacity="1.00" d=" M 57.32 69.12 C 59.53 69.10 61.75 69.10 63.96 69.11 C 63.90 69.62 63.78 70.66 63.72 71.17 C 61.65 71.15 59.59 71.15 57.52 71.16 C 57.47 70.65 57.37 69.63 57.32 69.12 Z" />
<path fill="#000000" opacity="1.00" d=" M 384.04 69.12 C 386.25 69.10 388.47 69.10 390.69 69.10 C 390.65 69.62 390.56 70.65 390.52 71.16 C 388.45 71.15 386.38 71.15 384.32 71.17 C 384.25 70.66 384.11 69.64 384.04 69.12 Z" />
<path fill="#000000" opacity="1.00" d=" M 710.45 69.19 C 712.78 69.09 715.13 69.09 717.48 69.12 C 717.43 69.63 717.33 70.66 717.27 71.17 C 714.90 70.81 711.23 72.40 710.45 69.19 Z" />
<path fill="#000000" opacity="1.00" d=" M 1037.55 69.12 C 1039.89 69.09 1042.24 69.09 1044.60 69.20 C 1043.75 72.38 1040.11 70.81 1037.75 71.17 C 1037.70 70.66 1037.60 69.63 1037.55 69.12 Z" />
</g>
<g id="#3ad1e4ff">
<path fill="#3ad1e4" opacity="1.00" d=" M 32.87 130.51 C 117.08 130.51 201.28 130.50 285.49 130.52 C 299.24 158.40 312.92 186.32 326.76 214.16 C 313.10 242.06 299.22 269.85 285.50 297.72 C 201.29 297.76 117.07 297.73 32.86 297.74 C 46.61 269.88 60.44 242.06 74.19 214.20 C 60.41 186.31 46.56 158.45 32.87 130.51 M 136.37 164.48 C 132.49 165.85 129.46 169.74 129.89 173.99 C 129.96 201.34 129.81 228.70 129.97 256.05 C 129.90 261.70 135.86 265.16 140.98 264.98 C 166.30 265.09 191.63 264.96 216.95 265.05 C 220.95 265.10 225.50 264.58 228.20 261.26 C 230.13 259.35 230.15 256.52 230.21 254.00 C 230.21 228.00 230.17 202.00 230.23 176.00 C 230.14 173.41 230.29 170.53 228.62 168.35 C 226.51 165.22 222.65 163.83 218.99 163.97 C 194.68 163.97 170.36 164.01 146.04 163.96 C 142.82 164.02 139.52 163.67 136.37 164.48 Z" />
<path fill="#3ad1e4" opacity="1.00" d=" M 359.63 130.50 C 443.82 130.48 528.01 130.47 612.20 130.50 C 625.95 158.40 639.66 186.31 653.48 214.17 C 639.76 242.08 625.98 269.98 612.09 297.81 C 527.91 297.70 443.72 297.81 359.53 297.76 C 371.10 274.27 382.77 250.83 394.38 227.36 C 396.35 222.90 399.18 218.76 400.60 214.09 C 387.29 186.08 373.03 158.48 359.63 130.50 M 499.15 186.07 C 494.06 183.34 487.60 183.40 482.96 187.05 C 478.47 189.58 476.75 194.71 476.34 199.57 C 467.91 202.00 460.15 207.98 457.62 216.67 C 455.71 224.08 456.13 232.69 460.86 239.03 C 465.48 245.33 472.98 249.88 480.94 249.72 C 499.63 249.78 518.32 249.75 537.00 249.73 C 543.11 249.79 549.26 247.02 552.89 242.03 C 556.80 237.12 557.89 230.41 556.54 224.37 C 554.61 217.31 548.67 211.83 541.65 209.95 C 542.23 204.86 542.39 199.50 540.27 194.71 C 536.37 184.74 525.52 178.11 514.87 179.20 C 509.00 179.59 503.67 182.47 499.15 186.07 Z" />
<path fill="#3ad1e4" opacity="1.00" d=" M 139.68 174.02 C 166.60 174.02 193.53 174.02 220.46 174.02 C 220.41 194.27 220.55 214.53 220.39 234.78 C 213.75 234.69 207.10 234.72 200.46 234.75 C 199.79 237.33 199.22 240.22 196.96 241.94 C 193.22 245.48 187.71 244.66 183.01 244.74 C 177.81 244.55 172.57 245.13 167.40 244.46 C 162.83 243.40 160.22 239.12 159.57 234.74 C 153.02 234.62 146.46 234.93 139.91 234.64 C 139.35 214.45 139.84 194.22 139.68 174.02 M 174.98 189.26 C 174.98 194.25 174.98 199.25 174.99 204.24 C 169.94 204.24 164.90 204.24 159.85 204.25 C 166.59 211.01 173.31 217.78 180.07 224.51 C 186.78 217.75 193.57 211.05 200.24 204.25 C 195.21 204.24 190.17 204.24 185.14 204.24 C 185.14 199.24 185.14 194.25 185.14 189.25 C 181.75 189.24 178.36 189.24 174.98 189.26 Z" />
<path fill="#3ad1e4" opacity="1.00" d=" M 486.66 219.48 C 493.28 212.66 500.09 206.03 506.76 199.25 C 513.50 205.98 520.25 212.70 526.92 219.49 C 521.92 219.52 516.92 219.52 511.92 219.47 C 511.79 224.56 511.82 229.66 511.83 234.76 C 508.46 234.76 505.10 234.76 501.74 234.77 C 501.71 229.68 501.72 224.59 501.71 219.50 C 496.69 219.51 491.68 219.52 486.66 219.48 Z" />
</g>
<g id="#2c92d5ff">
<path fill="#2c92d5" opacity="1.00" d=" M 686.23 130.50 C 770.43 130.48 854.63 130.54 938.83 130.47 C 952.67 158.36 966.37 186.33 980.19 214.24 C 966.41 242.08 952.68 269.94 938.87 297.76 C 854.66 297.74 770.45 297.76 686.24 297.75 C 700.00 269.90 713.82 242.08 727.58 214.23 C 713.81 186.31 699.97 158.43 686.23 130.50 M 813.97 166.58 C 813.97 198.39 813.97 230.20 813.97 262.01 C 818.77 262.02 823.57 262.02 828.37 262.01 C 828.38 230.20 828.38 198.39 828.37 166.58 C 823.57 166.57 818.77 166.57 813.97 166.58 M 861.98 185.25 C 861.96 210.83 861.97 236.42 861.97 262.01 C 866.77 262.02 871.57 262.02 876.37 262.01 C 876.37 236.42 876.39 210.83 876.36 185.24 C 871.57 185.25 866.77 185.25 861.98 185.25 M 838.03 204.48 C 837.90 223.66 838.00 242.83 837.97 262.01 C 842.77 262.02 847.57 262.02 852.37 262.01 C 852.38 242.85 852.37 223.68 852.38 204.51 C 847.59 204.49 842.81 204.50 838.03 204.48 M 789.98 214.25 C 789.96 230.17 789.97 246.09 789.97 262.01 C 794.77 262.02 799.57 262.02 804.37 262.01 C 804.37 246.09 804.38 230.17 804.37 214.25 C 799.57 214.25 794.77 214.25 789.98 214.25 Z" />
</g>
<g id="#13538aff">
<path fill="#13538a" opacity="1.00" d=" M 1012.93 130.49 C 1097.15 130.50 1181.36 130.50 1265.58 130.49 C 1279.36 158.40 1293.09 186.34 1306.89 214.24 C 1293.15 242.09 1279.35 269.91 1265.59 297.75 C 1181.37 297.76 1097.15 297.75 1012.93 297.76 C 1026.70 269.90 1040.54 242.08 1054.28 214.21 C 1040.46 186.32 1026.69 158.41 1012.93 130.49 M 1187.81 164.84 C 1183.14 167.85 1181.26 173.51 1181.46 178.85 C 1166.52 186.31 1151.56 193.74 1136.63 201.21 C 1134.28 199.66 1131.98 197.77 1129.13 197.28 C 1123.97 196.26 1118.58 198.25 1114.76 201.70 C 1111.05 205.46 1110.30 211.19 1111.39 216.18 C 1113.22 224.04 1122.30 229.38 1130.04 226.90 C 1132.49 226.29 1134.52 224.73 1136.55 223.30 C 1151.55 230.68 1166.48 238.19 1181.44 245.65 C 1181.53 249.65 1182.28 253.83 1184.93 256.99 C 1190.17 263.64 1201.28 264.35 1207.21 258.24 C 1214.39 251.75 1212.50 238.34 1203.77 234.12 C 1198.03 231.01 1190.99 232.76 1186.12 236.70 C 1171.13 229.29 1156.22 221.72 1141.19 214.38 C 1141.15 213.06 1141.12 211.75 1141.12 210.44 C 1156.12 202.93 1171.08 195.34 1186.08 187.83 C 1188.26 189.33 1190.52 190.87 1193.15 191.48 C 1200.59 193.55 1209.30 188.63 1211.17 181.08 C 1212.12 176.25 1211.60 170.66 1208.02 166.97 C 1203.15 161.15 1193.79 160.24 1187.81 164.84 Z" />
</g>
</svg>
