<?xml version="1.0" encoding="UTF-8" ?>
<!DOCTYPE svg PUBLIC "-//W3C//DTD SVG 1.1//EN" "http://www.w3.org/Graphics/SVG/1.1/DTD/svg11.dtd">
<svg width="1000pt" height="385pt" viewBox="0 0 1000 385" version="1.1" xmlns="http://www.w3.org/2000/svg">
<g id="#ffffffff">
<path fill="#ffffff" opacity="1.00" d=" M 848.67 108.65 C 854.90 103.99 864.89 104.99 869.57 111.41 C 874.79 118.20 873.01 129.15 865.59 133.64 C 859.91 137.29 852.07 136.23 847.12 131.80 C 832.10 139.24 817.10 146.72 802.10 154.20 C 802.09 155.47 802.08 156.74 802.08 158.02 C 817.08 165.54 832.11 173.00 847.14 180.47 C 849.77 178.59 852.64 176.79 855.92 176.40 C 863.91 175.24 872.44 181.80 872.49 190.07 C 873.13 195.22 870.92 200.61 866.60 203.55 C 860.40 207.91 850.91 206.86 846.06 200.94 C 843.11 197.87 842.55 193.47 842.46 189.41 C 827.45 181.96 812.48 174.44 797.46 167.02 C 795.41 168.57 793.33 170.26 790.75 170.77 C 783.04 172.95 774.19 167.79 772.35 159.99 C 771.41 155.32 771.97 149.94 775.33 146.32 C 779.07 142.50 784.59 139.93 790.01 141.02 C 792.94 141.42 795.28 143.39 797.50 145.19 C 812.54 137.79 827.44 130.10 842.45 122.62 C 842.31 117.36 844.23 111.76 848.67 108.65 Z" />
<path fill="#ffffff" opacity="1.00" d=" M 366.82 126.67 C 375.87 117.13 392.38 117.35 401.71 126.35 C 408.46 132.21 410.76 141.73 409.25 150.32 C 415.99 152.14 421.99 157.20 423.90 164.05 C 425.39 170.25 424.73 177.43 420.44 182.43 C 416.38 187.73 409.60 190.31 403.05 190.24 C 387.38 190.25 371.71 190.22 356.04 190.25 C 350.06 190.36 343.85 190.33 338.30 187.78 C 329.35 183.64 323.38 173.90 323.96 164.01 C 324.00 152.63 333.01 142.60 343.94 140.21 C 343.79 133.68 347.99 127.35 354.31 125.43 C 358.45 123.86 363.00 124.64 366.82 126.67 M 374.34 139.78 C 367.64 146.53 360.86 153.20 354.20 159.99 C 359.23 160.01 364.26 159.99 369.30 160.01 C 369.31 165.00 369.31 169.99 369.29 174.98 C 372.66 175.01 376.03 175.01 379.41 175.00 C 379.42 170.03 379.45 165.06 379.36 160.08 C 384.41 159.94 389.46 160.03 394.51 159.99 C 387.86 153.18 381.11 146.46 374.34 139.78 Z" />
<path fill="#ffffff" opacity="1.00" d=" M 584.42 173.02 C 589.23 172.98 594.04 172.99 598.85 173.01 C 598.83 205.01 598.85 237.00 598.84 268.99 C 594.03 269.00 589.22 269.03 584.41 268.96 C 584.46 236.98 584.44 205.00 584.42 173.02 Z" />
<path fill="#ffffff" opacity="1.00" d=" M 108.30 177.39 C 110.08 176.53 112.10 176.61 114.02 176.54 C 140.35 176.61 166.68 176.51 193.01 176.59 C 198.18 176.06 203.48 180.68 203.08 185.97 C 203.06 213.00 203.08 240.03 203.07 267.06 C 203.53 272.06 199.21 277.45 194.00 277.05 C 166.31 277.01 138.63 277.06 110.95 277.03 C 107.35 277.10 104.43 274.03 103.16 270.91 C 102.59 268.33 102.75 265.66 102.71 263.04 C 102.77 237.36 102.69 211.67 102.75 185.99 C 102.41 182.22 104.87 178.77 108.30 177.39 M 112.48 186.51 C 112.46 206.66 112.51 226.80 112.45 246.94 C 119.13 247.03 125.81 246.94 132.49 247.00 C 132.73 252.91 138.08 257.57 143.93 257.25 C 150.88 257.01 157.90 257.78 164.80 256.79 C 169.66 256.13 172.73 251.63 173.15 247.00 C 179.85 246.95 186.55 247.00 193.26 246.98 C 193.29 226.85 193.20 206.72 193.30 186.60 C 166.36 186.39 139.42 186.57 112.48 186.51 Z" />
<path fill="#ffffff" opacity="1.00" d=" M 632.44 192.26 C 637.23 192.24 642.03 192.25 646.84 192.25 C 646.86 217.83 646.83 243.41 646.85 268.99 C 642.04 269.00 637.23 269.02 632.42 268.97 C 632.46 243.40 632.43 217.83 632.44 192.26 Z" />
<path fill="#ffffff" opacity="1.00" d=" M 147.80 201.50 C 151.17 201.48 154.55 201.48 157.92 201.50 C 157.92 206.57 157.91 211.65 157.93 216.73 C 162.96 216.74 167.98 216.71 173.00 216.76 C 166.35 223.56 159.57 230.23 152.89 237.00 C 146.21 230.27 139.34 223.72 132.88 216.78 C 137.85 216.68 142.82 216.74 147.80 216.74 C 147.80 211.66 147.79 206.58 147.80 201.50 Z" />
<path fill="#ffffff" opacity="1.00" d=" M 608.44 211.50 C 613.23 211.50 618.03 211.50 622.83 211.49 C 622.87 230.66 622.83 249.82 622.85 268.99 C 618.03 269.00 613.22 269.02 608.42 268.96 C 608.47 249.81 608.41 230.65 608.44 211.50 Z" />
<path fill="#ffffff" opacity="1.00" d=" M 560.38 221.07 C 565.20 220.94 570.02 221.00 574.85 221.01 C 574.84 237.00 574.84 253.00 574.85 268.99 C 570.03 269.00 565.21 269.04 560.40 268.95 C 560.45 252.99 560.49 237.03 560.38 221.07 Z" />
</g>
<g id="#1b1b1bff">
<path fill="#1b1b1b" opacity="1.00" d=" M 333.17 31.19 C 335.08 30.85 337.07 30.85 338.98 31.22 C 341.84 32.09 340.98 36.96 337.94 36.71 C 335.64 36.71 332.29 37.53 331.06 34.93 C 330.52 33.26 331.66 31.77 333.17 31.19 Z" />
<path fill="#1b1b1b" opacity="1.00" d=" M 348.36 31.39 C 350.32 30.68 352.57 30.85 354.58 31.27 C 357.11 32.05 356.66 36.47 353.96 36.65 C 351.92 36.81 349.71 37.10 347.79 36.29 C 345.76 35.30 346.21 31.97 348.36 31.39 Z" />
<path fill="#1b1b1b" opacity="1.00" d=" M 364.10 31.21 C 366.68 30.88 371.60 30.04 371.78 33.88 C 371.58 37.75 366.65 36.81 364.04 36.61 C 361.24 36.03 361.47 31.93 364.10 31.21 Z" />
<path fill="#1b1b1b" opacity="1.00" d=" M 379.36 31.40 C 381.29 30.67 383.52 30.86 385.52 31.25 C 388.13 31.94 387.75 36.55 384.95 36.65 C 382.70 36.82 380.16 37.20 378.16 35.93 C 376.97 34.43 377.46 32.02 379.36 31.40 Z" />
<path fill="#1b1b1b" opacity="1.00" d=" M 395.11 31.23 C 397.04 30.82 399.07 30.85 401.02 31.21 C 403.39 31.94 403.36 35.89 400.96 36.55 C 398.81 36.89 396.51 37.04 394.42 36.38 C 392.19 35.26 392.82 31.89 395.11 31.23 Z" />
<path fill="#1b1b1b" opacity="1.00" d=" M 410.39 31.39 C 413.00 30.68 418.26 30.03 418.33 34.02 C 418.00 37.61 413.54 36.81 411.03 36.67 C 408.07 36.69 407.67 32.16 410.39 31.39 Z" />
<path fill="#1b1b1b" opacity="1.00" d=" M 781.26 31.27 C 783.84 30.81 788.92 30.04 788.97 33.95 C 788.83 37.58 784.28 36.81 781.83 36.70 C 778.75 36.78 778.27 31.96 781.26 31.27 Z" />
<path fill="#1b1b1b" opacity="1.00" d=" M 796.42 31.45 C 798.37 30.64 800.66 30.89 802.71 31.24 C 804.99 31.83 805.10 35.62 802.94 36.42 C 800.84 37.00 798.54 36.94 796.43 36.50 C 794.12 35.81 794.20 32.21 796.42 31.45 Z" />
<path fill="#1b1b1b" opacity="1.00" d=" M 812.17 31.31 C 814.76 30.78 819.92 30.02 820.01 33.95 C 819.86 37.55 815.36 36.83 812.92 36.70 C 809.85 36.81 809.32 32.15 812.17 31.31 Z" />
<path fill="#1b1b1b" opacity="1.00" d=" M 828.18 31.14 C 830.02 30.87 831.96 30.82 833.80 31.26 C 836.49 32.11 835.84 36.90 832.85 36.69 C 830.67 36.77 828.13 37.27 826.31 35.79 C 824.97 34.04 826.12 31.59 828.18 31.14 Z" />
<path fill="#1b1b1b" opacity="1.00" d=" M 843.23 31.32 C 845.08 30.73 847.10 30.92 849.01 31.15 C 851.66 31.67 851.70 36.04 849.05 36.59 C 846.93 36.86 844.70 37.04 842.66 36.38 C 840.48 35.33 840.98 31.96 843.23 31.32 Z" />
<path fill="#1b1b1b" opacity="1.00" d=" M 859.15 31.15 C 861.77 30.84 866.52 30.16 866.60 34.05 C 866.08 37.66 861.64 36.80 859.06 36.64 C 855.95 36.33 856.18 31.58 859.15 31.15 Z" />
<path fill="#1b1b1b" opacity="1.00" d=" M 317.32 32.42 C 319.79 32.05 323.22 30.41 324.99 33.03 C 326.41 37.32 320.36 38.17 317.45 37.54 C 314.99 36.91 314.87 33.10 317.32 32.42 Z" />
<path fill="#1b1b1b" opacity="1.00" d=" M 425.29 32.40 C 428.13 32.31 433.03 32.44 433.69 35.94 C 433.11 40.01 428.49 38.23 425.93 37.61 C 423.51 37.06 423.38 33.67 425.29 32.40 Z" />
<path fill="#1b1b1b" opacity="1.00" d=" M 765.31 32.51 C 767.91 31.94 772.52 30.16 773.49 33.92 C 773.63 37.35 769.44 37.69 766.94 37.72 C 764.03 38.15 762.41 33.71 765.31 32.51 Z" />
<path fill="#1b1b1b" opacity="1.00" d=" M 873.35 32.66 C 875.56 31.63 878.29 32.88 880.47 33.65 C 883.56 34.90 881.04 39.82 878.18 38.47 C 876.24 37.84 873.16 38.30 872.39 35.92 C 871.71 34.82 872.44 33.38 873.35 32.66 Z" />
<path fill="#1b1b1b" opacity="1.00" d=" M 305.40 35.61 C 307.35 34.40 310.56 35.41 310.16 38.10 C 309.53 40.83 306.26 41.30 304.02 42.12 C 302.19 42.93 300.35 40.71 300.65 38.97 C 300.91 36.60 303.62 36.36 305.40 35.61 Z" />
<path fill="#1b1b1b" opacity="1.00" d=" M 755.31 35.15 C 757.04 34.81 758.52 36.24 758.49 37.97 C 757.75 40.84 754.39 41.35 752.01 42.19 C 749.53 42.80 747.91 39.24 749.49 37.43 C 751.23 36.28 753.27 35.62 755.31 35.15 Z" />
<path fill="#1b1b1b" opacity="1.00" d=" M 439.51 37.48 C 441.74 35.49 444.89 37.78 446.99 39.04 C 448.85 40.05 448.39 42.76 446.85 43.86 C 444.43 44.46 442.29 42.80 440.26 41.78 C 438.54 41.14 438.31 38.71 439.51 37.48 Z" />
<path fill="#1b1b1b" opacity="1.00" d=" M 888.16 36.98 C 890.88 36.07 893.49 37.92 895.66 39.36 C 897.64 41.07 895.61 45.01 893.03 43.90 C 890.10 43.12 884.60 40.49 888.16 36.98 Z" />
<path fill="#1b1b1b" opacity="1.00" d=" M 292.16 42.21 C 294.39 40.43 297.29 43.62 295.91 45.83 C 294.40 47.68 292.21 48.88 290.09 49.89 C 288.04 49.81 286.23 47.33 287.64 45.53 C 288.89 44.13 290.49 43.05 292.16 42.21 Z" />
<path fill="#1b1b1b" opacity="1.00" d=" M 740.21 42.32 C 742.89 39.99 746.16 44.61 743.53 46.58 C 741.49 48.03 738.58 51.29 736.12 48.79 C 733.74 45.84 738.02 43.55 740.21 42.32 Z" />
<path fill="#1b1b1b" opacity="1.00" d=" M 453.05 45.22 C 455.84 42.85 458.95 46.24 460.79 48.26 C 462.57 50.75 458.43 53.92 456.48 51.60 C 454.55 50.24 450.65 47.88 453.05 45.22 Z" />
<path fill="#1b1b1b" opacity="1.00" d=" M 901.27 45.26 C 902.53 43.99 904.34 44.11 905.64 45.26 C 907.24 46.48 909.54 47.79 909.46 50.10 C 908.84 51.67 906.65 53.35 905.12 51.87 C 903.08 50.44 898.87 48.11 901.27 45.26 Z" />
<path fill="#1b1b1b" opacity="1.00" d=" M 279.45 52.29 C 281.29 50.31 284.90 52.45 284.00 55.03 C 282.90 56.91 281.35 58.50 279.69 59.88 C 277.79 60.55 275.39 59.02 275.59 56.90 C 276.39 55.03 277.97 53.64 279.45 52.29 Z" />
<path fill="#1b1b1b" opacity="1.00" d=" M 724.12 56.18 C 725.50 54.51 726.81 52.48 728.90 51.66 C 731.12 50.73 733.42 53.90 731.81 55.74 C 730.62 57.37 729.13 58.73 727.78 60.20 C 725.72 60.12 722.95 58.65 724.12 56.18 Z" />
<path fill="#1b1b1b" opacity="1.00" d=" M 464.55 55.47 C 467.23 52.77 469.78 56.69 471.24 58.71 C 473.86 60.94 469.66 65.43 467.46 62.59 C 465.81 60.72 462.33 58.10 464.55 55.47 Z" />
<path fill="#1b1b1b" opacity="1.00" d=" M 913.18 55.05 C 916.26 53.18 918.30 57.28 919.85 59.31 C 921.76 61.74 917.26 65.28 915.55 62.43 C 913.75 60.58 910.25 57.51 913.18 55.05 Z" />
<path fill="#1b1b1b" opacity="1.00" d=" M 269.53 64.43 C 270.37 63.12 272.66 63.08 273.54 64.37 C 275.50 66.24 273.35 68.63 272.37 70.42 C 271.59 71.95 269.42 73.69 267.83 72.16 C 265.03 69.89 268.02 66.52 269.53 64.43 Z" />
<path fill="#1b1b1b" opacity="1.00" d=" M 718.19 63.94 C 720.14 62.34 723.27 64.65 722.48 66.96 C 721.48 68.95 720.55 71.34 718.52 72.48 C 716.83 73.49 714.89 71.54 714.81 69.89 C 715.30 67.64 716.71 65.67 718.19 63.94 Z" />
<path fill="#1b1b1b" opacity="1.00" d=" M 474.40 67.36 C 477.94 66.26 478.95 70.73 480.17 73.08 C 481.09 75.68 477.11 77.92 475.51 75.58 C 473.96 73.36 471.01 69.28 474.40 67.36 Z" />
<path fill="#1b1b1b" opacity="1.00" d=" M 922.34 67.55 C 923.66 66.79 925.52 67.17 926.13 68.67 C 927.15 70.76 929.73 73.47 927.71 75.72 C 926.05 77.52 923.52 76.14 922.78 74.22 C 921.71 72.27 919.71 69.14 922.34 67.55 Z" />
<path fill="#1b1b1b" opacity="1.00" d=" M 263.14 87.03 C 258.39 85.32 261.44 78.30 265.00 76.86 C 266.15 77.95 268.21 79.05 267.32 80.97 C 266.56 83.24 266.28 87.00 263.14 87.03 Z" />
<path fill="#1b1b1b" opacity="1.00" d=" M 711.21 87.02 C 706.67 85.07 709.82 78.52 713.07 76.81 C 714.21 77.93 716.47 78.89 715.57 80.90 C 714.77 83.20 714.52 87.16 711.21 87.02 Z" />
<path fill="#1b1b1b" opacity="1.00" d=" M 479.42 82.30 C 480.58 81.00 482.37 81.44 483.61 82.38 C 484.68 84.45 485.33 86.78 485.35 89.12 C 484.78 91.88 480.32 91.94 479.92 89.08 C 479.42 86.90 477.95 84.37 479.42 82.30 Z" />
<path fill="#1b1b1b" opacity="1.00" d=" M 928.20 81.95 C 931.49 79.99 933.26 84.54 933.43 87.16 C 934.39 89.21 932.33 91.98 930.08 91.09 C 928.16 90.87 928.08 88.51 927.56 87.10 C 927.19 85.42 926.23 83.02 928.20 81.95 Z" />
<path fill="#1b1b1b" opacity="1.00" d=" M 53.76 83.00 C 59.04 83.00 64.33 82.98 69.61 83.02 C 69.61 89.68 69.60 96.33 69.61 102.99 C 68.19 103.00 66.77 103.00 65.34 103.00 C 65.35 97.51 65.35 92.03 65.35 86.54 C 62.90 86.54 60.45 86.54 58.00 86.54 C 58.00 92.03 58.00 97.51 58.00 103.00 C 56.59 103.00 55.17 103.00 53.76 103.00 C 53.76 96.33 53.75 89.67 53.76 83.00 Z" />
<path fill="#1b1b1b" opacity="1.00" d=" M 80.19 83.23 C 84.16 82.08 89.34 82.60 91.75 86.37 C 93.82 89.82 93.87 94.26 92.56 97.99 C 90.06 104.90 78.56 105.19 75.49 98.62 C 73.24 93.43 74.00 85.24 80.19 83.23 M 81.50 86.76 C 76.84 89.82 78.01 100.96 84.95 99.62 C 89.20 98.87 89.40 93.38 88.62 90.04 C 88.15 86.78 84.27 85.31 81.50 86.76 Z" />
<path fill="#1b1b1b" opacity="1.00" d=" M 102.06 83.00 C 105.94 83.00 109.81 82.99 113.68 83.01 C 113.68 88.49 113.68 93.97 113.69 99.44 C 114.35 99.45 115.68 99.47 116.35 99.48 C 116.33 102.60 116.33 105.71 116.34 108.83 C 114.97 108.83 113.61 108.84 112.24 108.84 C 112.24 106.89 112.24 104.95 112.23 103.00 C 108.07 103.00 103.91 103.00 99.75 103.00 C 99.74 104.95 99.74 106.89 99.74 108.84 C 98.37 108.83 97.00 108.83 95.63 108.83 C 95.64 105.84 95.62 102.85 95.65 99.85 C 97.82 99.29 98.34 96.99 99.09 95.19 C 100.58 91.27 101.41 87.14 102.06 83.00 M 105.46 86.53 C 104.66 90.96 103.39 95.29 101.71 99.47 C 104.28 99.46 106.85 99.46 109.43 99.46 C 109.43 95.15 109.43 90.85 109.43 86.55 C 108.44 86.54 106.45 86.53 105.46 86.53 Z" />
<path fill="#1b1b1b" opacity="1.00" d=" M 120.01 83.01 C 124.22 82.99 128.43 83.00 132.64 83.00 C 132.64 83.88 132.64 85.64 132.64 86.52 C 129.85 86.53 127.05 86.53 124.26 86.52 C 124.25 92.01 124.26 97.51 124.25 103.00 C 122.83 103.00 121.42 103.00 120.00 103.00 C 120.00 96.34 119.99 89.67 120.01 83.01 Z" />
<path fill="#1b1b1b" opacity="1.00" d=" M 141.22 83.23 C 145.54 81.90 151.37 82.87 153.34 87.44 C 155.27 92.23 154.96 99.19 150.07 102.10 C 145.60 104.38 138.74 103.60 136.48 98.58 C 134.24 93.39 135.02 85.21 141.22 83.23 M 142.58 86.72 C 137.82 89.70 138.98 100.94 145.93 99.63 C 150.19 98.90 150.40 93.40 149.63 90.05 C 149.17 86.82 145.35 85.34 142.58 86.72 Z" />
<path fill="#1b1b1b" opacity="1.00" d=" M 157.05 83.01 C 162.08 82.99 167.12 83.00 172.16 83.00 C 172.16 83.88 172.16 85.65 172.15 86.53 C 170.34 86.54 168.54 86.54 166.73 86.55 C 166.73 92.03 166.72 97.51 166.73 102.99 C 165.31 103.00 163.89 103.00 162.48 103.01 C 162.47 97.52 162.48 92.03 162.47 86.54 C 160.67 86.54 158.87 86.54 157.06 86.54 C 157.05 85.36 157.05 84.19 157.05 83.01 Z" />
<path fill="#1b1b1b" opacity="1.00" d=" M 180.25 83.39 C 184.60 81.84 190.67 82.69 192.77 87.32 C 194.57 91.50 194.47 96.94 191.49 100.57 C 187.12 105.13 177.53 104.07 175.57 97.57 C 174.00 92.64 174.75 85.50 180.25 83.39 M 182.44 86.57 C 177.34 89.12 178.26 100.53 185.08 99.68 C 189.63 99.26 189.97 93.40 189.09 89.95 C 188.63 86.91 185.13 85.46 182.44 86.57 Z" />
<path fill="#1b1b1b" opacity="1.00" d=" M 198.76 83.00 C 202.81 83.16 207.14 82.41 210.96 84.12 C 214.23 85.91 213.54 91.19 210.22 92.57 C 214.61 93.54 214.59 100.11 210.89 101.95 C 207.13 103.78 202.78 102.74 198.76 103.00 C 198.76 96.33 198.75 89.67 198.76 83.00 M 203.10 86.31 C 203.05 87.88 203.01 89.46 202.97 91.03 C 204.91 90.71 208.32 91.64 208.73 88.89 C 208.81 85.96 205.01 86.70 203.10 86.31 M 203.02 94.22 C 203.01 96.00 203.00 97.78 203.00 99.57 C 204.64 99.45 206.34 99.62 207.93 99.10 C 209.67 98.20 209.59 95.07 207.57 94.56 C 206.07 94.26 204.54 94.30 203.02 94.22 Z" />
<path fill="#1b1b1b" opacity="1.00" d=" M 218.01 83.01 C 219.42 83.00 220.83 83.00 222.25 83.00 C 222.25 86.19 222.25 89.39 222.26 92.58 C 224.69 89.45 227.04 86.25 229.35 83.04 C 230.87 83.02 232.40 83.01 233.93 83.00 C 231.52 86.22 229.07 89.41 226.65 92.62 C 229.21 96.09 231.78 99.55 234.33 103.03 C 232.65 103.00 230.98 102.96 229.31 102.90 C 227.06 99.41 224.47 96.16 222.22 92.68 C 222.28 96.12 222.25 99.56 222.25 103.00 C 220.83 103.00 219.41 103.00 218.00 103.00 C 218.00 96.34 217.99 89.67 218.01 83.01 Z" />
<path fill="#1b1b1b" opacity="1.00" d=" M 242.06 82.92 C 243.78 82.92 245.50 82.92 247.23 82.92 C 249.60 89.60 251.95 96.30 254.31 102.99 C 252.79 103.00 251.28 103.01 249.76 103.03 C 249.28 101.45 248.80 99.86 248.33 98.28 C 245.89 98.25 243.46 98.23 241.02 98.23 C 240.54 99.81 240.07 101.39 239.60 102.98 C 238.06 102.99 236.52 103.00 234.99 103.01 C 237.35 96.32 239.69 89.61 242.06 82.92 M 242.09 94.68 C 243.81 94.68 245.54 94.68 247.28 94.68 C 246.39 91.82 245.49 88.97 244.64 86.10 C 243.85 88.98 242.98 91.83 242.09 94.68 Z" />
<path fill="#1b1b1b" opacity="1.00" d=" M 548.29 82.90 C 550.06 82.93 551.83 82.98 553.62 83.05 C 555.80 89.75 558.27 96.34 560.56 103.00 C 559.03 103.00 557.51 103.00 555.99 103.00 C 555.50 101.42 555.02 99.83 554.55 98.25 C 552.12 98.24 549.69 98.24 547.27 98.24 C 546.78 99.82 546.30 101.41 545.83 103.00 C 544.29 103.00 542.76 103.00 541.24 103.00 C 543.58 96.30 545.97 89.62 548.29 82.90 M 549.58 86.86 L 550.65 87.36 C 549.84 89.79 549.08 92.23 548.33 94.68 C 550.06 94.68 551.79 94.68 553.52 94.68 C 552.66 91.89 551.90 89.06 550.77 86.36 C 550.47 86.49 549.88 86.74 549.58 86.86 Z" />
<path fill="#1b1b1b" opacity="1.00" d=" M 563.76 83.00 C 565.17 83.00 566.58 83.00 568.00 83.00 C 567.99 85.61 568.00 88.23 568.00 90.85 C 570.64 90.84 573.28 90.84 575.92 90.84 C 575.92 88.23 575.92 85.61 575.92 83.00 C 577.33 83.00 578.74 83.00 580.16 83.00 C 580.16 89.67 580.16 96.33 580.16 103.00 C 578.74 103.00 577.33 103.00 575.92 103.00 C 575.92 100.13 575.92 97.25 575.91 94.38 C 573.28 94.38 570.64 94.38 568.02 94.37 C 568.00 97.25 567.99 100.12 568.00 103.00 C 566.58 103.00 565.17 103.00 563.76 103.00 C 563.76 96.33 563.75 89.67 563.76 83.00 Z" />
<path fill="#1b1b1b" opacity="1.00" d=" M 590.26 82.97 C 591.97 82.93 593.67 82.89 595.39 82.85 C 597.90 89.52 600.17 96.28 602.56 103.00 C 601.03 103.00 599.51 103.00 597.99 103.00 C 597.50 101.42 597.02 99.83 596.55 98.25 C 594.12 98.24 591.69 98.24 589.27 98.24 C 588.78 99.83 588.30 101.41 587.83 103.00 C 586.29 103.00 584.76 103.00 583.24 103.00 C 585.58 96.32 587.95 89.66 590.26 82.97 M 590.34 94.68 C 592.07 94.68 593.79 94.68 595.53 94.68 C 594.64 91.83 593.75 88.99 592.89 86.14 C 592.08 89.00 591.22 91.84 590.34 94.68 Z" />
<path fill="#1b1b1b" opacity="1.00" d=" M 606.40 97.58 C 607.55 92.77 607.99 87.82 608.77 82.95 C 612.96 83.03 617.15 83.00 621.34 83.00 C 621.36 89.67 621.35 96.33 621.35 103.00 C 619.92 103.00 618.50 103.00 617.09 103.00 C 617.09 97.51 617.10 92.02 617.09 86.54 C 615.46 86.54 613.83 86.54 612.21 86.55 C 611.38 91.39 611.52 96.58 609.40 101.10 C 608.27 103.45 605.40 103.26 603.23 103.22 C 603.22 102.38 603.20 100.69 603.19 99.85 C 604.85 99.98 606.24 99.33 606.40 97.58 Z" />
<path fill="#1b1b1b" opacity="1.00" d=" M 627.01 83.00 C 628.28 83.00 629.55 83.01 630.84 83.01 C 630.85 88.08 630.88 93.15 630.68 98.21 C 633.79 93.15 636.86 88.06 639.96 83.00 C 641.64 83.00 643.33 83.00 645.03 83.00 C 645.04 89.67 645.03 96.33 645.04 103.00 C 644.09 103.00 642.19 103.00 641.24 103.00 C 641.23 97.90 641.16 92.79 641.43 87.69 C 638.27 92.76 635.23 97.91 632.10 103.01 C 630.39 103.00 628.69 103.00 627.00 103.00 C 627.00 96.33 626.99 89.67 627.01 83.00 Z" />
<path fill="#1b1b1b" opacity="1.00" d=" M 649.17 84.82 C 652.72 82.98 656.96 82.04 660.86 83.31 C 663.16 84.03 664.95 86.50 664.17 88.95 C 663.68 91.13 661.30 91.88 659.43 92.39 C 661.27 93.03 663.57 93.44 664.50 95.39 C 665.79 98.01 664.18 101.25 661.61 102.34 C 657.73 103.94 653.40 103.24 649.45 102.34 C 649.44 101.44 649.43 99.65 649.42 98.75 C 652.61 99.61 656.18 100.69 659.37 99.28 C 660.88 98.58 661.30 96.15 659.71 95.29 C 657.50 94.08 654.85 94.41 652.44 94.18 C 652.44 93.40 652.44 91.83 652.44 91.05 C 654.94 90.99 657.46 90.82 659.85 90.01 C 659.89 89.24 659.96 87.69 659.99 86.92 C 657.09 85.65 653.89 86.14 651.18 87.63 C 650.51 86.69 649.84 85.75 649.17 84.82 Z" />
<path fill="#1b1b1b" opacity="1.00" d=" M 258.73 93.60 C 260.29 91.00 264.59 93.10 263.81 95.93 C 263.79 98.36 263.48 102.58 260.06 102.21 C 256.58 100.91 258.03 96.27 258.73 93.60 Z" />
<path fill="#1b1b1b" opacity="1.00" d=" M 707.20 93.19 C 709.13 91.22 712.76 93.31 712.04 95.98 C 712.11 98.51 711.57 102.81 708.01 102.17 C 704.84 100.41 706.24 95.89 707.20 93.19 Z" />
<path fill="#1b1b1b" opacity="1.00" d=" M 482.23 97.37 C 483.81 96.14 486.67 96.87 486.90 99.02 C 487.19 101.66 488.08 106.51 484.06 106.52 C 480.42 105.52 481.03 100.06 482.23 97.37 Z" />
<path fill="#1b1b1b" opacity="1.00" d=" M 931.15 97.05 C 935.45 95.47 935.74 101.12 935.31 103.96 C 935.37 107.23 929.90 107.23 929.88 104.02 C 929.85 101.80 928.75 98.39 931.15 97.05 Z" />
<path fill="#1b1b1b" opacity="1.00" d=" M 260.13 108.06 C 263.91 107.70 263.51 112.50 263.26 115.02 C 263.51 118.51 257.62 118.56 257.78 115.10 C 257.72 112.73 256.87 108.59 260.13 108.06 Z" />
<path fill="#1b1b1b" opacity="1.00" d=" M 707.31 108.43 C 708.73 107.47 711.05 108.27 711.39 110.03 C 711.68 111.96 711.71 113.97 711.34 115.90 C 710.62 118.68 705.92 118.04 706.01 115.16 C 706.07 112.98 705.15 109.86 707.31 108.43 Z" />
<path fill="#1b1b1b" opacity="1.00" d=" M 931.41 112.54 C 933.13 111.66 935.55 113.04 935.35 115.08 C 935.39 117.01 935.73 119.14 934.81 120.93 C 933.26 123.02 929.53 121.74 929.82 119.06 C 929.88 116.94 929.04 113.69 931.41 112.54 Z" />
<path fill="#1b1b1b" opacity="1.00" d=" M 482.20 113.10 C 483.61 111.79 486.29 112.05 486.94 114.03 C 487.31 116.06 487.28 118.18 486.94 120.21 C 486.20 122.66 482.10 122.50 481.70 119.91 C 481.47 117.67 481.16 115.19 482.20 113.10 Z" />
<path fill="#1b1b1b" opacity="1.00" d=" M 258.44 124.37 C 259.97 122.72 263.21 123.64 263.23 126.01 C 263.41 127.94 263.52 129.94 262.96 131.82 C 261.89 134.04 257.96 133.49 257.82 130.93 C 257.69 128.77 257.25 126.30 258.44 124.37 Z" />
<path fill="#1b1b1b" opacity="1.00" d=" M 707.15 123.98 C 708.80 122.87 711.50 123.87 711.47 126.04 C 711.60 127.98 711.86 130.06 711.11 131.91 C 710.03 134.04 706.24 133.44 706.06 130.98 C 706.01 128.71 705.21 125.68 707.15 123.98 Z" />
<path fill="#1b1b1b" opacity="1.00" d=" M 483.11 128.06 C 484.61 127.26 486.85 128.16 487.02 129.95 C 487.32 132.78 487.94 137.24 484.07 137.81 C 481.21 137.36 481.48 134.15 481.50 131.97 C 481.53 130.58 481.56 128.66 483.11 128.06 Z" />
<path fill="#1b1b1b" opacity="1.00" d=" M 931.14 128.14 C 932.66 127.20 935.11 128.11 935.27 130.02 C 935.61 132.89 936.08 137.58 932.03 137.79 C 929.43 137.09 929.76 134.07 929.74 131.97 C 929.80 130.63 929.73 128.86 931.14 128.14 Z" />
<path fill="#1b1b1b" opacity="1.00" d=" M 260.19 139.02 C 264.29 138.93 263.46 144.26 263.09 146.96 C 262.31 149.74 257.48 148.98 257.77 145.98 C 257.69 143.59 256.93 139.54 260.19 139.02 Z" />
<path fill="#1b1b1b" opacity="1.00" d=" M 707.29 139.44 C 708.73 138.45 711.03 139.27 711.40 141.02 C 711.68 142.95 711.70 144.93 711.35 146.85 C 710.69 149.69 705.89 149.06 706.01 146.14 C 706.07 143.97 705.16 140.88 707.29 139.44 Z" />
<path fill="#1b1b1b" opacity="1.00" d=" M 482.33 144.18 C 486.87 140.52 489.51 149.75 484.98 151.02 C 481.27 151.62 480.56 146.46 482.33 144.18 Z" />
<path fill="#1b1b1b" opacity="1.00" d=" M 930.50 144.36 C 931.63 142.80 934.56 143.11 935.11 145.09 C 936.23 147.32 935.28 151.55 932.12 151.00 C 929.18 150.47 929.16 146.35 930.50 144.36 Z" />
<path fill="#1b1b1b" opacity="1.00" d=" M 470.79 152.76 C 471.57 151.60 472.63 150.72 473.93 150.17 C 477.32 153.58 480.76 156.95 484.14 160.37 C 487.76 157.57 490.57 153.91 494.08 150.99 C 495.88 149.08 498.75 152.15 496.93 153.79 C 492.96 157.86 489.10 162.14 484.69 165.73 C 482.61 165.55 481.42 163.35 479.91 162.12 C 476.85 159.01 473.67 156.04 470.79 152.76 Z" />
<path fill="#1b1b1b" opacity="1.00" d=" M 920.05 153.84 C 918.13 152.15 920.75 150.86 922.05 150.13 C 925.54 153.30 928.64 156.89 932.23 159.96 C 936.86 158.22 939.13 151.96 944.10 150.35 L 945.13 151.02 C 945.29 151.52 945.60 152.51 945.76 153.01 C 942.14 157.37 937.90 161.20 933.83 165.13 C 932.50 166.71 931.04 164.89 930.07 163.98 C 926.76 160.56 923.23 157.36 920.05 153.84 Z" />
<path fill="#1b1b1b" opacity="1.00" d=" M 258.10 152.21 C 262.95 149.97 269.26 156.18 266.08 160.80 C 264.30 164.94 257.78 165.32 255.39 161.59 C 253.04 158.51 254.68 153.66 258.10 152.21 Z" />
<path fill="#1b1b1b" opacity="1.00" d=" M 704.44 162.56 C 700.58 159.28 703.03 152.10 708.05 151.84 C 711.20 151.38 713.60 153.81 715.02 156.32 C 715.01 157.45 715.01 158.59 715.04 159.73 C 713.47 163.93 707.83 165.76 704.44 162.56 Z" />
<path fill="#1b1b1b" opacity="1.00" d=" M 248.83 214.19 C 252.49 210.30 256.26 206.47 260.21 202.86 C 260.68 202.76 261.62 202.56 262.10 202.47 C 266.60 206.39 270.67 210.80 274.86 215.07 C 274.51 216.62 272.61 218.70 271.09 217.00 C 267.50 214.30 265.03 209.89 261.04 207.97 C 257.52 210.93 254.71 214.65 251.10 217.49 C 249.14 218.45 247.30 215.44 248.83 214.19 Z" />
<path fill="#1b1b1b" opacity="1.00" d=" M 699.98 214.11 C 703.79 210.09 707.70 206.09 711.89 202.47 L 713.14 202.46 C 717.38 206.07 721.25 210.13 725.08 214.17 C 726.62 215.54 724.88 218.19 722.90 217.55 C 719.24 214.52 716.11 210.90 712.70 207.60 C 708.83 210.58 705.88 214.56 702.06 217.58 C 700.07 218.14 698.35 215.43 699.98 214.11 Z" />
<path fill="#1b1b1b" opacity="1.00" d=" M 35.22 204.20 C 40.23 201.74 46.53 208.38 43.03 213.05 C 41.09 217.12 34.82 217.24 32.46 213.57 C 30.16 210.47 31.60 205.53 35.22 204.20 Z" />
<path fill="#1b1b1b" opacity="1.00" d=" M 485.51 204.59 C 489.08 202.32 493.46 204.79 495.02 208.32 C 495.01 209.43 495.01 210.56 495.02 211.68 C 493.51 214.60 490.41 217.37 486.90 215.92 C 481.74 214.87 480.87 206.93 485.51 204.59 Z" />
<path fill="#1b1b1b" opacity="1.00" d=" M 258.59 218.65 C 259.84 217.04 262.19 216.28 263.71 218.00 C 264.91 220.35 264.54 225.00 260.97 224.63 C 258.08 224.07 258.84 220.76 258.59 218.65 Z" />
<path fill="#1b1b1b" opacity="1.00" d=" M 711.25 217.15 C 715.86 215.24 717.01 223.96 712.98 224.51 C 709.02 225.25 708.60 218.83 711.25 217.15 Z" />
<path fill="#1b1b1b" opacity="1.00" d=" M 36.39 219.55 C 37.75 218.85 39.88 219.55 40.20 221.14 C 40.50 223.34 40.74 225.74 39.89 227.85 C 38.38 230.04 34.49 228.78 34.82 226.02 C 34.90 223.91 34.05 220.71 36.39 219.55 Z" />
<path fill="#1b1b1b" opacity="1.00" d=" M 487.40 219.57 C 489.12 218.62 491.64 220.00 491.43 222.07 C 491.49 223.98 491.80 226.06 490.94 227.83 C 489.50 230.07 485.57 228.76 485.90 226.05 C 485.99 223.91 485.10 220.82 487.40 219.57 Z" />
<path fill="#1b1b1b" opacity="1.00" d=" M 711.45 230.50 C 716.04 229.53 715.80 235.93 714.95 238.86 C 713.59 241.50 709.43 239.74 709.73 237.02 C 709.83 234.89 708.91 231.49 711.45 230.50 Z" />
<path fill="#1b1b1b" opacity="1.00" d=" M 259.29 231.11 C 260.73 229.56 262.91 230.47 263.94 231.98 C 264.41 234.23 264.45 236.64 263.87 238.87 C 262.75 241.12 259.26 240.18 258.78 237.97 C 258.55 235.71 258.25 233.21 259.29 231.11 Z" />
<path fill="#1b1b1b" opacity="1.00" d=" M 36.16 235.14 C 40.53 233.25 40.97 239.12 40.31 241.99 C 40.38 245.25 34.85 245.22 34.88 241.99 C 34.88 239.77 34.03 236.64 36.16 235.14 Z" />
<path fill="#1b1b1b" opacity="1.00" d=" M 487.19 235.15 C 489.18 233.90 491.83 235.74 491.48 238.04 C 491.48 240.28 492.13 243.99 489.07 244.45 C 487.10 244.83 485.61 242.89 485.87 241.06 C 485.94 239.11 485.28 236.44 487.19 235.15 Z" />
<path fill="#1b1b1b" opacity="1.00" d=" M 260.16 246.08 C 261.93 245.14 264.42 246.96 264.21 248.96 C 264.12 250.96 264.87 253.70 263.14 255.16 C 261.49 256.54 258.49 255.26 258.68 253.00 C 258.76 250.75 257.80 247.43 260.16 246.08 Z" />
<path fill="#1b1b1b" opacity="1.00" d=" M 711.15 246.09 C 713.04 245.08 715.50 246.97 715.29 249.04 C 715.31 250.94 715.63 253.02 714.71 254.77 C 713.13 256.61 709.52 255.59 709.76 252.96 C 709.82 250.72 708.92 247.55 711.15 246.09 Z" />
<path fill="#1b1b1b" opacity="1.00" d=" M 36.45 250.52 C 38.12 249.71 40.51 250.98 40.34 252.97 C 40.44 254.91 40.69 256.99 39.91 258.83 C 38.44 261.02 34.51 259.82 34.82 257.06 C 34.91 254.93 34.03 251.64 36.45 250.52 Z" />
<path fill="#1b1b1b" opacity="1.00" d=" M 487.44 250.56 C 489.12 249.64 491.63 251.00 491.43 253.05 C 491.50 254.96 491.79 257.04 490.95 258.84 C 489.49 261.06 485.57 259.76 485.90 257.03 C 485.98 254.90 485.10 251.76 487.44 250.56 Z" />
<path fill="#1b1b1b" opacity="1.00" d=" M 259.37 262.33 C 260.87 260.74 264.12 261.64 264.15 263.97 C 264.10 266.38 264.97 270.27 261.92 271.18 C 257.20 271.71 258.15 265.05 259.37 262.33 Z" />
<path fill="#1b1b1b" opacity="1.00" d=" M 710.43 262.36 C 711.96 260.76 715.14 261.59 715.23 263.94 C 715.39 265.90 715.31 267.90 714.88 269.82 C 713.70 271.93 709.88 271.62 709.66 269.00 C 709.60 266.80 709.28 264.33 710.43 262.36 Z" />
<path fill="#1b1b1b" opacity="1.00" d=" M 36.26 266.20 C 37.91 264.91 40.26 266.53 40.49 268.38 C 40.72 270.58 41.67 273.33 39.80 275.10 C 38.28 276.00 35.76 275.60 35.50 273.57 C 35.21 271.18 34.01 267.96 36.26 266.20 Z" />
<path fill="#1b1b1b" opacity="1.00" d=" M 487.25 266.25 C 490.87 264.20 492.33 269.38 491.97 272.06 C 492.83 275.05 488.03 277.09 486.76 274.14 C 486.27 271.63 485.05 268.23 487.25 266.25 Z" />
<path fill="#1b1b1b" opacity="1.00" d=" M 258.19 277.14 C 260.61 275.59 263.49 278.52 262.24 280.99 C 262.13 283.97 259.86 288.23 256.43 285.66 C 255.26 283.02 256.45 279.25 258.19 277.14 Z" />
<path fill="#1b1b1b" opacity="1.00" d=" M 709.14 277.19 C 711.01 275.84 714.01 277.59 713.50 279.91 C 712.91 282.23 712.96 285.93 709.96 286.45 C 704.91 286.29 707.40 279.63 709.14 277.19 Z" />
<path fill="#1b1b1b" opacity="1.00" d=" M 300.73 280.82 C 304.34 278.91 308.72 277.99 312.65 279.42 C 314.83 280.21 316.45 282.64 315.66 284.97 C 315.12 287.19 312.70 287.85 310.85 288.60 C 314.56 288.50 317.96 292.23 315.85 295.81 C 312.66 300.68 305.76 299.41 300.94 298.30 C 300.94 297.41 300.95 295.64 300.95 294.75 C 303.98 295.60 307.28 296.53 310.39 295.50 C 312.10 295.05 312.96 292.66 311.49 291.44 C 309.23 290.08 306.47 290.39 303.95 290.20 C 303.95 289.40 303.95 287.82 303.95 287.03 C 306.63 286.67 311.55 287.75 311.78 283.85 C 309.59 280.77 305.33 282.46 302.52 283.60 C 301.92 282.67 301.32 281.74 300.73 280.82 Z" />
<path fill="#1b1b1b" opacity="1.00" d=" M 325.29 278.95 C 326.99 278.92 328.69 278.89 330.39 278.85 C 332.91 285.52 335.17 292.29 337.56 299.00 C 336.03 299.00 334.51 299.00 332.99 299.00 C 332.50 297.42 332.03 295.84 331.56 294.25 C 329.13 294.24 326.70 294.24 324.27 294.24 C 323.79 295.82 323.30 297.41 322.83 299.00 C 321.30 299.00 319.77 299.00 318.24 299.00 C 320.59 292.32 322.94 285.63 325.29 278.95 M 327.89 282.15 C 327.08 285.01 326.22 287.85 325.34 290.68 C 327.07 290.68 328.80 290.68 330.53 290.68 C 329.65 287.83 328.76 285.00 327.89 282.15 Z" />
<path fill="#1b1b1b" opacity="1.00" d=" M 340.52 279.00 C 344.72 279.00 348.93 279.00 353.14 279.00 C 353.14 279.88 353.14 281.64 353.14 282.52 C 350.35 282.52 347.55 282.52 344.76 282.53 C 344.76 288.02 344.76 293.51 344.77 298.99 C 343.34 298.99 341.93 299.00 340.51 299.00 C 340.51 292.34 340.50 285.67 340.52 279.00 Z" />
<path fill="#1b1b1b" opacity="1.00" d=" M 356.76 279.00 C 360.15 279.12 363.67 278.58 366.96 279.61 C 371.63 281.16 371.72 288.53 367.64 290.83 C 365.65 292.04 363.23 291.80 361.00 291.98 C 361.00 294.32 361.00 296.66 361.00 299.00 C 359.58 299.00 358.17 299.00 356.76 299.00 C 356.76 292.33 356.75 285.67 356.76 279.00 M 361.02 282.35 C 361.00 284.42 361.00 286.50 361.02 288.58 C 363.19 288.38 366.85 288.14 366.28 284.99 C 366.10 282.25 362.96 282.64 361.02 282.35 Z" />
<path fill="#1b1b1b" opacity="1.00" d=" M 372.78 279.01 C 374.27 279.00 375.76 278.99 377.26 278.99 C 378.87 282.72 380.46 286.45 382.09 290.16 C 383.61 286.42 385.15 282.69 386.73 278.98 C 388.17 278.99 389.61 279.00 391.06 279.01 C 388.44 284.67 386.34 290.59 383.32 296.05 C 381.46 299.54 377.12 299.47 373.73 299.05 C 373.71 298.15 373.68 296.34 373.66 295.44 C 375.77 295.60 378.53 296.29 379.67 293.85 C 377.78 288.73 375.00 283.99 372.78 279.01 Z" />
<path fill="#1b1b1b" opacity="1.00" d=" M 392.73 280.81 C 396.34 278.92 400.69 277.99 404.62 279.41 C 406.81 280.20 408.46 282.63 407.66 284.98 C 407.10 287.20 404.69 287.85 402.85 288.63 C 406.58 288.47 409.96 292.25 407.85 295.82 C 404.65 300.68 397.76 299.41 392.94 298.30 C 392.94 297.41 392.95 295.63 392.95 294.75 C 396.02 295.61 399.39 296.57 402.53 295.44 C 404.11 294.99 404.95 292.54 403.49 291.50 C 401.29 290.02 398.46 290.42 395.95 290.20 C 395.95 289.40 395.95 287.82 395.95 287.03 C 398.56 286.68 403.79 287.75 403.68 283.75 C 401.49 280.77 397.28 282.50 394.52 283.60 C 393.92 282.67 393.32 281.74 392.73 280.81 Z" />
<path fill="#1b1b1b" opacity="1.00" d=" M 412.76 279.00 C 414.17 279.00 415.58 279.00 417.00 279.00 C 417.00 282.23 417.00 285.45 417.00 288.68 C 419.40 285.46 421.78 282.22 424.18 279.00 C 425.67 279.00 427.17 279.00 428.67 279.01 C 426.25 282.23 423.79 285.42 421.40 288.66 C 423.98 292.08 426.52 295.54 429.06 299.00 C 427.45 299.00 425.84 299.00 424.23 299.00 C 421.85 295.66 419.45 292.34 417.13 288.95 C 416.96 292.30 416.99 295.65 417.00 299.00 C 415.58 299.00 414.17 299.00 412.76 299.00 C 412.76 292.33 412.75 285.67 412.76 279.00 Z" />
<path fill="#1b1b1b" opacity="1.00" d=" M 429.74 299.05 C 432.07 292.33 434.45 285.63 436.80 278.92 C 438.52 278.92 440.25 278.92 441.99 278.92 C 444.35 285.62 446.72 292.32 449.08 299.02 C 447.52 299.00 445.97 298.97 444.43 298.95 C 443.96 297.37 443.50 295.80 443.04 294.23 C 440.61 294.23 438.19 294.24 435.77 294.27 C 435.31 295.74 434.92 297.24 434.36 298.69 C 432.99 299.35 431.24 298.85 429.74 299.05 M 439.41 282.10 C 438.60 284.97 437.72 287.82 436.85 290.68 C 438.57 290.68 440.30 290.68 442.03 290.68 C 441.14 287.83 440.24 284.97 439.41 282.10 Z" />
<path fill="#1b1b1b" opacity="1.00" d=" M 777.47 279.62 C 781.95 277.69 788.54 278.57 790.64 283.54 C 792.56 288.39 792.14 295.49 787.06 298.24 C 782.58 300.34 775.89 299.50 773.70 294.52 C 771.70 289.60 772.09 282.23 777.47 279.62 M 780.39 282.50 C 776.57 284.03 776.65 289.21 777.62 292.55 C 778.57 296.46 784.89 296.89 786.41 293.20 C 787.48 290.59 787.49 287.49 786.46 284.87 C 785.58 282.46 782.61 281.78 780.39 282.50 Z" />
<path fill="#1b1b1b" opacity="1.00" d=" M 796.25 279.01 C 800.46 278.99 804.68 279.00 808.90 279.01 C 808.90 279.88 808.90 281.64 808.91 282.52 C 806.10 282.52 803.31 282.53 800.51 282.53 C 800.50 283.88 800.49 285.23 800.50 286.59 C 803.20 286.79 806.27 286.58 808.46 288.50 C 811.55 291.05 810.75 296.89 806.86 298.23 C 803.46 299.46 799.77 298.88 796.25 298.99 C 796.26 292.33 796.25 285.67 796.25 279.01 M 800.52 290.04 C 800.50 291.91 800.50 293.78 800.53 295.65 C 802.43 295.33 806.02 295.75 806.02 292.94 C 806.36 289.91 802.46 290.35 800.52 290.04 Z" />
<path fill="#1b1b1b" opacity="1.00" d=" M 814.76 278.98 C 816.70 279.00 818.64 279.01 820.60 279.06 C 822.11 284.18 823.68 289.28 825.34 294.36 C 826.99 289.24 828.68 284.14 830.33 279.02 C 832.26 279.00 834.19 279.00 836.14 278.99 C 836.15 285.66 836.14 292.33 836.14 299.00 C 835.15 299.00 833.17 299.00 832.18 299.00 C 832.15 293.84 832.15 288.68 832.31 283.52 C 830.42 288.63 828.87 293.85 827.13 299.00 C 825.81 299.00 824.50 299.00 823.20 299.00 C 821.57 293.77 820.07 288.50 818.32 283.32 C 818.58 288.54 818.58 293.77 818.55 299.00 C 817.61 299.00 815.71 299.00 814.76 299.00 C 814.76 292.33 814.75 285.65 814.76 278.98 Z" />
<path fill="#1b1b1b" opacity="1.00" d=" M 841.76 279.00 C 845.60 279.00 849.44 279.00 853.28 279.00 C 853.28 279.88 853.28 281.62 853.28 282.50 C 850.87 282.49 848.46 282.48 846.06 282.44 C 846.02 283.92 845.99 285.39 845.98 286.88 C 848.24 286.87 850.51 286.87 852.79 286.87 C 852.79 287.74 852.79 289.48 852.79 290.35 C 850.51 290.35 848.26 290.35 846.00 290.34 C 846.00 292.06 846.00 293.78 846.02 295.50 C 848.43 295.49 850.85 295.49 853.28 295.49 C 853.28 296.37 853.28 298.12 853.28 299.00 C 849.44 299.00 845.60 299.00 841.76 299.00 C 841.76 292.33 841.75 285.67 841.76 279.00 Z" />
<path fill="#1b1b1b" opacity="1.00" d=" M 858.01 279.01 C 859.41 279.00 860.83 279.00 862.25 279.00 C 862.25 281.61 862.25 284.22 862.25 286.84 C 864.88 286.84 867.50 286.84 870.14 286.86 C 870.15 284.24 870.16 281.62 870.17 279.00 C 871.23 279.00 873.35 279.00 874.41 279.00 C 874.41 285.67 874.41 292.34 874.41 299.00 C 872.98 299.00 871.56 299.00 870.15 299.00 C 870.15 296.12 870.15 293.25 870.16 290.38 C 867.52 290.38 864.88 290.38 862.26 290.38 C 862.25 293.25 862.25 296.13 862.25 299.00 C 860.82 299.00 859.41 299.00 858.00 299.00 C 858.00 292.33 857.99 285.67 858.01 279.01 Z" />
<path fill="#1b1b1b" opacity="1.00" d=" M 37.68 283.99 C 37.58 281.73 40.54 280.08 42.32 281.67 C 44.04 284.57 46.18 289.28 42.01 291.19 C 39.13 289.92 38.20 286.83 37.68 283.99 Z" />
<path fill="#1b1b1b" opacity="1.00" d=" M 488.75 283.98 C 488.63 281.74 491.63 280.09 493.37 281.66 C 495.18 284.56 497.26 289.30 493.04 291.18 C 490.20 289.88 489.27 286.81 488.75 283.98 Z" />
<path fill="#1b1b1b" opacity="1.00" d=" M 252.51 292.52 C 254.05 289.98 258.32 292.34 257.21 294.97 C 256.38 296.99 255.46 299.09 253.89 300.64 C 252.02 301.33 249.64 300.11 249.81 297.94 C 250.19 295.93 251.31 294.14 252.51 292.52 Z" />
<path fill="#1b1b1b" opacity="1.00" d=" M 704.08 291.93 C 706.49 290.06 709.79 293.54 707.93 295.91 C 706.78 298.05 705.59 301.97 702.38 300.55 C 699.07 298.28 702.39 294.18 704.08 291.93 Z" />
<path fill="#1b1b1b" opacity="1.00" d=" M 45.47 295.47 C 48.29 294.51 49.80 298.12 50.91 300.11 C 53.12 302.77 48.51 306.42 46.56 303.52 C 44.86 301.37 41.92 297.37 45.47 295.47 Z" />
<path fill="#1b1b1b" opacity="1.00" d=" M 496.41 295.56 C 499.22 294.31 500.91 298.11 502.00 300.14 C 504.22 302.86 499.45 306.45 497.56 303.43 C 495.93 301.32 493.07 297.50 496.41 295.56 Z" />
<path fill="#1b1b1b" opacity="1.00" d=" M 244.53 305.41 C 246.13 303.19 249.83 305.51 249.12 307.95 C 248.06 309.88 246.65 311.65 244.99 313.09 C 243.02 314.41 240.40 312.25 240.86 310.07 C 241.75 308.29 243.12 306.79 244.53 305.41 Z" />
<path fill="#1b1b1b" opacity="1.00" d=" M 695.53 305.49 C 696.70 303.71 699.04 304.65 700.03 306.11 C 700.84 308.81 698.15 310.78 696.60 312.61 C 694.88 314.81 691.27 312.52 692.00 310.02 C 692.80 308.26 694.18 306.85 695.53 305.49 Z" />
<path fill="#1b1b1b" opacity="1.00" d=" M 55.10 308.05 C 57.52 307.54 58.81 310.27 60.28 311.71 C 61.92 313.14 61.18 316.01 59.02 316.44 C 56.49 316.72 55.00 314.16 53.50 312.55 C 51.80 311.07 53.06 308.31 55.10 308.05 Z" />
<path fill="#1b1b1b" opacity="1.00" d=" M 506.06 308.07 C 508.73 307.53 510.19 310.60 511.75 312.26 C 513.59 314.44 510.44 317.67 508.15 316.11 C 506.56 314.99 505.22 313.50 504.13 311.90 C 503.05 310.38 504.45 308.38 506.06 308.07 Z" />
<path fill="#1b1b1b" opacity="1.00" d=" M 233.35 316.53 C 234.79 314.98 236.84 315.58 238.00 317.10 C 239.17 319.91 235.91 321.75 233.97 323.08 C 231.95 324.92 228.22 322.26 229.65 319.81 C 230.64 318.47 231.99 317.46 233.35 316.53 Z" />
<path fill="#1b1b1b" opacity="1.00" d=" M 685.17 316.05 C 687.17 314.31 690.75 317.72 688.87 319.81 C 687.36 321.58 685.45 323.30 683.11 323.77 C 681.47 323.30 679.82 321.93 680.57 320.06 C 681.71 318.35 683.47 317.15 685.17 316.05 Z" />
<path fill="#1b1b1b" opacity="1.00" d=" M 65.06 318.93 C 67.55 317.00 69.96 319.75 71.99 321.06 C 73.48 321.96 73.85 324.31 72.46 325.49 C 71.00 327.27 68.83 325.55 67.36 324.69 C 65.35 323.59 62.90 321.16 65.06 318.93 Z" />
<path fill="#1b1b1b" opacity="1.00" d=" M 516.15 318.98 C 518.57 316.94 521.06 319.78 523.06 321.05 C 524.55 321.96 524.92 324.25 523.56 325.47 C 521.84 327.43 519.46 325.22 517.82 324.25 C 515.95 323.28 514.19 320.83 516.15 318.98 Z" />
<path fill="#1b1b1b" opacity="1.00" d=" M 221.18 324.33 C 223.84 322.58 226.73 326.42 224.58 328.60 C 222.43 330.07 219.82 331.88 217.09 331.05 C 215.92 330.18 215.53 328.51 216.11 327.20 C 217.52 325.83 219.40 325.09 221.18 324.33 Z" />
<path fill="#1b1b1b" opacity="1.00" d=" M 672.27 324.32 C 675.32 322.30 678.11 327.43 675.04 329.06 C 672.85 330.39 668.93 332.91 667.16 329.84 C 665.83 326.48 670.02 325.38 672.27 324.32 Z" />
<path fill="#1b1b1b" opacity="1.00" d=" M 79.16 326.08 C 81.22 325.11 83.56 326.86 85.51 327.60 C 88.07 328.65 87.69 332.78 84.79 332.95 C 82.81 332.61 80.88 331.97 79.13 330.99 C 77.30 329.97 77.27 327.07 79.16 326.08 Z" />
<path fill="#1b1b1b" opacity="1.00" d=" M 530.26 326.08 C 533.28 325.39 540.02 327.78 537.85 332.05 C 535.70 333.82 533.02 332.18 530.85 331.35 C 528.57 330.65 528.04 327.21 530.26 326.08 Z" />
<path fill="#1b1b1b" opacity="1.00" d=" M 206.51 329.62 C 208.62 328.62 211.35 330.56 210.66 332.92 C 209.41 335.23 206.30 335.29 204.01 335.73 C 202.03 336.28 200.41 333.75 201.20 332.07 C 201.93 329.85 204.69 330.17 206.51 329.62 Z" />
<path fill="#1b1b1b" opacity="1.00" d=" M 94.44 330.51 C 97.18 330.00 102.36 330.26 102.32 334.08 C 101.64 337.56 97.41 336.20 95.03 335.76 C 92.23 335.62 91.66 331.26 94.44 330.51 Z" />
<path fill="#1b1b1b" opacity="1.00" d=" M 545.44 330.53 C 548.20 330.00 553.32 330.23 553.44 334.05 C 552.65 337.63 548.39 336.19 545.92 335.70 C 543.26 335.40 542.85 331.36 545.44 330.53 Z" />
<path fill="#1b1b1b" opacity="1.00" d=" M 653.41 330.63 C 655.24 329.97 657.19 329.67 659.12 329.39 C 661.30 329.27 662.88 332.52 661.00 333.95 C 658.97 335.26 656.42 335.68 654.05 335.73 C 651.82 335.18 651.40 331.75 653.41 330.63 Z" />
<path fill="#1b1b1b" opacity="1.00" d=" M 109.49 331.60 C 112.19 331.13 117.25 330.06 117.85 333.91 C 117.97 337.70 113.43 337.14 110.92 336.94 C 108.22 336.89 106.85 332.85 109.49 331.60 Z" />
<path fill="#1b1b1b" opacity="1.00" d=" M 125.37 331.47 C 127.41 331.05 129.58 331.05 131.62 331.50 C 134.17 332.24 133.80 336.63 131.12 336.89 C 128.81 337.06 126.05 337.54 124.18 335.80 C 123.02 334.38 123.52 331.96 125.37 331.47 Z" />
<path fill="#1b1b1b" opacity="1.00" d=" M 140.47 331.62 C 142.55 330.94 144.84 331.14 146.98 331.43 C 149.47 332.04 149.46 336.19 146.99 336.83 C 144.71 336.99 141.91 337.63 140.00 336.01 C 138.52 334.92 138.85 332.40 140.47 331.62 Z" />
<path fill="#1b1b1b" opacity="1.00" d=" M 156.43 331.46 C 158.45 331.07 160.59 331.04 162.60 331.50 C 165.21 332.17 164.82 336.65 162.13 336.89 C 159.81 337.07 157.08 337.50 155.18 335.82 C 154.05 334.37 154.56 331.94 156.43 331.46 Z" />
<path fill="#1b1b1b" opacity="1.00" d=" M 171.44 331.65 C 173.51 330.91 175.83 331.16 177.98 331.42 C 180.50 332.03 180.49 336.17 178.01 336.83 C 175.71 337.01 172.87 337.63 170.96 335.97 C 169.59 334.84 169.89 332.47 171.44 331.65 Z" />
<path fill="#1b1b1b" opacity="1.00" d=" M 187.47 331.46 C 189.45 331.06 191.56 331.06 193.54 331.47 C 196.24 332.11 195.88 336.80 193.04 336.91 C 190.77 337.07 188.13 337.48 186.25 335.86 C 185.07 334.43 185.53 331.91 187.47 331.46 Z" />
<path fill="#1b1b1b" opacity="1.00" d=" M 560.45 331.65 C 562.51 330.94 564.82 331.13 566.97 331.43 C 569.54 331.97 569.53 336.27 566.97 336.84 C 564.68 337.01 561.89 337.61 559.99 335.98 C 558.63 334.84 558.91 332.48 560.45 331.65 Z" />
<path fill="#1b1b1b" opacity="1.00" d=" M 576.38 331.50 C 578.39 331.04 580.53 331.07 582.56 331.46 C 585.31 332.11 584.86 336.81 582.03 336.91 C 579.73 337.08 577.02 337.49 575.19 335.75 C 574.17 334.34 574.57 331.99 576.38 331.50 Z" />
<path fill="#1b1b1b" opacity="1.00" d=" M 591.43 331.67 C 593.49 330.92 595.81 331.15 597.96 331.41 C 600.57 331.93 600.56 336.26 598.00 336.84 C 595.69 337.01 592.88 337.61 590.98 335.95 C 589.66 334.80 589.94 332.53 591.43 331.67 Z" />
<path fill="#1b1b1b" opacity="1.00" d=" M 607.41 331.49 C 609.44 331.05 611.61 331.05 613.65 331.48 C 616.36 332.18 615.86 336.85 613.02 336.92 C 610.97 337.02 608.64 337.45 606.83 336.23 C 605.04 335.17 605.34 332.04 607.41 331.49 Z" />
<path fill="#1b1b1b" opacity="1.00" d=" M 622.41 331.70 C 625.07 331.05 630.63 330.05 630.94 334.06 C 631.00 337.73 626.42 337.12 623.97 336.93 C 621.37 336.83 620.07 333.08 622.41 331.70 Z" />
<path fill="#1b1b1b" opacity="1.00" d=" M 638.43 331.49 C 640.46 331.05 642.63 331.05 644.67 331.49 C 647.34 332.21 646.91 336.83 644.08 336.92 C 641.98 337.01 639.56 337.49 637.76 336.15 C 636.06 335.05 636.42 332.03 638.43 331.49 Z" />
</g>
<g id="#3ad1e4ff">
<path fill="#3ad1e4" opacity="1.00" d=" M 366.19 76.29 C 380.84 74.88 395.89 77.34 409.10 83.90 C 426.81 92.39 440.69 108.07 447.90 126.24 C 453.60 140.55 454.44 156.53 451.43 171.56 C 447.68 188.67 438.18 204.53 424.64 215.67 C 415.49 223.12 404.70 228.56 393.24 231.35 C 384.09 233.98 374.46 233.54 365.07 233.15 C 345.73 230.89 327.19 221.33 314.52 206.48 C 304.89 195.22 298.28 181.24 296.22 166.54 C 295.42 159.06 295.39 151.50 296.06 144.01 C 298.55 124.05 309.56 105.63 325.01 92.94 C 336.79 83.65 351.24 77.71 366.19 76.29 M 366.82 126.67 C 363.00 124.64 358.45 123.86 354.31 125.43 C 347.99 127.35 343.79 133.68 343.94 140.21 C 333.01 142.60 324.00 152.63 323.96 164.01 C 323.38 173.90 329.35 183.64 338.30 187.78 C 343.85 190.33 350.06 190.36 356.04 190.25 C 371.71 190.22 387.38 190.25 403.05 190.24 C 409.60 190.31 416.38 187.73 420.44 182.43 C 424.73 177.43 425.39 170.25 423.90 164.05 C 421.99 157.20 415.99 152.14 409.25 150.32 C 410.76 141.73 408.46 132.21 401.71 126.35 C 392.38 117.35 375.87 117.13 366.82 126.67 Z" />
<path fill="#3ad1e4" opacity="1.00" d=" M 374.34 139.78 C 381.11 146.46 387.86 153.18 394.51 159.99 C 389.46 160.03 384.41 159.94 379.36 160.08 C 379.45 165.06 379.42 170.03 379.41 175.00 C 376.03 175.01 372.66 175.01 369.29 174.98 C 369.31 169.99 369.31 165.00 369.30 160.01 C 364.26 159.99 359.23 160.01 354.20 159.99 C 360.86 153.20 367.64 146.53 374.34 139.78 Z" />
<path fill="#3ad1e4" opacity="1.00" d=" M 145.16 148.27 C 161.00 146.81 177.29 149.96 191.18 157.79 C 215.74 171.28 232.39 198.76 231.41 226.97 C 231.91 244.06 225.85 260.97 215.65 274.56 C 204.94 288.26 189.93 298.78 172.96 303.01 C 163.62 305.90 153.72 305.57 144.07 305.17 C 126.29 303.27 109.19 295.11 96.73 282.24 C 82.38 268.16 73.99 248.10 73.99 228.00 C 73.41 209.54 79.90 190.88 91.77 176.72 C 104.76 160.53 124.49 150.07 145.16 148.27 M 108.30 177.39 C 104.87 178.77 102.41 182.22 102.75 185.99 C 102.69 211.67 102.77 237.36 102.71 263.04 C 102.75 265.66 102.59 268.33 103.16 270.91 C 104.43 274.03 107.35 277.10 110.95 277.03 C 138.63 277.06 166.31 277.01 194.00 277.05 C 199.21 277.45 203.53 272.06 203.07 267.06 C 203.08 240.03 203.06 213.00 203.08 185.97 C 203.48 180.68 198.18 176.06 193.01 176.59 C 166.68 176.51 140.35 176.61 114.02 176.54 C 112.10 176.61 110.08 176.53 108.30 177.39 Z" />
<path fill="#3ad1e4" opacity="1.00" d=" M 112.48 186.51 C 139.42 186.57 166.36 186.39 193.30 186.60 C 193.20 206.72 193.29 226.85 193.26 246.98 C 186.55 247.00 179.85 246.95 173.15 247.00 C 172.73 251.63 169.66 256.13 164.80 256.79 C 157.90 257.78 150.88 257.01 143.93 257.25 C 138.08 257.57 132.73 252.91 132.49 247.00 C 125.81 246.94 119.13 247.03 112.45 246.94 C 112.51 226.80 112.46 206.66 112.48 186.51 M 147.80 201.50 C 147.79 206.58 147.80 211.66 147.80 216.74 C 142.82 216.74 137.85 216.68 132.88 216.78 C 139.34 223.72 146.21 230.27 152.89 237.00 C 159.57 230.23 166.35 223.56 173.00 216.76 C 167.98 216.71 162.96 216.74 157.93 216.73 C 157.91 211.65 157.92 206.57 157.92 201.50 C 154.55 201.48 151.17 201.48 147.80 201.50 Z" />
</g>
<g id="#13538aff">
<path fill="#13538a" opacity="1.00" d=" M 811.59 76.82 C 828.59 74.29 846.44 77.05 861.56 85.35 C 876.94 93.45 888.99 107.19 896.16 122.92 C 902.95 137.92 904.27 155.02 901.17 171.10 C 897.39 189.00 887.26 205.53 872.85 216.83 C 861.35 225.74 847.38 231.54 832.92 233.16 C 823.63 233.55 814.14 233.88 805.07 231.47 C 790.60 227.76 777.00 220.22 766.73 209.30 C 753.67 195.55 745.74 177.00 745.06 158.02 C 744.16 140.33 749.72 122.49 760.21 108.24 C 772.26 91.51 791.15 79.76 811.59 76.82 M 848.67 108.65 C 844.23 111.76 842.31 117.36 842.45 122.62 C 827.44 130.10 812.54 137.79 797.50 145.19 C 795.28 143.39 792.94 141.42 790.01 141.02 C 784.59 139.93 779.07 142.50 775.33 146.32 C 771.97 149.94 771.41 155.32 772.35 159.99 C 774.19 167.79 783.04 172.95 790.75 170.77 C 793.33 170.26 795.41 168.57 797.46 167.02 C 812.48 174.44 827.45 181.96 842.46 189.41 C 842.55 193.47 843.11 197.87 846.06 200.94 C 850.91 206.86 860.40 207.91 866.60 203.55 C 870.92 200.61 873.13 195.22 872.49 190.07 C 872.44 181.80 863.91 175.24 855.92 176.40 C 852.64 176.79 849.77 178.59 847.14 180.47 C 832.11 173.00 817.08 165.54 802.08 158.02 C 802.08 156.74 802.09 155.47 802.10 154.20 C 817.10 146.72 832.10 139.24 847.12 131.80 C 852.07 136.23 859.91 137.29 865.59 133.64 C 873.01 129.15 874.79 118.20 869.57 111.41 C 864.89 104.99 854.90 103.99 848.67 108.65 Z" />
</g>
<g id="#2c92d5ff">
<path fill="#2c92d5" opacity="1.00" d=" M 592.53 148.69 C 607.78 146.63 623.67 148.72 637.59 155.39 C 656.06 163.98 670.83 180.17 677.85 199.27 C 684.11 216.17 684.19 235.31 678.54 252.38 C 668.97 281.21 641.34 303.08 610.98 305.28 C 602.23 305.48 593.28 305.85 584.80 303.32 C 566.36 298.95 549.96 287.41 539.06 271.99 C 530.41 259.39 525.23 244.32 524.99 228.99 C 524.33 210.93 530.25 192.65 541.42 178.43 C 553.73 162.34 572.44 151.39 592.53 148.69 M 584.42 173.02 C 584.44 205.00 584.46 236.98 584.41 268.96 C 589.22 269.03 594.03 269.00 598.84 268.99 C 598.85 237.00 598.83 205.01 598.85 173.01 C 594.04 172.99 589.23 172.98 584.42 173.02 M 632.44 192.26 C 632.43 217.83 632.46 243.40 632.42 268.97 C 637.23 269.02 642.04 269.00 646.85 268.99 C 646.83 243.41 646.86 217.83 646.84 192.25 C 642.03 192.25 637.23 192.24 632.44 192.26 M 608.44 211.50 C 608.41 230.65 608.47 249.81 608.42 268.96 C 613.22 269.02 618.03 269.00 622.85 268.99 C 622.83 249.82 622.87 230.66 622.83 211.49 C 618.03 211.50 613.23 211.50 608.44 211.50 M 560.38 221.07 C 560.49 237.03 560.45 252.99 560.40 268.95 C 565.21 269.04 570.03 269.00 574.85 268.99 C 574.84 253.00 574.84 237.00 574.85 221.01 C 570.02 221.00 565.20 220.94 560.38 221.07 Z" />
</g>
</svg>
