<?xml version="1.0" encoding="utf-8"?>
<!-- Generator: Adobe Illustrator 18.1.1, SVG Export Plug-In . SVG Version: 6.00 Build 0)  -->
<svg version="1.1" id="Layer_1" xmlns="http://www.w3.org/2000/svg" xmlns:xlink="http://www.w3.org/1999/xlink" x="0px" y="0px"
	 viewBox="420 65 1739 521" enable-background="new 420 65 1739 521" xml:space="preserve">
<g id="_x23_ffffffff">
	<path fill="#FFFFFF" d="M644.2,238.2c21-5.6,44.1-3,63.2,7.3c19,10,34,27.3,41.2,47.5c5.2,14,6.2,29.2,4.1,43.9
		c-3.3,19.2-12.9,37.3-27.4,50.3c-14,12.9-32.4,21-51.3,22.5c-20.4,2-41.5-3.8-58.2-15.7c-14.6-10.3-26-25.2-31.8-42.1
		c-1.4-3.5-0.1-7.9,3-10.1c4.2-3.4,11.5-1.5,13.3,3.7c4.7,13.3,13.3,25.2,24.8,33.5c12,8.9,27,13.7,42,13.5
		c17.5,0,34.9-7.1,47.6-19.2c10-9.5,17.1-22,20.1-35.4c3.6-15.4,1.5-32-5.5-46.2c-7.1-14.5-19.4-26.4-34.1-32.9
		c-17.2-7.8-37.5-8.1-54.9-0.9c-10.1,4.1-19,10.8-26.2,18.9c5,5,10.8,9.2,15.6,14.3c4.5,5.1,0.1,14-6.6,13.8
		c-13.3,0.1-26.7,0.1-40,0c-4.9,0.2-8.8-4.4-8.6-9.1c0-11.6-0.1-23.3,0-34.9c0.1-6.4,8.1-10.7,13.3-7c4.5,3.6,8.7,7.6,13,11.4
		C612.1,252.4,627.4,242.6,644.2,238.2z"/>
	<path fill="#FFFFFF" d="M1016.2,244.3c35.3-0.3,70.6,0,105.8-0.1c6.1-0.8,11.3,6.2,8.8,11.8c-1.4,3.5-5,5.9-8.8,5.6
		c-34.7,0-69.4,0-104.1,0c-4.6,0.3-9-3.9-8.8-8.5C1008.8,248.9,1012,244.7,1016.2,244.3z"/>
	<path fill="#FFFFFF" d="M1825.2,244.3c12.6-0.2,25.2-0.1,37.9-0.1c5.5-0.5,10,5.5,8.5,10.7c-1,3.8-4.6,6.8-8.5,6.6
		c-11.7,0.1-23.3,0-35,0c-5-0.3-9.1,4.5-8.8,9.4c0,34.7,0,69.4,0,104.1c-0.2,4.6,3.9,9.1,8.6,8.7c35.1,0,70.1,0,105.2,0
		c4.8,0.4,8.7-4.1,8.6-8.7c0.1-11.7-0.1-23.4,0.1-35c-0.1-4.9,4.4-9,9.3-8.5c4.8,0.1,8.6,4.8,8.3,9.4c0,11.6,0,23.3,0,34.9
		c-0.2,13.3-11.8,25.3-25.3,25.4c-35.7,0.1-71.3,0.1-107,0c-13.4-0.1-25-12.1-25.3-25.4c0-34,0-68,0-102c-0.2-4.3,0-8.6,1.7-12.6
		C1806.6,252.3,1815.4,245.1,1825.2,244.3z"/>
	<path fill="#FFFFFF" d="M1899.4,258.6c-4.5-4.8-0.9-13.7,5.7-14c16-0.2,32,0,48-0.1c4.5,0.4,6.2,5.7,6.2,9.6
		c0,14.6,0.1,29.3-0.1,43.9c-0.6,6.4-8.9,10.2-14,6c-5.8-5.3-11.3-10.8-17-16.1c-13.9,13.8-27.8,27.8-41.7,41.6
		c-2.6,2.9-7.3,3.8-10.7,1.7c-5.2-2.6-6.1-10.3-1.8-14.1c13.9-13.9,27.6-28,41.5-42C1910.1,269.6,1904.6,264.2,1899.4,258.6z"/>
	<path fill="#FFFFFF" d="M1490.3,262.2c5.3-2.5,12.3,1.9,12.1,7.8c0.1,38,0.1,76,0,113.9c0.2,4.9-4.4,9.2-9.3,8.6
		c-4.9-0.1-8.6-5-8.3-9.7c0-36.7,0-73.3,0-110C1484.3,268.7,1486.1,264,1490.3,262.2z"/>
	<path fill="#FFFFFF" d="M655.4,287.9c-0.3-5.6,6-10.6,11.4-8.5c3.6,1.1,6.3,4.7,6.1,8.5c0,10.1,0,20.2,0,30.3
		c9,7,18.3,13.8,27.4,20.6c2.8,2.1,6.3,4,7.3,7.6c2,5.4-2.8,11.8-8.5,11.3c-2.3,0.2-4.3-1.2-6.1-2.5c-11.3-8.5-22.6-16.9-33.9-25.4
		c-2.4-1.8-3.9-4.8-3.6-7.8C655.4,310.6,655.3,299.3,655.4,287.9z"/>
	<path fill="#FFFFFF" d="M1063.8,281.8c3.3-3.5,9.2-3.6,12.6-0.1c8.5,8.4,17,17,25.5,25.4c2.7,2.4,4.2,6.6,2.6,10
		c-1.2,3.5-4.8,5.6-8.4,5.7c-5.8,0.1-11.5,0-17.3,0c-0.1,9,0.1,18.1-0.1,27.1c-0.1,3.5-2.9,6.3-6.1,7.5c-5.3,1.7-11.4-2.8-11.3-8.3
		c-0.1-8.7,0-17.5,0-26.2c-5.8-0.1-11.6,0.1-17.5,0c-4.5-0.2-9-4-8.6-8.8c-0.3-2.6,1.1-5,3-6.8
		C1046.8,298.8,1055.2,290.3,1063.8,281.8z"/>
	<path fill="#FFFFFF" d="M1420.2,297.3c5.3-2.8,12.3,1.7,12.3,7.6c0.1,26.4,0,52.7,0,79c0.1,5.3-5.2,9.7-10.4,8.5
		c-4-0.6-7.2-4.4-7-8.5c0-26.3,0-52.6,0-79C1415,301.7,1417.2,298.6,1420.2,297.3z"/>
	<path fill="#FFFFFF" d="M1525.3,323.4c6.2-2.6,13.2,3.1,12.1,9.6c-0.1,17,0,34,0,51c0.1,4.5-3.9,8.7-8.5,8.6
		c-4.7,0.3-9.3-3.8-8.9-8.6c0-17.7,0-35.4,0-53.1C1519.9,327.7,1522.3,324.6,1525.3,323.4z"/>
	<path fill="#FFFFFF" d="M1455.4,349.6c5.2-2.1,11.7,1.6,11.9,7.4c0.2,8.7,0,17.4,0.1,26.1c0.1,2.3-0.4,4.7-1.9,6.4
		c-3.3,4.3-10.7,4.3-13.8-0.2c-2.1-2.3-1.6-5.5-1.6-8.3c-0.1-8.3-0.3-16.7,0.1-25C1450.6,353.1,1452.8,350.7,1455.4,349.6z"/>
	<path fill="#FFFFFF" d="M991.5,366.1c0.2-5.2,5.4-9.4,10.5-8.2c3.8,0.9,6.7,4.3,6.9,8.1c0.4,6-0.2,11.9,0.1,17.9
		c40.8,0,81.5,0,122.3,0c0.1-6.2-0.1-12.4,0.1-18.5c0.4-6.4,9.1-10.1,14-5.7c4.7,3.3,3,9.5,3.3,14.4c-0.4,6,1.2,12.5-1.9,18
		c-2.9,5.9-9.3,9.6-15.8,9.5c-40.7,0-81.3,0-122,0c-8.7,0.3-16.6-6.9-17.4-15.5C991.3,379.3,991.5,372.7,991.5,366.1z"/>
</g>
<g id="_x23_3ad1e4ff">
	<path fill="#3AD1E4" d="M1047.4,99.7c11.8-1.3,23.8-0.7,35.6-0.7c41.4,2.2,82,16.3,116,40c30.9,21.2,56.1,50.5,73,83.9
		c15.5,30.6,24,64.8,24.2,99.1c12.7,0.1,25.4-0.1,38.1,0.1c-0.4,0.9-1,1.8-1.7,2.5c-11.3,11.1-22.5,22.3-33.7,33.5
		c-8.3,8-16.2,16.5-24.7,24.4c-7.3-7-14.1-14.4-21.7-21.2c-12.6-13.2-25.9-25.8-38.6-38.9c10.4,0.1,20.7,0,31.1,0
		c1.7,0,3.4-0.1,5-0.5c-0.7-18-3.3-36-9.1-53.1c-12.1-37.1-36.8-69.9-68.9-92.1c-25.9-18.1-56.8-28.6-88.2-31.4
		c-41-3-83,8.2-116.7,31.8c-38.4,26.6-65.9,68.5-74.3,114.5c10.6,10.5,21.1,21.1,31.7,31.6c1,1.1,2.4,1.7,3.7,2.4
		c-12.8,0-25.5,0-38.3,0c-0.3,41.6-12.8,83-35.1,118c-19.3,30.4-45.8,56.1-76.8,74.3c-15.2,9.1-31.7,15.9-48.5,21.3
		c-17.7,5.6-36.1,8.5-54.6,9.6c-9-0.1-18,0.3-27-0.3c-66.3-3.9-129.7-39.5-168.1-93.5c-28-38.3-43.1-85.7-42.9-133.1
		c15.6,0,31.1,0,46.7,0c-0.6,21.5,3.5,43.1,11,63.4c15.3,41.5,46.4,76.9,85.8,97.1c12.9,6.2,26.2,11.9,40.3,15
		c43.1,10.7,90.2,4.7,129-16.8c32-17.4,58.4-44.8,74.9-77.3c12.1-24.2,19.1-51.2,19-78.3c-12.6,0.2-25.1,0.1-37.7,0
		c13.4-13.7,27.1-27,40.6-40.6c0.8-0.9,0.8-2.3,1.2-3.4c9.5-48.5,35.5-93.5,72.7-126c19-17.1,41.2-30.3,64.7-40.2
		C1005,107.3,1026,101.5,1047.4,99.7z"/>
	<path fill="#3AD1E4" d="M650.1,202.2c14-0.6,28.2-1.1,41.9,2.5c25.9,5.7,49.3,20.6,66.4,40.8c18.7,22.3,29.7,51.3,28.9,80.5
		c0.6,35-15.7,69.4-42,92.3c-18.1,16.1-41.2,26.7-65.3,29.6c-29.1,4-59.5-2.9-84-19.1c-26.1-17.1-45.5-44.4-52.6-74.9
		c-7.8-31.5-2.1-66,15-93.5C577.9,228.3,612.7,206,650.1,202.2 M644.2,238.2c-16.8,4.4-32.1,14.2-43.4,27.4
		c-4.3-3.8-8.5-7.9-13-11.4c-5.3-3.7-13.3,0.6-13.3,7c-0.1,11.6,0,23.3,0,34.9c-0.2,4.7,3.7,9.3,8.6,9.1c13.3,0.1,26.6,0.1,40,0
		c6.7,0.2,11.1-8.8,6.6-13.8c-4.9-5.1-10.6-9.3-15.6-14.3c7.2-8.1,16.1-14.8,26.2-18.9c17.4-7.2,37.8-6.9,54.9,0.9
		c14.7,6.6,27.1,18.4,34.1,32.9c7,14.2,9.1,30.8,5.5,46.2c-3,13.4-10.1,26-20.1,35.4c-12.7,12.1-30,19.1-47.6,19.2
		c-15,0.2-29.9-4.7-42-13.5c-11.4-8.3-20-20.2-24.8-33.5c-1.8-5.2-9.1-7.2-13.3-3.7c-3.1,2.2-4.3,6.5-3,10.1
		c5.9,16.9,17.2,31.8,31.8,42.1c16.7,11.9,37.7,17.7,58.2,15.7c19-1.5,37.3-9.6,51.3-22.5c14.5-13.1,24.1-31.1,27.4-50.3
		c2.2-14.7,1.1-30-4.1-43.9c-7.2-20.2-22.2-37.5-41.2-47.5C688.3,235.3,665.2,232.6,644.2,238.2 M655.4,287.9c0,11.4,0,22.7,0,34.1
		c-0.2,3,1.2,6,3.6,7.8c11.3,8.5,22.6,16.9,33.9,25.4c1.8,1.3,3.8,2.7,6.1,2.5c5.7,0.4,10.5-6,8.5-11.3c-1.1-3.6-4.6-5.4-7.3-7.6
		c-9.1-6.9-18.4-13.6-27.4-20.6c0.1-10.1,0-20.2,0-30.3c0.3-3.8-2.5-7.4-6.1-8.5C661.4,277.3,655.1,282.3,655.4,287.9z"/>
	<path fill="#3AD1E4" d="M1052.5,202.7c8.7-1.4,17.6-0.7,26.4-0.8c35.3,1.9,68.9,20.9,89.9,49.2c13.5,17.9,21.9,39.6,24.1,61.8
		c0.5,14,0.9,28.4-3,42c-7.8,32.6-29.9,61.3-59,77.9c-30,17.5-67.6,20.9-100.4,9.8c-34.6-11.4-63.3-39-76.3-73
		c-8-20.8-10.4-43.7-6.4-65.6c4.7-26.4,18-51.3,37.8-69.4C1003.9,217.4,1027.6,206,1052.5,202.7 M1016.2,244.3
		c-4.2,0.4-7.4,4.6-7.1,8.7c-0.2,4.6,4.2,8.8,8.8,8.5c34.7,0,69.4,0,104.1,0c3.8,0.3,7.3-2.1,8.8-5.6c2.5-5.6-2.7-12.6-8.8-11.8
		C1086.8,244.3,1051.5,244.1,1016.2,244.3 M1063.8,281.8c-8.5,8.5-17,17-25.5,25.5c-1.9,1.7-3.2,4.1-3,6.8c-0.3,4.8,4.1,8.6,8.6,8.8
		c5.8,0.1,11.6,0,17.5,0c0.1,8.7,0,17.5,0,26.2c-0.1,5.6,5.9,10.1,11.3,8.3c3.1-1.1,6-4,6.1-7.5c0.2-9,0-18.1,0.1-27.1
		c5.8-0.1,11.5,0.1,17.3,0c3.6-0.1,7.2-2.2,8.4-5.7c1.6-3.5,0.1-7.6-2.6-10c-8.5-8.4-17-17-25.5-25.4
		C1073,278.2,1067.1,278.3,1063.8,281.8 M991.5,366.1c0,6.6-0.2,13.2,0.1,19.8c0.8,8.6,8.7,15.8,17.4,15.5c40.7,0,81.3,0,122,0
		c6.5,0.2,12.9-3.6,15.8-9.5c3.1-5.5,1.5-12,1.9-18c-0.3-4.9,1.4-11.1-3.3-14.4c-4.8-4.4-13.6-0.7-14,5.7c-0.3,6.2,0,12.4-0.1,18.5
		c-40.8,0-81.5,0-122.3,0c-0.3-6,0.3-11.9-0.1-17.9c-0.2-3.9-3.1-7.3-6.9-8.1C996.9,356.7,991.7,360.9,991.5,366.1z"/>
</g>
<g id="_x23_13538aff">
	<path fill="#13538A" d="M1710.9,174.9c39.9-45.3,98.7-73.8,159.1-76c12.4,0,24.8-0.4,37.1,1.2c13.4,1.1,26.4,4.5,39.2,8.2
		c17.6,5,34.2,13.1,50.1,22.1c36.3,21.8,66.4,53.8,85.5,91.6c16.1,30.9,24.2,65.6,24.9,100.4c11.4,0,22.8,0,34.1,0
		c-20.3,20-40.3,40.1-60.5,60.3c-20.2-20-40.3-40.1-60.4-60.2c13.4,0,26.8,0,40.3,0c-0.7-20-4.1-40-10.9-58.9
		c-12.6-35-36.6-65.8-67.2-86.9c-34.8-24.1-78.2-35.1-120.3-30.7c-41.2,3.8-80.6,23-109.6,52.4c-24.8,24.9-42.1,57.2-48.9,91.7
		c-8.5-8.2-16.8-16.8-25.3-25.1c-6,5.8-11.8,11.7-17.6,17.6c-0.9,1-2.1,1.6-3.3,2.1C1664.6,244.1,1683.4,205.7,1710.9,174.9z"/>
	<path fill="#13538A" d="M1867.1,202.1c11-0.2,22.1-0.9,32.9,1c39,5.8,74,32.2,91.2,67.7c11.1,22.5,15.3,48.5,11.3,73.4
		c-5.3,35.5-27.1,68-57.7,86.6c-37.1,23.5-87.1,24.3-125.1,2.5c-16.2-9.1-30.3-21.9-40.9-37.1c-11.8-16.4-19-36-21.5-56
		c-0.9-9.4-0.7-18.8-0.2-28.2c2.3-20.5,9.8-40.4,21.5-57.4c10.7-15.2,24.6-28,40.8-37.2C1834,209.1,1850.4,204,1867.1,202.1
		 M1825.2,244.3c-9.8,0.8-18.6,8-21.8,17.2c-1.6,4-1.8,8.3-1.7,12.6c0,34,0,68,0,102c0.2,13.3,11.9,25.3,25.3,25.4
		c35.7,0.1,71.3,0.1,107,0c13.4-0.1,25-12.1,25.3-25.4c0-11.7,0-23.3,0-34.9c0.3-4.7-3.5-9.3-8.3-9.4c-4.8-0.5-9.3,3.6-9.3,8.5
		c-0.2,11.7,0,23.4-0.1,35c0.1,4.6-3.8,9.1-8.6,8.7c-35,0-70.1,0-105.2,0c-4.7,0.4-8.8-4.1-8.6-8.7c0-34.7,0-69.4,0-104.1
		c-0.4-4.8,3.8-9.7,8.8-9.4c11.7-0.1,23.3,0,35,0c3.9,0.2,7.5-2.9,8.5-6.6c1.5-5.2-3-11.2-8.5-10.7
		C1850.4,244.3,1837.8,244.1,1825.2,244.3 M1899.4,258.6c5.3,5.6,10.7,11,16.1,16.5c-13.8,14-27.6,28-41.5,42
		c-4.2,3.8-3.3,11.6,1.8,14.1c3.4,2,8,1.2,10.7-1.7c13.9-13.9,27.7-27.8,41.7-41.6c5.7,5.3,11.2,10.9,17,16.1c5,4.2,13.3,0.4,14-6
		c0.2-14.6,0-29.3,0.1-43.9c0-3.9-1.7-9.1-6.2-9.6c-16,0.1-32-0.1-48,0.1C1898.5,244.9,1894.9,253.8,1899.4,258.6z"/>
</g>
<g id="_x23_2c92d5ff">
	<path fill="#2C92D5" d="M1459.5,202.6c8.8-1.2,17.7-0.6,26.6-0.6c26.3,1.9,51.9,12.8,71.5,30.4c16.3,14.2,28.7,32.9,35.5,53.4
		c3.9,11.6,6.5,23.8,6,36.1c1.5,24.9-6,49.9-19.5,70.8c-12.2,18.6-29.3,33.9-49.2,43.7c-25.6,12.6-55.6,15.9-83.4,9.2
		c-24.5-5.6-46.9-19.4-63.6-38.1c-23.6-26.1-35-62.6-30.4-97.5c3.3-25.7,14.7-50.5,32.6-69.4
		C1404.8,219.9,1431.4,206.1,1459.5,202.6 M1490.3,262.2c-4.2,1.7-5.9,6.5-5.5,10.7c0,36.7,0,73.4,0,110c-0.3,4.7,3.4,9.5,8.3,9.7
		c4.9,0.5,9.5-3.7,9.3-8.6c0.1-38,0.1-76,0-113.9C1502.5,264.1,1495.6,259.7,1490.3,262.2 M1420.2,297.3c-3,1.3-5.3,4.4-5.1,7.7
		c0,26.3,0,52.6,0,79c-0.3,4.1,3,7.9,7,8.5c5.2,1.2,10.5-3.3,10.4-8.5c0-26.3,0.1-52.7,0-79C1432.5,299.1,1425.5,294.6,1420.2,297.3
		 M1525.3,323.4c-3,1.2-5.4,4.2-5.2,7.6c-0.1,17.7,0,35.4,0,53.1c-0.4,4.8,4.2,8.9,8.9,8.6c4.5,0,8.5-4.1,8.5-8.6c0.1-17,0-34,0-51
		C1538.5,326.5,1531.5,320.8,1525.3,323.4 M1455.4,349.6c-2.6,1.1-4.8,3.5-5.2,6.4c-0.3,8.3-0.2,16.7-0.1,25c0,2.8-0.4,6,1.6,8.3
		c3.1,4.5,10.5,4.6,13.8,0.2c1.6-1.8,2.1-4.1,1.9-6.4c-0.1-8.7,0.1-17.4-0.1-26.1C1467.2,351.2,1460.6,347.5,1455.4,349.6z"/>
	<path fill="#2C92D5" d="M1678.3,265.1c8.5,8.3,16.7,16.8,25.3,25.1c10,10.1,20.1,20.1,30.2,30.2c1.6,1.8,3.9,3.2,4.6,5.6
		c-12.1,0.1-24.2,0-36.3,0c-0.1,40.4-12.2,80.4-33.2,114.8c-18.1,29.1-42.4,54.4-71.4,72.7c-37.3,24.2-82.1,36.6-126.5,35.5
		c-28.1,0-55.9-6.5-82-16.9c-23.8-10.3-46.3-24.2-65.4-41.7c-37-33.6-62.8-79.7-70.9-129.1c7.5,6.7,14.4,14.2,21.7,21.2
		c8.5-7.8,16.4-16.3,24.7-24.4c6.5,32.2,21.9,62.5,44.3,86.6c10.4,10.7,21.7,20.7,34.2,28.9c24.8,15.9,53.3,26,82.7,28.4
		c50.1,4.7,101.8-13.1,138.3-47.7c27.2-25.6,46.7-59.7,53.9-96.4c2.2-10.4,3.1-21,3.6-31.6c-3.1-1.6-6.6-1-9.9-1
		c-9.4,0-18.8,0-28.2,0c12.5-12.7,25.2-25.1,37.8-37.7c0.8-0.8,1.5-1.7,1.7-2.8c1.2-0.4,2.4-1.1,3.3-2.1
		C1666.4,276.8,1672.3,270.9,1678.3,265.1z"/>
</g>
<path d="M583.5,138.8c0,1.7-0.3,3.3-0.9,5c-0.6,1.6-1.4,3-2.5,4.1c-1.5,1.5-3.2,2.6-5,3.4s-4.2,1.1-6.9,1.1H562v12.3h-9.8v-37.8h16
	c2.4,0,4.4,0.2,6.1,0.6c1.7,0.4,3.1,1,4.4,1.9c1.5,1,2.7,2.3,3.5,3.8C583.1,134.8,583.5,136.6,583.5,138.8z M573.4,139
	c0-1.1-0.3-2-0.9-2.7c-0.6-0.8-1.2-1.3-2-1.6c-1-0.4-2-0.6-3-0.7s-2.3-0.1-3.9-0.1H562v11.3h2.8c1.7,0,3-0.1,4.1-0.3
	c1.1-0.2,2-0.6,2.7-1.2c0.6-0.5,1.1-1.2,1.4-1.9S573.4,140.1,573.4,139z"/>
<path d="M610.5,144.9h-0.8c-0.4-0.1-1-0.2-1.9-0.3c-0.9-0.1-1.6-0.1-2.2-0.1c-1.3,0-2.4,0.1-3.4,0.3c-1,0.2-2.1,0.5-3.2,0.9v19.1
	h-9.2v-28.5h9.2v4.2c2-1.7,3.8-2.9,5.2-3.4c1.5-0.6,2.9-0.9,4.1-0.9c0.3,0,0.7,0,1.1,0c0.4,0,0.8,0,1.1,0.1V144.9z"/>
<path d="M643.8,152.1h-20.9c0.1,2.2,1,3.9,2.6,5.1c1.6,1.2,3.9,1.8,6.9,1.8c1.9,0,3.8-0.3,5.6-1c1.8-0.7,3.2-1.4,4.3-2.2h1v7.3
	c-2.1,0.8-4,1.4-5.8,1.8s-3.9,0.6-6.1,0.6c-5.7,0-10.1-1.3-13.2-3.9c-3-2.6-4.6-6.2-4.6-11c0-4.7,1.4-8.4,4.3-11.2
	c2.9-2.8,6.8-4.1,11.9-4.1c4.6,0,8.1,1.2,10.5,3.5c2.3,2.3,3.5,5.7,3.5,10.1V152.1z M634.7,146.8c-0.1-1.9-0.5-3.4-1.4-4.3
	c-0.9-1-2.3-1.4-4.2-1.4c-1.8,0-3.2,0.5-4.3,1.4c-1.1,0.9-1.8,2.4-1.9,4.4H634.7z"/>
<path d="M680,150.1c0,2.4-0.4,4.5-1.1,6.4c-0.7,1.9-1.7,3.5-2.8,4.8c-1.2,1.3-2.6,2.3-4.1,3s-3.2,1-4.9,1c-1.6,0-3-0.2-4.1-0.5
	s-2.3-0.8-3.5-1.5v11.9h-9.2v-39h9.2v3c1.4-1.1,2.8-2,4.3-2.7c1.5-0.7,3.1-1,5.1-1c3.6,0,6.3,1.3,8.3,3.9
	C679,141.9,680,145.5,680,150.1z M670.6,150.2c0-2.8-0.5-4.8-1.4-6c-0.9-1.3-2.4-1.9-4.5-1.9c-0.9,0-1.7,0.1-2.7,0.4
	c-0.9,0.3-1.8,0.6-2.6,1.1v14.3c0.6,0.2,1.3,0.4,2,0.5c0.7,0.1,1.4,0.1,2.1,0.1c2.4,0,4.2-0.7,5.4-2.1S670.6,153.1,670.6,150.2z"/>
<path d="M703.9,161.7c-0.5,0.4-1.1,0.8-1.8,1.3c-0.7,0.5-1.4,0.9-2.1,1.2c-0.9,0.4-1.8,0.7-2.8,0.9c-1,0.2-2,0.3-3.2,0.3
	c-2.7,0-5-0.8-6.8-2.5s-2.7-3.8-2.7-6.4c0-2.1,0.5-3.8,1.4-5.1c0.9-1.3,2.3-2.4,4-3.1c1.7-0.8,3.8-1.3,6.3-1.6
	c2.5-0.3,5.1-0.6,7.8-0.7v-0.2c0-1.6-0.6-2.7-1.9-3.3c-1.3-0.6-3.2-0.9-5.7-0.9c-1.5,0-3.1,0.3-4.8,0.8c-1.7,0.5-2.9,0.9-3.7,1.2
	H687v-6.9c1-0.3,2.5-0.6,4.7-0.9c2.2-0.3,4.4-0.5,6.5-0.5c5.2,0,9,0.8,11.3,2.4s3.5,4.1,3.5,7.5v19.4h-9.1V161.7z M703.9,157.2v-5.9
	c-1.2,0.1-2.6,0.2-4,0.4c-1.4,0.2-2.5,0.4-3.3,0.6c-0.9,0.3-1.6,0.7-2.1,1.3s-0.7,1.3-0.7,2.2c0,0.6,0.1,1.1,0.2,1.4
	c0.1,0.4,0.4,0.7,0.8,1.1c0.4,0.3,0.9,0.6,1.4,0.7c0.5,0.2,1.4,0.2,2.5,0.2c0.9,0,1.8-0.2,2.8-0.6
	C702.3,158.3,703.2,157.9,703.9,157.2z"/>
<path d="M742,144.9h-0.8c-0.4-0.1-1-0.2-1.9-0.3c-0.9-0.1-1.6-0.1-2.2-0.1c-1.3,0-2.4,0.1-3.4,0.3c-1,0.2-2.1,0.5-3.2,0.9v19.1h-9.2
	v-28.5h9.2v4.2c2-1.7,3.8-2.9,5.2-3.4c1.5-0.6,2.9-0.9,4.1-0.9c0.3,0,0.7,0,1.1,0c0.4,0,0.8,0,1.1,0.1V144.9z"/>
<path d="M775.3,152.1h-20.9c0.1,2.2,1,3.9,2.6,5.1c1.6,1.2,3.9,1.8,6.9,1.8c1.9,0,3.8-0.3,5.6-1c1.8-0.7,3.2-1.4,4.3-2.2h1v7.3
	c-2.1,0.8-4,1.4-5.8,1.8s-3.9,0.6-6.1,0.6c-5.7,0-10.1-1.3-13.2-3.9c-3-2.6-4.6-6.2-4.6-11c0-4.7,1.4-8.4,4.3-11.2
	c2.9-2.8,6.8-4.1,11.9-4.1c4.6,0,8.1,1.2,10.5,3.5c2.3,2.3,3.5,5.7,3.5,10.1V152.1z M766.2,146.8c-0.1-1.9-0.5-3.4-1.4-4.3
	c-0.9-1-2.3-1.4-4.2-1.4c-1.8,0-3.2,0.5-4.3,1.4c-1.1,0.9-1.8,2.4-1.9,4.4H766.2z"/>
<g>
	<path d="M1006.4,506c0,4.7-1.4,8.3-4.3,10.7s-7,3.7-12.6,3.7s-9.7-1.2-12.6-3.7c-2.8-2.5-4.3-6.1-4.3-10.7v-24.1h9.8v23.6
		c0,2.6,0.5,4.6,1.7,5.9c1.1,1.3,2.9,1.9,5.4,1.9c2.4,0,4.2-0.6,5.3-1.9c1.1-1.2,1.7-3.2,1.7-5.9v-23.6h9.8V506z"/>
	<path d="M1044.7,505c0,2.4-0.4,4.5-1.1,6.4c-0.7,1.9-1.7,3.5-2.8,4.8c-1.2,1.3-2.6,2.3-4.1,3s-3.2,1-4.9,1c-1.6,0-3-0.2-4.1-0.5
		s-2.3-0.8-3.5-1.5v11.9h-9.2v-39h9.2v3c1.4-1.1,2.8-2,4.3-2.7s3.1-1,5.1-1c3.6,0,6.3,1.3,8.3,3.9S1044.7,500.5,1044.7,505z
		 M1035.3,505.2c0-2.8-0.5-4.8-1.4-6c-0.9-1.3-2.4-1.9-4.5-1.9c-0.9,0-1.7,0.1-2.7,0.4c-0.9,0.3-1.8,0.6-2.6,1.1v14.3
		c0.6,0.2,1.3,0.4,2,0.5c0.7,0.1,1.4,0.1,2.1,0.1c2.4,0,4.2-0.7,5.4-2.1S1035.3,508.1,1035.3,505.2z"/>
	<path d="M1060.5,519.7h-9.2v-39.5h9.2V519.7z"/>
	<path d="M1098.3,505.4c0,4.7-1.4,8.4-4.1,11.1c-2.7,2.7-6.6,4-11.5,4c-4.9,0-8.8-1.3-11.5-4c-2.7-2.7-4.1-6.4-4.1-11.1
		c0-4.7,1.4-8.4,4.1-11.1c2.8-2.7,6.6-4,11.5-4c5,0,8.8,1.4,11.5,4.1S1098.3,500.8,1098.3,505.4z M1087,512.4c0.6-0.7,1-1.6,1.3-2.6
		c0.3-1,0.4-2.4,0.4-4.3c0-1.7-0.2-3.1-0.5-4.2s-0.7-2-1.3-2.7c-0.5-0.7-1.2-1.2-2-1.5s-1.6-0.4-2.5-0.4c-0.9,0-1.7,0.1-2.3,0.4
		s-1.3,0.7-2,1.4c-0.6,0.7-1,1.6-1.3,2.7s-0.5,2.6-0.5,4.3c0,1.6,0.1,2.9,0.4,4c0.3,1.1,0.7,2.1,1.3,2.8c0.5,0.7,1.2,1.1,1.9,1.4
		c0.8,0.3,1.6,0.5,2.6,0.5c0.8,0,1.6-0.1,2.4-0.4C1085.9,513.5,1086.5,513,1087,512.4z"/>
	<path d="M1122.1,516.7c-0.5,0.4-1.1,0.8-1.8,1.3c-0.7,0.5-1.4,0.9-2.1,1.2c-0.9,0.4-1.8,0.7-2.8,0.9c-1,0.2-2,0.3-3.2,0.3
		c-2.7,0-5-0.8-6.8-2.5s-2.7-3.8-2.7-6.4c0-2.1,0.5-3.8,1.4-5.1c0.9-1.3,2.3-2.4,4-3.1c1.7-0.8,3.8-1.3,6.3-1.6
		c2.5-0.3,5.1-0.6,7.8-0.7v-0.2c0-1.6-0.6-2.7-1.9-3.3c-1.3-0.6-3.2-0.9-5.7-0.9c-1.5,0-3.1,0.3-4.8,0.8c-1.7,0.5-2.9,0.9-3.7,1.2
		h-0.8v-6.9c1-0.3,2.5-0.6,4.7-0.9c2.2-0.3,4.4-0.5,6.5-0.5c5.2,0,9,0.8,11.3,2.4s3.5,4.1,3.5,7.5v19.4h-9.1V516.7z M1122.1,512.2
		v-5.9c-1.2,0.1-2.6,0.2-4,0.4c-1.4,0.2-2.5,0.4-3.3,0.6c-0.9,0.3-1.6,0.7-2.1,1.3c-0.5,0.5-0.7,1.3-0.7,2.2c0,0.6,0.1,1.1,0.2,1.4
		c0.1,0.4,0.4,0.7,0.8,1.1c0.4,0.3,0.9,0.6,1.4,0.7c0.5,0.2,1.4,0.2,2.5,0.2c0.9,0,1.8-0.2,2.8-0.6S1121.4,512.8,1122.1,512.2z"/>
	<path d="M1167.3,519.7h-9.2v-3c-1.6,1.3-3,2.2-4.4,2.8c-1.4,0.6-3,0.9-4.7,0.9c-3.5,0-6.2-1.3-8.3-4s-3.1-6.3-3.1-10.8
		c0-2.4,0.4-4.6,1.1-6.4c0.7-1.9,1.7-3.5,2.9-4.8c1.1-1.3,2.5-2.3,4.2-3s3.3-1.1,4.9-1.1c1.7,0,3.1,0.2,4.2,0.5s2.2,0.8,3.4,1.4
		v-12.1h9.2V519.7z M1158.1,511.8v-14c-0.6-0.3-1.3-0.5-2-0.6c-0.7-0.1-1.4-0.2-2-0.2c-2.4,0-4.2,0.8-5.4,2.3
		c-1.2,1.5-1.8,3.6-1.8,6.2c0,2.8,0.5,4.8,1.4,6.1c1,1.3,2.5,1.9,4.6,1.9c0.8,0,1.7-0.2,2.6-0.5
		C1156.6,512.8,1157.4,512.3,1158.1,511.8z"/>
</g>
<g>
	<path d="M1402.2,164.7h-10.1l-2.6-7.6h-14l-2.6,7.6h-9.8l14-37.8h11.2L1402.2,164.7z M1387.2,150.1l-4.7-13.5l-4.7,13.5H1387.2z"/>
	<path d="M1435.8,164.7h-9.2v-14.1c0-1.2-0.1-2.3-0.2-3.4s-0.3-2-0.6-2.5c-0.3-0.6-0.8-1.1-1.5-1.4c-0.7-0.3-1.6-0.4-2.7-0.4
		c-0.8,0-1.7,0.1-2.5,0.4c-0.9,0.3-1.8,0.7-2.8,1.3v20.2h-9.2v-28.5h9.2v3.1c1.6-1.3,3.2-2.2,4.7-2.9c1.5-0.7,3.2-1,5-1
		c3.1,0,5.5,0.9,7.2,2.7c1.7,1.8,2.6,4.5,2.6,8V164.7z"/>
	<path d="M1461.4,161.7c-0.5,0.4-1.1,0.8-1.8,1.3c-0.7,0.5-1.4,0.9-2.1,1.2c-0.9,0.4-1.8,0.7-2.8,0.9c-1,0.2-2,0.3-3.2,0.3
		c-2.7,0-5-0.8-6.8-2.5s-2.7-3.8-2.7-6.4c0-2.1,0.5-3.8,1.4-5.1s2.3-2.4,4-3.1c1.7-0.8,3.8-1.3,6.3-1.6c2.5-0.3,5.1-0.6,7.8-0.7
		v-0.2c0-1.6-0.6-2.7-1.9-3.3c-1.3-0.6-3.2-0.9-5.7-0.9c-1.5,0-3.1,0.3-4.8,0.8s-2.9,0.9-3.7,1.2h-0.8v-6.9c1-0.3,2.5-0.6,4.7-0.9
		c2.2-0.3,4.4-0.5,6.5-0.5c5.2,0,9,0.8,11.3,2.4s3.5,4.1,3.5,7.5v19.4h-9.1V161.7z M1461.4,157.2v-5.9c-1.2,0.1-2.6,0.2-4,0.4
		c-1.4,0.2-2.5,0.4-3.3,0.6c-0.9,0.3-1.6,0.7-2.1,1.3s-0.7,1.3-0.7,2.2c0,0.6,0.1,1.1,0.2,1.4c0.1,0.4,0.4,0.7,0.8,1.1
		c0.4,0.3,0.9,0.6,1.4,0.7c0.5,0.2,1.4,0.2,2.5,0.2c0.9,0,1.8-0.2,2.8-0.6C1459.9,158.3,1460.7,157.9,1461.4,157.2z"/>
	<path d="M1488.1,164.7h-9.2v-39.5h9.2V164.7z"/>
	<path d="M1509.5,154.6l6.5-18.4h9.4l-15.8,39h-9.9l4.5-10.7l-11.1-28.3h9.6L1509.5,154.6z"/>
	<path d="M1555.1,164.7h-26.8v-5.9l15-16H1529v-6.7h25.9v5.8l-14.8,15.9h15.1V164.7z"/>
	<path d="M1589.6,152.1h-20.9c0.1,2.2,1,3.9,2.6,5.1c1.6,1.2,3.9,1.8,6.9,1.8c1.9,0,3.8-0.3,5.6-1c1.8-0.7,3.2-1.4,4.3-2.2h1v7.3
		c-2.1,0.8-4,1.4-5.8,1.8s-3.9,0.6-6.1,0.6c-5.7,0-10.1-1.3-13.2-3.9c-3-2.6-4.6-6.2-4.6-11c0-4.7,1.4-8.4,4.3-11.2
		c2.9-2.8,6.8-4.1,11.9-4.1c4.6,0,8.1,1.2,10.5,3.5c2.3,2.3,3.5,5.7,3.5,10.1V152.1z M1580.5,146.8c-0.1-1.9-0.5-3.4-1.4-4.3
		s-2.3-1.4-4.2-1.4c-1.8,0-3.2,0.5-4.3,1.4s-1.8,2.4-1.9,4.4H1580.5z"/>
</g>
<g>
	<path d="M1836.8,507.8c0,3.7-1.6,6.8-4.7,9.1c-3.2,2.3-7.4,3.5-12.9,3.5c-3.1,0-5.9-0.3-8.2-0.8c-2.3-0.5-4.5-1.2-6.5-2.1v-9.1h1.1
		c2,1.6,4.3,2.8,6.8,3.7c2.5,0.9,4.9,1.3,7.2,1.3c0.6,0,1.4-0.1,2.3-0.2s1.8-0.3,2.4-0.5c0.7-0.3,1.4-0.7,1.8-1.1s0.7-1.1,0.7-2
		c0-0.8-0.4-1.5-1.1-2.1c-0.7-0.6-1.7-1.1-3.1-1.4c-1.4-0.3-2.9-0.7-4.5-1c-1.6-0.3-3.1-0.7-4.5-1.1c-3.2-1-5.5-2.4-6.9-4.2
		c-1.4-1.8-2.1-4-2.1-6.6c0-3.5,1.6-6.4,4.7-8.6c3.2-2.2,7.2-3.3,12.2-3.3c2.5,0,4.9,0.2,7.4,0.7c2.4,0.5,4.5,1.1,6.3,1.8v8.7h-1
		c-1.5-1.2-3.4-2.2-5.6-3.1c-2.2-0.8-4.5-1.2-6.8-1.2c-0.8,0-1.6,0.1-2.4,0.2c-0.8,0.1-1.6,0.3-2.3,0.6c-0.7,0.3-1.2,0.6-1.7,1.2
		c-0.5,0.5-0.7,1.1-0.7,1.8c0,1,0.4,1.8,1.1,2.3s2.2,1,4.3,1.5c1.4,0.3,2.7,0.6,4,0.8c1.3,0.3,2.7,0.6,4.1,1.1
		c2.9,0.9,5,2.2,6.4,3.9C1836.1,503.1,1836.8,505.2,1836.8,507.8z"/>
	<path d="M1871.6,519.7h-9.2v-14.1c0-1.2-0.1-2.3-0.2-3.4c-0.1-1.1-0.3-2-0.6-2.5c-0.3-0.6-0.8-1.1-1.5-1.4
		c-0.7-0.3-1.6-0.4-2.7-0.4c-0.8,0-1.7,0.1-2.5,0.4c-0.9,0.3-1.8,0.7-2.8,1.3v20.2h-9.2v-39.5h9.2v14.1c1.6-1.3,3.2-2.2,4.7-2.9
		c1.5-0.7,3.2-1,5-1c3.1,0,5.5,0.9,7.2,2.7c1.7,1.8,2.6,4.5,2.6,8V519.7z"/>
	<path d="M1897.3,516.7c-0.5,0.4-1.1,0.8-1.8,1.3c-0.7,0.5-1.4,0.9-2.1,1.2c-0.9,0.4-1.8,0.7-2.8,0.9s-2,0.3-3.2,0.3
		c-2.7,0-5-0.8-6.8-2.5s-2.7-3.8-2.7-6.4c0-2.1,0.5-3.8,1.4-5.1c0.9-1.3,2.3-2.4,4-3.1c1.7-0.8,3.8-1.3,6.3-1.6
		c2.5-0.3,5.1-0.6,7.8-0.7v-0.2c0-1.6-0.6-2.7-1.9-3.3c-1.3-0.6-3.2-0.9-5.7-0.9c-1.5,0-3.1,0.3-4.8,0.8c-1.7,0.5-2.9,0.9-3.7,1.2
		h-0.8v-6.9c1-0.3,2.5-0.6,4.7-0.9c2.2-0.3,4.4-0.5,6.5-0.5c5.2,0,8.9,0.8,11.3,2.4s3.5,4.1,3.5,7.5v19.4h-9.1V516.7z M1897.3,512.2
		v-5.9c-1.2,0.1-2.6,0.2-4,0.4c-1.4,0.2-2.5,0.4-3.3,0.6c-0.9,0.3-1.6,0.7-2.1,1.3c-0.5,0.5-0.7,1.3-0.7,2.2c0,0.6,0.1,1.1,0.2,1.4
		s0.4,0.7,0.8,1.1c0.4,0.3,0.9,0.6,1.4,0.7c0.5,0.2,1.4,0.2,2.5,0.2c0.9,0,1.8-0.2,2.8-0.6C1895.7,513.3,1896.5,512.8,1897.3,512.2z
		"/>
	<path d="M1935.4,499.9h-0.8c-0.4-0.1-1-0.2-1.9-0.3c-0.9-0.1-1.6-0.1-2.2-0.1c-1.3,0-2.4,0.1-3.4,0.3c-1,0.2-2.1,0.5-3.2,0.9v19.1
		h-9.2v-28.5h9.2v4.2c2-1.7,3.8-2.9,5.2-3.4c1.5-0.6,2.9-0.9,4.1-0.9c0.3,0,0.7,0,1.1,0c0.4,0,0.8,0,1.1,0.1V499.9z"/>
	<path d="M1968.7,507.1h-20.9c0.1,2.2,1,3.9,2.6,5.1c1.6,1.2,3.9,1.8,6.9,1.8c1.9,0,3.8-0.3,5.6-1c1.8-0.7,3.2-1.4,4.3-2.2h1v7.3
		c-2.1,0.8-4,1.4-5.8,1.8s-3.9,0.6-6.1,0.6c-5.7,0-10.1-1.3-13.2-3.9c-3-2.6-4.6-6.2-4.6-11c0-4.7,1.4-8.4,4.3-11.2
		c2.9-2.8,6.8-4.1,11.9-4.1c4.6,0,8.1,1.2,10.5,3.5c2.3,2.3,3.5,5.7,3.5,10.1V507.1z M1959.6,501.8c-0.1-1.9-0.5-3.4-1.4-4.3
		c-0.9-1-2.3-1.4-4.2-1.4c-1.8,0-3.2,0.5-4.3,1.4c-1.1,0.9-1.8,2.4-1.9,4.4H1959.6z"/>
</g>
</svg>
