<?xml version="1.0" encoding="UTF-8" ?>
<!DOCTYPE svg PUBLIC "-//W3C//DTD SVG 1.1//EN" "http://www.w3.org/Graphics/SVG/1.1/DTD/svg11.dtd">
<svg width="753pt" height="279pt" viewBox="0 0 753 279" version="1.1" xmlns="http://www.w3.org/2000/svg">
<g id="#35ffdaff">
</g>
<g id="#000000ff">
<path fill="#000000" opacity="1.00" d=" M 82.76 55.96 C 91.85 45.20 105.87 38.62 120.00 39.07 C 134.26 38.83 148.26 45.69 157.33 56.60 C 166.85 67.88 170.94 83.66 167.75 98.11 C 165.10 111.10 156.91 122.84 145.63 129.82 C 137.17 135.18 127.02 137.73 117.03 137.15 C 97.46 136.50 79.16 122.68 73.14 104.06 C 71.86 100.47 76.29 96.51 79.71 98.27 C 82.22 99.23 82.72 102.12 83.80 104.27 C 89.15 116.78 101.62 125.66 115.06 127.23 C 131.34 129.31 148.27 119.97 155.11 105.04 C 159.46 96.05 160.26 85.42 157.02 75.94 C 153.01 63.23 142.05 52.99 129.06 49.95 C 115.08 46.12 99.35 51.42 90.06 62.44 C 93.10 65.25 96.50 67.70 99.19 70.86 C 101.24 73.91 98.64 78.41 94.99 78.27 C 87.65 78.36 80.31 78.34 72.97 78.28 C 70.14 78.42 67.72 75.85 68.04 73.03 C 68.09 66.66 67.93 60.29 68.02 53.92 C 67.69 50.49 71.53 47.56 74.69 49.11 C 77.66 51.03 80.09 53.66 82.76 55.96 Z" />
<path fill="#000000" opacity="1.00" d=" M 450.95 39.11 C 454.20 39.08 457.46 39.08 460.72 39.08 C 460.70 42.31 460.70 45.54 460.72 48.77 C 457.50 48.77 454.28 48.77 451.07 48.79 C 450.97 45.56 450.93 42.33 450.95 39.11 Z" />
<path fill="#000000" opacity="1.00" d=" M 485.22 39.07 C 488.52 39.08 491.82 39.08 495.13 39.09 C 495.13 52.16 495.13 65.24 495.13 78.31 C 491.82 78.32 488.51 78.32 485.20 78.30 C 485.26 65.23 485.23 52.15 485.22 39.07 Z" />
<path fill="#000000" opacity="1.00" d=" M 519.85 39.08 C 523.10 39.08 526.36 39.08 529.62 39.08 C 529.60 43.98 529.61 48.88 529.61 53.78 C 526.36 53.78 523.10 53.78 519.85 53.78 C 519.84 48.88 519.84 43.98 519.85 39.08 Z" />
<path fill="#000000" opacity="1.00" d=" M 277.33 44.43 C 278.78 43.69 280.45 43.87 282.02 43.81 C 300.70 43.88 319.37 43.79 338.04 43.85 C 341.33 43.46 344.29 46.82 343.30 50.03 C 342.79 52.83 339.62 53.99 337.08 53.79 C 317.74 53.69 298.38 53.96 279.04 53.66 C 274.38 53.42 273.19 46.31 277.33 44.43 Z" />
<path fill="#000000" opacity="1.00" d=" M 684.17 50.04 C 689.24 43.70 698.97 41.96 705.94 46.14 C 713.68 50.36 716.88 60.91 712.79 68.72 C 709.50 75.50 701.47 79.61 694.06 77.96 C 690.83 77.38 688.08 75.50 685.39 73.75 C 677.00 78.03 668.58 82.24 660.10 86.34 C 660.46 89.11 660.51 91.90 660.01 94.66 C 668.60 98.87 677.08 103.34 685.76 107.36 C 689.16 104.48 693.50 102.59 698.02 102.89 C 706.94 102.97 714.83 111.07 714.56 120.02 C 714.88 128.96 707.01 137.23 698.04 137.19 C 691.25 137.68 684.57 133.47 681.76 127.33 C 679.99 123.78 679.93 119.72 680.52 115.87 C 672.03 111.66 663.55 107.43 655.07 103.21 C 650.81 106.82 645.00 108.72 639.48 107.33 C 629.90 105.46 623.34 94.19 627.02 85.02 C 629.51 76.93 638.72 71.74 646.93 73.76 C 649.99 74.34 652.60 76.11 655.09 77.90 C 663.57 73.70 672.05 69.49 680.51 65.23 C 679.52 59.93 680.56 54.17 684.17 50.04 Z" />
<path fill="#000000" opacity="1.00" d=" M 446.54 59.64 C 450.75 57.77 455.52 58.76 459.99 58.55 C 464.90 58.27 469.95 61.98 470.39 67.03 C 470.68 70.99 470.62 74.98 470.46 78.94 C 470.37 84.26 465.19 88.57 459.98 88.16 C 454.56 87.84 448.02 89.58 443.82 85.12 C 439.80 81.13 441.45 75.02 441.11 69.98 C 440.65 65.80 442.65 61.46 446.54 59.64 Z" />
<path fill="#000000" opacity="1.00" d=" M 113.44 68.16 C 113.43 64.33 118.58 61.97 121.40 64.62 C 123.16 65.82 123.13 68.11 123.17 70.01 C 123.20 75.22 123.11 80.43 123.19 85.64 C 128.39 89.50 133.54 93.43 138.76 97.26 C 140.44 98.55 142.40 99.82 143.02 101.99 C 143.59 105.18 140.32 108.38 137.14 107.69 C 135.51 107.23 134.18 106.11 132.83 105.15 C 127.35 100.97 121.82 96.88 116.31 92.77 C 114.78 91.67 113.31 90.10 113.42 88.07 C 113.36 81.44 113.31 74.79 113.44 68.16 Z" />
<path fill="#000000" opacity="1.00" d=" M 305.33 65.27 C 307.20 62.99 311.01 62.96 312.85 65.29 C 317.68 70.11 322.55 74.90 327.31 79.79 C 330.07 82.25 328.57 87.16 325.07 88.01 C 321.42 88.35 317.74 88.09 314.08 88.13 C 313.96 93.39 314.37 98.67 313.89 103.91 C 313.10 108.65 305.73 109.04 304.43 104.41 C 303.66 99.05 304.33 93.56 304.11 88.15 C 300.61 88.10 297.11 88.30 293.61 88.08 C 289.88 87.66 288.01 82.42 290.83 79.82 C 295.60 74.91 300.48 70.10 305.33 65.27 Z" />
<path fill="#000000" opacity="1.00" d=" M 516.24 64.13 C 520.37 63.02 524.75 63.67 528.99 63.54 C 533.58 63.17 537.98 66.51 539.11 70.92 C 539.56 74.93 539.32 78.99 539.34 83.02 C 539.63 87.80 535.74 92.37 530.99 92.89 C 526.97 93.27 522.91 93.18 518.89 92.98 C 514.27 92.66 510.22 88.70 509.95 84.05 C 509.76 80.04 509.71 76.01 510.01 72.01 C 510.38 68.46 512.96 65.42 516.24 64.13 Z" />
<path fill="#000000" opacity="1.00" d=" M 218.56 77.06 C 217.59 74.23 221.79 71.91 223.62 74.23 C 227.81 78.59 231.66 83.28 235.78 87.72 C 231.64 92.26 227.75 97.04 223.43 101.40 C 221.41 103.73 217.19 100.77 218.77 98.10 C 220.52 95.41 222.91 93.21 224.96 90.75 C 219.01 90.60 213.03 91.06 207.10 90.54 C 204.41 90.00 204.47 85.71 207.05 84.98 C 213.01 84.43 219.02 84.90 225.00 84.75 C 222.84 82.19 220.28 79.94 218.56 77.06 Z" />
<path fill="#000000" opacity="1.00" d=" M 581.82 77.90 C 580.23 75.27 584.48 72.27 586.48 74.57 C 590.78 78.96 594.70 83.72 598.83 88.27 C 594.70 92.71 590.88 97.45 586.63 101.77 C 584.77 104.07 580.66 101.79 581.62 98.97 C 583.30 96.04 585.90 93.79 588.08 91.25 C 582.36 91.16 576.64 91.43 570.93 91.15 C 567.55 91.41 567.17 85.95 570.39 85.43 C 576.25 84.96 582.15 85.40 588.03 85.24 C 585.98 82.78 583.57 80.59 581.82 77.90 Z" />
<path fill="#000000" opacity="1.00" d=" M 396.44 79.54 C 395.42 76.81 399.48 74.39 401.36 76.67 C 405.65 81.00 409.48 85.77 413.62 90.25 C 409.97 94.38 406.27 98.45 402.64 102.59 C 401.59 103.72 400.20 105.28 398.48 104.56 C 396.51 104.18 395.62 101.51 396.95 100.02 C 398.72 97.61 400.88 95.51 402.84 93.26 C 396.91 93.11 390.96 93.53 385.05 93.07 C 382.05 92.58 382.36 87.75 385.30 87.40 C 391.12 87.00 396.97 87.38 402.81 87.24 C 400.67 84.69 398.14 82.42 396.44 79.54 Z" />
<path fill="#000000" opacity="1.00" d=" M 482.44 88.52 C 486.92 87.78 491.52 88.21 496.05 88.20 C 501.42 88.45 505.49 93.78 505.09 99.00 C 504.84 103.97 506.20 109.66 502.84 113.88 C 500.60 116.94 496.58 117.88 492.98 117.70 C 488.03 117.56 482.15 118.65 478.30 114.72 C 474.12 110.59 475.80 104.24 475.48 98.99 C 475.03 94.41 478.02 89.83 482.44 88.52 Z" />
<path fill="#000000" opacity="1.00" d=" M 451.05 97.86 C 454.27 97.85 457.50 97.86 460.73 97.90 C 460.71 110.98 460.68 124.07 460.74 137.16 C 457.51 137.19 454.28 137.19 451.06 137.19 C 451.05 124.08 451.06 110.97 451.05 97.86 Z" />
<path fill="#000000" opacity="1.00" d=" M 519.85 102.91 C 523.10 102.90 526.35 102.90 529.61 102.91 C 529.60 114.34 529.64 125.77 529.59 137.20 C 526.34 137.19 523.09 137.19 519.85 137.19 C 519.84 125.76 519.84 114.33 519.85 102.91 Z" />
<path fill="#000000" opacity="1.00" d=" M 265.13 111.11 C 266.17 106.99 272.87 106.67 274.21 110.75 C 275.43 114.50 274.52 118.59 274.78 122.47 C 297.68 122.47 320.58 122.47 343.48 122.47 C 343.66 118.63 342.99 114.68 343.88 110.92 C 345.14 106.73 351.98 106.86 353.07 111.11 C 353.61 115.36 353.43 119.69 353.20 123.96 C 352.70 128.90 347.88 132.61 343.01 132.37 C 320.33 132.38 297.65 132.40 274.98 132.36 C 269.82 132.58 264.96 128.24 264.89 123.03 C 264.84 119.06 264.53 115.04 265.13 111.11 Z" />
<path fill="#000000" opacity="1.00" d=" M 485.23 127.46 C 488.52 127.47 491.83 127.47 495.13 127.47 C 495.13 130.71 495.13 133.95 495.13 137.19 C 491.83 137.19 488.53 137.19 485.23 137.19 C 485.23 133.95 485.23 130.71 485.23 127.46 Z" />
<path fill="#000000" opacity="1.00" d=" M 117.26 169.90 C 119.08 169.87 120.90 169.91 122.72 169.83 C 122.82 174.19 122.73 178.56 122.82 182.92 C 122.01 182.91 120.39 182.87 119.57 182.86 C 119.62 179.37 119.61 175.88 119.60 172.39 C 119.01 172.43 117.81 172.50 117.22 172.54 C 117.23 171.66 117.24 170.78 117.26 169.90 Z" />
<path fill="#000000" opacity="1.00" d=" M 306.12 171.09 C 308.74 169.94 312.32 168.88 314.52 171.32 C 316.29 175.26 311.94 178.01 309.65 180.48 C 311.61 180.44 313.58 180.43 315.54 180.41 C 315.56 181.03 315.60 182.26 315.61 182.88 C 312.23 182.86 308.84 182.90 305.46 182.80 C 306.10 178.42 312.38 176.89 311.54 172.13 C 309.71 172.50 307.99 173.19 306.26 173.86 C 306.23 173.17 306.16 171.78 306.12 171.09 Z" />
<path fill="#000000" opacity="1.00" d=" M 485.11 170.12 C 488.20 170.12 491.30 170.06 494.39 170.37 C 493.09 172.23 491.83 174.43 489.50 175.12 C 492.06 174.97 495.19 177.04 494.13 179.91 C 493.04 183.72 488.01 183.41 485.17 181.93 C 485.22 181.26 485.31 179.90 485.36 179.22 C 487.20 180.14 490.44 181.94 491.49 179.00 C 490.92 176.74 488.44 177.38 486.73 177.03 C 487.26 175.12 488.72 173.77 490.05 172.39 C 488.46 172.40 486.87 172.40 485.29 172.40 C 485.25 171.83 485.15 170.69 485.11 170.12 Z" />
<path fill="#000000" opacity="1.00" d=" M 668.28 170.18 C 669.08 170.15 670.68 170.10 671.48 170.08 C 670.14 172.58 668.86 175.12 667.52 177.62 C 668.28 177.63 669.80 177.65 670.57 177.66 C 670.56 176.94 670.55 175.51 670.55 174.80 C 671.29 174.79 672.78 174.79 673.52 174.79 C 673.51 175.39 673.49 176.59 673.48 177.19 C 674.08 177.63 675.28 178.49 675.87 178.93 C 674.22 179.73 672.98 180.87 673.46 182.85 C 672.74 182.86 671.30 182.90 670.57 182.92 C 670.53 181.88 670.48 180.84 670.43 179.81 C 668.29 179.85 666.15 179.87 664.03 179.85 C 664.72 176.34 666.78 173.36 668.28 170.18 Z" />
<path fill="#000000" opacity="1.00" d=" M 80.31 230.74 C 83.11 230.80 85.90 230.81 88.70 230.78 C 88.72 235.03 88.73 239.27 88.69 243.52 C 89.21 243.46 90.23 243.33 90.75 243.27 C 90.74 245.65 90.75 248.03 90.75 250.42 C 90.01 250.40 88.52 250.37 87.77 250.35 C 87.78 248.84 87.78 247.33 87.79 245.83 C 84.59 245.85 81.39 245.85 78.19 245.83 C 78.19 247.33 78.19 248.84 78.19 250.35 C 77.45 250.37 75.96 250.40 75.22 250.42 C 75.35 248.24 74.89 245.92 75.57 243.83 C 78.65 240.13 79.16 235.23 80.31 230.74 M 82.61 233.53 C 81.65 236.85 80.90 240.25 79.50 243.44 C 81.56 243.42 83.62 243.42 85.68 243.42 C 85.67 240.02 85.69 236.62 85.66 233.22 C 84.90 233.30 83.37 233.45 82.61 233.53 Z" />
<path fill="#000000" opacity="1.00" d=" M 295.31 230.73 C 298.04 230.84 300.90 230.54 303.51 231.58 C 306.22 233.00 306.23 237.27 304.09 239.21 C 302.47 240.51 300.25 240.37 298.31 240.65 C 298.33 242.37 298.35 244.10 298.37 245.83 C 297.59 245.85 296.03 245.89 295.25 245.91 C 295.34 240.85 295.27 235.79 295.31 230.73 M 298.31 233.23 C 298.34 234.96 298.38 236.70 298.43 238.44 C 299.75 238.05 301.08 237.65 302.40 237.25 C 302.38 236.07 302.34 234.90 302.30 233.74 C 300.97 233.56 299.64 233.38 298.31 233.23 Z" />
<path fill="#000000" opacity="1.00" d=" M 492.26 230.77 C 495.37 230.80 498.49 230.80 501.61 230.79 C 501.62 235.82 501.57 240.85 501.66 245.89 C 500.61 245.87 499.57 245.85 498.53 245.84 C 498.60 241.68 498.57 237.53 498.58 233.38 C 497.60 233.38 495.64 233.38 494.66 233.38 C 494.13 237.13 494.09 241.10 492.49 244.60 C 491.69 246.33 489.39 245.60 487.92 246.02 C 488.01 245.45 488.19 244.30 488.28 243.73 C 488.72 243.58 489.60 243.29 490.04 243.14 C 491.35 239.14 491.48 234.88 492.26 230.77 Z" />
<path fill="#000000" opacity="1.00" d=" M 507.12 230.84 C 507.97 230.80 508.82 230.77 509.68 230.74 C 509.71 234.76 509.70 238.79 509.59 242.81 C 511.97 238.78 514.43 234.80 516.86 230.80 C 518.08 230.79 519.31 230.79 520.54 230.78 C 520.56 235.82 520.51 240.85 520.59 245.89 C 519.88 245.87 518.47 245.84 517.76 245.83 C 517.80 241.79 517.78 237.75 517.79 233.72 C 515.80 237.93 513.15 241.77 510.84 245.81 C 509.59 245.84 508.35 245.88 507.11 245.93 C 507.19 240.90 507.17 235.86 507.12 230.84 Z" />
<path fill="#000000" opacity="1.00" d=" M 41.46 245.85 C 41.54 240.83 41.48 235.81 41.52 230.79 C 45.48 230.80 49.44 230.80 53.40 230.79 C 53.40 235.81 53.37 240.82 53.43 245.84 C 52.65 245.85 51.09 245.88 50.31 245.89 C 50.39 241.72 50.35 237.55 50.38 233.38 C 48.43 233.38 46.48 233.38 44.53 233.38 C 44.55 237.54 44.52 241.70 44.59 245.87 C 43.55 245.86 42.50 245.85 41.46 245.85 Z" />
<path fill="#000000" opacity="1.00" d=" M 61.35 231.57 C 64.73 229.72 70.05 230.45 71.60 234.36 C 73.19 238.08 72.59 243.54 68.60 245.46 C 65.38 246.32 60.81 246.40 59.11 242.89 C 57.47 239.28 57.56 233.83 61.35 231.57 M 62.64 233.46 C 61.20 236.43 60.30 240.73 63.15 243.17 C 64.79 243.70 67.20 244.04 68.22 242.27 C 69.64 239.98 69.62 236.86 68.28 234.54 C 67.12 232.54 64.50 233.49 62.64 233.46 Z" />
<path fill="#000000" opacity="1.00" d=" M 94.51 230.80 C 97.62 230.80 100.73 230.80 103.84 230.78 C 103.85 231.44 103.86 232.75 103.86 233.41 C 101.75 233.38 99.64 233.36 97.53 233.35 C 97.55 237.52 97.52 241.69 97.60 245.86 C 96.82 245.86 95.25 245.87 94.47 245.87 C 94.53 240.84 94.50 235.82 94.51 230.80 Z" />
<path fill="#000000" opacity="1.00" d=" M 110.32 231.59 C 113.69 229.73 118.98 230.43 120.57 234.30 C 122.20 238.02 121.62 243.52 117.61 245.46 C 114.41 246.31 109.87 246.40 108.15 242.96 C 106.46 239.35 106.54 233.87 110.32 231.59 M 111.65 233.46 C 110.19 236.43 109.34 240.65 112.08 243.15 C 113.73 243.69 116.18 244.06 117.21 242.28 C 118.79 239.68 118.75 235.74 116.43 233.60 C 114.90 233.00 113.23 233.42 111.65 233.46 Z" />
<path fill="#000000" opacity="1.00" d=" M 124.52 230.79 C 128.24 230.81 131.96 230.81 135.68 230.75 C 135.73 231.64 135.79 232.53 135.84 233.43 C 134.44 233.40 133.04 233.38 131.65 233.36 C 131.67 237.54 131.64 241.72 131.71 245.90 C 130.93 245.88 129.37 245.85 128.59 245.83 C 128.65 241.68 128.62 237.52 128.64 233.37 C 127.25 233.38 125.87 233.39 124.49 233.41 C 124.50 232.75 124.51 231.44 124.52 230.79 Z" />
<path fill="#000000" opacity="1.00" d=" M 142.38 231.56 C 145.74 229.73 151.01 230.46 152.58 234.33 C 154.19 238.04 153.61 243.51 149.62 245.46 C 146.37 246.33 141.77 246.38 140.08 242.84 C 138.48 239.22 138.57 233.79 142.38 231.56 M 143.64 233.46 C 142.19 236.42 141.36 240.59 144.04 243.13 C 145.69 243.69 148.17 244.07 149.21 242.28 C 150.64 239.99 150.63 236.88 149.29 234.56 C 148.14 232.54 145.51 233.49 143.64 233.46 Z" />
<path fill="#000000" opacity="1.00" d=" M 158.15 230.75 C 161.53 231.06 165.89 229.98 168.40 232.85 C 169.21 234.88 168.48 237.09 166.45 238.01 C 169.24 238.66 169.53 242.11 168.25 244.17 C 165.59 246.83 161.45 245.53 158.10 245.91 C 158.19 240.86 158.14 235.80 158.15 230.75 M 161.14 233.25 C 161.14 234.49 161.15 235.72 161.15 236.96 C 162.60 236.81 164.05 236.66 165.51 236.49 C 165.47 235.54 165.45 234.59 165.45 233.65 C 164.01 233.51 162.57 233.38 161.14 233.25 M 160.63 239.39 C 160.82 240.77 161.03 242.15 161.24 243.53 C 162.67 243.44 164.09 243.34 165.52 243.26 C 165.59 242.00 165.65 240.75 165.69 239.50 C 164.00 239.43 162.32 239.39 160.63 239.39 Z" />
<path fill="#000000" opacity="1.00" d=" M 173.47 231.12 C 174.27 231.13 175.86 231.14 176.65 231.14 C 176.65 233.64 175.99 236.20 176.65 238.65 C 179.13 235.66 180.60 230.07 185.45 230.62 C 183.73 233.14 181.62 235.38 180.10 238.03 C 181.54 240.94 183.83 243.32 185.77 245.90 C 184.85 245.88 183.02 245.85 182.10 245.83 C 180.87 244.05 179.63 242.28 178.50 240.43 C 177.99 240.17 176.96 239.64 176.44 239.37 C 176.50 241.53 176.57 243.70 176.62 245.86 C 175.83 245.86 174.25 245.86 173.46 245.86 C 173.53 240.95 173.52 236.03 173.47 231.12 Z" />
<path fill="#000000" opacity="1.00" d=" M 187.29 245.87 C 189.23 240.89 190.91 235.81 192.71 230.77 C 193.63 230.75 195.47 230.71 196.39 230.68 C 198.35 235.70 199.92 240.86 201.91 245.87 C 200.78 245.86 199.65 245.86 198.52 245.86 C 198.16 244.67 197.80 243.49 197.44 242.30 C 195.51 242.31 193.59 242.33 191.66 242.34 C 191.38 243.50 191.10 244.65 190.82 245.82 C 189.64 245.82 188.46 245.84 187.29 245.87 M 194.29 233.06 C 193.79 235.34 193.16 237.59 192.60 239.85 C 193.98 239.77 195.37 239.71 196.76 239.67 C 196.07 237.41 195.27 235.19 194.29 233.06 Z" />
<path fill="#000000" opacity="1.00" d=" M 250.06 231.99 C 252.88 231.07 256.02 229.88 258.93 231.19 C 260.49 231.65 261.78 233.39 261.31 235.05 C 261.07 237.22 258.49 237.52 256.86 238.03 C 259.33 238.21 262.69 239.66 261.66 242.74 C 260.03 247.28 254.10 246.12 250.38 245.58 C 250.29 244.97 250.12 243.75 250.04 243.14 C 252.83 243.64 255.67 243.79 258.48 243.37 C 258.48 242.47 258.50 240.67 258.50 239.78 C 256.54 239.56 254.59 239.36 252.63 239.21 C 252.52 238.75 252.30 237.82 252.20 237.36 C 254.29 236.92 256.40 236.62 258.50 236.20 C 258.92 233.81 257.02 233.21 255.16 232.72 C 253.84 233.20 252.52 233.65 251.19 234.10 C 250.91 233.57 250.34 232.52 250.06 231.99 Z" />
<path fill="#000000" opacity="1.00" d=" M 264.06 245.87 C 266.04 240.86 267.60 235.71 269.54 230.69 C 270.47 230.71 272.32 230.75 273.25 230.77 C 275.05 235.81 276.71 240.89 278.68 245.87 C 277.49 245.84 276.31 245.82 275.12 245.82 C 274.85 244.66 274.58 243.50 274.31 242.35 C 272.37 242.33 270.44 242.31 268.51 242.30 C 268.16 243.48 267.80 244.66 267.45 245.85 C 266.31 245.85 265.18 245.86 264.06 245.87 M 271.21 233.54 C 270.52 235.57 269.88 237.62 269.28 239.67 C 270.67 239.71 272.06 239.77 273.45 239.84 C 272.91 237.67 272.27 235.52 271.21 233.54 Z" />
<path fill="#000000" opacity="1.00" d=" M 282.15 230.78 C 285.25 230.80 288.34 230.80 291.44 230.80 C 291.45 231.43 291.47 232.71 291.47 233.34 C 289.24 233.39 287.01 233.38 284.79 233.48 C 284.87 237.62 284.82 241.76 284.90 245.90 C 284.20 245.90 282.80 245.90 282.10 245.90 C 282.20 240.86 282.14 235.82 282.15 230.78 Z" />
<path fill="#000000" opacity="1.00" d=" M 308.74 230.63 C 309.38 230.71 310.67 230.88 311.31 230.97 C 313.06 233.55 313.79 236.68 315.57 239.26 C 316.70 236.52 317.36 233.48 319.07 231.04 C 319.82 230.93 321.30 230.72 322.04 230.61 C 320.05 235.06 318.44 239.73 315.99 243.96 C 314.63 246.47 311.44 245.68 309.11 245.97 C 309.11 245.35 309.11 244.11 309.11 243.50 C 310.48 243.46 311.86 243.38 313.24 243.24 C 313.49 238.65 309.48 235.11 308.74 230.63 Z" />
<path fill="#000000" opacity="1.00" d=" M 323.90 232.60 C 326.54 230.97 329.82 229.97 332.87 231.04 C 334.45 231.51 335.91 233.08 335.56 234.84 C 335.46 237.04 332.84 237.54 331.18 238.03 C 332.76 238.53 335.93 238.71 335.86 241.08 C 336.32 243.15 334.91 245.19 332.89 245.66 C 330.12 246.10 327.30 245.78 324.53 245.60 C 324.48 244.98 324.38 243.75 324.33 243.14 C 327.07 243.64 329.87 243.75 332.64 243.43 C 332.65 242.21 332.65 241.01 332.64 239.80 C 330.27 239.47 327.69 239.52 325.76 237.88 C 327.95 237.16 330.20 236.72 332.42 236.11 C 333.21 234.14 331.69 233.34 330.14 232.69 C 328.05 233.31 325.68 234.60 323.90 232.60 Z" />
<path fill="#000000" opacity="1.00" d=" M 340.50 230.80 C 341.28 230.80 342.83 230.79 343.61 230.79 C 343.66 233.40 343.00 236.07 343.65 238.64 C 346.13 235.66 347.59 230.06 352.45 230.62 C 350.75 233.14 348.61 235.35 347.13 238.01 C 348.46 240.95 350.84 243.29 352.77 245.85 C 351.86 245.85 350.02 245.85 349.11 245.85 C 347.86 244.05 346.62 242.26 345.48 240.41 C 344.97 240.15 343.95 239.64 343.44 239.39 C 343.49 241.54 343.57 243.71 343.62 245.87 C 342.83 245.86 341.25 245.86 340.46 245.86 C 340.54 240.84 340.50 235.82 340.50 230.80 Z" />
<path fill="#000000" opacity="1.00" d=" M 354.05 245.87 C 356.02 240.87 357.61 235.73 359.52 230.71 C 360.44 230.72 362.28 230.73 363.20 230.73 C 365.08 235.76 366.69 240.88 368.68 245.87 C 367.49 245.84 366.31 245.83 365.14 245.82 C 364.85 244.66 364.57 243.50 364.29 242.34 C 362.36 242.32 360.44 242.31 358.52 242.30 C 358.15 243.48 357.80 244.67 357.44 245.86 C 356.31 245.85 355.18 245.86 354.05 245.87 M 359.25 239.74 C 360.65 239.72 362.06 239.70 363.48 239.68 C 362.85 237.63 362.28 235.57 361.68 233.52 C 360.53 235.45 359.82 237.58 359.25 239.74 Z" />
<path fill="#000000" opacity="1.00" d=" M 438.29 245.88 C 440.23 240.88 441.92 235.80 443.71 230.76 C 444.64 230.74 446.51 230.72 447.44 230.71 C 449.33 235.74 450.94 240.87 452.91 245.87 C 451.77 245.86 450.64 245.86 449.52 245.86 C 449.15 244.68 448.79 243.49 448.44 242.31 C 446.52 242.31 444.60 242.32 442.68 242.33 C 442.39 243.48 442.10 244.65 441.82 245.81 C 440.64 245.82 439.46 245.84 438.29 245.88 M 445.32 233.57 C 444.70 235.60 444.13 237.65 443.51 239.69 C 444.92 239.71 446.33 239.72 447.75 239.73 C 447.16 237.59 446.47 235.47 445.32 233.57 Z" />
<path fill="#000000" opacity="1.00" d=" M 456.28 230.82 C 457.04 230.81 458.57 230.79 459.34 230.78 C 459.33 232.78 459.33 234.78 459.33 236.79 C 461.39 236.78 463.46 236.78 465.53 236.78 C 465.51 234.90 465.48 233.02 465.46 231.14 C 466.24 231.14 467.81 231.13 468.60 231.13 C 468.52 236.04 468.52 240.96 468.59 245.87 C 467.54 245.86 466.49 245.85 465.45 245.85 C 465.48 243.69 465.51 241.52 465.53 239.37 C 463.46 239.37 461.38 239.37 459.32 239.37 C 459.32 241.51 459.34 243.66 459.37 245.82 C 458.33 245.84 457.29 245.88 456.25 245.91 C 456.33 240.88 456.30 235.85 456.28 230.82 Z" />
<path fill="#000000" opacity="1.00" d=" M 476.91 231.85 C 477.34 229.85 481.08 230.09 481.46 232.12 C 483.17 236.68 484.61 241.34 486.40 245.87 C 485.51 245.87 483.75 245.85 482.86 245.84 C 482.65 244.71 482.45 243.58 482.28 242.45 C 480.19 242.36 478.11 242.34 476.04 242.34 C 475.80 243.48 475.56 244.63 475.33 245.77 C 474.16 245.82 473.00 245.86 471.84 245.91 C 473.64 241.27 475.00 236.46 476.91 231.85 M 479.00 233.46 C 478.30 235.52 477.67 237.62 477.06 239.71 C 478.48 239.71 479.90 239.72 481.34 239.72 C 480.60 237.61 479.86 235.51 479.00 233.46 Z" />
<path fill="#000000" opacity="1.00" d=" M 526.34 231.50 C 529.51 229.95 536.53 229.98 535.87 235.00 C 536.03 237.04 533.37 237.29 532.09 238.05 C 534.69 238.25 537.64 240.29 536.30 243.22 C 534.19 247.13 529.01 246.12 525.39 245.66 C 525.24 245.03 524.92 243.76 524.76 243.13 C 527.55 243.53 530.45 244.11 533.20 243.15 C 533.28 242.59 533.44 241.48 533.52 240.92 C 532.41 237.96 526.43 241.25 527.04 236.98 C 529.21 236.59 532.16 237.36 533.48 235.08 C 532.31 231.80 528.48 233.72 526.00 233.77 C 524.77 233.18 524.84 231.58 526.34 231.50 Z" />
<path fill="#000000" opacity="1.00" d=" M 636.41 231.53 C 639.76 229.75 644.97 230.46 646.56 234.28 C 648.21 238.02 647.62 243.55 643.57 245.48 C 641.32 246.10 638.79 246.11 636.58 245.36 C 631.93 242.62 631.81 234.36 636.41 231.53 M 637.65 233.46 C 636.19 236.42 635.35 240.61 638.05 243.14 C 639.70 243.68 642.17 244.07 643.21 242.27 C 644.63 239.99 644.62 236.89 643.30 234.57 C 642.15 232.54 639.51 233.49 637.65 233.46 Z" />
<path fill="#000000" opacity="1.00" d=" M 652.15 230.78 C 655.24 230.80 658.33 230.80 661.43 230.79 C 661.44 231.44 661.46 232.73 661.47 233.38 C 659.35 233.37 657.24 233.37 655.13 233.36 C 655.12 234.41 655.11 235.46 655.10 236.51 C 657.07 236.79 659.25 236.73 660.97 237.90 C 663.64 239.82 662.80 244.62 659.60 245.47 C 657.14 246.00 654.60 245.82 652.11 245.93 C 652.19 240.88 652.15 235.83 652.15 230.78 M 654.64 239.26 C 654.84 240.76 655.06 242.27 655.29 243.78 C 656.71 243.39 658.13 242.98 659.55 242.54 C 659.44 241.57 659.34 240.60 659.26 239.63 C 657.71 239.48 656.17 239.35 654.64 239.26 Z" />
<path fill="#000000" opacity="1.00" d=" M 667.15 230.79 C 668.48 230.79 669.83 230.78 671.18 230.78 C 672.47 234.81 673.71 238.87 674.97 242.92 C 676.13 239.34 677.17 235.72 678.44 232.18 C 678.86 230.20 681.35 231.00 682.80 230.64 C 683.35 235.68 683.12 240.76 683.17 245.82 C 682.44 245.85 680.99 245.89 680.26 245.92 C 680.31 241.77 680.37 237.62 680.29 233.47 C 678.99 237.59 677.61 241.68 676.34 245.80 C 675.35 245.83 674.37 245.86 673.40 245.89 C 672.14 241.75 670.85 237.61 669.71 233.43 C 669.58 237.57 669.66 241.72 669.74 245.87 C 669.08 245.88 667.77 245.91 667.11 245.93 C 667.19 240.88 667.15 235.83 667.15 230.79 Z" />
<path fill="#000000" opacity="1.00" d=" M 688.51 230.80 C 691.28 230.80 694.06 230.80 696.84 230.78 C 696.85 231.44 696.86 232.74 696.86 233.40 C 695.08 233.37 693.30 233.35 691.54 233.34 C 691.52 234.46 691.52 235.58 691.52 236.71 C 693.31 236.88 695.10 237.08 696.91 237.28 C 696.82 237.81 696.65 238.86 696.56 239.39 C 694.88 239.36 693.20 239.34 691.54 239.32 C 691.54 240.36 691.53 242.42 691.53 243.45 C 693.39 243.43 695.26 243.42 697.13 243.41 C 697.15 244.02 697.18 245.24 697.19 245.84 C 694.28 245.84 691.37 245.84 688.47 245.87 C 688.53 240.84 688.49 235.82 688.51 230.80 Z" />
<path fill="#000000" opacity="1.00" d=" M 701.46 245.85 C 701.63 240.88 701.29 235.89 701.63 230.92 C 702.36 230.85 703.81 230.71 704.54 230.64 C 704.53 232.68 704.54 234.73 704.53 236.78 C 706.59 236.78 708.65 236.78 710.73 236.79 C 710.71 234.80 710.71 232.80 710.72 230.82 C 711.48 230.81 713.00 230.79 713.76 230.78 C 713.76 235.82 713.72 240.87 713.80 245.92 C 712.75 245.88 711.71 245.84 710.68 245.81 C 710.70 243.66 710.71 241.51 710.74 239.37 C 708.65 239.37 706.58 239.37 704.51 239.37 C 704.52 241.53 704.56 243.70 704.60 245.87 C 703.54 245.86 702.50 245.85 701.46 245.85 Z" />
</g>
<g id="#ffffffff">
<path fill="#ffffff" opacity="1.00" d=" M 115.35 156.45 C 121.91 154.33 129.27 156.33 134.52 160.60 C 140.72 165.69 143.44 174.56 141.25 182.27 C 138.90 191.50 129.44 198.46 119.91 197.71 C 109.66 197.44 100.56 188.32 100.04 178.12 C 99.24 168.45 105.95 158.91 115.35 156.45 M 117.26 169.90 C 117.24 170.78 117.23 171.66 117.22 172.54 C 117.81 172.50 119.01 172.43 119.60 172.39 C 119.61 175.88 119.62 179.37 119.57 182.86 C 120.39 182.87 122.01 182.91 122.82 182.92 C 122.73 178.56 122.82 174.19 122.72 169.83 C 120.90 169.91 119.08 169.87 117.26 169.90 Z" />
<path fill="#ffffff" opacity="1.00" d=" M 306.24 156.15 C 318.03 153.12 331.16 162.63 331.67 174.87 C 333.38 187.70 320.70 199.47 308.08 197.45 C 297.76 196.18 289.12 186.50 289.83 175.99 C 289.84 166.57 297.15 158.15 306.24 156.15 M 306.12 171.09 C 306.16 171.78 306.23 173.17 306.26 173.86 C 307.99 173.19 309.71 172.50 311.54 172.13 C 312.38 176.89 306.10 178.42 305.46 182.80 C 308.84 182.90 312.23 182.86 315.61 182.88 C 315.60 182.26 315.56 181.03 315.54 180.41 C 313.58 180.43 311.61 180.44 309.65 180.48 C 311.94 178.01 316.29 175.26 314.52 171.32 C 312.32 168.88 308.74 169.94 306.12 171.09 Z" />
<path fill="#ffffff" opacity="1.00" d=" M 484.37 156.43 C 495.90 152.78 509.40 161.53 510.69 173.59 C 512.44 183.44 505.91 193.70 496.37 196.54 C 484.44 200.99 470.10 191.70 469.05 179.06 C 467.69 169.02 474.61 158.96 484.37 156.43 M 485.11 170.12 C 485.15 170.69 485.25 171.83 485.29 172.40 C 486.87 172.40 488.46 172.40 490.05 172.39 C 488.72 173.77 487.26 175.12 486.73 177.03 C 488.44 177.38 490.92 176.74 491.49 179.00 C 490.44 181.94 487.20 180.14 485.36 179.22 C 485.31 179.90 485.22 181.26 485.17 181.93 C 488.01 183.41 493.04 183.72 494.13 179.91 C 495.19 177.04 492.06 174.97 489.50 175.12 C 491.83 174.43 493.09 172.23 494.39 170.37 C 491.30 170.06 488.20 170.12 485.11 170.12 Z" />
<path fill="#ffffff" opacity="1.00" d=" M 664.39 156.46 C 676.46 152.53 690.52 162.30 690.96 175.02 C 692.43 187.26 681.05 198.46 668.95 197.62 C 658.32 197.11 648.85 187.71 649.09 176.92 C 648.67 167.58 655.47 158.87 664.39 156.46 M 668.28 170.18 C 666.78 173.36 664.72 176.34 664.03 179.85 C 666.15 179.87 668.29 179.85 670.43 179.81 C 670.48 180.84 670.53 181.88 670.57 182.92 C 671.30 182.90 672.74 182.86 673.46 182.85 C 672.98 180.87 674.22 179.73 675.87 178.93 C 675.28 178.49 674.08 177.63 673.48 177.19 C 673.49 176.59 673.51 175.39 673.52 174.79 C 672.78 174.79 671.29 174.79 670.55 174.80 C 670.55 175.51 670.56 176.94 670.57 177.66 C 669.80 177.65 668.28 177.63 667.52 177.62 C 668.86 175.12 670.14 172.58 671.48 170.08 C 670.68 170.10 669.08 170.15 668.28 170.18 Z" />
</g>
</svg>
