<?xml version="1.0" encoding="UTF-8" ?>
<!DOCTYPE svg PUBLIC "-//W3C//DTD SVG 1.1//EN" "http://www.w3.org/Graphics/SVG/1.1/DTD/svg11.dtd">
<svg width="1097pt" height="491pt" viewBox="0 0 1097 491" version="1.1" xmlns="http://www.w3.org/2000/svg">
<g id="#ffffffff">
<path fill="#ffffff" opacity="1.00" d=" M 816.28 106.37 C 822.18 104.60 829.36 105.52 833.49 110.49 C 839.69 117.18 837.65 129.36 829.43 133.48 C 823.75 137.01 816.47 135.42 811.57 131.31 C 796.50 138.76 781.44 146.22 766.43 153.79 C 766.50 155.11 766.59 156.42 766.68 157.74 C 781.82 164.99 796.61 172.99 811.78 180.19 C 815.42 177.15 820.35 175.15 825.13 176.05 C 832.17 177.64 837.84 184.71 837.04 192.04 C 836.92 198.76 831.40 204.35 825.09 205.87 C 819.34 206.68 812.80 204.63 809.64 199.50 C 807.50 196.49 806.89 192.78 806.89 189.17 C 791.92 181.72 776.96 174.27 762.00 166.80 C 757.90 169.89 752.56 172.12 747.41 170.46 C 742.36 168.66 737.68 164.48 736.82 158.98 C 736.38 154.68 736.36 149.85 739.31 146.36 C 744.68 139.57 755.67 138.47 761.91 144.72 C 776.93 137.23 792.01 129.83 806.97 122.22 C 806.21 115.62 810.25 108.98 816.28 106.37 Z" />
<path fill="#ffffff" opacity="1.00" d=" M 479.04 127.40 C 483.69 123.22 489.74 120.56 496.01 120.35 C 506.30 119.92 516.49 126.49 520.18 136.13 C 522.14 140.91 522.19 146.20 521.42 151.24 C 530.66 153.37 537.76 162.54 536.96 172.08 C 536.49 181.89 527.98 190.78 518.02 190.93 C 500.68 191.10 483.34 190.94 466.00 191.01 C 461.66 190.94 457.16 191.29 453.03 189.71 C 446.32 187.10 440.46 181.89 437.86 175.09 C 435.16 167.84 435.67 159.32 439.74 152.67 C 443.42 146.85 449.38 142.46 456.15 140.99 C 456.18 135.62 458.87 130.27 463.70 127.68 C 468.24 124.54 474.32 124.74 479.04 127.40 M 466.68 160.73 C 471.57 160.76 476.47 160.79 481.37 160.68 C 481.72 165.78 481.41 170.89 481.54 176.00 C 484.92 176.03 488.31 176.02 491.69 175.90 C 491.56 170.86 491.62 165.81 491.63 160.77 C 496.51 160.70 501.38 160.78 506.27 160.74 C 500.32 153.54 493.07 147.50 486.80 140.57 C 479.85 147.03 473.16 153.81 466.68 160.73 Z" />
<path fill="#ffffff" opacity="1.00" d=" M 289.49 274.65 C 290.91 273.93 292.53 274.03 294.08 273.97 C 320.39 274.06 346.70 273.94 373.01 274.03 C 378.49 273.64 384.23 278.16 383.98 283.89 C 384.02 310.91 384.00 337.95 383.99 364.97 C 384.07 368.08 382.68 371.20 379.98 372.86 C 376.87 375.31 372.74 375.04 369.01 375.02 C 344.02 374.97 319.02 375.03 294.03 374.99 C 289.84 375.12 285.67 372.70 283.93 368.86 C 283.01 366.34 283.11 363.60 283.07 360.96 C 283.16 335.28 283.01 309.58 283.14 283.90 C 283.06 279.82 285.73 276.11 289.49 274.65 M 293.17 284.05 C 293.25 304.28 293.14 324.52 293.22 344.76 C 299.83 344.84 306.46 344.54 313.06 344.88 C 313.97 346.99 314.07 349.50 315.72 351.25 C 317.86 353.48 320.87 355.07 324.04 354.77 C 330.72 354.65 337.40 354.92 344.07 354.64 C 349.28 354.43 353.68 349.99 353.87 344.77 C 360.55 344.73 367.24 344.72 373.93 344.79 C 374.08 324.53 373.97 304.26 373.98 284.00 C 347.05 284.03 320.11 283.94 293.17 284.05 Z" />
<path fill="#ffffff" opacity="1.00" d=" M 620.32 279.02 C 625.14 278.75 629.98 278.84 634.81 278.96 C 634.76 310.66 634.77 342.36 634.80 374.06 C 629.96 374.10 625.10 374.34 620.28 373.91 C 620.46 342.28 620.39 310.65 620.32 279.02 Z" />
<path fill="#ffffff" opacity="1.00" d=" M 668.31 373.98 C 668.58 348.45 668.08 322.90 668.56 297.39 C 673.33 297.67 678.11 297.29 682.87 297.65 C 682.67 323.12 682.82 348.59 682.80 374.06 C 677.97 374.13 673.13 374.26 668.31 373.98 Z" />
<path fill="#ffffff" opacity="1.00" d=" M 328.77 299.15 C 332.07 299.26 335.36 299.25 338.66 299.28 C 338.63 304.31 338.65 309.34 338.64 314.38 C 343.54 314.75 348.46 314.19 353.35 314.72 C 347.06 321.32 340.54 327.76 333.91 334.03 L 333.18 333.91 C 327.61 328.82 322.43 323.29 316.93 318.10 C 315.78 317.06 314.83 315.81 313.98 314.53 C 318.84 314.45 323.70 314.51 328.55 314.52 C 328.66 309.39 328.27 304.26 328.77 299.15 Z" />
<path fill="#ffffff" opacity="1.00" d=" M 644.30 373.94 C 644.61 354.85 644.06 335.73 644.57 316.65 C 649.32 316.88 654.08 316.59 658.83 316.87 C 658.72 335.95 658.81 355.03 658.78 374.11 C 653.95 374.07 649.12 374.31 644.30 373.94 Z" />
<path fill="#ffffff" opacity="1.00" d=" M 596.30 373.93 C 596.56 358.10 596.15 342.25 596.50 326.42 C 601.28 326.60 606.06 326.37 610.84 326.60 C 610.72 342.42 610.79 358.24 610.80 374.06 C 605.96 374.12 601.12 374.30 596.30 373.93 Z" />
</g>
<g id="#5271ffff">
<path fill="#5271ff" opacity="1.00" d=" M 486.11 42.91 C 486.79 42.34 487.48 42.31 488.18 42.79 C 520.62 61.50 553.02 80.28 585.46 98.98 C 585.44 113.26 585.61 127.55 585.38 141.84 C 591.70 142.19 598.04 141.91 604.38 142.00 C 604.43 137.36 604.37 132.72 604.44 128.08 C 613.73 137.27 623.02 146.47 632.14 155.83 C 622.82 164.86 613.97 174.39 604.41 183.16 C 604.38 178.62 604.42 174.08 604.41 169.55 C 598.13 169.44 591.85 169.56 585.58 169.47 C 585.43 183.73 585.41 197.99 585.59 212.25 C 552.93 231.50 520.00 250.31 487.14 269.23 C 454.50 250.38 421.95 231.36 389.18 212.73 C 388.82 174.83 389.12 136.91 389.03 99.00 C 421.38 80.30 453.75 61.60 486.11 42.91 M 479.04 127.40 C 474.32 124.74 468.24 124.54 463.70 127.68 C 458.87 130.27 456.18 135.62 456.15 140.99 C 449.38 142.46 443.42 146.85 439.74 152.67 C 435.67 159.32 435.16 167.84 437.86 175.09 C 440.46 181.89 446.32 187.10 453.03 189.71 C 457.16 191.29 461.66 190.94 466.00 191.01 C 483.34 190.94 500.68 191.10 518.02 190.93 C 527.98 190.78 536.49 181.89 536.96 172.08 C 537.76 162.54 530.66 153.37 521.42 151.24 C 522.19 146.20 522.14 140.91 520.18 136.13 C 516.49 126.49 506.30 119.92 496.01 120.35 C 489.74 120.56 483.69 123.22 479.04 127.40 Z" />
<path fill="#5271ff" opacity="1.00" d=" M 466.68 160.73 C 473.16 153.81 479.85 147.03 486.80 140.57 C 493.07 147.50 500.32 153.54 506.27 160.74 C 501.38 160.78 496.51 160.70 491.63 160.77 C 491.62 165.81 491.56 170.86 491.69 175.90 C 488.31 176.02 484.92 176.03 481.54 176.00 C 481.41 170.89 481.72 165.78 481.37 160.68 C 476.47 160.79 471.57 160.76 466.68 160.73 Z" />
</g>
<g id="#13538aff">
<path fill="#13538a" opacity="1.00" d=" M 694.98 99.01 C 727.67 80.05 760.45 61.25 793.12 42.25 C 825.87 61.18 858.57 80.20 891.42 98.98 C 891.40 113.28 891.53 127.58 891.35 141.88 C 897.68 142.14 904.02 141.94 910.37 142.00 C 910.37 137.34 910.37 132.69 910.35 128.03 C 919.64 137.24 928.91 146.48 938.10 155.79 C 928.80 164.90 919.80 174.32 910.38 183.30 C 910.34 178.70 910.38 174.11 910.37 169.52 C 904.07 169.48 897.78 169.54 891.49 169.47 C 891.25 183.89 891.68 198.32 891.27 212.73 C 874.25 222.10 857.64 232.21 840.76 241.84 C 824.87 250.96 809.05 260.20 793.11 269.25 C 760.47 250.38 727.90 231.37 695.14 212.73 C 694.77 174.83 695.07 136.91 694.98 99.01 M 816.28 106.37 C 810.25 108.98 806.21 115.62 806.97 122.22 C 792.01 129.83 776.93 137.23 761.91 144.72 C 755.67 138.47 744.68 139.57 739.31 146.36 C 736.36 149.85 736.38 154.68 736.82 158.98 C 737.68 164.48 742.36 168.66 747.41 170.46 C 752.56 172.12 757.90 169.89 762.00 166.80 C 776.96 174.27 791.92 181.72 806.89 189.17 C 806.89 192.78 807.50 196.49 809.64 199.50 C 812.80 204.63 819.34 206.68 825.09 205.87 C 831.40 204.35 836.92 198.76 837.04 192.04 C 837.84 184.71 832.17 177.64 825.13 176.05 C 820.35 175.15 815.42 177.15 811.78 180.19 C 796.61 172.99 781.82 164.99 766.68 157.74 C 766.59 156.42 766.50 155.11 766.43 153.79 C 781.44 146.22 796.50 138.76 811.57 131.31 C 816.47 135.42 823.75 137.01 829.43 133.48 C 837.65 129.36 839.69 117.18 833.49 110.49 C 829.36 105.52 822.18 104.60 816.28 106.37 Z" />
</g>
<g id="#313131ff">
<path fill="#313131" opacity="1.00" d=" M 224.25 147.69 C 227.80 145.89 232.00 145.09 235.88 146.26 C 238.24 146.96 239.94 149.48 239.21 151.94 C 238.79 154.05 236.44 154.81 234.71 155.60 C 236.33 156.04 238.29 156.30 239.25 157.88 C 241.14 160.51 239.35 164.35 236.52 165.44 C 232.64 166.90 228.30 166.34 224.37 165.32 C 224.38 164.41 224.38 162.60 224.39 161.69 C 227.55 162.51 231.12 163.75 234.27 162.24 C 235.85 161.54 236.27 159.17 234.61 158.26 C 232.39 157.19 229.82 157.41 227.42 157.22 C 227.41 156.42 227.39 154.82 227.37 154.02 C 230.23 153.83 235.83 154.56 235.07 150.04 C 232.13 148.54 228.84 149.29 226.05 150.73 C 225.44 149.72 224.84 148.70 224.25 147.69 Z" />
<path fill="#313131" opacity="1.00" d=" M 241.72 166.03 C 244.00 159.29 246.40 152.60 248.78 145.90 C 250.52 145.91 252.27 145.91 254.01 145.91 C 256.45 152.60 258.73 159.34 261.15 166.03 C 259.55 166.02 257.96 165.99 256.36 165.95 C 255.89 164.37 255.42 162.81 254.93 161.24 C 252.60 161.26 250.27 161.18 247.95 161.33 C 247.17 162.80 247.10 164.62 246.11 165.96 C 244.64 166.03 243.18 166.05 241.72 166.03 M 251.46 149.19 C 250.64 152.02 249.75 154.83 248.93 157.66 C 250.61 157.66 252.30 157.66 253.98 157.66 C 253.07 154.86 252.20 152.05 251.46 149.19 Z" />
<path fill="#313131" opacity="1.00" d=" M 264.00 146.00 C 268.24 146.00 272.47 146.00 276.71 146.00 C 276.71 146.89 276.69 148.68 276.68 149.57 C 273.89 149.59 271.11 149.59 268.33 149.56 C 268.23 155.04 268.30 160.52 268.28 166.00 C 266.85 166.00 265.42 166.00 264.00 166.00 C 264.00 159.33 264.00 152.67 264.00 146.00 Z" />
<path fill="#313131" opacity="1.00" d=" M 280.16 146.02 C 283.61 146.13 287.20 145.51 290.55 146.58 C 295.08 148.16 295.27 155.23 291.44 157.68 C 289.44 159.09 286.86 158.89 284.54 159.10 C 284.55 161.37 284.58 163.63 284.66 165.90 C 283.15 165.97 281.66 166.00 280.16 166.04 C 280.18 159.36 280.18 152.69 280.16 146.02 M 284.58 149.47 C 284.57 151.46 284.57 153.45 284.59 155.45 C 286.69 155.40 290.11 155.07 289.74 152.16 C 289.64 149.44 286.54 149.57 284.58 149.47 Z" />
<path fill="#313131" opacity="1.00" d=" M 296.23 146.00 C 297.77 146.00 299.30 146.00 300.84 146.00 C 302.38 149.72 304.07 153.37 305.52 157.13 C 307.07 153.43 308.60 149.71 310.13 146.00 C 311.62 146.00 313.11 146.00 314.61 146.00 C 312.68 150.52 310.68 155.01 308.72 159.51 C 307.67 161.69 306.68 164.16 304.48 165.44 C 302.22 166.68 299.56 166.20 297.12 165.99 C 297.11 164.77 297.11 163.56 297.11 162.35 C 299.32 162.74 301.63 162.90 303.26 161.06 C 301.24 155.90 298.50 151.06 296.23 146.00 Z" />
<path fill="#313131" opacity="1.00" d=" M 316.25 147.68 C 319.80 145.89 323.98 145.09 327.86 146.25 C 330.23 146.95 331.95 149.48 331.21 151.95 C 330.77 154.06 328.43 154.80 326.72 155.61 C 328.45 156.06 330.60 156.37 331.45 158.21 C 333.13 161.05 330.97 164.75 328.02 165.64 C 324.24 166.82 320.19 166.28 316.41 165.38 C 316.40 164.45 316.38 162.61 316.37 161.69 C 319.55 162.51 323.13 163.76 326.29 162.23 C 327.84 161.54 328.24 159.21 326.68 158.29 C 324.42 157.19 321.82 157.41 319.39 157.21 C 319.39 156.41 319.39 154.82 319.39 154.02 C 322.26 153.83 327.80 154.55 327.09 150.06 C 324.15 148.53 320.85 149.28 318.05 150.73 C 317.44 149.72 316.84 148.70 316.25 147.68 Z" />
<path fill="#313131" opacity="1.00" d=" M 336.16 145.97 C 337.67 146.00 339.18 146.04 340.69 146.14 C 340.55 149.14 340.50 152.13 340.57 155.13 C 343.10 152.36 345.25 149.26 347.34 146.14 C 348.96 146.02 350.59 145.98 352.23 145.96 C 349.86 149.25 347.31 152.41 344.95 155.71 C 347.58 159.07 350.08 162.54 352.59 165.99 C 350.98 166.00 349.37 166.02 347.76 166.04 C 345.26 162.76 343.00 159.31 340.47 156.05 C 340.59 159.38 340.58 162.70 340.56 166.03 C 339.08 166.01 337.61 166.00 336.15 165.98 C 336.20 159.31 336.17 152.64 336.16 145.97 Z" />
<path fill="#313131" opacity="1.00" d=" M 360.20 145.93 C 361.98 146.09 364.04 145.44 365.64 146.31 C 368.04 152.84 370.30 159.43 372.60 166.00 C 371.05 166.00 369.51 166.00 367.97 166.01 C 367.48 164.44 366.99 162.86 366.52 161.29 C 364.12 161.27 361.72 161.26 359.33 161.24 C 358.85 162.83 358.36 164.41 357.89 166.00 C 356.33 166.00 354.77 166.01 353.22 166.02 C 355.48 159.30 357.94 152.65 360.20 145.93 M 362.77 149.30 C 362.12 152.12 361.31 154.90 360.42 157.65 C 362.09 157.64 363.76 157.64 365.43 157.64 C 364.64 154.83 363.74 152.05 362.77 149.30 Z" />
<path fill="#313131" opacity="1.00" d=" M 964.18 146.36 C 968.32 144.97 973.95 145.44 976.41 149.55 C 978.67 153.65 978.63 159.15 975.96 163.06 C 973.35 166.60 968.28 166.87 964.39 165.72 C 960.41 164.34 958.62 159.88 958.86 155.94 C 958.63 152.10 960.34 147.77 964.18 146.36 M 966.52 149.61 C 961.43 152.06 962.28 163.37 969.01 162.65 C 973.59 162.25 973.88 156.43 973.04 152.97 C 972.63 150.00 969.14 148.49 966.52 149.61 Z" />
<path fill="#313131" opacity="1.00" d=" M 982.47 146.00 C 986.72 146.00 990.97 146.00 995.23 146.00 C 995.13 147.22 995.04 148.44 994.95 149.67 C 992.25 149.57 989.55 149.56 986.86 149.60 C 986.86 150.59 986.86 152.57 986.86 153.56 C 989.47 153.75 992.42 153.57 994.59 155.34 C 997.60 157.67 997.27 163.06 993.89 164.91 C 990.38 166.74 986.24 165.78 982.46 166.00 C 982.45 159.33 982.44 152.67 982.47 146.00 M 986.86 157.05 C 986.84 158.88 986.84 160.71 986.85 162.55 C 988.57 162.41 990.29 162.09 992.00 161.67 C 992.08 160.44 992.08 159.21 992.05 157.98 C 990.33 157.55 988.60 157.25 986.86 157.05 Z" />
<path fill="#313131" opacity="1.00" d=" M 1001.00 146.00 C 1002.94 146.00 1004.89 146.00 1006.86 146.00 C 1008.33 151.08 1010.06 156.08 1011.44 161.19 C 1013.30 156.25 1014.91 151.21 1016.38 146.13 C 1018.38 145.98 1020.40 145.97 1022.43 145.98 C 1022.45 152.65 1022.44 159.33 1022.44 166.00 C 1021.42 166.00 1019.39 166.01 1018.37 166.01 C 1018.39 160.92 1018.23 155.83 1018.64 150.76 C 1016.65 155.69 1015.10 160.79 1013.61 165.90 C 1012.16 165.96 1010.72 165.98 1009.30 165.97 C 1007.84 160.90 1006.46 155.80 1004.56 150.87 C 1005.04 155.90 1004.87 160.96 1004.89 166.00 C 1003.92 166.00 1001.97 166.00 1001.00 166.00 C 1001.00 159.33 1001.00 152.67 1001.00 146.00 Z" />
<path fill="#313131" opacity="1.00" d=" M 1028.00 146.00 C 1031.86 146.00 1035.72 146.00 1039.58 145.99 C 1039.58 146.88 1039.58 148.65 1039.57 149.53 C 1037.14 149.54 1034.73 149.54 1032.32 149.54 C 1032.28 150.97 1032.26 152.40 1032.25 153.83 C 1034.50 153.85 1036.77 153.86 1039.04 153.87 C 1039.04 154.75 1039.03 156.51 1039.03 157.38 C 1036.77 157.39 1034.52 157.39 1032.28 157.39 C 1032.28 159.07 1032.29 160.75 1032.31 162.44 C 1034.72 162.44 1037.14 162.44 1039.57 162.45 C 1039.58 163.34 1039.59 165.12 1039.59 166.01 C 1035.72 165.99 1031.86 166.00 1028.00 166.00 C 1028.00 159.33 1028.00 152.66 1028.00 146.00 Z" />
<path fill="#313131" opacity="1.00" d=" M 1044.17 146.01 C 1045.62 146.00 1047.08 145.99 1048.56 145.98 C 1048.56 148.58 1048.56 151.18 1048.55 153.78 C 1051.17 153.86 1053.81 153.86 1056.44 153.71 C 1056.33 151.13 1056.32 148.54 1056.36 145.96 C 1057.82 145.98 1059.29 146.01 1060.78 146.05 C 1060.70 152.71 1060.74 159.37 1060.76 166.03 C 1059.24 166.00 1057.74 165.97 1056.25 165.90 C 1056.36 163.07 1056.36 160.25 1056.34 157.43 C 1053.74 157.42 1051.15 157.42 1048.57 157.43 C 1048.53 160.26 1048.54 163.08 1048.65 165.91 C 1047.14 165.97 1045.64 166.01 1044.17 166.04 C 1044.18 159.36 1044.17 152.68 1044.17 146.01 Z" />
<path fill="#313131" opacity="1.00" d=" M 27.00 314.00 C 32.31 314.00 37.63 314.00 42.94 314.00 C 42.96 320.66 42.94 327.33 42.95 334.00 C 41.49 334.00 40.02 334.00 38.56 334.01 C 38.55 328.54 38.58 323.07 38.54 317.61 C 36.15 317.62 33.76 317.60 31.38 317.50 C 31.18 323.00 31.33 328.50 31.28 334.00 C 29.85 334.00 28.42 334.00 27.00 334.00 C 27.01 327.33 27.00 320.67 27.00 314.00 Z" />
<path fill="#313131" opacity="1.00" d=" M 52.41 314.59 C 56.88 312.73 63.35 313.45 65.59 318.31 C 67.67 323.24 67.24 330.50 62.04 333.33 C 57.38 335.40 50.39 334.46 48.46 329.09 C 46.76 324.21 47.16 317.11 52.41 314.59 M 55.48 317.54 C 51.66 319.03 51.61 324.21 52.67 327.53 C 53.74 331.69 60.55 331.73 61.64 327.56 C 62.37 324.56 62.58 320.87 60.42 318.38 C 59.05 317.29 57.13 316.98 55.48 317.54 Z" />
<path fill="#313131" opacity="1.00" d=" M 75.21 314.00 C 79.14 313.99 83.07 314.00 87.00 314.00 C 86.99 319.46 87.00 324.92 87.00 330.38 C 87.66 330.40 88.98 330.43 89.63 330.45 C 89.64 333.58 89.65 336.72 89.68 339.86 C 88.24 339.86 86.80 339.85 85.36 339.80 C 85.41 337.86 85.44 335.93 85.45 334.00 C 81.30 334.00 77.15 334.00 73.00 334.00 C 73.00 335.97 73.00 337.94 73.00 339.92 C 71.63 339.92 70.25 339.91 68.88 339.91 C 68.87 336.86 68.85 333.81 68.91 330.76 C 69.33 330.53 70.19 330.07 70.61 329.84 C 73.24 324.96 74.44 319.45 75.21 314.00 M 78.73 317.64 C 77.98 322.04 76.60 326.29 75.08 330.48 C 77.59 330.41 80.11 330.39 82.63 330.39 C 82.66 326.12 82.65 321.85 82.63 317.59 C 81.33 317.59 80.03 317.62 78.73 317.64 Z" />
<path fill="#313131" opacity="1.00" d=" M 93.18 314.00 C 97.47 313.99 101.76 313.99 106.05 314.00 C 105.99 315.20 105.93 316.41 105.87 317.62 C 103.10 317.57 100.34 317.57 97.58 317.60 C 97.59 323.03 97.48 328.47 97.65 333.90 C 96.16 333.97 94.66 334.00 93.17 334.04 C 93.18 327.36 93.17 320.68 93.18 314.00 Z" />
<path fill="#313131" opacity="1.00" d=" M 113.37 314.61 C 117.86 312.71 124.41 313.44 126.62 318.37 C 128.67 323.31 128.21 330.57 122.99 333.36 C 118.35 335.38 111.42 334.46 109.48 329.14 C 107.76 324.27 108.14 317.17 113.37 314.61 M 116.50 317.53 C 111.36 319.69 111.78 330.29 117.94 330.67 C 125.82 331.02 124.72 314.81 116.50 317.53 Z" />
<path fill="#313131" opacity="1.00" d=" M 130.23 314.00 C 135.30 314.00 140.38 314.00 145.45 313.99 C 145.45 314.90 145.44 316.71 145.44 317.62 C 143.67 317.58 141.90 317.55 140.14 317.50 C 139.89 322.99 140.04 328.50 140.00 334.00 C 138.57 334.00 137.13 334.00 135.70 334.00 C 135.68 328.53 135.74 323.06 135.66 317.60 C 133.86 317.59 132.06 317.58 130.26 317.58 C 130.25 316.68 130.24 314.89 130.23 314.00 Z" />
<path fill="#313131" opacity="1.00" d=" M 154.17 314.18 C 158.54 312.91 164.46 313.78 166.41 318.46 C 168.27 323.25 168.01 330.21 163.13 333.13 C 158.62 335.39 151.73 334.67 149.43 329.62 C 147.19 324.39 147.96 316.21 154.17 314.18 M 155.65 317.78 C 152.43 319.52 152.71 323.90 153.22 327.01 C 153.84 330.67 158.91 331.90 161.37 329.31 C 163.36 326.68 163.37 322.89 162.16 319.92 C 161.22 317.40 157.91 316.64 155.65 317.78 Z" />
<path fill="#313131" opacity="1.00" d=" M 172.00 314.00 C 175.85 314.16 179.87 313.44 183.57 314.78 C 187.45 316.02 187.21 322.35 183.39 323.57 C 187.67 324.28 188.00 330.54 184.69 332.65 C 180.91 335.05 176.20 333.64 172.00 334.00 C 172.00 327.33 172.00 320.67 172.00 314.00 M 176.33 317.45 C 176.30 318.94 176.27 320.44 176.24 321.95 C 178.18 321.77 181.43 322.56 181.96 319.92 C 182.04 316.96 178.23 317.77 176.33 317.45 M 176.29 325.27 C 176.29 327.01 176.30 328.76 176.31 330.52 C 178.18 330.45 180.05 330.32 181.89 329.94 C 182.13 328.70 182.65 327.32 181.81 326.17 C 180.20 325.02 178.13 325.44 176.29 325.27 Z" />
<path fill="#313131" opacity="1.00" d=" M 191.16 314.05 C 192.59 313.99 194.02 313.94 195.45 313.89 C 195.67 316.97 195.53 320.05 195.56 323.13 C 198.25 320.30 200.25 316.94 202.72 313.94 C 204.22 313.97 205.72 313.99 207.22 314.02 C 204.97 317.34 202.04 320.25 200.14 323.77 C 202.49 327.27 205.19 330.52 207.59 334.00 C 205.97 334.00 204.34 334.01 202.73 334.02 C 200.27 330.73 197.99 327.32 195.49 324.06 C 195.58 327.38 195.59 330.69 195.56 334.01 C 194.09 334.00 192.63 334.00 191.17 334.00 C 191.17 327.35 191.19 320.70 191.16 314.05 Z" />
<path fill="#313131" opacity="1.00" d=" M 215.21 313.93 C 216.95 314.15 219.18 313.32 220.64 314.38 C 223.09 320.87 225.30 327.45 227.59 334.00 C 226.04 334.00 224.50 334.00 222.95 334.01 C 222.47 332.44 222.00 330.87 221.54 329.31 C 219.13 329.27 216.73 329.26 214.32 329.25 C 213.85 330.83 213.36 332.41 212.89 334.00 C 211.32 333.99 209.76 333.99 208.20 334.00 C 210.52 327.30 212.93 320.64 215.21 313.93 M 217.40 317.31 C 217.13 320.17 216.39 322.95 215.41 325.65 C 217.08 325.64 218.75 325.64 220.42 325.64 C 219.30 322.98 219.27 319.53 217.40 317.31 Z" />
<path fill="#313131" opacity="1.00" d=" M 809.33 314.06 C 811.16 313.94 812.99 313.90 814.83 313.90 C 817.16 320.54 819.32 327.25 821.97 333.78 C 820.36 333.95 818.76 334.03 817.17 334.05 C 816.69 332.44 816.21 330.84 815.74 329.24 C 813.32 329.25 810.91 329.27 808.50 329.33 C 808.03 330.89 807.58 332.45 807.11 334.01 C 805.56 334.00 804.02 334.00 802.48 334.01 C 804.65 327.32 807.26 320.78 809.33 314.06 M 809.67 325.52 C 811.35 325.61 813.03 325.65 814.73 325.68 C 813.82 322.90 812.97 320.12 812.26 317.29 C 811.38 320.03 810.52 322.77 809.67 325.52 Z" />
<path fill="#313131" opacity="1.00" d=" M 824.74 314.00 C 826.15 313.99 827.57 313.99 829.00 314.00 C 829.00 316.61 829.00 319.22 829.01 321.84 C 831.64 321.82 834.26 321.82 836.90 321.83 C 836.90 319.22 836.91 316.61 836.92 314.00 C 838.32 313.99 839.74 313.99 841.17 314.00 C 841.17 320.67 841.17 327.33 841.17 334.00 C 839.74 334.00 838.32 334.00 836.91 334.00 C 836.94 331.10 836.94 328.20 836.76 325.31 C 834.22 325.46 831.68 325.45 829.15 325.31 C 828.99 328.20 828.99 331.10 829.00 334.00 C 827.57 334.00 826.15 334.00 824.74 334.00 C 824.73 327.33 824.72 320.66 824.74 314.00 Z" />
<path fill="#313131" opacity="1.00" d=" M 851.21 313.91 C 853.02 313.91 854.84 313.95 856.67 314.03 C 858.82 320.74 861.35 327.32 863.60 334.00 C 862.04 334.00 860.50 334.00 858.96 334.01 C 858.47 332.43 857.99 330.87 857.52 329.30 C 855.11 329.27 852.71 329.26 850.32 329.25 C 849.84 330.83 849.35 332.41 848.89 334.00 C 847.32 334.00 845.75 334.00 844.20 334.00 C 846.51 327.29 848.94 320.63 851.21 313.91 M 853.40 317.31 C 853.13 320.17 852.38 322.94 851.41 325.65 C 853.07 325.64 854.74 325.64 856.42 325.64 C 855.30 322.98 855.26 319.53 853.40 317.31 Z" />
<path fill="#313131" opacity="1.00" d=" M 866.56 330.42 C 868.76 325.26 868.62 319.42 869.72 313.97 C 873.94 314.01 878.15 314.00 882.38 314.00 C 882.40 320.67 882.38 327.34 882.39 334.01 C 880.91 334.00 879.45 334.00 878.00 334.00 C 877.99 328.53 878.00 323.05 878.00 317.58 C 876.39 317.59 874.79 317.62 873.21 317.64 C 872.47 322.46 872.53 327.61 870.45 332.10 C 869.34 334.55 866.40 334.26 864.20 334.25 C 864.17 333.38 864.13 331.64 864.11 330.77 C 864.72 330.68 865.94 330.51 866.56 330.42 Z" />
<path fill="#313131" opacity="1.00" d=" M 888.00 313.99 C 889.30 313.99 890.60 313.99 891.92 314.00 C 891.97 318.85 891.90 323.69 891.85 328.54 C 895.16 323.87 897.81 318.77 900.95 313.98 C 902.63 313.98 904.33 313.99 906.03 314.00 C 906.04 320.67 906.03 327.33 906.04 334.00 C 905.07 334.00 903.14 334.00 902.17 334.01 C 902.18 329.00 901.97 323.97 902.46 318.98 C 899.07 323.84 896.34 329.11 893.07 334.05 C 891.37 334.02 889.68 334.00 888.00 334.00 C 887.99 327.33 888.00 320.66 888.00 313.99 Z" />
<path fill="#313131" opacity="1.00" d=" M 910.40 315.85 C 913.85 313.83 918.06 313.15 921.95 314.18 C 924.36 314.85 926.33 317.45 925.43 319.99 C 924.94 322.13 922.66 322.80 920.90 323.54 C 923.20 323.92 926.14 325.12 926.17 327.88 C 926.56 330.64 924.40 333.10 921.85 333.80 C 918.16 334.70 914.26 334.35 910.64 333.29 C 910.65 332.39 910.66 330.60 910.67 329.70 C 913.80 330.53 917.27 331.68 920.42 330.31 C 921.80 329.79 922.70 327.62 921.28 326.64 C 919.13 325.01 916.19 325.49 913.67 325.21 C 913.67 324.42 913.67 322.82 913.67 322.02 C 916.06 321.82 918.75 322.22 920.86 320.77 C 921.57 319.85 921.52 318.48 920.49 317.83 C 917.93 316.29 914.85 317.56 912.42 318.70 C 911.73 317.75 911.06 316.80 910.40 315.85 Z" />
</g>
<g id="#5ce1e6ff">
<path fill="#5ce1e6" opacity="1.00" d=" M 334.23 211.28 C 367.04 230.00 399.76 248.88 432.48 267.76 C 432.56 282.18 432.44 296.59 432.54 311.00 C 438.83 311.00 445.12 311.00 451.41 311.00 C 451.47 306.32 451.44 301.64 451.38 296.97 C 460.91 305.78 469.72 315.36 479.12 324.31 C 473.62 330.39 467.56 335.96 461.84 341.84 C 458.38 345.13 455.29 348.82 451.52 351.78 C 451.36 347.29 451.42 342.81 451.50 338.32 C 445.25 338.12 439.00 338.39 432.76 338.15 C 432.13 352.50 432.74 366.90 432.46 381.27 C 400.11 399.98 367.80 418.76 335.39 437.35 C 334.52 437.89 333.69 437.85 332.88 437.21 C 301.39 419.02 269.93 400.77 238.40 382.66 C 237.55 381.94 235.71 381.61 236.08 380.11 C 236.03 343.04 236.01 305.96 236.09 268.89 C 235.79 267.39 237.51 266.98 238.42 266.32 C 270.41 248.07 302.28 229.60 334.23 211.28 M 289.49 274.65 C 285.73 276.11 283.06 279.82 283.14 283.90 C 283.01 309.58 283.16 335.28 283.07 360.96 C 283.11 363.60 283.01 366.34 283.93 368.86 C 285.67 372.70 289.84 375.12 294.03 374.99 C 319.02 375.03 344.02 374.97 369.01 375.02 C 372.74 375.04 376.87 375.31 379.98 372.86 C 382.68 371.20 384.07 368.08 383.99 364.97 C 384.00 337.95 384.02 310.91 383.98 283.89 C 384.23 278.16 378.49 273.64 373.01 274.03 C 346.70 273.94 320.39 274.06 294.08 273.97 C 292.53 274.03 290.91 273.93 289.49 274.65 Z" />
<path fill="#5ce1e6" opacity="1.00" d=" M 293.17 284.05 C 320.11 283.94 347.05 284.03 373.98 284.00 C 373.97 304.26 374.08 324.53 373.93 344.79 C 367.24 344.72 360.55 344.73 353.87 344.77 C 353.68 349.99 349.28 354.43 344.07 354.64 C 337.40 354.92 330.72 354.65 324.04 354.77 C 320.87 355.07 317.86 353.48 315.72 351.25 C 314.07 349.50 313.97 346.99 313.06 344.88 C 306.46 344.54 299.83 344.84 293.22 344.76 C 293.14 324.52 293.25 304.28 293.17 284.05 M 328.77 299.15 C 328.27 304.26 328.66 309.39 328.55 314.52 C 323.70 314.51 318.84 314.45 313.98 314.53 C 314.83 315.81 315.78 317.06 316.93 318.10 C 322.43 323.29 327.61 328.82 333.18 333.91 L 333.91 334.03 C 340.54 327.76 347.06 321.32 353.35 314.72 C 348.46 314.19 343.54 314.75 338.64 314.38 C 338.65 309.34 338.63 304.31 338.66 299.28 C 335.36 299.25 332.07 299.26 328.77 299.15 Z" />
</g>
<g id="#2c92d5ff">
<path fill="#2c92d5" opacity="1.00" d=" M 541.98 267.80 C 574.71 248.99 607.41 230.11 640.12 211.26 C 672.96 230.01 705.73 248.91 738.48 267.82 C 738.35 282.15 738.63 296.49 738.33 310.82 C 744.66 311.22 751.02 310.90 757.36 311.00 C 757.38 306.31 757.36 301.63 757.35 296.94 C 766.78 305.99 776.03 315.26 785.09 324.68 C 775.69 333.66 766.75 343.12 757.38 352.13 C 757.28 347.48 757.52 342.82 757.24 338.18 C 750.97 338.34 744.71 338.19 738.44 338.28 C 738.51 352.56 738.39 366.85 738.51 381.14 C 705.76 400.19 672.95 419.15 640.08 438.00 C 607.49 418.86 574.57 400.28 541.96 381.17 C 542.04 343.38 542.00 305.59 541.98 267.80 M 620.32 279.02 C 620.39 310.65 620.46 342.28 620.28 373.91 C 625.10 374.34 629.96 374.10 634.80 374.06 C 634.77 342.36 634.76 310.66 634.81 278.96 C 629.98 278.84 625.14 278.75 620.32 279.02 M 668.31 373.98 C 673.13 374.26 677.97 374.13 682.80 374.06 C 682.82 348.59 682.67 323.12 682.87 297.65 C 678.11 297.29 673.33 297.67 668.56 297.39 C 668.08 322.90 668.58 348.45 668.31 373.98 M 644.30 373.94 C 649.12 374.31 653.95 374.07 658.78 374.11 C 658.81 355.03 658.72 335.95 658.83 316.87 C 654.08 316.59 649.32 316.88 644.57 316.65 C 644.06 335.73 644.61 354.85 644.30 373.94 M 596.30 373.93 C 601.12 374.30 605.96 374.12 610.80 374.06 C 610.79 358.24 610.72 342.42 610.84 326.60 C 606.06 326.37 601.28 326.60 596.50 326.42 C 596.15 342.25 596.56 358.10 596.30 373.93 Z" />
</g>
</svg>
