<?xml version="1.0" encoding="utf-8"?>
<!-- Generator: Adobe Illustrator 18.1.1, SVG Export Plug-In . SVG Version: 6.00 Build 0)  -->
<svg version="1.1" id="Layer_1" xmlns="http://www.w3.org/2000/svg" xmlns:xlink="http://www.w3.org/1999/xlink" x="0px" y="0px"
	 viewBox="0 0 298.1 174.3" enable-background="new 0 0 298.1 174.3" xml:space="preserve">
<rect x="0.1" y="0.1" fill="#8E9090" stroke="#8E9090" stroke-width="0.25" width="297.9" height="174"/>
<rect x="0.1" y="121.1" fill="#CC3232" stroke="#CC3232" stroke-width="0.2" width="297.9" height="19.9"/>
<rect x="0.1" y="140.6" fill="#006666" stroke="#006666" stroke-width="0.25" width="297.9" height="33.5"/>
<g>
	<path fill="#FFFFFF" d="M75,28.9l3.2-16.5l5.3,11.9L89,12.3l2.9,16.5h-2.4L88,19.6l-4.5,10l-4.4-10l-1.6,9.3H75z"/>
	<path fill="#FFFFFF" d="M110.3,21.2c0,4.5-3.4,8-8,8c-4.6,0-8-3.5-8-8c0-4.5,3.4-8,8-8S110.3,16.7,110.3,21.2z M107.9,21.2
		c0-3.4-2.3-5.8-5.5-5.8c-3.3,0-5.5,2.4-5.5,5.8c0,3.4,2.3,5.8,5.5,5.8C105.6,27,107.9,24.6,107.9,21.2z"/>
	<path fill="#FFFFFF" d="M115.5,19.5h6.6v-6h2.4v15.4h-2.4v-7.2h-6.6v7.2h-2.4V13.5h2.4V19.5z"/>
	<path fill="#FFFFFF" d="M138.4,18.5l-10.4,11V13.5h2.4v10.4l10.4-11v16.1h-2.4V18.5z"/>
	<path fill="#FFFFFF" d="M148.6,15.7v13.2h-2.4V15.7h-3.5v-2.2h9.4v2.2H148.6z"/>
	<path fill="#FFFFFF" d="M169,21.2c0,4.5-3.4,8-8,8c-4.6,0-8-3.5-8-8c0-4.5,3.4-8,8-8S169,16.7,169,21.2z M166.5,21.2
		c0-3.4-2.3-5.8-5.5-5.8s-5.5,2.4-5.5,5.8c0,3.4,2.3,5.8,5.5,5.8S166.5,24.6,166.5,21.2z"/>
	<path fill="#FFFFFF" d="M175.2,13.5c1,0,2.2,0.1,3.4,0.8c1.5,1,1.9,2.6,1.9,3.7c0,1.6-0.7,2.7-1.5,3.4c-1.2,1-2.6,1.2-3.8,1.2h-1
		v6.2h-2.4V13.5H175.2z M174.2,20.4h1c1,0,2.9-0.2,2.9-2.4c0-2.2-2.1-2.4-2.9-2.4h-1V20.4z"/>
	<path fill="#FFFFFF" d="M193.1,18.5l-10.4,11V13.5h2.4v10.4l10.4-11v16.1h-2.4V18.5z"/>
	<path fill="#FFFFFF" d="M201.4,19.5h6.6v-6h2.4v15.4H208v-7.2h-6.6v7.2H199V13.5h2.4V19.5z"/>
	<path fill="#FFFFFF" d="M221.6,15.7h-5.3v13.2h-2.4V13.5h7.7V15.7z"/>
	<path fill="#FFFFFF" d="M34.8,52.3h-4.6L29,54.9h-1.8l5.4-11.4l5.1,11.4h-1.8L34.8,52.3z M34.1,50.7l-1.6-3.6l-1.7,3.6H34.1z"/>
	<path fill="#FFFFFF" d="M40.6,48.3h4.6v-4.2h1.7v10.8h-1.7v-5h-4.6v5H39V44.1h1.7V48.3z"/>
	<path fill="#FFFFFF" d="M52.4,45.6v9.2h-1.7v-9.2h-2.5v-1.5h6.6v1.5H52.4z"/>
	<path fill="#FFFFFF" d="M63.5,47.6l-7.3,7.7V44.1h1.7v7.3l7.3-7.7v11.2h-1.7V47.6z"/>
	<path fill="#FFFFFF" d="M67.6,44.1h5.4v1.5h-3.7v2.8h1c0.8,0,1.9,0.1,2.7,0.9c0.6,0.5,1,1.4,1,2.4c0,0.8-0.3,1.9-1.3,2.6
		c-0.8,0.5-1.7,0.6-2.4,0.6h-2.7V44.1z M69.3,53.3h1c0.4,0,2.1,0,2.1-1.6c0-0.5-0.2-1.7-2.1-1.7h-1V53.3z"/>
	<path fill="#FFFFFF" d="M83.3,47.6l-7.3,7.7V44.1h1.7v7.3l7.3-7.7v11.2h-1.7V47.6z"/>
	<path fill="#FFFFFF" d="M98.2,49.5c0,3.1-2.4,5.6-5.6,5.6c-3.2,0-5.6-2.4-5.6-5.6c0-3.2,2.4-5.6,5.6-5.6
		C95.8,43.9,98.2,46.3,98.2,49.5z M96.4,49.5c0-2.4-1.6-4.1-3.9-4.1c-2.3,0-3.9,1.7-3.9,4.1c0,2.4,1.6,4,3.9,4
		C94.8,53.5,96.4,51.9,96.4,49.5z"/>
	<path fill="#FFFFFF" d="M103.2,45.6v9.2h-1.7v-9.2h-2.5v-1.5h6.6v1.5H103.2z"/>
	<path fill="#FFFFFF" d="M114.3,47.6l-7.3,7.7V44.1h1.7v7.3l7.3-7.7v11.2h-1.7V47.6z"/>
	<path fill="#FFFFFF" d="M120.1,48.4l4.2-4.3h2.2l-4.9,4.9l4.9,5.9h-2.2l-4.2-5.2v5.2h-1.7V44.1h1.7V48.4z"/>
	<path fill="#FFFFFF" d="M138.1,49.5c0,3.1-2.4,5.6-5.6,5.6c-3.2,0-5.6-2.4-5.6-5.6c0-3.2,2.4-5.6,5.6-5.6S138.1,46.3,138.1,49.5z
		 M136.4,49.5c0-2.4-1.6-4.1-3.9-4.1c-2.3,0-3.9,1.7-3.9,4.1c0,2.4,1.6,4,3.9,4C134.8,53.5,136.4,51.9,136.4,49.5z"/>
	<path fill="#FFFFFF" d="M142.4,44.1c0.7,0,1.5,0,2.4,0.6c1.1,0.7,1.3,1.8,1.3,2.6c0,1.1-0.5,1.9-1,2.4c-0.8,0.7-1.8,0.8-2.6,0.8
		h-0.7v4.4h-1.7V44.1H142.4z M141.7,49h0.7c0.7,0,2-0.2,2-1.7c0-1.6-1.5-1.6-2-1.6h-0.7V49z"/>
	<path fill="#FFFFFF" d="M153.7,45.6h-4.3v2.6h4.2v1.5h-4.2v3.6h4.3v1.5h-5.9V44.1h5.9V45.6z"/>
	<path fill="#FFFFFF" d="M155.7,45.5c0.9-1.1,1.9-1.6,3.3-1.6c1.1,0,1.9,0.4,2.4,0.8c0.7,0.6,0.9,1.3,0.9,2c0,1.3-0.7,1.9-1.3,2.3
		c1.4,0.4,2,1.5,2,2.7c0,1.1-0.4,2-1.4,2.7c-0.7,0.5-1.6,0.7-2.5,0.7c-2,0-3.3-1-4.1-2.6l1.4-0.8c0.7,1.7,2.2,1.8,2.8,1.8
		c0.4,0,1-0.1,1.4-0.4c0.6-0.4,0.8-1,0.8-1.4c0-1.7-1.6-1.8-2.5-1.8h-1v-1.5h1c1.1,0,1.9-0.6,1.9-1.6c0-0.4-0.1-0.7-0.4-0.9
		c-0.4-0.4-0.9-0.4-1.3-0.4c-0.6,0-1.5,0.1-2.2,1.1L155.7,45.5z"/>
	<path fill="#FFFFFF" d="M172.1,47.6l-7.3,7.7V44.1h1.7v7.3l7.3-7.7v11.2h-1.7V47.6z"/>
	<path fill="#FFFFFF" d="M184.3,46.6c-1.1-1.1-2.3-1.2-2.9-1.2c-2.3,0-3.9,1.7-3.9,4.1c0,2.3,1.6,4,3.9,4c0.5,0,1.7-0.1,2.9-1.2v2
		c-0.3,0.2-1.3,0.8-3,0.8c-0.9,0-2.4-0.2-3.8-1.5c-1-1-1.7-2.3-1.7-4.1c0-1.4,0.4-3,1.7-4.2c1.1-1.1,2.4-1.4,3.9-1.4
		c1.4,0,2.2,0.4,2.9,0.8V46.6z"/>
	<path fill="#FFFFFF" d="M189.2,45.6v9.2h-1.7v-9.2h-2.5v-1.5h6.6v1.5H189.2z"/>
	<path fill="#FFFFFF" d="M199,45.6h-4.3v2.6h4.2v1.5h-4.2v3.6h4.3v1.5h-5.9V44.1h5.9V45.6z"/>
	<path fill="#FFFFFF" d="M202.7,48.3h4.6v-4.2h1.7v10.8h-1.7v-5h-4.6v5h-1.7V44.1h1.7V48.3z"/>
	<path fill="#FFFFFF" d="M214.5,45.6v9.2h-1.7v-9.2h-2.5v-1.5h6.6v1.5H214.5z"/>
	<path fill="#FFFFFF" d="M220,48.3h4.6v-4.2h1.7v10.8h-1.7v-5H220v5h-1.7V44.1h1.7V48.3z"/>
	<path fill="#FFFFFF" d="M239.4,49.5c0,3.1-2.4,5.6-5.6,5.6c-3.2,0-5.6-2.4-5.6-5.6c0-3.2,2.4-5.6,5.6-5.6S239.4,46.3,239.4,49.5z
		 M237.7,49.5c0-2.4-1.6-4.1-3.9-4.1c-2.3,0-3.9,1.7-3.9,4.1c0,2.4,1.6,4,3.9,4C236.1,53.5,237.7,51.9,237.7,49.5z"/>
	<path fill="#FFFFFF" d="M249.4,46.6c-1.1-1.1-2.3-1.2-2.9-1.2c-2.3,0-3.9,1.7-3.9,4.1c0,2.3,1.6,4,3.9,4c0.5,0,1.7-0.1,2.9-1.2v2
		c-0.3,0.2-1.3,0.8-3,0.8c-0.9,0-2.4-0.2-3.8-1.5c-1-1-1.7-2.3-1.7-4.1c0-1.4,0.4-3,1.7-4.2c1.1-1.1,2.4-1.4,3.9-1.4
		c1.4,0,2.2,0.4,2.9,0.8V46.6z"/>
	<path fill="#FFFFFF" d="M254.4,45.6v9.2h-1.7v-9.2h-2.5v-1.5h6.6v1.5H254.4z"/>
	<path fill="#FFFFFF" d="M265.5,47.6l-7.3,7.7V44.1h1.7v7.3l7.3-7.7v11.2h-1.7V47.6z"/>
	<path fill="#FFFFFF" d="M24.8,72.6c-1.1-1.1-2.3-1.2-2.9-1.2c-2.3,0-3.9,1.7-3.9,4.1c0,2.3,1.6,4,3.9,4c0.5,0,1.7-0.1,2.9-1.2v2
		c-0.3,0.2-1.3,0.8-3,0.8c-0.9,0-2.4-0.2-3.8-1.5c-1-1-1.7-2.3-1.7-4.1c0-1.4,0.4-3,1.7-4.2c1.1-1.1,2.4-1.4,3.9-1.4
		c1.4,0,2.2,0.4,2.9,0.8V72.6z"/>
	<path fill="#FFFFFF" d="M39.1,73.6l-7.3,7.7V70.1h1.7v7.3l7.3-7.7v11.2h-1.7V73.6z"/>
	<path fill="#FFFFFF" d="M51.2,72.6c-1.1-1.1-2.3-1.2-2.9-1.2c-2.3,0-3.9,1.7-3.9,4.1c0,2.3,1.6,4,3.9,4c0.5,0,1.7-0.1,2.9-1.2v2
		c-0.3,0.2-1.3,0.8-3,0.8c-0.9,0-2.4-0.2-3.8-1.5c-1-1-1.7-2.3-1.7-4.1c0-1.4,0.4-3,1.7-4.2c1.1-1.1,2.4-1.4,3.9-1.4
		c1.4,0,2.2,0.4,2.9,0.8V72.6z"/>
	<path fill="#FFFFFF" d="M61.1,70.1v10.8h-1.7v-9.2h-4.6v9.2h-1.7V70.1H61.1z"/>
	<path fill="#FFFFFF" d="M74.3,75.5c0,3.1-2.4,5.6-5.6,5.6c-3.2,0-5.6-2.4-5.6-5.6c0-3.2,2.4-5.6,5.6-5.6S74.3,72.3,74.3,75.5z
		 M72.6,75.5c0-2.4-1.6-4.1-3.9-4.1c-2.3,0-3.9,1.7-3.9,4.1c0,2.4,1.6,4,3.9,4C71,79.5,72.6,77.9,72.6,75.5z"/>
	<path fill="#FFFFFF" d="M84.2,70.1v10.8h-1.7v-9.2H79V77c0,1.2-0.1,2.5-1.1,3.3c-0.4,0.3-1,0.6-1.9,0.6c-0.3,0-0.6,0-0.8-0.1v-1.5
		c0.1,0,0.3,0.1,0.5,0.1c0.4,0,0.8-0.2,1-0.4c0.5-0.5,0.5-1.7,0.5-2.6v-6.4H84.2z"/>
	<path fill="#FFFFFF" d="M86.7,70.1h1.7v4.3h1.2c1.4,0,2.2,0.4,2.7,0.9c0.6,0.5,1,1.4,1,2.4c0,0.8-0.3,1.9-1.3,2.6
		c-0.8,0.5-1.7,0.6-2.4,0.6h-2.9V70.1z M88.4,79.3h1.1c0.4,0,2.1,0,2.1-1.6c0-0.5-0.2-1.7-2.1-1.7h-1.2V79.3z"/>
	<path fill="#FFFFFF" d="M94.9,71.5c0.9-1.1,1.9-1.6,3.3-1.6c1.1,0,1.9,0.4,2.4,0.8c0.7,0.6,0.9,1.3,0.9,2c0,1.3-0.7,1.9-1.3,2.3
		c1.4,0.4,2,1.5,2,2.7c0,1.1-0.4,2-1.4,2.7c-0.7,0.5-1.6,0.7-2.5,0.7c-2,0-3.3-1-4.1-2.6l1.4-0.8c0.7,1.7,2.2,1.8,2.8,1.8
		c0.4,0,1-0.1,1.4-0.4c0.6-0.4,0.8-1,0.8-1.4c0-1.7-1.6-1.8-2.5-1.8h-1v-1.5h1c1.1,0,1.9-0.6,1.9-1.6c0-0.4-0.1-0.7-0.4-0.9
		c-0.4-0.4-0.9-0.4-1.3-0.4c-0.6,0-1.5,0.1-2.2,1.1L94.9,71.5z"/>
	<path fill="#FFFFFF" d="M114.8,75.5c0,3.1-2.4,5.6-5.6,5.6c-3.2,0-5.6-2.4-5.6-5.6c0-3.2,2.4-5.6,5.6-5.6S114.8,72.3,114.8,75.5z
		 M113,75.5c0-2.4-1.6-4.1-3.9-4.1c-2.3,0-3.9,1.7-3.9,4.1c0,2.4,1.6,4,3.9,4C111.4,79.5,113,77.9,113,75.5z"/>
	<path fill="#FFFFFF" d="M118.4,70.1c0.9,0,1.8,0,2.7,0.6c0.6,0.4,1.2,1.2,1.2,2.4c0,0.6-0.1,1.3-1,2c1.4,0.4,1.9,1.6,1.9,2.6
		c0,0.6-0.2,1.7-1.1,2.4c-0.9,0.8-2.1,0.8-2.9,0.8h-2.5V70.1H118.4z M118.4,74.7h0.5c0.4,0,1.8,0,1.8-1.6c0-1.5-1.3-1.5-1.7-1.5
		h-0.6V74.7z M118.4,79.3h1c1.8,0,2.1-0.9,2.1-1.6c0-0.7-0.4-1.6-2.1-1.6h-1V79.3z"/>
	<path fill="#FFFFFF" d="M131.5,78.3h-4.6l-1.2,2.6H124l5.4-11.4l5.1,11.4h-1.8L131.5,78.3z M130.9,76.7l-1.6-3.6l-1.7,3.6H130.9z"
		/>
	<path fill="#FFFFFF" d="M137.4,74.3h4.6v-4.2h1.7v10.8H142v-5h-4.6v5h-1.7V70.1h1.7V74.3z"/>
	<path fill="#FFFFFF" d="M153.4,73.6l-7.3,7.7V70.1h1.7v7.3l7.3-7.7v11.2h-1.7V73.6z"/>
	<path fill="#FFFFFF" d="M163.4,71.6h-4.3v2.6h4.2v1.5h-4.2v3.6h4.3v1.5h-5.9V70.1h5.9V71.6z"/>
	<path fill="#FFFFFF" d="M165.2,80.9l2.3-11.6l3.7,8.3l3.8-8.3l2,11.6h-1.7l-1.1-6.5l-3.1,7l-3.1-7l-1.1,6.5H165.2z"/>
	<path fill="#FFFFFF" d="M192.2,70.1v10.8h-1.7v-9.2h-4.6v9.2h-1.7V70.1H192.2z"/>
	<path fill="#FFFFFF" d="M202.6,70.1v10.8H201v-9.2h-3.6V77c0,1.2-0.1,2.5-1.1,3.3c-0.4,0.3-1,0.6-1.9,0.6c-0.3,0-0.6,0-0.8-0.1
		v-1.5c0.1,0,0.3,0.1,0.5,0.1c0.4,0,0.8-0.2,1-0.4c0.5-0.5,0.5-1.7,0.5-2.6v-6.4H202.6z"/>
	<path fill="#FFFFFF" d="M211.5,78.3h-4.6l-1.2,2.6h-1.8l5.4-11.4l5.1,11.4h-1.8L211.5,78.3z M210.8,76.7l-1.6-3.6l-1.7,3.6H210.8z"
		/>
	<path fill="#FFFFFF" d="M218.3,71.6v9.2h-1.7v-9.2h-2.5v-1.5h6.6v1.5H218.3z"/>
	<path fill="#FFFFFF" d="M226.7,79.3h-0.3c-3.4,0-4.8-1.9-4.8-4.2c0-4.1,4.1-4.2,4.8-4.2h0.3v-1.3h1.7V71h0.3c0.7,0,4.8,0,4.8,4.2
		c0,2.3-1.4,4.2-4.8,4.2h-0.3v1.5h-1.7V79.3z M226.7,72.5h-0.3c-2.1,0-3.1,1.2-3.1,2.6c0,1.5,1,2.7,3.1,2.7h0.3V72.5z M228.4,77.8
		h0.3c2.1,0,3.1-1.2,3.1-2.7c0-1.5-1-2.6-3.1-2.6h-0.3V77.8z"/>
	<path fill="#FFFFFF" d="M246.1,75.5c0,3.1-2.4,5.6-5.6,5.6c-3.2,0-5.6-2.4-5.6-5.6c0-3.2,2.4-5.6,5.6-5.6S246.1,72.3,246.1,75.5z
		 M244.4,75.5c0-2.4-1.6-4.1-3.9-4.1c-2.3,0-3.9,1.7-3.9,4.1c0,2.4,1.6,4,3.9,4C242.8,79.5,244.4,77.9,244.4,75.5z"/>
	<path fill="#FFFFFF" d="M250.5,70.1c0.7,0,1.5,0,2.4,0.6c1.1,0.7,1.3,1.8,1.3,2.6c0,1.1-0.5,1.9-1,2.4c-0.8,0.7-1.8,0.8-2.6,0.8
		h-0.7v4.4h-1.7V70.1H250.5z M249.8,75h0.7c0.7,0,2-0.2,2-1.7c0-1.6-1.5-1.6-2-1.6h-0.7V75z"/>
	<path fill="#FFFFFF" d="M255.5,80.9l2.3-11.6l3.7,8.3l3.8-8.3l2,11.6h-1.7l-1.1-6.5l-3.1,7l-3.1-7l-1.1,6.5H255.5z"/>
	<path fill="#FFFFFF" d="M269.4,70.1h1.7v4.3h1.2c1.4,0,2.2,0.4,2.7,0.9c0.6,0.5,1,1.4,1,2.4c0,0.8-0.3,1.9-1.3,2.6
		c-0.8,0.5-1.7,0.6-2.4,0.6h-2.9V70.1z M271.1,79.3h1.1c0.4,0,2.1,0,2.1-1.6c0-0.5-0.2-1.7-2.1-1.7h-1.2V79.3z M278.8,70.1v10.8
		h-1.7V70.1H278.8z"/>
	<path fill="#FFFFFF" d="M110.2,103.1h-6.5l-1.7,3.7h-2.6l7.7-16.3l7.3,16.3h-2.6L110.2,103.1z M109.3,100.9l-2.3-5.2l-2.4,5.2
		H109.3z"/>
	<path fill="#FFFFFF" d="M115.8,106.9l3.2-16.5l5.3,11.9l5.4-11.9l2.9,16.5h-2.4l-1.5-9.3l-4.5,10l-4.4-10l-1.6,9.3H115.8z"/>
	<path fill="#FFFFFF" d="M138.5,91.5c1.3,0,2.8,0,4.1,0.9c1.5,1,1.8,2.6,1.8,3.6c0,2.2-1.4,3.8-3.4,4.3l4.8,6.6H143l-4.4-6.3h-0.4
		v6.3h-2.4V91.5H138.5z M138.2,98.5h0.7c0.6,0,3.2,0,3.2-2.5c0-2.2-2-2.4-3.1-2.4h-0.8V98.5z"/>
	<path fill="#FFFFFF" d="M155.2,100.5c-0.6-1-1.7-1.6-2.8-1.6c-1.4,0-2.9,1.1-2.9,3.1c0,1.7,1.1,3.1,2.9,3.1c1.7,0,2.6-1.3,2.8-1.7
		v2.9c-1,0.6-1.9,0.7-2.7,0.7c-1.7,0-3-0.5-4-1.5c-1-1-1.4-2.2-1.4-3.6c0-1.8,0.7-3.1,1.6-3.9c1-1,2.2-1.3,3.7-1.3
		c1.4,0,2.2,0.3,2.8,0.7V100.5z"/>
	<path fill="#FFFFFF" d="M159.5,90.7v16.2h-2.2V90.7H159.5z"/>
	<path fill="#FFFFFF" d="M172.1,102c0,3-2.2,5.1-5.2,5.1c-2.9,0-5.2-2.2-5.2-5.1c0-3,2.2-5.1,5.2-5.1C169.9,96.9,172.1,99,172.1,102
		z M169.8,102.1c0-2.3-1.5-3.1-2.9-3.1s-2.9,0.9-2.9,3.1c0,2.2,1.5,3.1,2.9,3.1C168.3,105.2,169.8,104.3,169.8,102.1z"/>
	<path fill="#FFFFFF" d="M176.6,97.1v5.6c0,0.6,0,1.2,0.4,1.8c0.3,0.4,0.8,0.7,1.5,0.7s1.2-0.3,1.5-0.7c0.4-0.5,0.4-1.2,0.4-1.8
		v-5.6h2.2v5.6c0,1.1-0.1,2.2-1,3.2c-1,1.1-2.5,1.2-3.2,1.2c-0.6,0-2-0.2-3.1-1.2c-1-1-1-2-1-3.2v-5.6H176.6z"/>
	<path fill="#FFFFFF" d="M192.6,90.7h2.2v16.2h-2.2v-1c-0.4,0.4-1.3,1.3-3,1.3c-2.9,0-4.6-2.5-4.6-5.2c0-2.6,1.7-5.1,4.7-5.1
		c0.7,0,2,0.2,2.9,1.4V90.7z M187.3,102.1c0,1.7,1,3.1,2.7,3.1c1.8,0,2.8-1.4,2.8-3.1c0-2.2-1.3-3.2-2.8-3.2
		C188.4,98.9,187.3,100.3,187.3,102.1z"/>
</g>
<g>
	<path fill="#FFFFFF" d="M38.1,125.4h2.4v9h-2.4v-7.2h-3.4v7.2h-2.4v-9h2.4H38.1z"/>
	<path fill="#FFFFFF" d="M43.2,125.4h3.6c0.7,0,1.2,0.1,1.7,0.3s0.9,0.5,1.1,1s0.4,1,0.4,1.7c0,0.5-0.1,1-0.2,1.4s-0.3,0.7-0.6,1
		s-0.6,0.4-1,0.6s-0.9,0.2-1.4,0.2h-1.3v3h-2.4V125.4z M45.5,129.6h0.4c0.4,0,0.7,0,0.9-0.1s0.4-0.1,0.6-0.3
		c0.2-0.2,0.2-0.4,0.2-0.8c0-0.4-0.1-0.6-0.2-0.8c-0.1-0.2-0.3-0.3-0.6-0.3c-0.2,0-0.5-0.1-0.9-0.1h-0.4V129.6z"/>
	<path fill="#FFFFFF" d="M54.6,132.9l-0.6,1.6h-2.5l3.5-9h2.6l3.4,9h-2.5l-0.6-1.6H54.6z M56.3,128.2L56.3,128.2l-1,2.9h2
		L56.3,128.2z"/>
	<path fill="#FFFFFF" d="M68.1,125.4H71l-3.6,4.3l3.9,4.8h-3l-3-3.9h0v3.9h-2.4v-9h2.4v3.7h0L68.1,125.4z"/>
	<path fill="#FFFFFF" d="M76.8,134.5h-2.4v-7.1h-1.9v-2h6.2v2h-1.9V134.5z"/>
	<path fill="#FFFFFF" d="M89.8,134.5h-2.4v-5.5h0l-4.3,5.5h-2.4v-9h2.4v5.5h0l4.3-5.5h2.4V134.5z"/>
	<path fill="#FFFFFF" d="M97.7,128.9v-3.5h2.4v9h-2.4v-3.7c-0.2,0.1-0.5,0.3-1,0.4c-0.4,0.2-0.9,0.3-1.5,0.3c-0.4,0-0.7-0.1-1.1-0.2
		c-0.3-0.1-0.6-0.3-0.9-0.5s-0.5-0.5-0.6-0.8c-0.2-0.3-0.2-0.7-0.2-1.1v-3.4h2.4v3c0,0.3,0.1,0.6,0.3,0.8c0.2,0.2,0.5,0.3,0.9,0.3
		c0.3,0,0.6-0.1,0.9-0.2S97.5,129,97.7,128.9z"/>
	<path fill="#FFFFFF" d="M105.1,127.4v1.5h2.7v2h-2.7v1.6h2.8v2h-5.1v-9h5.1v2H105.1z"/>
	<path fill="#FFFFFF" d="M117,128.4c-0.2-0.3-0.5-0.6-0.9-0.7c-0.4-0.2-0.8-0.3-1.2-0.3c-0.5,0-0.9,0.1-1.3,0.3s-0.7,0.5-0.9,0.9
		c-0.2,0.4-0.3,0.8-0.3,1.3c0,0.5,0.1,0.9,0.3,1.3s0.5,0.7,0.9,0.9c0.4,0.2,0.8,0.3,1.3,0.3c0.4,0,0.8-0.1,1.1-0.3
		c0.4-0.2,0.7-0.4,0.9-0.7v2.8c-0.5,0.2-0.9,0.3-1.2,0.3s-0.6,0.1-0.9,0.1c-0.6,0-1.2-0.1-1.8-0.3s-1.1-0.6-1.6-1
		c-1-0.9-1.5-2-1.5-3.4c0-0.6,0.1-1.2,0.3-1.8s0.6-1.1,1-1.5c0.3-0.3,0.6-0.6,1-0.8s0.8-0.4,1.2-0.5s0.8-0.2,1.3-0.2
		c0.7,0,1.4,0.2,2.1,0.5V128.4z"/>
	<path fill="#FFFFFF" d="M124.9,125.4h2.9l-3.6,4.3l3.9,4.8h-3l-3-3.9h0v3.9h-2.4v-9h2.4v3.7h0L124.9,125.4z"/>
	<path fill="#FFFFFF" d="M139.5,129.8c0,0.7-0.1,1.4-0.4,2s-0.6,1.1-1,1.6s-1,0.8-1.6,1c-0.6,0.2-1.3,0.4-2,0.4s-1.4-0.1-2-0.4
		s-1.1-0.6-1.6-1c-0.5-0.5-0.8-1-1-1.6s-0.4-1.3-0.4-2c0-0.7,0.1-1.3,0.4-1.9c0.3-0.6,0.6-1.1,1.1-1.5s1-0.7,1.6-1s1.2-0.3,1.9-0.3
		c0.6,0,1.3,0.1,1.9,0.3s1.1,0.6,1.6,1s0.8,0.9,1.1,1.5C139.4,128.5,139.5,129.1,139.5,129.8z M132,129.8c0,0.5,0.1,1,0.3,1.4
		s0.5,0.7,0.9,1s0.8,0.3,1.3,0.3c0.5,0,0.9-0.1,1.3-0.4s0.7-0.6,0.9-1s0.3-0.9,0.3-1.4c0-0.4-0.1-0.8-0.3-1.2s-0.5-0.7-0.9-0.9
		s-0.8-0.3-1.3-0.3c-0.5,0-0.9,0.1-1.3,0.3c-0.4,0.2-0.7,0.5-0.9,0.9C132.1,129,132,129.4,132,129.8z"/>
	<path fill="#FFFFFF" d="M144.2,127.4v1.5h2.7v2h-2.7v1.6h2.8v2h-5.1v-9h5.1v2H144.2z"/>
	<path fill="#FFFFFF" d="M156.8,125.4h3.6c0.7,0,1.2,0.1,1.7,0.3c0.5,0.2,0.9,0.5,1.1,1s0.4,1,0.4,1.7c0,0.5-0.1,1-0.2,1.4
		s-0.3,0.7-0.6,1c-0.3,0.3-0.6,0.4-1,0.6s-0.9,0.2-1.4,0.2h-1.3v3h-2.4V125.4z M159.2,129.6h0.4c0.4,0,0.7,0,0.9-0.1
		s0.4-0.1,0.6-0.3s0.2-0.4,0.2-0.8c0-0.4-0.1-0.6-0.2-0.8s-0.3-0.3-0.5-0.3c-0.2,0-0.5-0.1-0.9-0.1h-0.4V129.6z"/>
	<path fill="#FFFFFF" d="M170.1,129.8l1.9-4.3h2.4l-4.2,9h-2.4l1.1-2.3l-3.9-6.8h2.7L170.1,129.8z"/>
	<path fill="#FFFFFF" d="M181.5,125.4h2.9l-3.6,4.3l3.9,4.8h-3l-3-3.9h0v3.9h-2.4v-9h2.4v3.7h0L181.5,125.4z"/>
	<path fill="#FFFFFF" d="M196.2,129.8c0,0.7-0.1,1.4-0.4,2s-0.6,1.1-1,1.6s-1,0.8-1.6,1c-0.6,0.2-1.3,0.4-2,0.4s-1.4-0.1-2-0.4
		s-1.1-0.6-1.6-1c-0.5-0.5-0.8-1-1-1.6s-0.4-1.3-0.4-2c0-0.7,0.1-1.3,0.4-1.9c0.3-0.6,0.6-1.1,1.1-1.5s1-0.7,1.6-1s1.2-0.3,1.9-0.3
		c0.6,0,1.3,0.1,1.9,0.3s1.1,0.6,1.6,1s0.8,0.9,1.1,1.5C196,128.5,196.2,129.1,196.2,129.8z M188.6,129.8c0,0.5,0.1,1,0.3,1.4
		s0.5,0.7,0.9,1s0.8,0.3,1.3,0.3c0.5,0,0.9-0.1,1.3-0.4s0.7-0.6,0.9-1s0.3-0.9,0.3-1.4c0-0.4-0.1-0.8-0.3-1.2s-0.5-0.7-0.9-0.9
		s-0.8-0.3-1.3-0.3c-0.5,0-0.9,0.1-1.3,0.3c-0.4,0.2-0.7,0.5-0.9,0.9C188.7,129,188.6,129.4,188.6,129.8z"/>
	<path fill="#FFFFFF" d="M198.4,134.5v-9h3.4c1.8,0,2.7,0.8,2.7,2.3c0,0.9-0.3,1.5-1,1.8v0c0.6,0.1,1.1,0.3,1.4,0.7s0.5,0.9,0.5,1.6
		c0,0.9-0.3,1.5-0.9,1.9c-0.6,0.4-1.4,0.6-2.3,0.6H198.4z M200.8,129h0.3c0.4,0,0.7-0.1,0.9-0.2c0.2-0.1,0.3-0.4,0.3-0.7
		c0-0.4-0.1-0.6-0.4-0.7c-0.2-0.1-0.6-0.2-1-0.2h-0.2V129z M200.8,132.7h0.3c0.6,0,1-0.1,1.4-0.2c0.3-0.1,0.5-0.4,0.5-0.8
		s-0.1-0.7-0.4-0.8s-0.6-0.2-1.1-0.2H201h-0.2V132.7z"/>
	<path fill="#FFFFFF" d="M217.3,129.8c0,0.7-0.1,1.4-0.4,2s-0.6,1.1-1,1.6s-1,0.8-1.6,1c-0.6,0.2-1.3,0.4-2,0.4s-1.4-0.1-2-0.4
		s-1.1-0.6-1.6-1c-0.5-0.5-0.8-1-1-1.6s-0.4-1.3-0.4-2c0-0.7,0.1-1.3,0.4-1.9c0.3-0.6,0.6-1.1,1.1-1.5s1-0.7,1.6-1s1.2-0.3,1.9-0.3
		c0.6,0,1.3,0.1,1.9,0.3s1.1,0.6,1.6,1s0.8,0.9,1.1,1.5C217.2,128.5,217.3,129.1,217.3,129.8z M209.8,129.8c0,0.5,0.1,1,0.3,1.4
		s0.5,0.7,0.9,1s0.8,0.3,1.3,0.3c0.5,0,0.9-0.1,1.3-0.4s0.7-0.6,0.9-1s0.3-0.9,0.3-1.4c0-0.4-0.1-0.8-0.3-1.2s-0.5-0.7-0.9-0.9
		s-0.8-0.3-1.3-0.3c-0.5,0-0.9,0.1-1.3,0.3c-0.4,0.2-0.7,0.5-0.9,0.9C209.9,129,209.8,129.4,209.8,129.8z"/>
	<path fill="#FFFFFF" d="M220,125.4h6.8v7.2h0.7v3.3h-2.2v-1.5h-4.3v1.5h-2.2v-3.3c0.3,0,0.6-0.1,0.8-0.4c0.2-0.3,0.3-0.7,0.4-1.2
		s0.1-1.2,0.1-2S220,127,220,125.4z M224.3,132.6v-5.2h-2.2c0,0.9,0,1.7,0,2.2s0,1-0.1,1.4s-0.1,0.7-0.2,1s-0.2,0.5-0.3,0.6H224.3z"
		/>
	<path fill="#FFFFFF" d="M235.9,128.4c-0.2-0.3-0.5-0.6-0.9-0.7c-0.4-0.2-0.8-0.3-1.2-0.3c-0.5,0-0.9,0.1-1.3,0.3s-0.7,0.5-0.9,0.9
		c-0.2,0.4-0.3,0.8-0.3,1.3c0,0.5,0.1,0.9,0.3,1.3s0.5,0.7,0.9,0.9c0.4,0.2,0.8,0.3,1.3,0.3c0.4,0,0.8-0.1,1.1-0.3
		c0.4-0.2,0.7-0.4,0.9-0.7v2.8c-0.5,0.2-0.9,0.3-1.2,0.3s-0.6,0.1-0.9,0.1c-0.6,0-1.2-0.1-1.8-0.3s-1.1-0.6-1.6-1
		c-1-0.9-1.5-2-1.5-3.4c0-0.6,0.1-1.2,0.3-1.8s0.6-1.1,1-1.5c0.3-0.3,0.6-0.6,1-0.8s0.8-0.4,1.2-0.5s0.8-0.2,1.3-0.2
		c0.7,0,1.4,0.2,2.1,0.5V128.4z"/>
	<path fill="#FFFFFF" d="M242.2,134.5h-2.4v-7.1h-1.9v-2h6.2v2h-1.9V134.5z"/>
	<path fill="#FFFFFF" d="M246.2,134.5v-9h3.4c1.8,0,2.7,0.8,2.7,2.3c0,0.9-0.3,1.5-1,1.8v0c0.6,0.1,1.1,0.3,1.4,0.7s0.5,0.9,0.5,1.6
		c0,0.9-0.3,1.5-0.9,1.9c-0.6,0.4-1.4,0.6-2.3,0.6H246.2z M248.5,129h0.3c0.4,0,0.7-0.1,0.9-0.2c0.2-0.1,0.3-0.4,0.3-0.7
		c0-0.4-0.1-0.6-0.4-0.7c-0.2-0.1-0.6-0.2-1-0.2h-0.2V129z M248.5,132.7h0.3c0.6,0,1-0.1,1.4-0.2c0.3-0.1,0.5-0.4,0.5-0.8
		s-0.1-0.7-0.4-0.8s-0.6-0.2-1.1-0.2h-0.4h-0.2V132.7z"/>
	<path fill="#FFFFFF" d="M265.1,129.8c0,0.7-0.1,1.4-0.4,2s-0.6,1.1-1,1.6s-1,0.8-1.6,1c-0.6,0.2-1.3,0.4-2,0.4s-1.4-0.1-2-0.4
		s-1.1-0.6-1.6-1c-0.5-0.5-0.8-1-1-1.6s-0.4-1.3-0.4-2c0-0.7,0.1-1.3,0.4-1.9c0.3-0.6,0.6-1.1,1.1-1.5s1-0.7,1.6-1s1.2-0.3,1.9-0.3
		c0.6,0,1.3,0.1,1.9,0.3s1.1,0.6,1.6,1s0.8,0.9,1.1,1.5C264.9,128.5,265.1,129.1,265.1,129.8z M257.5,129.8c0,0.5,0.1,1,0.3,1.4
		s0.5,0.7,0.9,1s0.8,0.3,1.3,0.3c0.5,0,0.9-0.1,1.3-0.4s0.7-0.6,0.9-1s0.3-0.9,0.3-1.4c0-0.4-0.1-0.8-0.3-1.2s-0.5-0.7-0.9-0.9
		s-0.8-0.3-1.3-0.3c-0.5,0-0.9,0.1-1.3,0.3c-0.4,0.2-0.7,0.5-0.9,0.9C257.6,129,257.5,129.4,257.5,129.8z"/>
</g>
<g>
	<path fill="#FFFFFF" d="M110.5,150.1c0-0.5,0.1-1,0.4-1.5s0.6-0.8,1.1-1.1c0.5-0.3,1-0.4,1.5-0.4c0.4,0,0.8,0.1,1.2,0.2
		c0.4,0.2,0.7,0.4,0.9,0.6s0.5,0.6,0.6,1c0.2,0.4,0.2,0.7,0.2,1.2c0,0.5-0.1,1-0.4,1.5c-0.3,0.5-0.6,0.8-1.1,1.1s-0.9,0.4-1.5,0.4
		s-1-0.1-1.5-0.4s-0.8-0.6-1.1-1.1C110.6,151.1,110.5,150.6,110.5,150.1z M111.4,150.1c0,0.4,0.1,0.7,0.3,1s0.4,0.6,0.7,0.8
		c0.3,0.2,0.7,0.3,1,0.3c0.4,0,0.7-0.1,1-0.3s0.5-0.4,0.7-0.8c0.2-0.3,0.3-0.7,0.3-1c0-0.4-0.1-0.7-0.3-1s-0.4-0.6-0.7-0.8
		c-0.3-0.2-0.7-0.3-1-0.3s-0.7,0.1-1,0.3c-0.3,0.2-0.5,0.4-0.7,0.8S111.4,149.7,111.4,150.1z"/>
	<path fill="#FFFFFF" d="M118.9,150.3v2.6h-1v-5.6h1v2.2h2.5v-2.2h1v5.6h-1v-2.6H118.9z"/>
	<path fill="#FFFFFF" d="M123.5,153l-0.2-0.9c0.2,0,0.4-0.1,0.5-0.2s0.2-0.4,0.2-0.7s0.1-0.8,0.1-1.3c0-0.5,0-1.4,0-2.6h3.6v5.6h-1
		v-4.8H125c0,1,0,1.8,0,2.3s-0.1,1-0.2,1.4c-0.1,0.4-0.2,0.7-0.4,0.8S123.8,153,123.5,153z"/>
	<path fill="#FFFFFF" d="M134.1,152.9h-1v-0.8h0c-0.5,0.6-1.1,0.9-1.9,0.9c-0.4,0-0.8-0.1-1.1-0.2c-0.3-0.2-0.6-0.4-0.9-0.7
		c-0.2-0.3-0.4-0.6-0.5-0.9c-0.1-0.4-0.2-0.7-0.2-1.1c0-0.5,0.1-1,0.3-1.5c0.2-0.5,0.5-0.8,0.9-1.1c0.4-0.3,0.9-0.4,1.4-0.4
		c0.4,0,0.7,0.1,1.1,0.3c0.3,0.2,0.6,0.4,0.9,0.7h0v-0.8h1V152.9z M129.5,150c0,0.4,0.1,0.7,0.2,1.1s0.4,0.6,0.6,0.8s0.6,0.3,1,0.3
		c0.6,0,1.1-0.2,1.4-0.6c0.3-0.4,0.5-0.9,0.5-1.5c0-0.4-0.1-0.7-0.2-1s-0.4-0.6-0.7-0.7c-0.3-0.2-0.6-0.3-1-0.3
		c-0.4,0-0.7,0.1-1,0.3c-0.3,0.2-0.5,0.4-0.7,0.7S129.5,149.7,129.5,150z"/>
	<path fill="#FFFFFF" d="M135.9,153.2v-6h1v3.6l3.7-4v6h-1v-3.6L135.9,153.2z M137.1,144.8c0.2,0.5,0.6,0.8,1.1,0.8
		c0.6,0,0.9-0.3,1.1-0.8h0.8c0,0.3-0.2,0.6-0.3,0.9c-0.2,0.2-0.4,0.4-0.7,0.6c-0.3,0.1-0.6,0.2-0.9,0.2c-0.5,0-0.9-0.2-1.3-0.5
		c-0.4-0.3-0.6-0.7-0.7-1.2H137.1z"/>
	<path fill="#FFFFFF" d="M142.9,150.3v2.6h-1v-5.6h1v2.2h2.5v-2.2h1v5.6h-1v-2.6H142.9z"/>
	<path fill="#FFFFFF" d="M147.1,149.6h2.5v0.9h-2.5V149.6z"/>
	<path fill="#FFFFFF" d="M149.9,147.2h1.4c0.3,0,0.6,0.1,0.9,0.2c0.3,0.1,0.5,0.3,0.7,0.5c0.2,0.2,0.3,0.5,0.3,0.9
		c0,0.4-0.1,0.7-0.4,1c0.3,0.1,0.5,0.3,0.7,0.5c0.2,0.2,0.3,0.5,0.3,0.9c0,0.6-0.2,1-0.6,1.2c-0.4,0.3-0.9,0.4-1.4,0.4h-1.8V147.2z
		 M151.3,149.6c0.3,0,0.5-0.1,0.6-0.2s0.2-0.3,0.2-0.6c0-0.3-0.1-0.4-0.2-0.6c-0.2-0.1-0.4-0.2-0.7-0.2h-0.4v1.6H151.3z
		 M151.7,152.1c0.3,0,0.6-0.1,0.8-0.2s0.3-0.4,0.3-0.7c0-0.5-0.3-0.8-1-0.8h-0.8v1.7H151.7z"/>
	<path fill="#FFFFFF" d="M155.5,150.3c0,0.3,0.1,0.7,0.2,0.9s0.4,0.5,0.7,0.7s0.6,0.3,1,0.3c0.7,0,1.3-0.4,1.7-1.2l0.8,0.5
		c-0.3,0.5-0.6,0.9-1.1,1.2c-0.4,0.3-1,0.4-1.5,0.4c-0.5,0-1-0.1-1.4-0.4c-0.4-0.3-0.7-0.6-1-1s-0.3-0.9-0.3-1.5
		c0-0.6,0.1-1.1,0.3-1.5c0.2-0.5,0.5-0.8,0.9-1.1c0.4-0.3,0.9-0.4,1.5-0.4c0.6,0,1,0.1,1.4,0.4s0.7,0.7,0.9,1.1
		c0.2,0.5,0.3,1,0.3,1.6H155.5z M158.9,149.5c0-0.3-0.1-0.5-0.3-0.7s-0.4-0.4-0.6-0.5s-0.5-0.2-0.8-0.2c-0.4,0-0.8,0.1-1.1,0.4
		s-0.5,0.6-0.6,1H158.9z"/>
	<path fill="#FFFFFF" d="M161.9,148.1L161.9,148.1c0.3-0.3,0.5-0.5,0.9-0.7c0.3-0.2,0.7-0.2,1.1-0.2c0.4,0,0.8,0.1,1.1,0.2
		c0.3,0.2,0.6,0.4,0.9,0.7s0.4,0.6,0.5,1s0.2,0.7,0.2,1.1c0,0.5-0.1,1-0.3,1.5s-0.5,0.8-0.9,1.1c-0.4,0.3-0.9,0.4-1.4,0.4
		c-0.4,0-0.7-0.1-1.1-0.2c-0.3-0.2-0.6-0.4-0.8-0.7h0v4h-1v-8.8h1V148.1z M161.8,150c0,0.6,0.2,1.1,0.5,1.5c0.3,0.4,0.8,0.6,1.4,0.6
		c0.6,0,1.1-0.2,1.4-0.6s0.5-0.9,0.5-1.5c0-0.6-0.2-1.1-0.5-1.5s-0.8-0.6-1.4-0.6c-0.4,0-0.7,0.1-1,0.3c-0.3,0.2-0.5,0.4-0.7,0.7
		S161.8,149.7,161.8,150z"/>
	<path fill="#FFFFFF" d="M172.2,148.9L172.2,148.9c-0.5-0.6-1.1-0.9-1.8-0.9c-0.4,0-0.7,0.1-1,0.3c-0.3,0.2-0.5,0.4-0.7,0.8
		c-0.2,0.3-0.3,0.7-0.3,1s0.1,0.7,0.2,1c0.2,0.3,0.4,0.6,0.7,0.8c0.3,0.2,0.6,0.3,1,0.3c0.7,0,1.3-0.3,1.8-1h0v1.3
		c-0.6,0.4-1.2,0.6-1.8,0.6c-0.6,0-1.1-0.1-1.5-0.4s-0.8-0.6-1.1-1.1c-0.3-0.5-0.4-1-0.4-1.5c0-0.5,0.1-1,0.4-1.5s0.6-0.8,1.1-1.1
		s1-0.4,1.5-0.4c0.6,0,1.2,0.2,1.7,0.6V148.9z"/>
	<path fill="#FFFFFF" d="M173.9,153.2v-6h1v3.7l3.7-4v6h-1v-3.7L173.9,153.2z"/>
	<path fill="#FFFFFF" d="M182,150.6l-1.6,2.3h-1.2l1.7-2.4c-0.4-0.1-0.7-0.3-1-0.6c-0.2-0.3-0.4-0.6-0.4-1c0-0.6,0.2-1,0.6-1.2
		s0.9-0.4,1.5-0.4h1.5v5.6h-1v-2.3H182z M181.7,148.1c-0.3,0-0.6,0.1-0.8,0.2c-0.2,0.1-0.3,0.4-0.3,0.6c0,0.6,0.4,0.8,1.1,0.8h0.5
		v-1.7H181.7z"/>
	<path fill="#FFFFFF" d="M185.9,147.1c0.2,0,0.3,0.1,0.5,0.2s0.2,0.3,0.2,0.5c0,0.2-0.1,0.4-0.2,0.5c-0.1,0.1-0.3,0.2-0.5,0.2
		c-0.2,0-0.3-0.1-0.5-0.2c-0.1-0.1-0.2-0.3-0.2-0.5c0-0.2,0.1-0.3,0.2-0.5C185.6,147.2,185.7,147.1,185.9,147.1z M185.9,151.7
		c0.2,0,0.3,0.1,0.5,0.2s0.2,0.3,0.2,0.5c0,0.2-0.1,0.4-0.2,0.5s-0.3,0.2-0.5,0.2c-0.2,0-0.3-0.1-0.5-0.2s-0.2-0.3-0.2-0.5
		c0-0.2,0.1-0.3,0.2-0.5S185.7,151.7,185.9,151.7z"/>
	<path fill="#FFFFFF" d="M87.2,161.6v0.6h0c0.3-0.5,0.8-0.8,1.4-0.8c0.3,0,0.6,0.1,0.9,0.3c0.3,0.2,0.5,0.4,0.6,0.7
		c0.2-0.3,0.4-0.5,0.7-0.7c0.3-0.2,0.6-0.2,1-0.2c1.2,0,1.8,0.8,1.8,2.4v3.4h-1V164c0-0.5-0.1-0.9-0.2-1.2s-0.4-0.4-0.8-0.4
		c-0.5,0-0.8,0.2-1,0.5s-0.2,0.8-0.2,1.4v3h-1v-3.2c0-1.1-0.3-1.7-1-1.7c-0.5,0-0.8,0.2-1,0.6c-0.2,0.4-0.2,0.9-0.2,1.4v2.9h-1v-5.6
		H87.2z"/>
	<path fill="#FFFFFF" d="M97.7,167.4c-0.5,0-1-0.1-1.5-0.4s-0.8-0.6-1.1-1.1c-0.3-0.5-0.4-1-0.4-1.5c0-0.5,0.1-1,0.4-1.5
		s0.6-0.8,1.1-1.1c0.5-0.3,1-0.4,1.5-0.4c0.4,0,0.8,0.1,1.2,0.2c0.4,0.2,0.7,0.4,0.9,0.6s0.5,0.6,0.6,1c0.2,0.4,0.2,0.7,0.2,1.2
		c0,0.5-0.1,1-0.4,1.5c-0.3,0.5-0.6,0.8-1.1,1.1S98.3,167.4,97.7,167.4z M97.7,162.4c-0.4,0-0.7,0.1-1,0.3c-0.3,0.2-0.5,0.4-0.7,0.8
		s-0.3,0.7-0.3,1c0,0.4,0.1,0.7,0.3,1s0.4,0.6,0.7,0.8s0.7,0.3,1,0.3c0.4,0,0.7-0.1,1-0.3s0.5-0.4,0.7-0.8c0.2-0.3,0.3-0.7,0.3-1
		c0-0.4-0.1-0.7-0.3-1s-0.4-0.6-0.7-0.8C98.4,162.5,98.1,162.4,97.7,162.4z"/>
	<path fill="#FFFFFF" d="M103.2,161.6v0.7h0c0.4-0.6,0.9-0.8,1.6-0.8c0.5,0,0.9,0.1,1.2,0.3c0.3,0.2,0.5,0.5,0.6,0.9
		s0.2,0.8,0.2,1.3v3.3h-1v-3.2c0-0.6-0.1-1-0.2-1.3s-0.5-0.4-1-0.4c-0.6,0-1,0.2-1.1,0.6c-0.2,0.4-0.3,0.9-0.3,1.6v2.7h-1v-5.6
		H103.2z"/>
	<path fill="#FFFFFF" d="M108.9,158.8c0.2,0,0.3,0.1,0.5,0.2c0.1,0.1,0.2,0.3,0.2,0.5c0,0.2-0.1,0.4-0.2,0.5
		c-0.1,0.1-0.3,0.2-0.5,0.2c-0.2,0-0.3-0.1-0.5-0.2s-0.2-0.3-0.2-0.5c0-0.2,0.1-0.3,0.2-0.5C108.6,158.9,108.7,158.8,108.9,158.8z
		 M109.4,161.6v5.6h-1v-5.6H109.4z"/>
	<path fill="#FFFFFF" d="M112.3,162.5v4.8h-1v-4.8h-0.6v-0.9h0.6v-2h1v2h1v0.9H112.3z"/>
	<path fill="#FFFFFF" d="M116.7,167.4c-0.5,0-1-0.1-1.5-0.4s-0.8-0.6-1.1-1.1c-0.3-0.5-0.4-1-0.4-1.5c0-0.5,0.1-1,0.4-1.5
		s0.6-0.8,1.1-1.1c0.5-0.3,1-0.4,1.5-0.4c0.4,0,0.8,0.1,1.2,0.2c0.4,0.2,0.7,0.4,0.9,0.6s0.5,0.6,0.6,1c0.2,0.4,0.2,0.7,0.2,1.2
		c0,0.5-0.1,1-0.4,1.5c-0.3,0.5-0.6,0.8-1.1,1.1S117.3,167.4,116.7,167.4z M116.7,162.4c-0.4,0-0.7,0.1-1,0.3
		c-0.3,0.2-0.5,0.4-0.7,0.8s-0.3,0.7-0.3,1c0,0.4,0.1,0.7,0.3,1s0.4,0.6,0.7,0.8s0.7,0.3,1,0.3c0.4,0,0.7-0.1,1-0.3s0.5-0.4,0.7-0.8
		c0.2-0.3,0.3-0.7,0.3-1c0-0.4-0.1-0.7-0.3-1s-0.4-0.6-0.7-0.8C117.4,162.5,117.1,162.4,116.7,162.4z"/>
	<path fill="#FFFFFF" d="M122.2,161.6v0.6h0c0.2-0.3,0.4-0.5,0.6-0.6c0.2-0.1,0.4-0.2,0.7-0.2c0.3,0,0.6,0.1,0.9,0.3l-0.5,0.9
		c-0.1-0.1-0.2-0.2-0.3-0.2c-0.1,0-0.2-0.1-0.3-0.1c-0.5,0-0.8,0.2-0.9,0.6c-0.1,0.4-0.2,0.9-0.2,1.5v2.8h-1v-5.6H122.2z"/>
	<path fill="#FFFFFF" d="M125.9,158.8c0.2,0,0.3,0.1,0.5,0.2c0.1,0.1,0.2,0.3,0.2,0.5c0,0.2-0.1,0.4-0.2,0.5
		c-0.1,0.1-0.3,0.2-0.5,0.2c-0.2,0-0.3-0.1-0.5-0.2s-0.2-0.3-0.2-0.5c0-0.2,0.1-0.3,0.2-0.5C125.6,158.9,125.7,158.8,125.9,158.8z
		 M126.4,161.6v5.6h-1v-5.6H126.4z"/>
	<path fill="#FFFFFF" d="M129.2,161.6v0.7h0c0.4-0.6,0.9-0.8,1.6-0.8c0.5,0,0.9,0.1,1.2,0.3c0.3,0.2,0.5,0.5,0.6,0.9
		s0.2,0.8,0.2,1.3v3.3h-1v-3.2c0-0.6-0.1-1-0.2-1.3s-0.5-0.4-1-0.4c-0.6,0-1,0.2-1.1,0.6c-0.2,0.4-0.3,0.9-0.3,1.6v2.7h-1v-5.6
		H129.2z"/>
	<path fill="#FFFFFF" d="M139.3,161.6v5.4c0,0.6,0,1-0.1,1.4s-0.2,0.7-0.5,1c-0.3,0.3-0.6,0.6-1,0.7s-0.8,0.3-1.2,0.3
		c-0.5,0-1-0.1-1.4-0.3c-0.4-0.2-0.7-0.5-1-0.9s-0.4-0.8-0.4-1.4h1c0,0.3,0.1,0.6,0.2,0.9s0.4,0.5,0.6,0.6c0.3,0.1,0.6,0.2,0.9,0.2
		c0.5,0,0.8-0.1,1.1-0.3s0.5-0.5,0.6-0.8c0.1-0.3,0.2-0.8,0.2-1.2v-0.7h0c-0.2,0.3-0.5,0.5-0.9,0.7c-0.3,0.2-0.7,0.2-1.1,0.2
		c-0.4,0-0.8-0.1-1.1-0.2c-0.3-0.2-0.6-0.4-0.9-0.6s-0.4-0.6-0.5-0.9c-0.1-0.4-0.2-0.7-0.2-1.1c0-0.5,0.1-1,0.3-1.5s0.5-0.8,1-1.1
		s0.9-0.4,1.4-0.4c0.8,0,1.4,0.3,1.9,1h0v-0.8H139.3z M136.5,162.4c-0.4,0-0.7,0.1-1,0.3c-0.3,0.2-0.5,0.4-0.7,0.7s-0.2,0.6-0.2,1
		c0,0.6,0.2,1.1,0.5,1.5s0.8,0.6,1.4,0.6c0.6,0,1.1-0.2,1.4-0.6s0.5-0.9,0.5-1.5c0-0.6-0.2-1.1-0.5-1.5S137.1,162.4,136.5,162.4z"/>
	<path fill="#FFFFFF" d="M142.2,166.1c0.2,0,0.3,0.1,0.5,0.2s0.2,0.3,0.2,0.5c0,0.2-0.1,0.4-0.2,0.5s-0.3,0.2-0.5,0.2
		c-0.2,0-0.3-0.1-0.5-0.2s-0.2-0.3-0.2-0.5c0-0.2,0.1-0.3,0.2-0.5S142,166.1,142.2,166.1z"/>
	<path fill="#FFFFFF" d="M150.4,161.6v5.6h-1v-0.8h0c-0.5,0.6-1.1,0.9-1.9,0.9c-0.4,0-0.8-0.1-1.1-0.2c-0.3-0.2-0.6-0.4-0.9-0.7
		c-0.2-0.3-0.4-0.6-0.5-0.9c-0.1-0.4-0.2-0.7-0.2-1.1c0-0.5,0.1-1,0.3-1.5c0.2-0.5,0.5-0.8,0.9-1.1c0.4-0.3,0.9-0.4,1.4-0.4
		c0.4,0,0.7,0.1,1.1,0.3c0.3,0.2,0.6,0.4,0.9,0.7h0v-0.8H150.4z M147.6,162.4c-0.4,0-0.7,0.1-1,0.3c-0.3,0.2-0.5,0.4-0.7,0.7
		s-0.2,0.6-0.2,1c0,0.4,0.1,0.7,0.2,1.1s0.4,0.6,0.6,0.8s0.6,0.3,1,0.3c0.6,0,1.1-0.2,1.4-0.6c0.3-0.4,0.5-0.9,0.5-1.5
		c0-0.4-0.1-0.7-0.2-1s-0.4-0.6-0.7-0.7C148.3,162.5,148,162.4,147.6,162.4z"/>
	<path fill="#FFFFFF" d="M153.2,161.6v0.6h0c0.3-0.5,0.8-0.8,1.4-0.8c0.3,0,0.6,0.1,0.9,0.3c0.3,0.2,0.5,0.4,0.6,0.7
		c0.2-0.3,0.4-0.5,0.7-0.7c0.3-0.2,0.6-0.2,1-0.2c1.2,0,1.8,0.8,1.8,2.4v3.4h-1V164c0-0.5-0.1-0.9-0.2-1.2s-0.4-0.4-0.8-0.4
		c-0.5,0-0.8,0.2-1,0.5s-0.2,0.8-0.2,1.4v3h-1v-3.2c0-1.1-0.3-1.7-1-1.7c-0.5,0-0.8,0.2-1,0.6c-0.2,0.4-0.2,0.9-0.2,1.4v2.9h-1v-5.6
		H153.2z"/>
	<path fill="#FFFFFF" d="M162.2,161.6v0.6h0c0.2-0.3,0.4-0.5,0.6-0.6c0.2-0.1,0.4-0.2,0.7-0.2c0.3,0,0.6,0.1,0.9,0.3l-0.5,0.9
		c-0.1-0.1-0.2-0.2-0.3-0.2c-0.1,0-0.2-0.1-0.3-0.1c-0.5,0-0.8,0.2-0.9,0.6c-0.1,0.4-0.2,0.9-0.2,1.5v2.8h-1v-5.6H162.2z"/>
	<path fill="#FFFFFF" d="M169.4,162.1v1.3h0c-0.5-0.6-1.1-0.9-1.8-0.9c-0.4,0-0.7,0.1-1,0.3s-0.5,0.4-0.7,0.8
		c-0.2,0.3-0.3,0.7-0.3,1s0.1,0.7,0.2,1c0.2,0.3,0.4,0.6,0.7,0.8c0.3,0.2,0.6,0.3,1,0.3c0.7,0,1.3-0.3,1.8-1h0v1.3
		c-0.6,0.4-1.2,0.6-1.8,0.6c-0.6,0-1.1-0.1-1.5-0.4c-0.5-0.3-0.8-0.6-1.1-1.1s-0.4-1-0.4-1.5c0-0.5,0.1-1,0.4-1.5s0.6-0.8,1.1-1.1
		s1-0.4,1.5-0.4C168.3,161.5,168.9,161.7,169.4,162.1z"/>
	<path fill="#FFFFFF" d="M172.2,157.4v9.9h-1v-9.9H172.2z"/>
	<path fill="#FFFFFF" d="M176.7,167.4c-0.5,0-1-0.1-1.5-0.4s-0.8-0.6-1.1-1.1c-0.3-0.5-0.4-1-0.4-1.5c0-0.5,0.1-1,0.4-1.5
		s0.6-0.8,1.1-1.1c0.5-0.3,1-0.4,1.5-0.4c0.4,0,0.8,0.1,1.2,0.2c0.4,0.2,0.7,0.4,0.9,0.6s0.5,0.6,0.6,1c0.2,0.4,0.2,0.7,0.2,1.2
		c0,0.5-0.1,1-0.4,1.5c-0.3,0.5-0.6,0.8-1.1,1.1S177.3,167.4,176.7,167.4z M176.7,162.4c-0.4,0-0.7,0.1-1,0.3
		c-0.3,0.2-0.5,0.4-0.7,0.8s-0.3,0.7-0.3,1c0,0.4,0.1,0.7,0.3,1s0.4,0.6,0.7,0.8s0.7,0.3,1,0.3c0.4,0,0.7-0.1,1-0.3s0.5-0.4,0.7-0.8
		c0.2-0.3,0.3-0.7,0.3-1c0-0.4-0.1-0.7-0.3-1s-0.4-0.6-0.7-0.8C177.4,162.5,177.1,162.4,176.7,162.4z"/>
	<path fill="#FFFFFF" d="M182.1,161.6v3.1c0,0.4,0,0.7,0.1,0.9s0.2,0.4,0.4,0.6c0.2,0.2,0.5,0.2,0.8,0.2c0.4,0,0.6-0.1,0.8-0.2
		c0.2-0.2,0.3-0.4,0.4-0.6s0.1-0.6,0.1-0.9v-3.1h1v3.3c0,1.7-0.7,2.5-2.2,2.5c-1.5,0-2.2-0.8-2.2-2.5v-3.3H182.1z"/>
	<path fill="#FFFFFF" d="M191.4,167.3v-0.8h0c-0.5,0.6-1.1,0.9-1.9,0.9c-0.4,0-0.8-0.1-1.1-0.2c-0.3-0.2-0.6-0.4-0.9-0.7
		c-0.2-0.3-0.4-0.6-0.5-0.9c-0.1-0.4-0.2-0.7-0.2-1.1c0-0.5,0.1-1,0.3-1.5c0.2-0.5,0.5-0.8,0.9-1.1c0.4-0.3,0.9-0.4,1.4-0.4
		c0.4,0,0.7,0.1,1.1,0.3c0.3,0.2,0.6,0.4,0.9,0.7h0v-5.1h1v9.9H191.4z M189.6,162.4c-0.4,0-0.7,0.1-1,0.3c-0.3,0.2-0.5,0.4-0.7,0.7
		s-0.2,0.6-0.2,1c0,0.4,0.1,0.7,0.2,1.1s0.4,0.6,0.6,0.8s0.6,0.3,1,0.3c0.6,0,1.1-0.2,1.4-0.6c0.3-0.4,0.5-0.9,0.5-1.5
		c0-0.4-0.1-0.7-0.2-1s-0.4-0.6-0.7-0.7C190.3,162.5,190,162.4,189.6,162.4z"/>
	<path fill="#FFFFFF" d="M195.2,166.1c0.2,0,0.3,0.1,0.5,0.2s0.2,0.3,0.2,0.5c0,0.2-0.1,0.4-0.2,0.5s-0.3,0.2-0.5,0.2
		c-0.2,0-0.3-0.1-0.5-0.2s-0.2-0.3-0.2-0.5c0-0.2,0.1-0.3,0.2-0.5S195,166.1,195.2,166.1z"/>
	<path fill="#FFFFFF" d="M199.2,161.6v0.7h0c0.4-0.6,0.9-0.8,1.6-0.8c0.5,0,0.9,0.1,1.2,0.3c0.3,0.2,0.5,0.5,0.6,0.9
		s0.2,0.8,0.2,1.3v3.3h-1v-3.2c0-0.6-0.1-1-0.2-1.3s-0.5-0.4-1-0.4c-0.6,0-1,0.2-1.1,0.6c-0.2,0.4-0.3,0.9-0.3,1.6v2.7h-1v-5.6
		H199.2z"/>
	<path fill="#FFFFFF" d="M209.6,164.7h-4.4c0,0.3,0.1,0.7,0.2,0.9s0.4,0.5,0.7,0.7s0.6,0.3,1,0.3c0.7,0,1.3-0.4,1.7-1.2l0.8,0.5
		c-0.3,0.5-0.6,0.9-1.1,1.2c-0.4,0.3-1,0.4-1.5,0.4c-0.5,0-1-0.1-1.4-0.4c-0.4-0.3-0.7-0.6-1-1s-0.3-0.9-0.3-1.5
		c0-0.6,0.1-1.1,0.3-1.5c0.2-0.5,0.5-0.8,0.9-1.1c0.4-0.3,0.9-0.4,1.5-0.4c0.6,0,1,0.1,1.4,0.4s0.7,0.7,0.9,1.1
		C209.5,163.5,209.6,164.1,209.6,164.7z M205.2,163.9h3.4c0-0.3-0.1-0.5-0.3-0.7s-0.4-0.4-0.6-0.5s-0.5-0.2-0.8-0.2
		c-0.4,0-0.8,0.1-1.1,0.4S205.3,163.4,205.2,163.9z"/>
	<path fill="#FFFFFF" d="M211.7,162.5v4.8h-1v-4.8h-0.6v-0.9h0.6v-2h1v2h1v0.9H211.7z"/>
</g>
</svg>
