<?xml version="1.0" encoding="utf-8"?>
<!-- Generator: Adobe Illustrator 18.1.1, SVG Export Plug-In . SVG Version: 6.00 Build 0)  -->
<svg version="1.1" id="Layer_1" xmlns="http://www.w3.org/2000/svg" xmlns:xlink="http://www.w3.org/1999/xlink" x="0px" y="0px"
	 viewBox="0 0 298.1 119.7" enable-background="new 0 0 298.1 119.7" xml:space="preserve">
<rect x="0.1" y="0.1" fill="#8E9090" stroke="#8E9090" stroke-width="0.25" width="297.9" height="119.6"/>
<g>
	<path fill="#FFFFFF" d="M75,28.9l3.2-16.5l5.3,11.9L89,12.3l2.9,16.5h-2.4L88,19.6l-4.5,10l-4.4-10l-1.6,9.3H75z"/>
	<path fill="#FFFFFF" d="M110.3,21.2c0,4.5-3.4,8-8,8c-4.6,0-8-3.5-8-8c0-4.5,3.4-8,8-8S110.3,16.7,110.3,21.2z M107.9,21.2
		c0-3.4-2.3-5.8-5.5-5.8c-3.3,0-5.5,2.4-5.5,5.8c0,3.4,2.3,5.8,5.5,5.8C105.6,27,107.9,24.6,107.9,21.2z"/>
	<path fill="#FFFFFF" d="M115.5,19.5h6.6v-6h2.4v15.4h-2.4v-7.2h-6.6v7.2h-2.4V13.5h2.4V19.5z"/>
	<path fill="#FFFFFF" d="M138.4,18.5l-10.4,11V13.5h2.4v10.4l10.4-11v16.1h-2.4V18.5z"/>
	<path fill="#FFFFFF" d="M148.6,15.7v13.2h-2.4V15.7h-3.5v-2.2h9.4v2.2H148.6z"/>
	<path fill="#FFFFFF" d="M169,21.2c0,4.5-3.4,8-8,8c-4.6,0-8-3.5-8-8c0-4.5,3.4-8,8-8S169,16.7,169,21.2z M166.5,21.2
		c0-3.4-2.3-5.8-5.5-5.8s-5.5,2.4-5.5,5.8c0,3.4,2.3,5.8,5.5,5.8S166.5,24.6,166.5,21.2z"/>
	<path fill="#FFFFFF" d="M175.2,13.5c1,0,2.2,0.1,3.4,0.8c1.5,1,1.9,2.6,1.9,3.7c0,1.6-0.7,2.7-1.5,3.4c-1.2,1-2.6,1.2-3.8,1.2h-1
		v6.2h-2.4V13.5H175.2z M174.2,20.4h1c1,0,2.9-0.2,2.9-2.4c0-2.2-2.1-2.4-2.9-2.4h-1V20.4z"/>
	<path fill="#FFFFFF" d="M193.1,18.5l-10.4,11V13.5h2.4v10.4l10.4-11v16.1h-2.4V18.5z"/>
	<path fill="#FFFFFF" d="M201.4,19.5h6.6v-6h2.4v15.4H208v-7.2h-6.6v7.2H199V13.5h2.4V19.5z"/>
	<path fill="#FFFFFF" d="M221.6,15.7h-5.3v13.2h-2.4V13.5h7.7V15.7z"/>
	<path fill="#FFFFFF" d="M34.8,52.3h-4.6L29,54.9h-1.8l5.4-11.4l5.1,11.4h-1.8L34.8,52.3z M34.1,50.7l-1.6-3.6l-1.7,3.6H34.1z"/>
	<path fill="#FFFFFF" d="M40.6,48.3h4.6v-4.2h1.7v10.8h-1.7v-5h-4.6v5H39V44.1h1.7V48.3z"/>
	<path fill="#FFFFFF" d="M52.4,45.6v9.2h-1.7v-9.2h-2.5v-1.5h6.6v1.5H52.4z"/>
	<path fill="#FFFFFF" d="M63.5,47.6l-7.3,7.7V44.1h1.7v7.3l7.3-7.7v11.2h-1.7V47.6z"/>
	<path fill="#FFFFFF" d="M67.6,44.1h5.4v1.5h-3.7v2.8h1c0.8,0,1.9,0.1,2.7,0.9c0.6,0.5,1,1.4,1,2.4c0,0.8-0.3,1.9-1.3,2.6
		c-0.8,0.5-1.7,0.6-2.4,0.6h-2.7V44.1z M69.3,53.3h1c0.4,0,2.1,0,2.1-1.6c0-0.5-0.2-1.7-2.1-1.7h-1V53.3z"/>
	<path fill="#FFFFFF" d="M83.3,47.6l-7.3,7.7V44.1h1.7v7.3l7.3-7.7v11.2h-1.7V47.6z"/>
	<path fill="#FFFFFF" d="M98.2,49.5c0,3.1-2.4,5.6-5.6,5.6c-3.2,0-5.6-2.4-5.6-5.6c0-3.2,2.4-5.6,5.6-5.6
		C95.8,43.9,98.2,46.3,98.2,49.5z M96.4,49.5c0-2.4-1.6-4.1-3.9-4.1c-2.3,0-3.9,1.7-3.9,4.1c0,2.4,1.6,4,3.9,4
		C94.8,53.5,96.4,51.9,96.4,49.5z"/>
	<path fill="#FFFFFF" d="M103.2,45.6v9.2h-1.7v-9.2h-2.5v-1.5h6.6v1.5H103.2z"/>
	<path fill="#FFFFFF" d="M114.3,47.6l-7.3,7.7V44.1h1.7v7.3l7.3-7.7v11.2h-1.7V47.6z"/>
	<path fill="#FFFFFF" d="M120.1,48.4l4.2-4.3h2.2l-4.9,4.9l4.9,5.9h-2.2l-4.2-5.2v5.2h-1.7V44.1h1.7V48.4z"/>
	<path fill="#FFFFFF" d="M138.1,49.5c0,3.1-2.4,5.6-5.6,5.6c-3.2,0-5.6-2.4-5.6-5.6c0-3.2,2.4-5.6,5.6-5.6S138.1,46.3,138.1,49.5z
		 M136.4,49.5c0-2.4-1.6-4.1-3.9-4.1c-2.3,0-3.9,1.7-3.9,4.1c0,2.4,1.6,4,3.9,4C134.8,53.5,136.4,51.9,136.4,49.5z"/>
	<path fill="#FFFFFF" d="M142.4,44.1c0.7,0,1.5,0,2.4,0.6c1.1,0.7,1.3,1.8,1.3,2.6c0,1.1-0.5,1.9-1,2.4c-0.8,0.7-1.8,0.8-2.6,0.8
		h-0.7v4.4h-1.7V44.1H142.4z M141.7,49h0.7c0.7,0,2-0.2,2-1.7c0-1.6-1.5-1.6-2-1.6h-0.7V49z"/>
	<path fill="#FFFFFF" d="M153.7,45.6h-4.3v2.6h4.2v1.5h-4.2v3.6h4.3v1.5h-5.9V44.1h5.9V45.6z"/>
	<path fill="#FFFFFF" d="M155.7,45.5c0.9-1.1,1.9-1.6,3.3-1.6c1.1,0,1.9,0.4,2.4,0.8c0.7,0.6,0.9,1.3,0.9,2c0,1.3-0.7,1.9-1.3,2.3
		c1.4,0.4,2,1.5,2,2.7c0,1.1-0.4,2-1.4,2.7c-0.7,0.5-1.6,0.7-2.5,0.7c-2,0-3.3-1-4.1-2.6l1.4-0.8c0.7,1.7,2.2,1.8,2.8,1.8
		c0.4,0,1-0.1,1.4-0.4c0.6-0.4,0.8-1,0.8-1.4c0-1.7-1.6-1.8-2.5-1.8h-1v-1.5h1c1.1,0,1.9-0.6,1.9-1.6c0-0.4-0.1-0.7-0.4-0.9
		c-0.4-0.4-0.9-0.4-1.3-0.4c-0.6,0-1.5,0.1-2.2,1.1L155.7,45.5z"/>
	<path fill="#FFFFFF" d="M172.1,47.6l-7.3,7.7V44.1h1.7v7.3l7.3-7.7v11.2h-1.7V47.6z"/>
	<path fill="#FFFFFF" d="M184.3,46.6c-1.1-1.1-2.3-1.2-2.9-1.2c-2.3,0-3.9,1.7-3.9,4.1c0,2.3,1.6,4,3.9,4c0.5,0,1.7-0.1,2.9-1.2v2
		c-0.3,0.2-1.3,0.8-3,0.8c-0.9,0-2.4-0.2-3.8-1.5c-1-1-1.7-2.3-1.7-4.1c0-1.4,0.4-3,1.7-4.2c1.1-1.1,2.4-1.4,3.9-1.4
		c1.4,0,2.2,0.4,2.9,0.8V46.6z"/>
	<path fill="#FFFFFF" d="M189.2,45.6v9.2h-1.7v-9.2h-2.5v-1.5h6.6v1.5H189.2z"/>
	<path fill="#FFFFFF" d="M199,45.6h-4.3v2.6h4.2v1.5h-4.2v3.6h4.3v1.5h-5.9V44.1h5.9V45.6z"/>
	<path fill="#FFFFFF" d="M202.7,48.3h4.6v-4.2h1.7v10.8h-1.7v-5h-4.6v5h-1.7V44.1h1.7V48.3z"/>
	<path fill="#FFFFFF" d="M214.5,45.6v9.2h-1.7v-9.2h-2.5v-1.5h6.6v1.5H214.5z"/>
	<path fill="#FFFFFF" d="M220,48.3h4.6v-4.2h1.7v10.8h-1.7v-5H220v5h-1.7V44.1h1.7V48.3z"/>
	<path fill="#FFFFFF" d="M239.4,49.5c0,3.1-2.4,5.6-5.6,5.6c-3.2,0-5.6-2.4-5.6-5.6c0-3.2,2.4-5.6,5.6-5.6S239.4,46.3,239.4,49.5z
		 M237.7,49.5c0-2.4-1.6-4.1-3.9-4.1c-2.3,0-3.9,1.7-3.9,4.1c0,2.4,1.6,4,3.9,4C236.1,53.5,237.7,51.9,237.7,49.5z"/>
	<path fill="#FFFFFF" d="M249.4,46.6c-1.1-1.1-2.3-1.2-2.9-1.2c-2.3,0-3.9,1.7-3.9,4.1c0,2.3,1.6,4,3.9,4c0.5,0,1.7-0.1,2.9-1.2v2
		c-0.3,0.2-1.3,0.8-3,0.8c-0.9,0-2.4-0.2-3.8-1.5c-1-1-1.7-2.3-1.7-4.1c0-1.4,0.4-3,1.7-4.2c1.1-1.1,2.4-1.4,3.9-1.4
		c1.4,0,2.2,0.4,2.9,0.8V46.6z"/>
	<path fill="#FFFFFF" d="M254.4,45.6v9.2h-1.7v-9.2h-2.5v-1.5h6.6v1.5H254.4z"/>
	<path fill="#FFFFFF" d="M265.5,47.6l-7.3,7.7V44.1h1.7v7.3l7.3-7.7v11.2h-1.7V47.6z"/>
	<path fill="#FFFFFF" d="M24.8,72.6c-1.1-1.1-2.3-1.2-2.9-1.2c-2.3,0-3.9,1.7-3.9,4.1c0,2.3,1.6,4,3.9,4c0.5,0,1.7-0.1,2.9-1.2v2
		c-0.3,0.2-1.3,0.8-3,0.8c-0.9,0-2.4-0.2-3.8-1.5c-1-1-1.7-2.3-1.7-4.1c0-1.4,0.4-3,1.7-4.2c1.1-1.1,2.4-1.4,3.9-1.4
		c1.4,0,2.2,0.4,2.9,0.8V72.6z"/>
	<path fill="#FFFFFF" d="M39.1,73.6l-7.3,7.7V70.1h1.7v7.3l7.3-7.7v11.2h-1.7V73.6z"/>
	<path fill="#FFFFFF" d="M51.2,72.6c-1.1-1.1-2.3-1.2-2.9-1.2c-2.3,0-3.9,1.7-3.9,4.1c0,2.3,1.6,4,3.9,4c0.5,0,1.7-0.1,2.9-1.2v2
		c-0.3,0.2-1.3,0.8-3,0.8c-0.9,0-2.4-0.2-3.8-1.5c-1-1-1.7-2.3-1.7-4.1c0-1.4,0.4-3,1.7-4.2c1.1-1.1,2.4-1.4,3.9-1.4
		c1.4,0,2.2,0.4,2.9,0.8V72.6z"/>
	<path fill="#FFFFFF" d="M61.1,70.1v10.8h-1.7v-9.2h-4.6v9.2h-1.7V70.1H61.1z"/>
	<path fill="#FFFFFF" d="M74.3,75.5c0,3.1-2.4,5.6-5.6,5.6c-3.2,0-5.6-2.4-5.6-5.6c0-3.2,2.4-5.6,5.6-5.6S74.3,72.3,74.3,75.5z
		 M72.6,75.5c0-2.4-1.6-4.1-3.9-4.1c-2.3,0-3.9,1.7-3.9,4.1c0,2.4,1.6,4,3.9,4C71,79.5,72.6,77.9,72.6,75.5z"/>
	<path fill="#FFFFFF" d="M84.2,70.1v10.8h-1.7v-9.2H79V77c0,1.2-0.1,2.5-1.1,3.3c-0.4,0.3-1,0.6-1.9,0.6c-0.3,0-0.6,0-0.8-0.1v-1.5
		c0.1,0,0.3,0.1,0.5,0.1c0.4,0,0.8-0.2,1-0.4c0.5-0.5,0.5-1.7,0.5-2.6v-6.4H84.2z"/>
	<path fill="#FFFFFF" d="M86.7,70.1h1.7v4.3h1.2c1.4,0,2.2,0.4,2.7,0.9c0.6,0.5,1,1.4,1,2.4c0,0.8-0.3,1.9-1.3,2.6
		c-0.8,0.5-1.7,0.6-2.4,0.6h-2.9V70.1z M88.4,79.3h1.1c0.4,0,2.1,0,2.1-1.6c0-0.5-0.2-1.7-2.1-1.7h-1.2V79.3z"/>
	<path fill="#FFFFFF" d="M94.9,71.5c0.9-1.1,1.9-1.6,3.3-1.6c1.1,0,1.9,0.4,2.4,0.8c0.7,0.6,0.9,1.3,0.9,2c0,1.3-0.7,1.9-1.3,2.3
		c1.4,0.4,2,1.5,2,2.7c0,1.1-0.4,2-1.4,2.7c-0.7,0.5-1.6,0.7-2.5,0.7c-2,0-3.3-1-4.1-2.6l1.4-0.8c0.7,1.7,2.2,1.8,2.8,1.8
		c0.4,0,1-0.1,1.4-0.4c0.6-0.4,0.8-1,0.8-1.4c0-1.7-1.6-1.8-2.5-1.8h-1v-1.5h1c1.1,0,1.9-0.6,1.9-1.6c0-0.4-0.1-0.7-0.4-0.9
		c-0.4-0.4-0.9-0.4-1.3-0.4c-0.6,0-1.5,0.1-2.2,1.1L94.9,71.5z"/>
	<path fill="#FFFFFF" d="M114.8,75.5c0,3.1-2.4,5.6-5.6,5.6c-3.2,0-5.6-2.4-5.6-5.6c0-3.2,2.4-5.6,5.6-5.6S114.8,72.3,114.8,75.5z
		 M113,75.5c0-2.4-1.6-4.1-3.9-4.1c-2.3,0-3.9,1.7-3.9,4.1c0,2.4,1.6,4,3.9,4C111.4,79.5,113,77.9,113,75.5z"/>
	<path fill="#FFFFFF" d="M118.4,70.1c0.9,0,1.8,0,2.7,0.6c0.6,0.4,1.2,1.2,1.2,2.4c0,0.6-0.1,1.3-1,2c1.4,0.4,1.9,1.6,1.9,2.6
		c0,0.6-0.2,1.7-1.1,2.4c-0.9,0.8-2.1,0.8-2.9,0.8h-2.5V70.1H118.4z M118.4,74.7h0.5c0.4,0,1.8,0,1.8-1.6c0-1.5-1.3-1.5-1.7-1.5
		h-0.6V74.7z M118.4,79.3h1c1.8,0,2.1-0.9,2.1-1.6c0-0.7-0.4-1.6-2.1-1.6h-1V79.3z"/>
	<path fill="#FFFFFF" d="M131.5,78.3h-4.6l-1.2,2.6H124l5.4-11.4l5.1,11.4h-1.8L131.5,78.3z M130.9,76.7l-1.6-3.6l-1.7,3.6H130.9z"
		/>
	<path fill="#FFFFFF" d="M137.4,74.3h4.6v-4.2h1.7v10.8H142v-5h-4.6v5h-1.7V70.1h1.7V74.3z"/>
	<path fill="#FFFFFF" d="M153.4,73.6l-7.3,7.7V70.1h1.7v7.3l7.3-7.7v11.2h-1.7V73.6z"/>
	<path fill="#FFFFFF" d="M163.4,71.6h-4.3v2.6h4.2v1.5h-4.2v3.6h4.3v1.5h-5.9V70.1h5.9V71.6z"/>
	<path fill="#FFFFFF" d="M165.2,80.9l2.3-11.6l3.7,8.3l3.8-8.3l2,11.6h-1.7l-1.1-6.5l-3.1,7l-3.1-7l-1.1,6.5H165.2z"/>
	<path fill="#FFFFFF" d="M192.2,70.1v10.8h-1.7v-9.2h-4.6v9.2h-1.7V70.1H192.2z"/>
	<path fill="#FFFFFF" d="M202.6,70.1v10.8H201v-9.2h-3.6V77c0,1.2-0.1,2.5-1.1,3.3c-0.4,0.3-1,0.6-1.9,0.6c-0.3,0-0.6,0-0.8-0.1
		v-1.5c0.1,0,0.3,0.1,0.5,0.1c0.4,0,0.8-0.2,1-0.4c0.5-0.5,0.5-1.7,0.5-2.6v-6.4H202.6z"/>
	<path fill="#FFFFFF" d="M211.5,78.3h-4.6l-1.2,2.6h-1.8l5.4-11.4l5.1,11.4h-1.8L211.5,78.3z M210.8,76.7l-1.6-3.6l-1.7,3.6H210.8z"
		/>
	<path fill="#FFFFFF" d="M218.3,71.6v9.2h-1.7v-9.2h-2.5v-1.5h6.6v1.5H218.3z"/>
	<path fill="#FFFFFF" d="M226.7,79.3h-0.3c-3.4,0-4.8-1.9-4.8-4.2c0-4.1,4.1-4.2,4.8-4.2h0.3v-1.3h1.7V71h0.3c0.7,0,4.8,0,4.8,4.2
		c0,2.3-1.4,4.2-4.8,4.2h-0.3v1.5h-1.7V79.3z M226.7,72.5h-0.3c-2.1,0-3.1,1.2-3.1,2.6c0,1.5,1,2.7,3.1,2.7h0.3V72.5z M228.4,77.8
		h0.3c2.1,0,3.1-1.2,3.1-2.7c0-1.5-1-2.6-3.1-2.6h-0.3V77.8z"/>
	<path fill="#FFFFFF" d="M246.1,75.5c0,3.1-2.4,5.6-5.6,5.6c-3.2,0-5.6-2.4-5.6-5.6c0-3.2,2.4-5.6,5.6-5.6S246.1,72.3,246.1,75.5z
		 M244.4,75.5c0-2.4-1.6-4.1-3.9-4.1c-2.3,0-3.9,1.7-3.9,4.1c0,2.4,1.6,4,3.9,4C242.8,79.5,244.4,77.9,244.4,75.5z"/>
	<path fill="#FFFFFF" d="M250.5,70.1c0.7,0,1.5,0,2.4,0.6c1.1,0.7,1.3,1.8,1.3,2.6c0,1.1-0.5,1.9-1,2.4c-0.8,0.7-1.8,0.8-2.6,0.8
		h-0.7v4.4h-1.7V70.1H250.5z M249.8,75h0.7c0.7,0,2-0.2,2-1.7c0-1.6-1.5-1.6-2-1.6h-0.7V75z"/>
	<path fill="#FFFFFF" d="M255.5,80.9l2.3-11.6l3.7,8.3l3.8-8.3l2,11.6h-1.7l-1.1-6.5l-3.1,7l-3.1-7l-1.1,6.5H255.5z"/>
	<path fill="#FFFFFF" d="M269.4,70.1h1.7v4.3h1.2c1.4,0,2.2,0.4,2.7,0.9c0.6,0.5,1,1.4,1,2.4c0,0.8-0.3,1.9-1.3,2.6
		c-0.8,0.5-1.7,0.6-2.4,0.6h-2.9V70.1z M271.1,79.3h1.1c0.4,0,2.1,0,2.1-1.6c0-0.5-0.2-1.7-2.1-1.7h-1.2V79.3z M278.8,70.1v10.8
		h-1.7V70.1H278.8z"/>
	<path fill="#FFFFFF" d="M110.2,103.1h-6.5l-1.7,3.7h-2.6l7.7-16.3l7.3,16.3h-2.6L110.2,103.1z M109.3,100.9l-2.3-5.2l-2.4,5.2
		H109.3z"/>
	<path fill="#FFFFFF" d="M115.8,106.9l3.2-16.5l5.3,11.9l5.4-11.9l2.9,16.5h-2.4l-1.5-9.3l-4.5,10l-4.4-10l-1.6,9.3H115.8z"/>
	<path fill="#FFFFFF" d="M138.5,91.5c1.3,0,2.8,0,4.1,0.9c1.5,1,1.8,2.6,1.8,3.6c0,2.2-1.4,3.8-3.4,4.3l4.8,6.6H143l-4.4-6.3h-0.4
		v6.3h-2.4V91.5H138.5z M138.2,98.5h0.7c0.6,0,3.2,0,3.2-2.5c0-2.2-2-2.4-3.1-2.4h-0.8V98.5z"/>
	<path fill="#FFFFFF" d="M155.2,100.5c-0.6-1-1.7-1.6-2.8-1.6c-1.4,0-2.9,1.1-2.9,3.1c0,1.7,1.1,3.1,2.9,3.1c1.7,0,2.6-1.3,2.8-1.7
		v2.9c-1,0.6-1.9,0.7-2.7,0.7c-1.7,0-3-0.5-4-1.5c-1-1-1.4-2.2-1.4-3.6c0-1.8,0.7-3.1,1.6-3.9c1-1,2.2-1.3,3.7-1.3
		c1.4,0,2.2,0.3,2.8,0.7V100.5z"/>
	<path fill="#FFFFFF" d="M159.5,90.7v16.2h-2.2V90.7H159.5z"/>
	<path fill="#FFFFFF" d="M172.1,102c0,3-2.2,5.1-5.2,5.1c-2.9,0-5.2-2.2-5.2-5.1c0-3,2.2-5.1,5.2-5.1C169.9,96.9,172.1,99,172.1,102
		z M169.8,102.1c0-2.3-1.5-3.1-2.9-3.1s-2.9,0.9-2.9,3.1c0,2.2,1.5,3.1,2.9,3.1C168.3,105.2,169.8,104.3,169.8,102.1z"/>
	<path fill="#FFFFFF" d="M176.6,97.1v5.6c0,0.6,0,1.2,0.4,1.8c0.3,0.4,0.8,0.7,1.5,0.7s1.2-0.3,1.5-0.7c0.4-0.5,0.4-1.2,0.4-1.8
		v-5.6h2.2v5.6c0,1.1-0.1,2.2-1,3.2c-1,1.1-2.5,1.2-3.2,1.2c-0.6,0-2-0.2-3.1-1.2c-1-1-1-2-1-3.2v-5.6H176.6z"/>
	<path fill="#FFFFFF" d="M192.6,90.7h2.2v16.2h-2.2v-1c-0.4,0.4-1.3,1.3-3,1.3c-2.9,0-4.6-2.5-4.6-5.2c0-2.6,1.7-5.1,4.7-5.1
		c0.7,0,2,0.2,2.9,1.4V90.7z M187.3,102.1c0,1.7,1,3.1,2.7,3.1c1.8,0,2.8-1.4,2.8-3.1c0-2.2-1.3-3.2-2.8-3.2
		C188.4,98.9,187.3,100.3,187.3,102.1z"/>
</g>
</svg>
